<svg xmlns="http://www.w3.org/2000/svg" viewBox="0 0 20 20" xml:space="preserve">
    <g transform="matrix(1 0 0 -1 453.004 1622.5)" style="display:inline;fill:#fff;enable-background:new">
        <path d="M-449.5 1609c-.676-.01-.676 1.01 0 1h3.068a3.965 3.965 0 0 1-.422-1zm10.354 0c-.095.355-.238.69-.422 1h3.06c.676.01.676-1.01 0-1zm-10.354 3c-.676-.01-.676 1.01 0 1h12.992c.676.01.676-1.01 0-1zm0 3c-.676-.01-.676 1.01 0 1h12.992c.676.01.676-1.01 0-1zm0 3c-.676-.01-.676 1.01 0 1h12.992c.676.01.676-1.01 0-1z" style="color:#000;font-style:normal;font-variant:normal;font-weight:400;font-stretch:normal;font-size:medium;line-height:normal;font-family:sans-serif;font-variant-ligatures:normal;font-variant-position:normal;font-variant-caps:normal;font-variant-numeric:normal;font-variant-alternates:normal;font-feature-settings:normal;text-indent:0;text-align:start;text-decoration:none;text-decoration-line:none;text-decoration-style:solid;text-decoration-color:#000;letter-spacing:normal;word-spacing:normal;text-transform:none;writing-mode:lr-tb;direction:ltr;text-orientation:mixed;dominant-baseline:auto;baseline-shift:baseline;text-anchor:start;white-space:normal;shape-padding:0;clip-rule:nonzero;display:inline;overflow:visible;visibility:visible;opacity:.7;isolation:auto;mix-blend-mode:normal;color-interpolation:sRGB;color-interpolation-filters:linearRGB;solid-color:#000;solid-opacity:1;vector-effect:none;fill:#fff;fill-opacity:1;fill-rule:nonzero;stroke:none;stroke-width:1;stroke-linecap:round;stroke-linejoin:miter;stroke-miterlimit:4;stroke-dasharray:none;stroke-dashoffset:0;stroke-opacity:1;color-rendering:auto;image-rendering:auto;shape-rendering:auto;text-rendering:auto;enable-background:new"/>
        <circle r="1.5" cy="1608" cx="-443" style="display:inline;opacity:1;vector-effect:none;fill:#fff;fill-opacity:1;stroke:#fff;stroke-width:1;stroke-linecap:round;stroke-linejoin:round;stroke-miterlimit:4;stroke-dasharray:none;stroke-dashoffset:0;stroke-opacity:1;marker:none;paint-order:fill markers stroke;enable-background:new"/>
    </g>
</svg>
