<svg xmlns="http://www.w3.org/2000/svg" viewBox="0 0 20 20" xml:space="preserve">
    <path style="color:#000;font-style:normal;font-variant:normal;font-weight:400;font-stretch:normal;font-size:medium;line-height:normal;font-family:sans-serif;font-variant-ligatures:normal;font-variant-position:normal;font-variant-caps:normal;font-variant-numeric:normal;font-variant-alternates:normal;font-feature-settings:normal;text-indent:0;text-align:start;text-decoration:none;text-decoration-line:none;text-decoration-style:solid;text-decoration-color:#000;letter-spacing:normal;word-spacing:normal;text-transform:none;writing-mode:lr-tb;direction:ltr;text-orientation:mixed;dominant-baseline:auto;baseline-shift:baseline;text-anchor:start;white-space:normal;shape-padding:0;clip-rule:nonzero;display:inline;overflow:visible;visibility:visible;isolation:auto;mix-blend-mode:normal;color-interpolation:sRGB;color-interpolation-filters:linearRGB;solid-color:#000;solid-opacity:1;vector-effect:none;fill:#fff;fill-opacity:1;fill-rule:nonzero;stroke:none;stroke-width:1px;stroke-linecap:round;stroke-linejoin:round;stroke-miterlimit:4;stroke-dasharray:none;stroke-dashoffset:0;stroke-opacity:1;marker:none;paint-order:fill markers stroke;color-rendering:auto;image-rendering:auto;shape-rendering:auto;text-rendering:auto;enable-background:accumulate" d="M3.529 2.99a.5.5 0 0 1 .336.165l2.648 2.842h1.008a2.5 2.5 0 0 0 1.978 1H6.296a.5.5 0 0 1-.367-.158l-2.795-3a.5.5 0 0 1 .344-.848.5.5 0 0 1 .05 0zm5.97 4.007a2.5 2.5 0 0 0 1.979-1h2.021a.5.5 0 0 1 .354.146l3 3a.5.5 0 1 1-.707.707l-2.854-2.853H11v3.832c.964 1.649 2.83 3.715 5.582 4.174a.5.5 0 1 1-.164.988c-2.426-.405-4.215-1.865-5.398-3.348a.5.5 0 0 1-.002 0h-.004c-1.005-.922-2.174-1-3.229-.238-1.054.762-1.783 2.347-1.783 4.098a.5.5 0 1 1-1 0c0-2.022.801-3.9 2.197-4.909a3.458 3.458 0 0 1 2.284-.668c.173.012.346.043.517.082a.5.5 0 0 1 0-.01v-4zm0-4c.823 0 1.5.677 1.5 1.5 0 .822-.677 1.5-1.5 1.5-.822 0-1.5-.678-1.5-1.5 0-.823.678-1.5 1.5-1.5z"/>
</svg>
