<svg xmlns="http://www.w3.org/2000/svg" id="Layer_1" x="0" y="0" enable-background="new 0 0 20 20" version="1.1" viewBox="0 0 20 20" xml:space="preserve"><style>.st0{opacity:0.99;enable-background:new ;} .st1{fill:#FFFFFF;}</style><g id="g12707" class="st0" transform="matrix(0.92857149,0,0,0.92857137,22.930148,44.290705)"><path id="path12703" d="M-14-44.5c-1,0-1.4,1.2-0.7,1.9l1.5,1.4h-7.2c-1.5,0-1.5,2.2,0,2.2h3.3c0,0,0,0,0,0l-5.1,4.6 c-1.1,1,0.4,2.6,1.4,1.6l2.5-2.3c0.1,3.2,2.7,5.8,5.9,5.8c3.3,0,5.9-2.7,5.9-5.9c0-1.7-0.7-3.2-1.9-4.3l-5-4.6 C-13.4-44.4-13.7-44.5-14-44.5L-14-44.5z M-12.3-39.1c2.1,0,3.8,1.7,3.8,3.8c0,2.1-1.7,3.8-3.8,3.8c-2.1,0-3.8-1.7-3.8-3.8 C-16.1-37.4-14.4-39.1-12.3-39.1z M-12.3-37.2c-1,0-1.9,0.8-1.9,1.8c0,0,0,0,0,0c0,1,0.8,1.8,1.9,1.8c1,0,1.9-0.8,1.9-1.8 C-10.5-36.3-11.3-37.2-12.3-37.2C-12.3-37.2-12.3-37.2-12.3-37.2z" class="st1"/></g></svg>