<svg xmlns="http://www.w3.org/2000/svg" viewBox="0 0 20 20" xml:space="preserve">
    <g style="display:inline;fill:#fff;enable-background:new">
        <path style="color:#000;font-style:normal;font-variant:normal;font-weight:400;font-stretch:normal;font-size:medium;line-height:normal;font-family:sans-serif;font-variant-ligatures:normal;font-variant-position:normal;font-variant-caps:normal;font-variant-numeric:normal;font-variant-alternates:normal;font-feature-settings:normal;text-indent:0;text-align:start;text-decoration:none;text-decoration-line:none;text-decoration-style:solid;text-decoration-color:#000;letter-spacing:normal;word-spacing:normal;text-transform:none;writing-mode:lr-tb;direction:ltr;text-orientation:mixed;dominant-baseline:auto;baseline-shift:baseline;text-anchor:start;white-space:normal;shape-padding:0;clip-rule:nonzero;display:inline;overflow:visible;visibility:visible;opacity:1;isolation:auto;mix-blend-mode:normal;color-interpolation:sRGB;color-interpolation-filters:linearRGB;solid-color:#000;solid-opacity:1;vector-effect:none;fill:#fff;fill-opacity:1;fill-rule:nonzero;stroke:none;stroke-width:1;stroke-linecap:round;stroke-linejoin:round;stroke-miterlimit:4;stroke-dasharray:none;stroke-dashoffset:0;stroke-opacity:1;marker:none;color-rendering:auto;image-rendering:auto;shape-rendering:auto;text-rendering:auto;enable-background:accumulate" d="M14 472c-.486 0-.979.16-1.363.502-.385.342-.637.873-.637 1.498v4H8.5a.5.5 0 0 0-.5.5v4c0 .333-.182.725-.479 1.021-.296.297-.688.479-1.021.479a.5.5 0 0 0-.5.5v2a.5.5 0 0 0 .5.5h3a.5.5 0 0 0 .354-.146L11 485.707v.793a.5.5 0 0 0 .5.5h5c1.778 0 3.5-1.464 3.5-3.5v-5a.5.5 0 0 0-.5-.5H16v-4c0-.625-.252-1.156-.637-1.498A2.044 2.044 0 0 0 14 472zm0 1c.264 0 .521.09.7.248.177.158.3.377.3.752v4h-.5c-.676-.01-.676 1.01 0 1H19v1H9v-1h3.5a.5.5 0 0 0 .5-.5V474c0-.375.123-.594.3-.752A1.07 1.07 0 0 1 14 473zm-5 8h10v2.5c0 1.464-1.278 2.5-2.5 2.5H16v-1.5a.5.5 0 1 0-1 0v1.5h-3v-1.5a.5.5 0 0 0-.854-.354L9.293 486H7v-1.223c.444-.12.906-.226 1.229-.548.453-.454.771-1.062.771-1.729z" transform="translate(-3 -469.5)"/>
    </g>
</svg>
