<svg xmlns="http://www.w3.org/2000/svg" id="Layer_1" x="0" y="0" version="1.1" viewBox="0 0 20 20" xml:space="preserve"><style>.st0{fill:#FFFFFF;}</style><path id="path13141" d="M8.5,4.3C6.4,4.9,5,6.9,5,9v2c0,1.8,1,3.4,2.5,4.3s3.5,0.9,5,0S15,12.8,15,11v-0.5	c0-0.3-0.2-0.5-0.5-0.5h-4c-0.3,0-0.5,0.2-0.5,0.5c0,0.3,0.2,0.5,0.5,0.5c0,0,0,0,0,0H14c0,1.4-0.8,2.7-2,3.5c-1.2,0.7-2.8,0.7-4,0	c-1.2-0.7-2-2-2-3.5V9c0-1.8,1.1-3.3,2.8-3.8c1.7-0.5,3.4,0,4.3,1.5c0.1,0.2,0.4,0.3,0.7,0.2s0.3-0.4,0.2-0.7l0,0	C12.8,4.3,10.6,3.6,8.5,4.3z" class="st0"/></svg>