<svg xmlns="http://www.w3.org/2000/svg" viewBox="0 0 20 20" xml:space="preserve">
    <g style="display:inline;enable-background:new">
        <path transform="translate(-24.004 -281.005)" d="M36.008 284v2h-1.5a.5.5 0 0 0-.5.5v1.498l-3.988.006c-.813.001-1.517.458-1.832 1.127-.316.669-.19 1.558.478 2.227l4 4c.413.413.416.775.272 1.087a.998.998 0 0 1-.918.56l-4.514.005c-.676-.008-.674 1.01.002 1l4.512-.006a2 2 0 0 0 1.824-1.137c.31-.67.19-1.556-.47-2.216l-4-4c-.427-.427-.427-.785-.282-1.092.145-.308.49-.554.928-.555l3.98-.006h.008v1.502a.5.5 0 0 0 .5.5h1.5v2h1v-2h1.5a.5.5 0 0 0 .5-.5V289h2v-1h-2v-1.5a.5.5 0 0 0-.5-.5h-1.5v-2zm-1.028 3h3.028v3H34.98z" style="color:#000;font-style:normal;font-variant:normal;font-weight:400;font-stretch:normal;font-size:medium;line-height:normal;font-family:sans-serif;font-variant-ligatures:normal;font-variant-position:normal;font-variant-caps:normal;font-variant-numeric:normal;font-variant-alternates:normal;font-feature-settings:normal;text-indent:0;text-align:start;text-decoration:none;text-decoration-line:none;text-decoration-style:solid;text-decoration-color:#000;letter-spacing:normal;word-spacing:normal;text-transform:none;writing-mode:lr-tb;direction:ltr;text-orientation:mixed;dominant-baseline:auto;baseline-shift:baseline;text-anchor:start;white-space:normal;shape-padding:0;clip-rule:nonzero;display:inline;overflow:visible;visibility:visible;opacity:1;isolation:auto;mix-blend-mode:normal;color-interpolation:sRGB;color-interpolation-filters:linearRGB;solid-color:#000;solid-opacity:1;vector-effect:none;fill:#fff;fill-opacity:1;fill-rule:nonzero;stroke:none;stroke-width:1;stroke-linecap:round;stroke-linejoin:round;stroke-miterlimit:4;stroke-dasharray:none;stroke-dashoffset:7.4;stroke-opacity:1;color-rendering:auto;image-rendering:auto;shape-rendering:auto;text-rendering:auto;enable-background:new"/>
    </g>
</svg>
