<svg xmlns="http://www.w3.org/2000/svg" viewBox="0 0 20 20" xml:space="preserve">
    <g style="display:inline;fill:#fff;enable-background:new">
        <g style="opacity:1;fill:#fff">
            <path style="color:#000;font-style:normal;font-variant:normal;font-weight:400;font-stretch:normal;font-size:medium;line-height:normal;font-family:sans-serif;font-variant-ligatures:normal;font-variant-position:normal;font-variant-caps:normal;font-variant-numeric:normal;font-variant-alternates:normal;font-feature-settings:normal;text-indent:0;text-align:start;text-decoration:none;text-decoration-line:none;text-decoration-style:solid;text-decoration-color:#000;letter-spacing:normal;word-spacing:normal;text-transform:none;writing-mode:lr-tb;direction:ltr;text-orientation:mixed;dominant-baseline:auto;baseline-shift:baseline;text-anchor:start;white-space:normal;shape-padding:0;clip-rule:nonzero;display:inline;overflow:visible;visibility:visible;opacity:1;isolation:auto;mix-blend-mode:normal;color-interpolation:sRGB;color-interpolation-filters:linearRGB;solid-color:#000;solid-opacity:1;vector-effect:none;fill:#fff;fill-opacity:1;fill-rule:nonzero;stroke:none;stroke-width:1;stroke-linecap:round;stroke-linejoin:round;stroke-miterlimit:4;stroke-dasharray:none;stroke-dashoffset:0;stroke-opacity:1;marker:none;color-rendering:auto;image-rendering:auto;shape-rendering:auto;text-rendering:auto;enable-background:accumulate" d="M415.998 494c-.468 0-.939.108-1.371.324l-6.838 3.395a.5.5 0 0 0-.027.013 5.504 5.504 0 0 0-2.666 5.72 5.502 5.502 0 0 0 6.152 4.495 5.505 5.505 0 0 0 4.027-2.703.5.5 0 0 0 .016-.03l3.385-6.84c.576-1.154.376-2.58-.547-3.503a3.002 3.002 0 0 0-2.13-.87zm.313 1.025c.414.063.808.25 1.11.553.607.606.748 1.576.362 2.348a.5.5 0 0 0-.002.002l-3.375 6.82a4.496 4.496 0 0 1-4.676 2.18 4.497 4.497 0 0 1-3.65-3.65 4.496 4.496 0 0 1 2.182-4.678l6.81-3.381a.5.5 0 0 0 .002 0 2.082 2.082 0 0 1 1.237-.194zm-.3.971c-.546 0-1 .454-1 1s.454 1 1 1c.547 0 1-.454 1-1s-.453-1-1-1zm-5.5 3a3.508 3.508 0 0 0-3.5 3.5c0 1.927 1.574 3.5 3.5 3.5 1.928 0 3.5-1.573 3.5-3.5s-1.572-3.5-3.5-3.5zm0 1.975a1.487 1.5 0 0 1 1.489 1.5 1.487 1.5 0 0 1-1.488 1.5 1.487 1.5 0 0 1-1.489-1.5 1.487 1.5 0 0 1 1.489-1.5z" transform="translate(-402.006 -490.998)"/>
        </g>
    </g>
</svg>
