<svg xmlns="http://www.w3.org/2000/svg" viewBox="0 0 20 20" xml:space="preserve">
    <path style="color:#000;font-style:normal;font-variant:normal;font-weight:400;font-stretch:normal;font-size:medium;line-height:normal;font-family:sans-serif;font-variant-ligatures:normal;font-variant-position:normal;font-variant-caps:normal;font-variant-numeric:normal;font-variant-alternates:normal;font-feature-settings:normal;text-indent:0;text-align:start;text-decoration:none;text-decoration-line:none;text-decoration-style:solid;text-decoration-color:#000;letter-spacing:normal;word-spacing:normal;text-transform:none;writing-mode:lr-tb;direction:ltr;text-orientation:mixed;dominant-baseline:auto;baseline-shift:baseline;text-anchor:start;white-space:normal;shape-padding:0;clip-rule:nonzero;display:inline;overflow:visible;visibility:visible;isolation:auto;mix-blend-mode:normal;color-interpolation:sRGB;color-interpolation-filters:linearRGB;solid-color:#000;solid-opacity:1;vector-effect:none;fill:#fff;fill-opacity:1;fill-rule:nonzero;stroke:none;stroke-width:1;stroke-linecap:round;stroke-linejoin:round;stroke-miterlimit:4;stroke-dasharray:none;stroke-dashoffset:0;stroke-opacity:1;marker:none;color-rendering:auto;image-rendering:auto;shape-rendering:auto;text-rendering:auto;enable-background:accumulate" d="M13.764 3.53c-.673-.013-1.339.3-1.88.878l-.238.238a.5.5 0 0 0-.084.11.5.5 0 0 0-.087.072L10.209 6.08c-.238.236-.44.484-.59.758a.5.5 0 1 0 .877.478c.089-.162.228-.338.416-.525l1.266-1.254a.5.5 0 0 0 .09-.115.5.5 0 0 0 .002-.002.5.5 0 0 0 .084-.067l.25-.25a.5.5 0 0 0 .011-.011c.394-.421.766-.571 1.13-.565.362.007.758.182 1.152.577.395.395.567.786.574 1.146.007.36-.14.734-.565 1.137l-.267.254a.5.5 0 0 0-.096.123.5.5 0 0 0-.086.068l-1.25 1.25a.5.5 0 0 0-.014.012 2.04 2.04 0 0 1-.48.39.5.5 0 1 0 .492.871c.257-.144.498-.339.72-.578l1.24-1.238a.5.5 0 0 0 .085-.111.5.5 0 0 0 .078-.063l.266-.252c.576-.547.89-1.211.877-1.883-.013-.67-.339-1.304-.867-1.834-.53-.53-1.168-.854-1.84-.867zM11.99 7.495a.5.5 0 0 0-.344.15l-4.013 4.016a.5.5 0 1 0 .707.707l4.014-4.016a.5.5 0 0 0-.364-.857zM7.041 9.68a.5.5 0 0 0-.228.047 2.9 2.9 0 0 0-.928.681l-1.239 1.238a.5.5 0 0 0-.054.065l-.186.176c-.576.547-.89 1.211-.877 1.883.013.67.339 1.305.867 1.834.53.53 1.168.854 1.84.867.673.012 1.339-.3 1.88-.88l.238-.237a.5.5 0 0 0 .06-.073.5.5 0 0 0 .004-.004l1.184-1.172c.28-.276.51-.57.662-.904a.5.5 0 1 0-.908-.416c-.086.186-.236.39-.458.61l-1.265 1.253a.5.5 0 0 0-.067.077.5.5 0 0 0-.004.006l-.166.166a.5.5 0 0 0-.011.011c-.394.421-.766.571-1.13.565-.362-.007-.758-.182-1.152-.576-.395-.396-.567-.787-.574-1.147-.007-.36.14-.734.565-1.137l.267-.254a.5.5 0 0 0 .074-.087l1.168-1.168a.5.5 0 0 0 .012-.012c.206-.22.41-.366.606-.453a.5.5 0 0 0-.18-.96z"/>
</svg>
