<svg xmlns="http://www.w3.org/2000/svg" viewBox="0 0 20 20" xml:space="preserve">
    <g style="display:inline;enable-background:new">
        <path style="display:inline;opacity:1;vector-effect:none;fill:#fff;fill-opacity:1;stroke:none;stroke-width:1;stroke-linecap:round;stroke-linejoin:round;stroke-miterlimit:4;stroke-dasharray:none;stroke-dashoffset:0;stroke-opacity:1;marker:none;paint-order:fill markers stroke;enable-background:new" d="M618 63h1v2h-1zm-2 0h1v2h-1zm-2 0h1v2h-1zm-.463-10c-.843 0-1.537.694-1.537 1.537v10.926c0 .843.694 1.537 1.537 1.537h8.926A1.547 1.547 0 0 0 624 65.463V54.537c0-.843-.694-1.537-1.537-1.537zm0 9h8.926c.306 0 .537.231.537.537v2.926a.526.526 0 0 1-.537.537h-8.926a.526.526 0 0 1-.537-.537v-2.926c0-.306.231-.537.537-.537z" transform="translate(-608 -50)"/>
    </g>
</svg>
