<svg xmlns="http://www.w3.org/2000/svg" viewBox="0 0 20 20" xml:space="preserve">
    <path d="M10 3c-3.86 0-7 3.14-7 7s3.14 7 7 7 7-3.14 7-7-3.14-7-7-7zm3.48 2.234a.5.5 0 0 1 .319.125 5.998 5.998 0 0 1 2.174 4.079.5.5 0 0 1-.493.554.5.5 0 0 1-.501-.46 4.998 4.998 0 0 0-1.813-3.4.5.5 0 0 1 .314-.898zm-1.01 1.784a.5.5 0 0 1 .358.154 4 4 0 0 1 1.129 2.24.5.5 0 0 1-.463.58.5.5 0 0 1-.527-.433 2.996 2.996 0 0 0-.846-1.68.5.5 0 0 1 .35-.861zM10 8c1.099 0 2 .901 2 2s-.901 2-2 2-2-.901-2-2 .901-2 2-2zM4.486 9.99a.5.5 0 0 1 .051 0 .5.5 0 0 1 .484.48 4.998 4.998 0 0 0 1.813 3.4.5.5 0 0 1-.31.892.5.5 0 0 1-.323-.12 5.998 5.998 0 0 1-2.174-4.077.5.5 0 0 1 .46-.575zm2.065.024a.5.5 0 0 1 .482.428c.095.636.39 1.225.846 1.68a.5.5 0 0 1-.348.859.5.5 0 0 1-.36-.152 4 4 0 0 1-1.128-2.24.5.5 0 0 1 .508-.575z" style="color:#000;font-style:normal;font-variant:normal;font-weight:400;font-stretch:normal;font-size:medium;line-height:normal;font-family:sans-serif;font-variant-ligatures:normal;font-variant-position:normal;font-variant-caps:normal;font-variant-numeric:normal;font-variant-alternates:normal;font-feature-settings:normal;text-indent:0;text-align:start;text-decoration:none;text-decoration-line:none;text-decoration-style:solid;text-decoration-color:#000;letter-spacing:normal;word-spacing:normal;text-transform:none;writing-mode:lr-tb;direction:ltr;text-orientation:mixed;dominant-baseline:auto;baseline-shift:baseline;text-anchor:start;white-space:normal;shape-padding:0;clip-rule:nonzero;display:inline;overflow:visible;visibility:visible;isolation:auto;mix-blend-mode:normal;color-interpolation:sRGB;color-interpolation-filters:linearRGB;solid-color:#000;solid-opacity:1;vector-effect:none;fill:#fff;fill-opacity:1;fill-rule:nonzero;stroke:none;stroke-width:1;stroke-linecap:round;stroke-linejoin:round;stroke-miterlimit:4;stroke-dasharray:none;stroke-dashoffset:0;stroke-opacity:1;marker:none;paint-order:fill markers stroke;color-rendering:auto;image-rendering:auto;shape-rendering:auto;text-rendering:auto;enable-background:accumulate"/>
</svg>
