<svg xmlns="http://www.w3.org/2000/svg" viewBox="0 0 20 20" xml:space="preserve">
    <g style="display:inline;fill:#fff;enable-background:new">
        <g style="fill:#fff">
            <path style="color:#000;font-style:normal;font-variant:normal;font-weight:400;font-stretch:normal;font-size:medium;line-height:normal;font-family:sans-serif;font-variant-ligatures:normal;font-variant-position:normal;font-variant-caps:normal;font-variant-numeric:normal;font-variant-alternates:normal;font-feature-settings:normal;text-indent:0;text-align:start;text-decoration:none;text-decoration-line:none;text-decoration-style:solid;text-decoration-color:#000;letter-spacing:normal;word-spacing:normal;text-transform:none;writing-mode:lr-tb;direction:ltr;text-orientation:mixed;dominant-baseline:auto;baseline-shift:baseline;text-anchor:start;white-space:normal;shape-padding:0;clip-rule:nonzero;display:inline;overflow:visible;visibility:visible;opacity:1;isolation:auto;mix-blend-mode:normal;color-interpolation:sRGB;color-interpolation-filters:linearRGB;solid-color:#000;solid-opacity:1;vector-effect:none;fill:#fff;fill-opacity:1;fill-rule:nonzero;stroke:none;stroke-width:1;stroke-linecap:round;stroke-linejoin:round;stroke-miterlimit:4;stroke-dasharray:none;stroke-dashoffset:0;stroke-opacity:1;marker:none;paint-order:fill markers stroke;color-rendering:auto;image-rendering:auto;shape-rendering:auto;text-rendering:auto;enable-background:accumulate" d="M259.492 578.992a.5.5 0 0 0-.492.508v11.92a.5.5 0 0 0 .113.404.5.5 0 0 0 .016.02.5.5 0 0 0 .017.017.5.5 0 0 0 .004.002.5.5 0 0 0 .034.032.5.5 0 0 0 .004.002.5.5 0 0 0 .394.103H271.5a.5.5 0 1 0 0-1H260v-11.5a.5.5 0 0 0-.508-.508zm1.95 3.086a.5.5 0 1 0 0 1h1a.5.5 0 1 0 0-1zm3.285.71a.5.5 0 0 0-.19.964l1 .416a.5.5 0 1 0 .385-.922l-1-.418a.5.5 0 0 0-.195-.04zm2.578 1.995a.5.5 0 0 0-.455.7l.418 1a.5.5 0 0 0 .923-.385l-.418-1a.5.5 0 0 0-.468-.315zm1.166 3.25a.5.5 0 0 0-.492.506v1a.5.5 0 1 0 1 0v-1a.5.5 0 0 0-.508-.506z" transform="translate(-255.5 -575.5)"/>
        </g>
    </g>
</svg>
