<svg xmlns="http://www.w3.org/2000/svg" viewBox="0 0 20 20" xml:space="preserve">
    <g style="display:inline;enable-background:new">
        <g style="display:inline;enable-background:new">
            <path style="color:#000;font-style:normal;font-variant:normal;font-weight:400;font-stretch:normal;font-size:medium;line-height:normal;font-family:sans-serif;font-variant-ligatures:normal;font-variant-position:normal;font-variant-caps:normal;font-variant-numeric:normal;font-variant-alternates:normal;font-feature-settings:normal;text-indent:0;text-align:start;text-decoration:none;text-decoration-line:none;text-decoration-style:solid;text-decoration-color:#000;letter-spacing:normal;word-spacing:normal;text-transform:none;writing-mode:lr-tb;direction:ltr;text-orientation:mixed;dominant-baseline:auto;baseline-shift:baseline;text-anchor:start;white-space:normal;shape-padding:0;clip-rule:nonzero;display:inline;overflow:visible;visibility:visible;opacity:1;isolation:auto;mix-blend-mode:normal;color-interpolation:sRGB;color-interpolation-filters:linearRGB;solid-color:#000;solid-opacity:1;vector-effect:none;fill:#fff;fill-opacity:1;fill-rule:nonzero;stroke:none;stroke-width:1.00157;stroke-linecap:round;stroke-linejoin:round;stroke-miterlimit:4;stroke-dasharray:none;stroke-dashoffset:0;stroke-opacity:1;marker:none;paint-order:fill markers stroke;color-rendering:auto;image-rendering:auto;shape-rendering:auto;text-rendering:auto;enable-background:new" d="M516.037 33c-1.12 0-2.037.917-2.037 2.037V36c-.04.706 1.04.706 1 0v-.963c0-.583.454-1.037 1.037-1.037h4.926c.583 0 1.037.454 1.037 1.037v5.059a1.54 1.54 0 0 0-1 1.441v1.926a.5.5 0 0 0 .5.5h.5V46h1v-2.037h.5a.5.5 0 0 0 .5-.5v-1.926a1.54 1.54 0 0 0-1-1.441v-5.059c0-1.12-.917-2.037-2.037-2.037z" transform="translate(-507 -30)"/>
        </g>
        <g style="display:inline;enable-background:new">
            <path transform="translate(-609 -71)" style="display:inline;opacity:1;vector-effect:none;fill:#fff;fill-opacity:1;stroke:none;stroke-width:1;stroke-linecap:round;stroke-linejoin:round;stroke-miterlimit:4;stroke-dasharray:none;stroke-dashoffset:0;stroke-opacity:1;marker:none;paint-order:fill markers stroke;enable-background:new" d="M616 85h1v1h-1zm-2 0h1v1h-1zm-.463-8c-.843 0-1.537.694-1.537 1.537v7.926c0 .843.694 1.537 1.537 1.537h5.926A1.547 1.547 0 0 0 621 86.463v-7.926c0-.843-.694-1.537-1.537-1.537zm0 7h5.926c.306 0 .537.231.537.537v1.926a.526.526 0 0 1-.537.537h-5.926a.526.526 0 0 1-.537-.537v-1.926c0-.306.231-.537.537-.537z"/>
        </g>
    </g>
</svg>
