<svg xmlns="http://www.w3.org/2000/svg" viewBox="0 0 20 20" xml:space="preserve">
    <g style="display:inline;enable-background:new">
        <path d="M411-65h1v3h-1zm-1 3h1v3h-1z" style="display:inline;opacity:1;vector-effect:none;fill:#fff;fill-opacity:1;stroke:none;stroke-width:1;stroke-linecap:round;stroke-linejoin:round;stroke-miterlimit:4;stroke-dasharray:none;stroke-dashoffset:0;stroke-opacity:1;marker:none;paint-order:fill markers stroke;enable-background:new" transform="translate(-401 67.998)"/>
        <path d="M408.5-53.446c0 1.08-.892 1.95-2 1.95s-2-.87-2-1.95v-2.05h4z" style="display:inline;opacity:1;vector-effect:none;fill:none;fill-opacity:1;stroke:#fff;stroke-width:1;stroke-linecap:butt;stroke-linejoin:round;stroke-miterlimit:4;stroke-dasharray:none;stroke-dashoffset:0;stroke-opacity:1;marker:none;paint-order:fill markers stroke;enable-background:new" transform="translate(-401 67.998)"/>
        <path d="M404.5-58.496h4v3h-4zm4-5h-4v3h4z" style="opacity:1;vector-effect:none;fill:#fff;fill-opacity:1;stroke:#fff;stroke-width:1;stroke-linecap:round;stroke-linejoin:round;stroke-miterlimit:4;stroke-dasharray:none;stroke-dashoffset:0;stroke-opacity:1;marker:none;paint-order:fill markers stroke" transform="translate(-401 67.998)"/>
        <path style="display:inline;opacity:1;vector-effect:none;fill:#fff;fill-opacity:1;stroke:none;stroke-width:1;stroke-linecap:round;stroke-linejoin:round;stroke-miterlimit:4;stroke-dasharray:none;stroke-dashoffset:0;stroke-opacity:1;marker:none;paint-order:fill markers stroke;enable-background:new" d="M414-65h1v3h-1zm-1 3h1v3h-1zm4-3h1v3h-1zm-1 3h1v3h-1z" transform="translate(-401 67.998)"/>
    </g>
</svg>
