<svg xmlns="http://www.w3.org/2000/svg" viewBox="0 0 20 20" xml:space="preserve">
    <path d="M3.492 2.996A.5.5 0 0 0 3 3.504v12.992c-.005.338.248.51.5.508L4 17v-1.996h2V17h8v-1.996h2V17h.5c.252 0 .505-.17.5-.508V3.504c.005-.338-.248-.51-.5-.508L16 3v2.004h-2V3H6v2.004H4V3zM4 6.004h2v2H4zm10 0h2v2h-2zM8.477 7.008c.1-.004.2.023.285.076l4 2.5a.5.5 0 0 1 0 .848l-4 2.5a.5.5 0 0 1-.766-.424v-5a.5.5 0 0 1 .48-.5zM4 9.004h2v2H4zm10 0h2v2h-2zm-10 3h2v1.992H4zm10 0h2v1.992h-2z" style="color:#000;font-style:normal;font-variant:normal;font-weight:400;font-stretch:normal;font-size:medium;line-height:normal;font-family:sans-serif;font-variant-ligatures:normal;font-variant-position:normal;font-variant-caps:normal;font-variant-numeric:normal;font-variant-alternates:normal;font-feature-settings:normal;text-indent:0;text-align:start;text-decoration:none;text-decoration-line:none;text-decoration-style:solid;text-decoration-color:#000;letter-spacing:normal;word-spacing:normal;text-transform:none;writing-mode:lr-tb;direction:ltr;text-orientation:mixed;dominant-baseline:auto;baseline-shift:baseline;text-anchor:start;white-space:normal;shape-padding:0;clip-rule:nonzero;display:inline;overflow:visible;visibility:visible;opacity:.99;isolation:auto;mix-blend-mode:normal;color-interpolation:sRGB;color-interpolation-filters:linearRGB;solid-color:#000;solid-opacity:1;vector-effect:none;fill:#fff;fill-opacity:1;fill-rule:nonzero;stroke:none;stroke-width:1;stroke-linecap:round;stroke-linejoin:round;stroke-miterlimit:4;stroke-dasharray:none;stroke-dashoffset:0;stroke-opacity:1;marker:none;paint-order:fill markers stroke;color-rendering:auto;image-rendering:auto;shape-rendering:auto;text-rendering:auto;enable-background:accumulate"/>
</svg>
