<svg xmlns="http://www.w3.org/2000/svg" viewBox="0 0 20 20" xml:space="preserve">
    <g style="display:inline;opacity:.99;fill:#fff;stroke-width:1.07692;enable-background:new">
        <path transform="matrix(1 0 0 1 -981.49 -101.995)" d="M992.676 105.264a1 1 0 0 0-.729-.274c-.895.04-1.29 1.146-.623 1.744l1.373 1.266H986c-1.361-.028-1.361 2.028 0 2h3.092l-.008.006-4.75 4.248c-.995.89.339 2.382 1.334 1.492l2.34-2.094c.082 2.956 2.518 5.348 5.492 5.348 3.026 0 5.498-2.474 5.498-5.5 0-1.566-.664-2.98-1.722-3.984zM993.5 110c1.945 0 3.5 1.555 3.5 3.5s-1.555 3.5-3.5 3.5a3.485 3.485 0 0 1-3.5-3.5c0-1.945 1.555-3.5 3.5-3.5z" style="color:#000;font-style:normal;font-variant:normal;font-weight:400;font-stretch:normal;font-size:medium;line-height:normal;font-family:sans-serif;font-variant-ligatures:normal;font-variant-position:normal;font-variant-caps:normal;font-variant-numeric:normal;font-variant-alternates:normal;font-feature-settings:normal;text-indent:0;text-align:start;text-decoration:none;text-decoration-line:none;text-decoration-style:solid;text-decoration-color:#000;letter-spacing:normal;word-spacing:normal;text-transform:none;writing-mode:lr-tb;direction:ltr;text-orientation:mixed;dominant-baseline:auto;baseline-shift:baseline;text-anchor:start;white-space:normal;shape-padding:0;clip-rule:nonzero;display:inline;overflow:visible;visibility:visible;opacity:1;isolation:auto;mix-blend-mode:normal;color-interpolation:sRGB;color-interpolation-filters:linearRGB;solid-color:#000;solid-opacity:1;vector-effect:none;fill:#fff;fill-opacity:1;fill-rule:nonzero;stroke:none;stroke-width:2;stroke-linecap:round;stroke-linejoin:round;stroke-miterlimit:4;stroke-dasharray:none;stroke-dashoffset:0;stroke-opacity:1;marker:none;paint-order:fill markers stroke;color-rendering:auto;image-rendering:auto;shape-rendering:auto;text-rendering:auto;enable-background:accumulate"/>
        <path d="M332 629.154a1.865 1.846 0 0 1-1.865 1.846 1.865 1.846 0 0 1-1.865-1.846 1.865 1.846 0 0 1 1.865-1.846 1.865 1.846 0 0 1 1.865 1.846z" style="opacity:1;vector-effect:none;fill:#fff;fill-opacity:1;stroke:none;stroke-width:2.15385;stroke-linecap:round;stroke-linejoin:round;stroke-miterlimit:4;stroke-dasharray:none;stroke-dashoffset:0;stroke-opacity:1;marker:none;paint-order:fill markers stroke" transform="translate(-294.562 -572.71) scale(.92857)"/>
    </g>
</svg>
