<svg xmlns="http://www.w3.org/2000/svg" viewBox="0 0 20 20" xml:space="preserve">
    <path style="color:#000;font-style:normal;font-variant:normal;font-weight:400;font-stretch:normal;font-size:medium;line-height:normal;font-family:sans-serif;font-variant-ligatures:normal;font-variant-position:normal;font-variant-caps:normal;font-variant-numeric:normal;font-variant-alternates:normal;font-feature-settings:normal;text-indent:0;text-align:start;text-decoration:none;text-decoration-line:none;text-decoration-style:solid;text-decoration-color:#000;letter-spacing:normal;word-spacing:normal;text-transform:none;writing-mode:lr-tb;direction:ltr;text-orientation:mixed;dominant-baseline:auto;baseline-shift:baseline;text-anchor:start;white-space:normal;shape-padding:0;clip-rule:nonzero;display:inline;overflow:visible;visibility:visible;isolation:auto;mix-blend-mode:normal;color-interpolation:sRGB;color-interpolation-filters:linearRGB;solid-color:#000;solid-opacity:1;vector-effect:none;fill:#fff;fill-opacity:1;fill-rule:nonzero;stroke:none;stroke-width:1;stroke-linecap:round;stroke-linejoin:round;stroke-miterlimit:4;stroke-dasharray:none;stroke-dashoffset:0;stroke-opacity:1;marker:none;paint-order:fill markers stroke;color-rendering:auto;image-rendering:auto;shape-rendering:auto;text-rendering:auto;enable-background:new" d="M16.494 2.996a.5.5 0 0 0-.492.508v3.793l-2.12-2.117a.5.5 0 0 0-.023-.025.015.015 0 0 0-.004-.004.5.5 0 0 0-.187-.121c-1.79-1.728-3.77-2.332-5.86-1.875-2.187.478-3.984 2.053-4.775 4.175a.5.5 0 1 0 .938.348 5.615 5.615 0 0 1 4.05-3.547c1.878-.41 3.46.03 5.123 1.723a.5.5 0 0 0 .002.002.5.5 0 0 0 .002.002.5.5 0 0 0 .034.031l2.113 2.115h-3.793a.5.5 0 1 0 0 1h5a.5.5 0 0 0 .5-.5v-5a.5.5 0 0 0-.508-.508zm-12.994 8a.5.5 0 0 0-.5.5v5a.5.5 0 1 0 1 0v-3.792l2.119 2.119a.5.5 0 0 0 .023.025l.004.002.002.002a.5.5 0 0 0 .186.121c1.79 1.728 3.77 2.332 5.86 1.875 2.187-.478 3.984-2.053 4.775-4.176a.5.5 0 1 0-.938-.35c-.674 1.81-2.199 3.145-4.05 3.55-1.879.41-3.46-.032-5.124-1.725a.5.5 0 0 0-.004-.004l-.033-.031-2.113-2.115H8.5a.5.5 0 1 0 0-1z"/>
</svg>
