<svg xmlns="http://www.w3.org/2000/svg" viewBox="0 0 20 20" xml:space="preserve">
    <g style="display:inline;fill:#fff;fill-opacity:1;enable-background:new">
        <path style="color:#000;font-style:normal;font-variant:normal;font-weight:400;font-stretch:normal;font-size:medium;line-height:normal;font-family:sans-serif;font-variant-ligatures:normal;font-variant-position:normal;font-variant-caps:normal;font-variant-numeric:normal;font-variant-alternates:normal;font-feature-settings:normal;text-indent:0;text-align:start;text-decoration:none;text-decoration-line:none;text-decoration-style:solid;text-decoration-color:#000;letter-spacing:normal;word-spacing:normal;text-transform:none;writing-mode:lr-tb;direction:ltr;text-orientation:mixed;dominant-baseline:auto;baseline-shift:baseline;text-anchor:start;white-space:normal;shape-padding:0;clip-rule:nonzero;display:inline;overflow:visible;visibility:visible;opacity:.7;isolation:auto;mix-blend-mode:normal;color-interpolation:sRGB;color-interpolation-filters:linearRGB;solid-color:#000;solid-opacity:1;vector-effect:none;fill:#fff;fill-opacity:1;fill-rule:nonzero;stroke:none;stroke-width:1px;stroke-linecap:butt;stroke-linejoin:round;stroke-miterlimit:4;stroke-dasharray:none;stroke-dashoffset:0;stroke-opacity:1;marker:none;paint-order:fill markers stroke;color-rendering:auto;image-rendering:auto;shape-rendering:auto;text-rendering:auto;enable-background:accumulate" d="M-33.5 1328a.5.5 0 0 0-.5.5v11a.5.5 0 0 0 .5.5h2.5v-3c0-1.645 1.355-3 3-3h2.586l-1.293-1.293a1 1 0 0 1 .727-1.717 1 1 0 0 1 .687.303l3 3a1 1 0 0 1 0 1.414l-3 3a1 1 0 1 1-1.414-1.414l1.293-1.293H-28c-.564 0-1 .436-1 1v3h8.5a.5.5 0 0 0 .5-.5v-9a.5.5 0 0 0-.5-.5H-29v-1.5a.5.5 0 0 0-.5-.5z" transform="translate(37 -1324)"/>
    </g>
</svg>
