<svg xmlns="http://www.w3.org/2000/svg" viewBox="0 0 20 20" xml:space="preserve">
    <path style="color:#000;font-style:normal;font-variant:normal;font-weight:400;font-stretch:normal;font-size:medium;line-height:normal;font-family:sans-serif;font-variant-ligatures:normal;font-variant-position:normal;font-variant-caps:normal;font-variant-numeric:normal;font-variant-alternates:normal;font-feature-settings:normal;text-indent:0;text-align:start;text-decoration:none;text-decoration-line:none;text-decoration-style:solid;text-decoration-color:#000;letter-spacing:normal;word-spacing:normal;text-transform:none;writing-mode:lr-tb;direction:ltr;text-orientation:mixed;dominant-baseline:auto;baseline-shift:baseline;text-anchor:start;white-space:normal;shape-padding:0;clip-rule:nonzero;display:inline;overflow:visible;visibility:visible;opacity:.95;isolation:auto;mix-blend-mode:normal;color-interpolation:sRGB;color-interpolation-filters:linearRGB;solid-color:#000;solid-opacity:1;vector-effect:none;fill:#fff;fill-opacity:1;fill-rule:nonzero;stroke:none;stroke-width:1.1;stroke-linecap:round;stroke-linejoin:miter;stroke-miterlimit:4;stroke-dasharray:none;stroke-dashoffset:0;stroke-opacity:1;color-rendering:auto;image-rendering:auto;shape-rendering:auto;text-rendering:auto;enable-background:new" d="M9.956 3.004a7.143 7.143 0 0 0-4.91 2.358c-2.943 3.304-2.533 8.31.05 11.445a.55.55 0 1 0 .85-.7c-2.252-2.732-2.615-7.164-.078-10.013 2.156-2.42 6.066-2.736 8.435-.431 1.938 1.885 2.206 5.184.268 7.144-1.518 1.536-4.124 1.73-5.623.111-1.099-1.186-1.218-3.21.035-4.285a2.262 2.262 0 0 1 1.502-.525c.524.019.981.224 1.291.68.145.213.237.582.201.867-.036.285-.127.445-.37.533a.55.55 0 1 0 .374 1.035c.657-.238 1.015-.852 1.088-1.43a2.372 2.372 0 0 0-.385-1.625c-.517-.76-1.347-1.128-2.16-1.158a3.308 3.308 0 0 0-2.258.79c-1.781 1.526-1.618 4.254-.125 5.867 1.956 2.111 5.284 1.865 7.213-.086 2.401-2.429 2.076-6.412-.283-8.707-1.418-1.38-3.284-1.977-5.115-1.87z"/>
</svg>
