<svg xmlns="http://www.w3.org/2000/svg" viewBox="0 0 20 20" xml:space="preserve">
    <g style="display:inline;fill:#fff;enable-background:new">
        <path style="color:#000;font-style:normal;font-variant:normal;font-weight:400;font-stretch:normal;font-size:medium;line-height:normal;font-family:sans-serif;font-variant-ligatures:normal;font-variant-position:normal;font-variant-caps:normal;font-variant-numeric:normal;font-variant-alternates:normal;font-feature-settings:normal;text-indent:0;text-align:start;text-decoration:none;text-decoration-line:none;text-decoration-style:solid;text-decoration-color:#000;letter-spacing:normal;word-spacing:normal;text-transform:none;writing-mode:lr-tb;direction:ltr;text-orientation:mixed;dominant-baseline:auto;baseline-shift:baseline;text-anchor:start;white-space:normal;shape-padding:0;clip-rule:nonzero;display:inline;overflow:visible;visibility:visible;opacity:.85;isolation:auto;mix-blend-mode:normal;color-interpolation:sRGB;color-interpolation-filters:linearRGB;solid-color:#000;solid-opacity:1;vector-effect:none;fill:#fff;fill-opacity:1;fill-rule:nonzero;stroke:none;stroke-width:1;stroke-linecap:round;stroke-linejoin:round;stroke-miterlimit:4;stroke-dasharray:none;stroke-dashoffset:0;stroke-opacity:1;marker:none;color-rendering:auto;image-rendering:auto;shape-rendering:auto;text-rendering:auto;enable-background:accumulate" d="M229.49 351.996a.5.5 0 0 0-.344.15l-.746.747-1.677-.84a.5.5 0 0 0-.623.146l-.6.801h-1a.5.5 0 0 0-.354.146l-1 1a.5.5 0 0 0-.146.354v2.793l-1.854 1.853a.5.5 0 0 0 0 .708l1 1a.5.5 0 1 0 .708-.708l-.647-.646 1.647-1.646a.5.5 0 0 0 .146-.354v-2.793l.707-.707h1.043a.5.5 0 0 0 .4-.2l.5-.665 1.627.812a.5.5 0 0 0 .577-.093l1-1a.5.5 0 0 0-.364-.858z" transform="translate(-213.004 -344.004)"/>
        <path style="color:#000;font-style:normal;font-variant:normal;font-weight:400;font-stretch:normal;font-size:medium;line-height:normal;font-family:sans-serif;font-variant-ligatures:normal;font-variant-position:normal;font-variant-caps:normal;font-variant-numeric:normal;font-variant-alternates:normal;font-feature-settings:normal;text-indent:0;text-align:start;text-decoration:none;text-decoration-line:none;text-decoration-style:solid;text-decoration-color:#000;letter-spacing:normal;word-spacing:normal;text-transform:none;writing-mode:lr-tb;direction:ltr;text-orientation:mixed;dominant-baseline:auto;baseline-shift:baseline;text-anchor:start;white-space:normal;shape-padding:0;clip-rule:nonzero;display:inline;overflow:visible;visibility:visible;opacity:.7;isolation:auto;mix-blend-mode:normal;color-interpolation:sRGB;color-interpolation-filters:linearRGB;solid-color:#000;solid-opacity:1;vector-effect:none;fill:#fff;fill-opacity:1;fill-rule:nonzero;stroke:none;stroke-width:1;stroke-linecap:round;stroke-linejoin:round;stroke-miterlimit:4;stroke-dasharray:none;stroke-dashoffset:0;stroke-opacity:1;marker:none;color-rendering:auto;image-rendering:auto;shape-rendering:auto;text-rendering:auto;enable-background:accumulate" d="M223.492 347a.5.5 0 0 0-.346.146l-2 2a.5.5 0 0 0-.146.354v.793l-.707.707H218.5a.5.5 0 0 0-.354.146l-1 1a.5.5 0 0 0 0 .708l.854.853v2.586l-1.854 1.853a.5.5 0 0 0-.146.354v2a.5.5 0 1 0 1 0v-1.793l1.854-1.853a.5.5 0 0 0 .146-.354v-3a.5.5 0 0 0-.146-.354l-.647-.646.5-.5h1.793a.5.5 0 0 0 .354-.146l1-1a.5.5 0 0 0 .146-.354v-.793l1.5-1.5.646.647a.5.5 0 0 0 .354.146h3a.5.5 0 0 0 .5-.5v-.5h1.5a.5.5 0 1 0 0-1h-2a.5.5 0 0 0-.5.5v.5h-2.293l-.853-.854a.5.5 0 0 0-.362-.146z" transform="translate(-213.004 -344.004)"/>
        <path style="color:#000;font-style:normal;font-variant:normal;font-weight:400;font-stretch:normal;font-size:medium;line-height:normal;font-family:sans-serif;font-variant-ligatures:normal;font-variant-position:normal;font-variant-caps:normal;font-variant-numeric:normal;font-variant-alternates:normal;font-feature-settings:normal;text-indent:0;text-align:start;text-decoration:none;text-decoration-line:none;text-decoration-style:solid;text-decoration-color:#000;letter-spacing:normal;word-spacing:normal;text-transform:none;writing-mode:lr-tb;direction:ltr;text-orientation:mixed;dominant-baseline:auto;baseline-shift:baseline;text-anchor:start;white-space:normal;shape-padding:0;clip-rule:nonzero;display:inline;overflow:visible;visibility:visible;opacity:1;isolation:auto;mix-blend-mode:normal;color-interpolation:sRGB;color-interpolation-filters:linearRGB;solid-color:#000;solid-opacity:1;vector-effect:none;fill:#fff;fill-opacity:1;fill-rule:nonzero;stroke:none;stroke-width:1;stroke-linecap:round;stroke-linejoin:round;stroke-miterlimit:4;stroke-dasharray:none;stroke-dashoffset:0;stroke-opacity:1;marker:none;color-rendering:auto;image-rendering:auto;shape-rendering:auto;text-rendering:auto;enable-background:accumulate" d="M228.5 357a.5.5 0 0 0-.354.146l-1 1a.5.5 0 0 0 0 .708l.647.646-.647.646a.5.5 0 1 0 .708.708l1-1a.5.5 0 0 0 0-.708l-.647-.646.5-.5h.793a.5.5 0 1 0 0-1z" transform="translate(-213.004 -344.004)"/>
    </g>
</svg>
