<svg xmlns="http://www.w3.org/2000/svg" viewBox="0 0 20 20" xml:space="preserve">
    <g style="display:inline;fill:#fff;enable-background:new">
        <path style="color:#000;font-style:normal;font-variant:normal;font-weight:400;font-stretch:normal;font-size:medium;line-height:normal;font-family:sans-serif;font-variant-ligatures:normal;font-variant-position:normal;font-variant-caps:normal;font-variant-numeric:normal;font-variant-alternates:normal;font-feature-settings:normal;text-indent:0;text-align:start;text-decoration:none;text-decoration-line:none;text-decoration-style:solid;text-decoration-color:#000;letter-spacing:normal;word-spacing:normal;text-transform:none;writing-mode:lr-tb;direction:ltr;text-orientation:mixed;dominant-baseline:auto;baseline-shift:baseline;text-anchor:start;white-space:normal;shape-padding:0;clip-rule:nonzero;display:inline;overflow:visible;visibility:visible;opacity:1;isolation:auto;mix-blend-mode:normal;color-interpolation:sRGB;color-interpolation-filters:linearRGB;solid-color:#000;solid-opacity:1;vector-effect:none;fill:#fff;fill-opacity:1;fill-rule:nonzero;stroke:none;stroke-width:1.1;stroke-linecap:round;stroke-linejoin:round;stroke-miterlimit:4;stroke-dasharray:none;stroke-dashoffset:0;stroke-opacity:1;marker:none;color-rendering:auto;image-rendering:auto;shape-rendering:auto;text-rendering:auto;enable-background:accumulate" d="M219.775 326c-.558 0-1.077.25-1.492.643-.414.393-.75.926-1.04 1.574-.583 1.296-.987 3.072-1.24 5.215a.55.55 0 1 0 1.093.129c.244-2.075.646-3.772 1.15-4.895.252-.561.53-.974.793-1.225.264-.25.489-.341.736-.341.248 0 .465.09.721.334.257.243.526.643.772 1.175.492 1.066.894 2.646 1.189 4.479.304 1.888.708 3.535 1.275 4.764.284.614.608 1.129 1.014 1.513.406.385.92.635 1.479.635 1.088 0 1.93-.83 2.52-1.973.588-1.143.995-2.677 1.25-4.453a.55.55 0 1 0-1.089-.156c-.242 1.697-.641 3.14-1.138 4.105-.498.966-1.02 1.377-1.543 1.377-.248 0-.465-.09-.721-.334-.257-.243-.526-.643-.772-1.175-.492-1.066-.894-2.646-1.189-4.479-.304-1.888-.708-3.535-1.275-4.764-.284-.614-.608-1.129-1.014-1.513-.406-.385-.92-.635-1.479-.635z" transform="translate(-213 -323)"/>
        <path style="color:#000;font-style:normal;font-variant:normal;font-weight:400;font-stretch:normal;font-size:medium;line-height:normal;font-family:sans-serif;font-variant-ligatures:normal;font-variant-position:normal;font-variant-caps:normal;font-variant-numeric:normal;font-variant-alternates:normal;font-feature-settings:normal;text-indent:0;text-align:start;text-decoration:none;text-decoration-line:none;text-decoration-style:solid;text-decoration-color:#000;letter-spacing:normal;word-spacing:normal;text-transform:none;writing-mode:lr-tb;direction:ltr;text-orientation:mixed;dominant-baseline:auto;baseline-shift:baseline;text-anchor:start;white-space:normal;shape-padding:0;clip-rule:nonzero;display:inline;overflow:visible;visibility:visible;opacity:.6;isolation:auto;mix-blend-mode:normal;color-interpolation:sRGB;color-interpolation-filters:linearRGB;solid-color:#000;solid-opacity:1;vector-effect:none;fill:#fff;fill-opacity:1;fill-rule:evenodd;stroke:none;stroke-width:1;stroke-linecap:round;stroke-linejoin:miter;stroke-miterlimit:4;stroke-dasharray:none;stroke-dashoffset:0;stroke-opacity:1;marker:none;color-rendering:auto;image-rendering:auto;shape-rendering:auto;text-rendering:auto;enable-background:accumulate" d="M218.75 333a.5.5 0 1 0 0 1h2a.5.5 0 1 0 0-1zm6.5 0a.5.5 0 1 0 0 1h2a.5.5 0 1 0 0-1z" transform="translate(-213 -323)"/>
    </g>
</svg>
