<svg xmlns="http://www.w3.org/2000/svg" viewBox="0 0 20 20" xml:space="preserve">
    <g style="display:inline;fill:#fff;enable-background:new">
        <path style="color:#000;font-style:normal;font-variant:normal;font-weight:400;font-stretch:normal;font-size:medium;line-height:normal;font-family:sans-serif;font-variant-ligatures:normal;font-variant-position:normal;font-variant-caps:normal;font-variant-numeric:normal;font-variant-alternates:normal;font-feature-settings:normal;text-indent:0;text-align:start;text-decoration:none;text-decoration-line:none;text-decoration-style:solid;text-decoration-color:#000;letter-spacing:normal;word-spacing:normal;text-transform:none;writing-mode:lr-tb;direction:ltr;text-orientation:mixed;dominant-baseline:auto;baseline-shift:baseline;text-anchor:start;white-space:normal;shape-padding:0;clip-rule:nonzero;display:inline;overflow:visible;visibility:visible;opacity:1;isolation:auto;mix-blend-mode:normal;color-interpolation:sRGB;color-interpolation-filters:linearRGB;solid-color:#000;solid-opacity:1;vector-effect:none;fill:#fff;fill-opacity:1;fill-rule:nonzero;stroke:none;stroke-width:1.2;stroke-linecap:round;stroke-linejoin:round;stroke-miterlimit:4;stroke-dasharray:none;stroke-dashoffset:0;stroke-opacity:1;color-rendering:auto;image-rendering:auto;shape-rendering:auto;text-rendering:auto;enable-background:new" d="M198.04 347.002a1.96 1.96 0 0 0-.476.037c-1.228.252-1.959 1.367-2.455 2.098a.6.6 0 1 0 .993.674c.467-.69 1.163-1.485 1.705-1.596.27-.056.532-.025.947.312.415.338.939 1.012 1.498 2.157a.6.6 0 0 0 .539.336h.414a.6.6 0 0 0 .541-.338c.548-1.135 1.063-1.802 1.477-2.135.413-.334.68-.365.959-.309.556.113 1.262.903 1.716 1.573a.6.6 0 1 0 .993-.674c-.492-.725-1.24-1.826-2.471-2.075-.615-.124-1.325.046-1.951.551-.51.412-.988 1.196-1.47 2.076-.492-.889-.976-1.678-1.487-2.093-.469-.382-.985-.574-1.473-.594zm4.19 5.998c-.773 0-1.48.465-2.07 1.121a.6.6 0 1 0 .893.803c.542-.602.932-.779 1.304-.713.373.066.95.476 1.64 1.539a.6.6 0 0 0 1.007 0c.689-1.063 1.266-1.473 1.639-1.54.372-.065.762.112 1.304.714a.6.6 0 1 0 .893-.803c-.675-.75-1.501-1.251-2.406-1.092-.71.126-1.327.685-1.934 1.455-.607-.77-1.224-1.33-1.934-1.455a1.938 1.938 0 0 0-.336-.029z" transform="translate(-191.994 -344)"/>
        <path style="color:#000;font-style:normal;font-variant:normal;font-weight:400;font-stretch:normal;font-size:medium;line-height:normal;font-family:sans-serif;font-variant-ligatures:normal;font-variant-position:normal;font-variant-caps:normal;font-variant-numeric:normal;font-variant-alternates:normal;font-feature-settings:normal;text-indent:0;text-align:start;text-decoration:none;text-decoration-line:none;text-decoration-style:solid;text-decoration-color:#000;letter-spacing:normal;word-spacing:normal;text-transform:none;writing-mode:lr-tb;direction:ltr;text-orientation:mixed;dominant-baseline:auto;baseline-shift:baseline;text-anchor:start;white-space:normal;shape-padding:0;clip-rule:nonzero;display:inline;overflow:visible;visibility:visible;opacity:.6;isolation:auto;mix-blend-mode:normal;color-interpolation:sRGB;color-interpolation-filters:linearRGB;solid-color:#000;solid-opacity:1;vector-effect:none;fill:#fff;fill-opacity:1;fill-rule:nonzero;stroke:none;stroke-width:1;stroke-linecap:round;stroke-linejoin:round;stroke-miterlimit:4;stroke-dasharray:none;stroke-dashoffset:0;stroke-opacity:1;color-rendering:auto;image-rendering:auto;shape-rendering:auto;text-rendering:auto;enable-background:new" d="M185.502 372c1.375 0 2.5 1.125 2.5 2.5s-1.125 2.5-2.5 2.5a2.508 2.508 0 0 1-2.5-2.5c0-1.375 1.125-2.5 2.5-2.5z" transform="matrix(-1 0 0 1 191.006 -360)"/>
    </g>
</svg>
