<svg xmlns="http://www.w3.org/2000/svg" viewBox="0 0 20 20" xml:space="preserve">
    <g style="display:inline;fill:#fff;enable-background:new">
        <path style="color:#000;font-style:normal;font-variant:normal;font-weight:400;font-stretch:normal;font-size:medium;line-height:normal;font-family:sans-serif;font-variant-ligatures:normal;font-variant-position:normal;font-variant-caps:normal;font-variant-numeric:normal;font-variant-alternates:normal;font-feature-settings:normal;text-indent:0;text-align:start;text-decoration:none;text-decoration-line:none;text-decoration-style:solid;text-decoration-color:#000;letter-spacing:normal;word-spacing:normal;text-transform:none;writing-mode:lr-tb;direction:ltr;text-orientation:mixed;dominant-baseline:auto;baseline-shift:baseline;text-anchor:start;white-space:normal;shape-padding:0;clip-rule:nonzero;display:inline;overflow:visible;visibility:visible;opacity:1;isolation:auto;mix-blend-mode:normal;color-interpolation:sRGB;color-interpolation-filters:linearRGB;solid-color:#000;solid-opacity:1;vector-effect:none;fill:#fff;fill-opacity:1;fill-rule:nonzero;stroke:none;stroke-width:1;stroke-linecap:round;stroke-linejoin:round;stroke-miterlimit:4;stroke-dasharray:none;stroke-dashoffset:0;stroke-opacity:1;marker:none;color-rendering:auto;image-rendering:auto;shape-rendering:auto;text-rendering:auto;enable-background:new" d="M353.139 473.033c-.496-.045-1.039.16-1.493.613l-.75.75a.5.5 0 0 0 0 .708l3 3a.5.5 0 0 0 .708 0l.75-.75c.453-.454.658-.997.613-1.493-.045-.496-.305-.906-.613-1.215l-1-1c-.31-.308-.72-.568-1.215-.613zm-3.397 2.717a.5.5 0 0 0-.345.146l-6.25 6.25a.5.5 0 0 0-.131.233l-1 4a.5.5 0 0 0 .605.605l4-1a.5.5 0 0 0 .233-.13l6.25-6.25a.5.5 0 0 0 0-.708l-3-3a.5.5 0 0 0-.362-.146z" transform="translate(-338.987 -470.013)"/>
    </g>
</svg>
