<svg xmlns="http://www.w3.org/2000/svg" viewBox="0 0 20 20" xml:space="preserve">
    <path style="color:#000;font-style:normal;font-variant:normal;font-weight:400;font-stretch:normal;font-size:medium;line-height:normal;font-family:sans-serif;font-variant-ligatures:normal;font-variant-position:normal;font-variant-caps:normal;font-variant-numeric:normal;font-variant-alternates:normal;font-feature-settings:normal;text-indent:0;text-align:start;text-decoration:none;text-decoration-line:none;text-decoration-style:solid;text-decoration-color:#000;letter-spacing:normal;word-spacing:normal;text-transform:none;writing-mode:lr-tb;direction:ltr;text-orientation:mixed;dominant-baseline:auto;baseline-shift:baseline;text-anchor:start;white-space:normal;shape-padding:0;clip-rule:nonzero;display:inline;overflow:visible;visibility:visible;isolation:auto;mix-blend-mode:normal;color-interpolation:sRGB;color-interpolation-filters:linearRGB;solid-color:#000;solid-opacity:1;vector-effect:none;fill:#fff;fill-opacity:1;fill-rule:nonzero;stroke:none;stroke-width:1;stroke-linecap:round;stroke-linejoin:miter;stroke-miterlimit:4;stroke-dasharray:none;stroke-dashoffset:0;stroke-opacity:1;color-rendering:auto;image-rendering:auto;shape-rendering:auto;text-rendering:auto;enable-background:new" d="M7.526 2.994a.5.5 0 0 0-.418.203C4.692 6.377 3.663 9.2 3.251 11.484c-.413 2.284-.217 4.05-.219 5.006a.5.5 0 1 0 1 .004c.002-1.085-.184-2.691.203-4.832s1.341-4.796 3.668-7.86a.5.5 0 0 0-.377-.808zm4.955 3.002a.5.5 0 0 0-.304.127c-4.124 3.585-5.172 7.536-5.172 10.376a.5.5 0 1 0 1 0c0-2.6.913-6.22 4.828-9.623a.5.5 0 0 0-.352-.88zm4.026 5.003c-3.017-.006-5.495 2.471-5.502 5.499a.5.5 0 1 0 1 .004c.006-2.485 2.03-4.508 4.5-4.502a.5.5 0 1 0 .002-1z"/>
</svg>
