<svg xmlns="http://www.w3.org/2000/svg" id="Layer_1" x="0" y="0" enable-background="new 0 0 20 20" version="1.1" viewBox="0 0 20 20" xml:space="preserve"><style>.st0{enable-background:new ;} .st1{fill:#FFFFFF;}</style><g id="g13609" class="st0" transform="translate(-187,-89.999995)"><path id="path13602" d="M193.5,93c-1.5,0-2.5,1.3-2.5,2.5v9c0,1.2,1,2.5,2.5,2.5h9c0.7,0,0.7-1,0-1h-9 c-1,0-1.5-0.8-1.5-1.5s0.5-1.5,1.5-1.5h9c0.3,0,0.5-0.2,0.5-0.5v-9c0-0.3-0.2-0.5-0.5-0.5H193.5z M197.5,94c1.4,0,2.5,1.1,2.5,2.5 c0,1.2-0.9,2.2-2,2.4v1.1h-1v-1.5c0-0.3,0.2-0.5,0.5-0.5c0.8,0,1.5-0.7,1.5-1.5s-0.7-1.5-1.5-1.5s-1.5,0.7-1.5,1.5V97h-1v-0.5 C195,95.1,196.1,94,197.5,94z M197,101h1v1h-1V101z M193.5,104c-0.3,0-0.5,0.2-0.5,0.5s0.2,0.5,0.5,0.5l0,0h9 c0.3,0,0.5-0.2,0.5-0.5s-0.2-0.5-0.5-0.5l0,0H193.5z" class="st1"/></g></svg>