<svg xmlns="http://www.w3.org/2000/svg" viewBox="0 0 20 20" xml:space="preserve">
    <path style="color:#000;font-style:normal;font-variant:normal;font-weight:400;font-stretch:normal;font-size:medium;line-height:normal;font-family:sans-serif;font-variant-ligatures:normal;font-variant-position:normal;font-variant-caps:normal;font-variant-numeric:normal;font-variant-alternates:normal;font-feature-settings:normal;text-indent:0;text-align:start;text-decoration:none;text-decoration-line:none;text-decoration-style:solid;text-decoration-color:#000;letter-spacing:normal;word-spacing:normal;text-transform:none;writing-mode:lr-tb;direction:ltr;text-orientation:mixed;dominant-baseline:auto;baseline-shift:baseline;text-anchor:start;white-space:normal;shape-padding:0;clip-rule:nonzero;display:inline;overflow:visible;visibility:visible;isolation:auto;mix-blend-mode:normal;color-interpolation:sRGB;color-interpolation-filters:linearRGB;solid-color:#000;solid-opacity:1;vector-effect:none;fill:#fff;fill-opacity:1;fill-rule:nonzero;stroke:none;stroke-width:1px;stroke-linecap:round;stroke-linejoin:miter;stroke-miterlimit:4;stroke-dasharray:none;stroke-dashoffset:0;stroke-opacity:1;color-rendering:auto;image-rendering:auto;shape-rendering:auto;text-rendering:auto;enable-background:new" d="M10 4c-1.248 0-2.245.834-3 1.935-.755 1.1-1.324 2.514-1.764 3.916-.879 2.804-1.23 5.586-1.23 5.586a.5.5 0 1 0 .992.127s.348-2.718 1.193-5.414c.423-1.348.973-2.687 1.633-3.649C8.484 5.54 9.2 5 10 5c.801 0 1.516.54 2.176 1.502.66.962 1.21 2.3 1.633 3.649.845 2.696 1.193 5.414 1.193 5.414a.5.5 0 1 0 .992-.127s-.351-2.782-1.23-5.586c-.44-1.402-1.009-2.815-1.764-3.916-.755-1.101-1.752-1.936-3-1.936z"/>
</svg>
