<svg xmlns="http://www.w3.org/2000/svg" viewBox="0 0 20 20" xml:space="preserve">
    <path d="M13.555 3.017c-.798-.038-1.572.277-2.16.865L9.91 5.371c-.616.575-.935 1.354-.893 2.154a.5.5 0 1 0 .998-.05c-.027-.516.156-.981.576-1.374a.5.5 0 0 0 .012-.012l1.5-1.5c.412-.411.89-.598 1.404-.574.515.025 1.085.27 1.639.824.555.555.81 1.136.838 1.653.028.517-.152.985-.574 1.379a.5.5 0 0 0-.014.011l-1.5 1.5c-.412.412-.877.604-1.396.604a.5.5 0 1 0 0 1c.78 0 1.524-.318 2.103-.897l1.488-1.488a2.748 2.748 0 0 0 .893-2.164c-.044-.803-.436-1.61-1.131-2.305-.696-.695-1.499-1.077-2.297-1.115zm-1.08 3.979a.5.5 0 0 0-.344.15l-5 5a.5.5 0 1 0 .707.707l5-5a.5.5 0 0 0-.363-.857zm-4.93 2.021a2.743 2.743 0 0 0-2.175.89L3.88 11.397c-.588.588-.903 1.36-.865 2.158.038.798.42 1.603 1.115 2.299.696.695 1.504 1.085 2.307 1.129a2.742 2.742 0 0 0 2.162-.89l1.488-1.489c.579-.579.897-1.323.897-2.103a.5.5 0 1 0-1 0c0 .52-.191.984-.604 1.396l-1.5 1.5a.5.5 0 0 0-.011.012c-.394.422-.86.604-1.377.576-.517-.028-1.1-.283-1.655-.838-.554-.554-.797-1.124-.822-1.639-.024-.514.16-.992.572-1.404l1.5-1.5a.5.5 0 0 0 .012-.012c.396-.424.866-.607 1.387-.576a.5.5 0 1 0 .058-.998z" style="color:#000;font-style:normal;font-variant:normal;font-weight:400;font-stretch:normal;font-size:medium;line-height:normal;font-family:sans-serif;font-variant-ligatures:normal;font-variant-position:normal;font-variant-caps:normal;font-variant-numeric:normal;font-variant-alternates:normal;font-feature-settings:normal;text-indent:0;text-align:start;text-decoration:none;text-decoration-line:none;text-decoration-style:solid;text-decoration-color:#000;letter-spacing:normal;word-spacing:normal;text-transform:none;writing-mode:lr-tb;direction:ltr;text-orientation:mixed;dominant-baseline:auto;baseline-shift:baseline;text-anchor:start;white-space:normal;shape-padding:0;clip-rule:nonzero;display:inline;overflow:visible;visibility:visible;isolation:auto;mix-blend-mode:normal;color-interpolation:sRGB;color-interpolation-filters:linearRGB;solid-color:#000;solid-opacity:1;vector-effect:none;fill:#fff;fill-opacity:1;fill-rule:nonzero;stroke:none;stroke-width:1;stroke-linecap:round;stroke-linejoin:round;stroke-miterlimit:4;stroke-dasharray:none;stroke-dashoffset:0;stroke-opacity:1;marker:none;color-rendering:auto;image-rendering:auto;shape-rendering:auto;text-rendering:auto;enable-background:accumulate"/>
</svg>
