<svg xmlns="http://www.w3.org/2000/svg" viewBox="0 0 20 20" xml:space="preserve">
    <g style="display:inline;fill:#fff;enable-background:new">
        <path style="color:#000;font-style:normal;font-variant:normal;font-weight:400;font-stretch:normal;font-size:medium;line-height:normal;font-family:sans-serif;font-variant-ligatures:normal;font-variant-position:normal;font-variant-caps:normal;font-variant-numeric:normal;font-variant-alternates:normal;font-feature-settings:normal;text-indent:0;text-align:start;text-decoration:none;text-decoration-line:none;text-decoration-style:solid;text-decoration-color:#000;letter-spacing:normal;word-spacing:normal;text-transform:none;writing-mode:lr-tb;direction:ltr;text-orientation:mixed;dominant-baseline:auto;baseline-shift:baseline;text-anchor:start;white-space:normal;shape-padding:0;clip-rule:nonzero;display:inline;overflow:visible;visibility:visible;opacity:1;isolation:auto;mix-blend-mode:normal;color-interpolation:sRGB;color-interpolation-filters:linearRGB;solid-color:#000;solid-opacity:1;vector-effect:none;fill:#fff;fill-opacity:1;fill-rule:nonzero;stroke:none;stroke-width:1px;stroke-linecap:round;stroke-linejoin:round;stroke-miterlimit:4;stroke-dasharray:none;stroke-dashoffset:0;stroke-opacity:1;marker:none;paint-order:fill markers stroke;color-rendering:auto;image-rendering:auto;shape-rendering:auto;text-rendering:auto;enable-background:accumulate" d="M1028 1556c-3.283 0-6 2.441-6 5.5 0 1.706.905 3.146 2.152 4.36l.994.994a.5.5 0 0 0 .303.148.5.5 0 0 0 .051.998h5a.5.5 0 0 0 .045-.998.5.5 0 0 0 .309-.148l.998-.999c1.212-1.198 2.146-2.651 2.146-4.353 0-3.059-2.716-5.5-6-5.5zm0 1c2.792 0 5 2.036 5 4.5 0 1.334-.743 2.549-1.852 3.644l-1 1a.5.5 0 0 0 .28.854h-4.86a.5.5 0 0 0 .287-.854l-1-1a.5.5 0 0 0-.01-.01c-1.14-1.108-1.847-2.286-1.847-3.64 0-2.464 2.208-4.5 5-4.5zm-2.5 12a.5.5 0 1 0 0 1h1.5v.5a.5.5 0 0 0 .5.5h1a.5.5 0 0 0 .5-.5v-.5h1.5a.5.5 0 1 0 0-1z" transform="translate(-1018 -1553.5)"/>
        <path style="color:#000;font-style:normal;font-variant:normal;font-weight:400;font-stretch:normal;font-size:medium;line-height:normal;font-family:sans-serif;font-variant-ligatures:normal;font-variant-position:normal;font-variant-caps:normal;font-variant-numeric:normal;font-variant-alternates:normal;font-feature-settings:normal;text-indent:0;text-align:start;text-decoration:none;text-decoration-line:none;text-decoration-style:solid;text-decoration-color:#000;letter-spacing:normal;word-spacing:normal;text-transform:none;writing-mode:lr-tb;direction:ltr;text-orientation:mixed;dominant-baseline:auto;baseline-shift:baseline;text-anchor:start;white-space:normal;shape-padding:0;clip-rule:nonzero;display:inline;overflow:visible;visibility:visible;opacity:.6;isolation:auto;mix-blend-mode:normal;color-interpolation:sRGB;color-interpolation-filters:linearRGB;solid-color:#000;solid-opacity:1;vector-effect:none;fill:#fff;fill-opacity:1;fill-rule:nonzero;stroke:none;stroke-width:1px;stroke-linecap:round;stroke-linejoin:round;stroke-miterlimit:4;stroke-dasharray:none;stroke-dashoffset:0;stroke-opacity:1;color-rendering:auto;image-rendering:auto;shape-rendering:auto;text-rendering:auto;enable-background:accumulate" d="M1025.49 1561.006a.5.5 0 0 0-.344.848l.854.853v1.543a.5.5 0 1 0 1 0V1563h2v1.25a.5.5 0 1 0 1 0v-1.543l.854-.854a.5.5 0 0 0-.708-.706l-.853.853h-2.586l-.854-.854a.5.5 0 0 0-.363-.14z" transform="translate(-1018 -1553.5)"/>
    </g>
</svg>
