<svg xmlns="http://www.w3.org/2000/svg" viewBox="0 0 20 20" xml:space="preserve">
    <g style="display:inline;fill:#fff;enable-background:new">
        <g style="fill:#fff">
            <path style="color:#000;font-style:normal;font-variant:normal;font-weight:400;font-stretch:normal;font-size:medium;line-height:normal;font-family:sans-serif;font-variant-ligatures:normal;font-variant-position:normal;font-variant-caps:normal;font-variant-numeric:normal;font-variant-alternates:normal;font-feature-settings:normal;text-indent:0;text-align:start;text-decoration:none;text-decoration-line:none;text-decoration-style:solid;text-decoration-color:#000;letter-spacing:normal;word-spacing:normal;text-transform:none;writing-mode:lr-tb;direction:ltr;text-orientation:mixed;dominant-baseline:auto;baseline-shift:baseline;text-anchor:start;white-space:normal;shape-padding:0;clip-rule:nonzero;display:inline;overflow:visible;visibility:visible;opacity:1;isolation:auto;mix-blend-mode:normal;color-interpolation:sRGB;color-interpolation-filters:linearRGB;solid-color:#000;solid-opacity:1;vector-effect:none;fill:#fff;fill-opacity:1;fill-rule:nonzero;stroke:none;stroke-width:1;stroke-linecap:round;stroke-linejoin:miter;stroke-miterlimit:4;stroke-dasharray:none;stroke-dashoffset:0;stroke-opacity:1;color-rendering:auto;image-rendering:auto;shape-rendering:auto;text-rendering:auto;enable-background:new" d="M557.5 620a.5.5 0 1 0 0 1h6.992a.5.5 0 1 0 0-1zm0 2a.5.5 0 1 0 0 1h6.992a.5.5 0 1 0 0-1zm0 2a.5.5 0 1 0 0 1h6.992a.5.5 0 1 0 0-1zm0 5a.5.5 0 1 0 0 1h6.992a.5.5 0 1 0 0-1zm0 2a.5.5 0 1 0 0 1h6.992a.5.5 0 1 0 0-1zm0 2a.5.5 0 1 0 0 1h7a.5.5 0 1 0 0-1z" transform="translate(-548 -617)"/>
            <path style="color:#000;font-style:normal;font-variant:normal;font-weight:400;font-stretch:normal;font-size:medium;line-height:normal;font-family:sans-serif;font-variant-ligatures:normal;font-variant-position:normal;font-variant-caps:normal;font-variant-numeric:normal;font-variant-alternates:normal;font-feature-settings:normal;text-indent:0;text-align:start;text-decoration:none;text-decoration-line:none;text-decoration-style:solid;text-decoration-color:#000;letter-spacing:normal;word-spacing:normal;text-transform:none;writing-mode:lr-tb;direction:ltr;text-orientation:mixed;dominant-baseline:auto;baseline-shift:baseline;text-anchor:start;white-space:normal;shape-padding:0;clip-rule:nonzero;display:inline;overflow:visible;visibility:visible;opacity:1;isolation:auto;mix-blend-mode:normal;color-interpolation:sRGB;color-interpolation-filters:linearRGB;solid-color:#000;solid-opacity:1;vector-effect:none;fill:#fff;fill-opacity:1;fill-rule:nonzero;stroke:none;stroke-width:1;stroke-linecap:round;stroke-linejoin:round;stroke-miterlimit:4;stroke-dasharray:none;stroke-dashoffset:0;stroke-opacity:1;color-rendering:auto;image-rendering:auto;shape-rendering:auto;text-rendering:auto;enable-background:accumulate" d="M553.484 620a.5.5 0 0 0-.338.146l-2 2a.5.5 0 1 0 .708.708l1.146-1.147v3.793a.5.5 0 1 0 1 0v-5a.5.5 0 0 0-.516-.5zm-.484 8c-.792 0-1.705.427-1.98 1.36a.5.5 0 1 0 .96.28c.125-.42.578-.64 1.02-.64.32 0 .6.063.754.166.154.103.25.212.254.588 0 .207-.076.328-.297.521-.222.194-.578.403-.967.645-.388.242-.811.524-1.154.935a2.55 2.55 0 0 0-.59 1.643.5.5 0 0 0 .5.502h3a.5.5 0 1 0 0-1h-2.322c.061-.162.068-.37.18-.504.222-.268.552-.502.915-.728.364-.227.758-.44 1.098-.739.34-.298.64-.739.637-1.281a.5.5 0 0 0 0-.002c-.006-.624-.29-1.14-.7-1.412-.409-.272-.877-.334-1.308-.334z" transform="translate(-548 -617)"/>
        </g>
    </g>
</svg>
