<svg xmlns="http://www.w3.org/2000/svg" viewBox="0 0 20 20" xml:space="preserve">
    <g style="display:inline;fill:#fff;enable-background:new">
        <g style="fill:#fff">
            <path style="color:#000;font-style:normal;font-variant:normal;font-weight:400;font-stretch:normal;font-size:medium;line-height:normal;font-family:sans-serif;font-variant-ligatures:normal;font-variant-position:normal;font-variant-caps:normal;font-variant-numeric:normal;font-variant-alternates:normal;font-feature-settings:normal;text-indent:0;text-align:start;text-decoration:none;text-decoration-line:none;text-decoration-style:solid;text-decoration-color:#000;letter-spacing:normal;word-spacing:normal;text-transform:none;writing-mode:lr-tb;direction:ltr;text-orientation:mixed;dominant-baseline:auto;baseline-shift:baseline;text-anchor:start;white-space:normal;shape-padding:0;clip-rule:nonzero;display:inline;overflow:visible;visibility:visible;opacity:1;isolation:auto;mix-blend-mode:normal;color-interpolation:sRGB;color-interpolation-filters:linearRGB;solid-color:#000;solid-opacity:1;vector-effect:none;fill:#fff;fill-opacity:1;fill-rule:nonzero;stroke:none;stroke-width:1;stroke-linecap:round;stroke-linejoin:round;stroke-miterlimit:4;stroke-dasharray:none;stroke-dashoffset:0;stroke-opacity:1;marker:none;color-rendering:auto;image-rendering:auto;shape-rendering:auto;text-rendering:auto;enable-background:accumulate" d="M-350.43 690.018c-.798-.038-1.571.276-2.16.865l-1.486 1.488c-.616.575-.934 1.354-.893 2.154a.5.5 0 1 0 .998-.05c-.027-.515.156-.98.576-1.373a.5.5 0 0 0 .012-.012l1.5-1.5c.412-.412.89-.599 1.404-.574.515.024 1.085.27 1.64.824.554.555.809 1.135.837 1.652.028.517-.152.985-.574 1.38a.5.5 0 0 0-.014.01l-1.5 1.5c-.412.413-.877.604-1.396.604a.5.5 0 1 0 0 1c.78 0 1.525-.318 2.103-.896l1.488-1.488a2.748 2.748 0 0 0 .893-2.165c-.044-.802-.436-1.609-1.13-2.304-.697-.696-1.5-1.077-2.298-1.115zm-6.01 6a2.743 2.743 0 0 0-2.175.89l-1.489 1.488c-.588.589-.903 1.36-.865 2.159.038.798.42 1.603 1.115 2.299.696.695 1.504 1.084 2.307 1.128a2.742 2.742 0 0 0 2.162-.89l1.489-1.488c.578-.58.896-1.323.896-2.104a.5.5 0 1 0-1 0c0 .52-.191.984-.604 1.396l-1.5 1.5a.5.5 0 0 0-.011.012c-.394.422-.86.605-1.377.576-.517-.028-1.1-.283-1.654-.838-.555-.554-.798-1.124-.823-1.638-.024-.515.16-.993.573-1.405l1.5-1.5a.5.5 0 0 0 .011-.011c.397-.424.867-.607 1.387-.576a.5.5 0 1 0 .059-.998zm4.93-2.022a.5.5 0 0 0-.344.15l-5 5a.5.5 0 1 0 .708.708l5-5a.5.5 0 0 0-.364-.858z" transform="translate(364 -687)"/>
        </g>
    </g>
</svg>
