<svg xmlns="http://www.w3.org/2000/svg" viewBox="0 0 20 20" xml:space="preserve">
    <path style="color:#000;font-style:normal;font-variant:normal;font-weight:400;font-stretch:normal;font-size:medium;line-height:normal;font-family:sans-serif;font-variant-ligatures:normal;font-variant-position:normal;font-variant-caps:normal;font-variant-numeric:normal;font-variant-alternates:normal;font-feature-settings:normal;text-indent:0;text-align:start;text-decoration:none;text-decoration-line:none;text-decoration-style:solid;text-decoration-color:#000;letter-spacing:normal;word-spacing:normal;text-transform:none;writing-mode:lr-tb;direction:ltr;text-orientation:mixed;dominant-baseline:auto;baseline-shift:baseline;text-anchor:start;white-space:normal;shape-padding:0;clip-rule:nonzero;display:inline;overflow:visible;visibility:visible;isolation:auto;mix-blend-mode:normal;color-interpolation:sRGB;color-interpolation-filters:linearRGB;solid-color:#000;solid-opacity:1;vector-effect:none;fill:#fff;fill-opacity:1;fill-rule:nonzero;stroke:none;stroke-width:1;stroke-linecap:round;stroke-linejoin:round;stroke-miterlimit:4;stroke-dasharray:none;stroke-dashoffset:0;stroke-opacity:1;marker:none;color-rendering:auto;image-rendering:auto;shape-rendering:auto;text-rendering:auto;enable-background:new" d="M9.5 3a.5.5 0 0 0-.414.22l-5.75 8.5a.5.5 0 0 0-.025.042C3.098 12.152 3 12.58 3 13c0 1.217.896 2.232 2.166 2.916C6.436 16.6 8.132 17 10 17c1.868 0 3.564-.4 4.834-1.084C16.104 15.232 17 14.217 17 13c0-.42-.096-.847-.313-1.24a.5.5 0 0 0-.023-.04l-5.75-8.5A.5.5 0 0 0 10.5 3zm.266 1h.468l5.58 8.248c.128.235.186.483.186.752 0 .716-.558 1.452-1.64 2.035-1.083.583-2.638.965-4.36.965-1.722 0-3.277-.382-4.36-.965C4.559 14.452 4 13.715 4 13c0-.263.062-.522.188-.756z"/>
</svg>
