<svg xmlns="http://www.w3.org/2000/svg" viewBox="0 0 20 20" xml:space="preserve">
    <path style="color:#000;font-style:normal;font-variant:normal;font-weight:400;font-stretch:normal;font-size:medium;line-height:normal;font-family:sans-serif;font-variant-ligatures:normal;font-variant-position:normal;font-variant-caps:normal;font-variant-numeric:normal;font-variant-alternates:normal;font-feature-settings:normal;text-indent:0;text-align:start;text-decoration:none;text-decoration-line:none;text-decoration-style:solid;text-decoration-color:#000;letter-spacing:normal;word-spacing:normal;text-transform:none;writing-mode:lr-tb;direction:ltr;text-orientation:mixed;dominant-baseline:auto;baseline-shift:baseline;text-anchor:start;white-space:normal;shape-padding:0;clip-rule:nonzero;display:inline;overflow:visible;visibility:visible;isolation:auto;mix-blend-mode:normal;color-interpolation:sRGB;color-interpolation-filters:linearRGB;solid-color:#000;solid-opacity:1;vector-effect:none;fill:#fff;fill-opacity:1;fill-rule:nonzero;stroke:none;stroke-width:1.1;stroke-linecap:round;stroke-linejoin:round;stroke-miterlimit:4;stroke-dasharray:none;stroke-dashoffset:0;stroke-opacity:1;marker:none;color-rendering:auto;image-rendering:auto;shape-rendering:auto;text-rendering:auto;enable-background:accumulate" d="M13.992 3.448a.55.55 0 0 0-.55.55v.776l-.45.45-.611-.61a.55.55 0 0 0-.389-.163h-1.771l-.84-.837a.55.55 0 0 0-.778 0l-1 1a.55.55 0 0 0-.162.388v1.772l-.677.677h-.772a.55.55 0 0 0-.39.163l-.838.841h-.772a.55.55 0 0 0-.55.551v2.004a.55.55 0 0 0 .55.55h.774l.675.675v.545l-.675.681-.768-.008a.55.55 0 0 0-.557.549v2a.55.55 0 1 0 1.102 0v-1.443l.443.004a.55.55 0 0 0 .397-.162l1-1.008a.55.55 0 0 0 .16-.387v-1a.55.55 0 0 0-.162-.39l-1-.995a.55.55 0 0 0-.389-.162h-.45v-.902h.45a.55.55 0 0 0 .389-.162l.84-.844h.771a.55.55 0 0 0 .389-.16l1-1a.55.55 0 0 0 .162-.389V5.23l.45-.45.61.612a.55.55 0 0 0 .39.16h1.77l.84.84a.55.55 0 0 0 .778 0l1-1a.55.55 0 0 0 .162-.389v-.455h1.45a.55.55 0 1 0 0-1.1z"/>
</svg>
