<svg xmlns="http://www.w3.org/2000/svg" viewBox="0 0 20 20" xml:space="preserve">
    <g style="display:inline;fill:#fff;enable-background:new">
        <path style="color:#000;font-style:normal;font-variant:normal;font-weight:400;font-stretch:normal;font-size:medium;line-height:normal;font-family:sans-serif;font-variant-ligatures:normal;font-variant-position:normal;font-variant-caps:normal;font-variant-numeric:normal;font-variant-alternates:normal;font-feature-settings:normal;text-indent:0;text-align:start;text-decoration:none;text-decoration-line:none;text-decoration-style:solid;text-decoration-color:#000;letter-spacing:normal;word-spacing:normal;text-transform:none;writing-mode:lr-tb;direction:ltr;text-orientation:mixed;dominant-baseline:auto;baseline-shift:baseline;text-anchor:start;white-space:normal;shape-padding:0;clip-rule:nonzero;display:inline;overflow:visible;visibility:visible;opacity:1;isolation:auto;mix-blend-mode:normal;color-interpolation:sRGB;color-interpolation-filters:linearRGB;solid-color:#000;solid-opacity:1;vector-effect:none;fill:#fff;fill-opacity:1;fill-rule:nonzero;stroke:none;stroke-width:1;stroke-linecap:round;stroke-linejoin:round;stroke-miterlimit:4;stroke-dasharray:none;stroke-dashoffset:0;stroke-opacity:1;marker:none;paint-order:fill markers stroke;color-rendering:auto;image-rendering:auto;shape-rendering:auto;text-rendering:auto;enable-background:accumulate" d="M27.46 284.012a.5.5 0 1 0 .044.998 11.997 11.997 0 0 1 12.486 12.463.5.5 0 1 0 1 .039 12.998 12.998 0 0 0-13.53-13.5zm-.032 4.006a.5.5 0 1 0 .062.998 8.001 8.001 0 0 1 8.498 8.421.5.5 0 1 0 .998.055 9.002 9.002 0 0 0-9.558-9.474zm.037 4.011a.5.5 0 1 0 .107.994 3.999 3.999 0 0 1 4.408 4.381.5.5 0 1 0 .995.102 5 5 0 0 0-5.51-5.477zM28 296c-.546 0-1 .454-1 1s.454 1 1 1 1-.454 1-1-.454-1-1-1z" transform="matrix(-1 0 0 1 44 -281)"/>
    </g>
</svg>
