<svg xmlns="http://www.w3.org/2000/svg" viewBox="0 0 20 20" xml:space="preserve">
    <path d="M10.607 4.1a.487.487 0 0 0-.104.012 4.501 4.501 0 0 0-3.492 4.379c0 .506.15.993.318 1.469l-2.427 2.427c-1.01 1.01-1.02 2.314-.313 3.02.706.706 2.01.697 3.02-.313l2.43-2.43c.474.168.959.32 1.464.321h.002a4.5 4.5 0 0 0 4.387-3.523.5.5 0 0 0-.088-.409l-.648-.863a.5.5 0 0 0-.733-.072L12.316 9.99h-1.08l-1.23-1.436v-.857l1.853-1.854a.5.5 0 0 0 0-.707l-.891-.89a.5.5 0 0 0-.361-.147z" style="color:#000;font-style:normal;font-variant:normal;font-weight:400;font-stretch:normal;font-size:medium;line-height:normal;font-family:sans-serif;font-variant-ligatures:normal;font-variant-position:normal;font-variant-caps:normal;font-variant-numeric:normal;font-variant-alternates:normal;font-feature-settings:normal;text-indent:0;text-align:start;text-decoration:none;text-decoration-line:none;text-decoration-style:solid;text-decoration-color:#000;letter-spacing:normal;word-spacing:normal;text-transform:none;writing-mode:lr-tb;direction:ltr;text-orientation:mixed;dominant-baseline:auto;baseline-shift:baseline;text-anchor:start;white-space:normal;shape-padding:0;clip-rule:nonzero;display:inline;overflow:visible;visibility:visible;isolation:auto;mix-blend-mode:normal;color-interpolation:sRGB;color-interpolation-filters:linearRGB;solid-color:#000;solid-opacity:1;vector-effect:none;fill:#fff;fill-opacity:1;fill-rule:nonzero;stroke:none;stroke-width:1;stroke-linecap:round;stroke-linejoin:round;stroke-miterlimit:4;stroke-dasharray:none;stroke-dashoffset:0;stroke-opacity:1;marker:none;paint-order:fill markers stroke;color-rendering:auto;image-rendering:auto;shape-rendering:auto;text-rendering:auto;enable-background:new"/>
</svg>
