<svg xmlns="http://www.w3.org/2000/svg" viewBox="0 0 20 20" xml:space="preserve">
    <g style="display:inline;fill:#fff;enable-background:new">
        <path d="M468.508 535.992a.5.5 0 0 0-.5.5v13a.5.5 0 0 0 .5.5h13a.5.5 0 0 0 .5-.5v-13a.5.5 0 0 0-.5-.5zm.5 1h12v5.006l-1-.006v2l1 .006V546h-1.006l.006-2.008h-2l-.006 2.008h-2l.006-2.008h-2l-.006 2.008h-2l.006-2.008h-2l-.006 2.008h-.994v-2.004l1-.006v-2l-1 .006zm3 7h2v-2h-2zm4 0h2v-2h-2z" style="display:inline;opacity:1;vector-effect:none;fill:#fff;fill-opacity:1;stroke:none;stroke-width:1;stroke-linecap:round;stroke-linejoin:round;stroke-miterlimit:4;stroke-dasharray:none;stroke-dashoffset:0;stroke-opacity:1;marker:none;paint-order:fill markers stroke;enable-background:new" transform="matrix(1 0 0 -1 -465.008 552.992)"/>
        <path d="M470.008 539.992v2h2v-2zm4 0v2h2v-2zm4 0v2h2v-2z" style="display:inline;opacity:.8;vector-effect:none;fill:#fff;fill-opacity:1;stroke:none;stroke-width:1;stroke-linecap:round;stroke-linejoin:round;stroke-miterlimit:4;stroke-dasharray:none;stroke-dashoffset:0;stroke-opacity:1;marker:none;paint-order:fill markers stroke;enable-background:new" transform="matrix(1 0 0 -1 -465.008 552.992)"/>
    </g>
</svg>
