<svg xmlns="http://www.w3.org/2000/svg" viewBox="0 0 20 20" xml:space="preserve">
    <path style="color:#000;font-style:normal;font-variant:normal;font-weight:400;font-stretch:normal;font-size:medium;line-height:normal;font-family:sans-serif;font-variant-ligatures:normal;font-variant-position:normal;font-variant-caps:normal;font-variant-numeric:normal;font-variant-alternates:normal;font-feature-settings:normal;text-indent:0;text-align:start;text-decoration:none;text-decoration-line:none;text-decoration-style:solid;text-decoration-color:#000;letter-spacing:normal;word-spacing:normal;text-transform:none;writing-mode:lr-tb;direction:ltr;text-orientation:mixed;dominant-baseline:auto;baseline-shift:baseline;text-anchor:start;white-space:normal;shape-padding:0;clip-rule:nonzero;display:inline;overflow:visible;visibility:visible;isolation:auto;mix-blend-mode:normal;color-interpolation:sRGB;color-interpolation-filters:linearRGB;solid-color:#000;solid-opacity:1;vector-effect:none;fill:#fff;fill-opacity:1;fill-rule:nonzero;stroke:none;stroke-width:1;stroke-linecap:round;stroke-linejoin:round;stroke-miterlimit:4;stroke-dasharray:none;stroke-dashoffset:0;stroke-opacity:1;marker:none;paint-order:fill markers stroke;color-rendering:auto;image-rendering:auto;shape-rendering:auto;text-rendering:auto;enable-background:accumulate" d="M6.322 3.033C4.612 3.106 3 4.517 3 6.97c0 1.294.432 2.553 1.072 3.729a.5.5 0 0 0 .793.113L8.5 7.177l1.646 1.647a.5.5 0 0 0 .708 0L13.5 6.177l2.482 2.483a.5.5 0 0 0 .84-.24c.111-.475.178-.958.178-1.45 0-2.453-1.612-3.864-3.322-3.937-1.522-.065-3.053.927-3.678 2.697-.625-1.77-2.156-2.762-3.678-2.697zm7.17 5.937a.5.5 0 0 0-.346.147L10.5 11.763l-1.646-1.646a.5.5 0 0 0-.708 0L5.8 12.464a.5.5 0 0 0-.033.672c1.232 1.499 2.623 2.792 3.652 3.707a.5.5 0 0 0 .332.127h.5a.5.5 0 0 0 .332-.127c1.415-1.258 3.54-3.213 4.961-5.488a.5.5 0 0 0-.07-.62l-1.62-1.618a.5.5 0 0 0-.36-.147z"/>
</svg>
