<svg xmlns="http://www.w3.org/2000/svg" viewBox="0 0 20 20" xml:space="preserve">
    <path style="color:#000;font-style:normal;font-variant:normal;font-weight:400;font-stretch:normal;font-size:medium;line-height:normal;font-family:sans-serif;font-variant-ligatures:normal;font-variant-position:normal;font-variant-caps:normal;font-variant-numeric:normal;font-variant-alternates:normal;font-feature-settings:normal;text-indent:0;text-align:start;text-decoration:none;text-decoration-line:none;text-decoration-style:solid;text-decoration-color:#000;letter-spacing:normal;word-spacing:normal;text-transform:none;writing-mode:lr-tb;direction:ltr;text-orientation:mixed;dominant-baseline:auto;baseline-shift:baseline;text-anchor:start;white-space:normal;shape-padding:0;clip-rule:nonzero;display:inline;overflow:visible;visibility:visible;isolation:auto;mix-blend-mode:normal;color-interpolation:sRGB;color-interpolation-filters:linearRGB;solid-color:#000;solid-opacity:1;vector-effect:none;fill:#fff;fill-opacity:1;fill-rule:nonzero;stroke:none;stroke-width:2.25;stroke-linecap:round;stroke-linejoin:round;stroke-miterlimit:4;stroke-dasharray:none;stroke-dashoffset:0;stroke-opacity:1;marker:none;color-rendering:auto;image-rendering:auto;shape-rendering:auto;text-rendering:auto;enable-background:new" d="M5.648 3.001a1.125 1.123 0 0 0-.773.341L3.343 4.87a1.125 1.123 0 1 0 1.592 1.588l1.53-1.527A1.125 1.123 0 0 0 5.647 3zm5.098 0a1.125 1.123 0 0 0-.774.34L3.343 9.958a1.126 1.124 0 1 0 1.592 1.59l2.129-2.126a3.024 3.024 0 0 1 2.348-2.344l2.152-2.15A1.125 1.123 0 0 0 10.746 3zm5.1 0a1.125 1.123 0 0 0-.774.34l-3.916 3.91c.714.3 1.29.87 1.6 1.579l3.906-3.9A1.125 1.123 0 0 0 15.845 3zm0 5.092a1.125 1.123 0 0 0-.774.339l-2.123 2.12a3.017 3.017 0 0 1-2.405 2.4L8.443 15.05a1.125 1.123 0 1 0 1.592 1.588l6.627-6.617a1.125 1.123 0 0 0-.817-1.928zm-5.843.92c-.56 0-.991.43-.998.987.01.552.444.988.998.988a.99.99 0 0 0 .998-.988.985.985 0 0 0-.998-.987zm-2.765 2.149L3.343 15.05a1.125 1.123 0 1 0 1.592 1.588l3.885-3.879a3.041 3.041 0 0 1-1.582-1.597zm8.607 2.02a1.125 1.123 0 0 0-.773.342l-1.53 1.526a1.125 1.123 0 1 0 1.59 1.588l1.53-1.527a1.125 1.123 0 0 0-.817-1.929z"/>
</svg>
