<svg xmlns="http://www.w3.org/2000/svg" viewBox="0 0 20 20" xml:space="preserve">
    <g style="display:inline;fill:#fff;enable-background:new">
        <path style="color:#000;font-style:normal;font-variant:normal;font-weight:400;font-stretch:normal;font-size:medium;line-height:normal;font-family:sans-serif;font-variant-ligatures:normal;font-variant-position:normal;font-variant-caps:normal;font-variant-numeric:normal;font-variant-alternates:normal;font-feature-settings:normal;text-indent:0;text-align:start;text-decoration:none;text-decoration-line:none;text-decoration-style:solid;text-decoration-color:#000;letter-spacing:normal;word-spacing:normal;text-transform:none;writing-mode:lr-tb;direction:ltr;text-orientation:mixed;dominant-baseline:auto;baseline-shift:baseline;text-anchor:start;white-space:normal;shape-padding:0;clip-rule:nonzero;display:inline;overflow:visible;visibility:visible;opacity:1;isolation:auto;mix-blend-mode:normal;color-interpolation:sRGB;color-interpolation-filters:linearRGB;solid-color:#000;solid-opacity:1;vector-effect:none;fill:#fff;fill-opacity:1;fill-rule:nonzero;stroke:none;stroke-width:1;stroke-linecap:round;stroke-linejoin:round;stroke-miterlimit:4;stroke-dasharray:none;stroke-dashoffset:.5;stroke-opacity:1;marker:none;paint-order:fill markers stroke;color-rendering:auto;image-rendering:auto;shape-rendering:auto;text-rendering:auto;enable-background:accumulate" d="m-76.5 394-3.752.006a.5.5 0 0 0-.482.379l-1.25 4.994a.5.5 0 0 0 .484.621h3.75a.5.5 0 0 0 .484-.379l1.25-5A.5.5 0 0 0-76.5 394zm6 0-3.752.006a.5.5 0 0 0-.482.379l-1.25 4.994a.5.5 0 0 0 .484.621h3.75a.5.5 0 0 0 .484-.379l1.25-5A.5.5 0 0 0-70.5 394zm-8 7-3.752.006a.5.5 0 0 0-.482.379l-1.25 4.994a.5.5 0 0 0 .484.621h3.75a.5.5 0 0 0 .484-.379l1.25-5A.5.5 0 0 0-78.5 401zm6 0-3.752.006a.5.5 0 0 0-.482.379l-1.25 4.994a.5.5 0 0 0 .484.621h3.75a.5.5 0 0 0 .484-.379l1.25-5A.5.5 0 0 0-72.5 401z" transform="translate(87 -390.5)"/>
    </g>
</svg>
