<svg xmlns="http://www.w3.org/2000/svg" viewBox="0 0 20 20" xml:space="preserve">
    <path style="color:#000;font-style:normal;font-variant:normal;font-weight:400;font-stretch:normal;font-size:medium;line-height:normal;font-family:sans-serif;font-variant-ligatures:normal;font-variant-position:normal;font-variant-caps:normal;font-variant-numeric:normal;font-variant-alternates:normal;font-feature-settings:normal;text-indent:0;text-align:start;text-decoration:none;text-decoration-line:none;text-decoration-style:solid;text-decoration-color:#000;letter-spacing:normal;word-spacing:normal;text-transform:none;writing-mode:lr-tb;direction:ltr;text-orientation:mixed;dominant-baseline:auto;baseline-shift:baseline;text-anchor:start;white-space:normal;shape-padding:0;clip-rule:nonzero;display:inline;overflow:visible;visibility:visible;isolation:auto;mix-blend-mode:normal;color-interpolation:sRGB;color-interpolation-filters:linearRGB;solid-color:#000;solid-opacity:1;vector-effect:none;fill:#fff;fill-opacity:1;fill-rule:nonzero;stroke:none;stroke-width:1px;stroke-linecap:round;stroke-linejoin:round;stroke-miterlimit:4;stroke-dasharray:none;stroke-dashoffset:0;stroke-opacity:1;marker:none;paint-order:fill markers stroke;color-rendering:auto;image-rendering:auto;shape-rendering:auto;text-rendering:auto;enable-background:accumulate" d="M7.5 13.5a.5.5 0 1 0 0 1h5a.5.5 0 1 0 0-1zm0 2a.5.5 0 1 0 0 1H9v.5a.5.5 0 0 0 .5.5h1a.5.5 0 0 0 .5-.5v-.5h1.5a.5.5 0 1 0 0-1zm2.5-13C6.717 2.5 4 4.941 4 8c0 1.722 1.088 3.295 2.146 4.354a.5.5 0 0 0 .354.146h7a.5.5 0 0 0 .353-.146c.711-.711 1.423-1.652 1.827-2.715.198-.521.32-1.073.32-1.639 0-3.059-2.717-5.5-6-5.5zM7.49 7.506a.52.52 0 0 1 .363.14l.854.854h2.586l.854-.854c.47-.45 1.157.236.707.707L12 9.207V11.5h-1v-2H9v2H8V9.207l-.854-.854a.5.5 0 0 1 .344-.847z"/>
</svg>
