<svg xmlns="http://www.w3.org/2000/svg" viewBox="0 0 20 20" xml:space="preserve">
    <g style="display:inline;fill:#fff;enable-background:new">
        <path d="M36 74a4.998 4.998 0 0 0-4.916 4.105c.482-.09.975-.129 1.47-.074.664.074.552 1.069-.11.994a3.997 3.997 0 0 0-1.438.102 4.995 4.995 0 0 0 4.857 4.867c.122-.473.166-.965.11-1.455a.5.5 0 1 1 .994-.115 5 5 0 0 1-.055 1.49A5 5 0 0 0 36 74zm-1.568 4.83a.5.5 0 0 1 .28.09c.542.363 1.006.828 1.368 1.37.406.559-.466 1.144-.83.556a3.997 3.997 0 0 0-1.094-1.096c-.42-.272-.225-.924.276-.92z" style="color:#000;clip-rule:nonzero;display:inline;overflow:visible;visibility:visible;opacity:1;isolation:auto;mix-blend-mode:normal;color-interpolation:sRGB;color-interpolation-filters:linearRGB;solid-color:#000;solid-opacity:1;vector-effect:none;fill:#fff;fill-opacity:1;fill-rule:evenodd;stroke:none;stroke-width:1;stroke-linecap:round;stroke-linejoin:round;stroke-miterlimit:4;stroke-dasharray:none;stroke-dashoffset:0;stroke-opacity:1;marker:none;color-rendering:auto;image-rendering:auto;shape-rendering:auto;text-rendering:auto;enable-background:accumulate" transform="translate(-24 -71)"/>
        <path style="color:#000;font-style:normal;font-variant:normal;font-weight:400;font-stretch:normal;font-size:medium;line-height:normal;font-family:sans-serif;font-variant-ligatures:normal;font-variant-position:normal;font-variant-caps:normal;font-variant-numeric:normal;font-variant-alternates:normal;font-feature-settings:normal;text-indent:0;text-align:start;text-decoration:none;text-decoration-line:none;text-decoration-style:solid;text-decoration-color:#000;letter-spacing:normal;word-spacing:normal;text-transform:none;writing-mode:lr-tb;direction:ltr;text-orientation:mixed;dominant-baseline:auto;baseline-shift:baseline;text-anchor:start;white-space:normal;shape-padding:0;clip-rule:nonzero;display:inline;overflow:visible;visibility:visible;opacity:1;isolation:auto;mix-blend-mode:normal;color-interpolation:sRGB;color-interpolation-filters:linearRGB;solid-color:#000;solid-opacity:1;vector-effect:none;fill:#fff;fill-opacity:1;fill-rule:nonzero;stroke:none;stroke-width:1;stroke-linecap:round;stroke-linejoin:round;stroke-miterlimit:4;stroke-dasharray:none;stroke-dashoffset:0;stroke-opacity:1;marker:none;paint-order:fill markers stroke;color-rendering:auto;image-rendering:auto;shape-rendering:auto;text-rendering:auto;enable-background:accumulate" d="M29.484 78.758a.5.5 0 0 0-.267.088 5 5 0 1 0 6.895 7 .5.5 0 1 0-.823-.569 3.997 3.997 0 0 1-4.111 1.637 3.998 3.998 0 0 1-1.404-7.238.5.5 0 0 0-.29-.918z" transform="translate(-24 -71)"/>
    </g>
</svg>
