<svg xmlns="http://www.w3.org/2000/svg" viewBox="0 0 20 20" xml:space="preserve">
    <g style="display:inline;opacity:.99;fill:#fff;enable-background:new">
        <path style="color:#000;font-style:normal;font-variant:normal;font-weight:400;font-stretch:normal;font-size:medium;line-height:normal;font-family:sans-serif;font-variant-ligatures:normal;font-variant-position:normal;font-variant-caps:normal;font-variant-numeric:normal;font-variant-alternates:normal;font-feature-settings:normal;text-indent:0;text-align:start;text-decoration:none;text-decoration-line:none;text-decoration-style:solid;text-decoration-color:#000;letter-spacing:normal;word-spacing:normal;text-transform:none;writing-mode:lr-tb;direction:ltr;text-orientation:mixed;dominant-baseline:auto;baseline-shift:baseline;text-anchor:start;white-space:normal;shape-padding:0;clip-rule:nonzero;display:inline;overflow:visible;visibility:visible;opacity:1;isolation:auto;mix-blend-mode:normal;color-interpolation:sRGB;color-interpolation-filters:linearRGB;solid-color:#000;solid-opacity:1;vector-effect:none;fill:#fff;fill-opacity:1;fill-rule:nonzero;stroke:none;stroke-width:1;stroke-linecap:round;stroke-linejoin:round;stroke-miterlimit:4;stroke-dasharray:none;stroke-dashoffset:0;stroke-opacity:1;marker:none;color-rendering:auto;image-rendering:auto;shape-rendering:auto;text-rendering:auto;enable-background:accumulate" d="M823.99 430.005v2h5v3.708l1.854-1.855a.5.5 0 0 0 .146-.353c.011-.974 0-3.042 0-3.5zm-3 3v4h7v-4zm11.484 1.125a.5.5 0 0 0-.338.146l-3.728 3.729h-8.912a.5.5 0 0 0-.5.5v5a.5.5 0 0 0 .5.5h8.494v-4.5a.5.5 0 0 1 .492-.506.5.5 0 0 1 .508.506v4.332l3.853-3.854a.5.5 0 0 0 .147-.353v-5a.5.5 0 0 0-.516-.5z" transform="translate(-815.993 -427.005)"/>
    </g>
</svg>
