<svg xmlns="http://www.w3.org/2000/svg" viewBox="0 0 20 20" xml:space="preserve">
    <g style="display:inline;fill:#fff;enable-background:new">
        <path style="color:#000;font-style:normal;font-variant:normal;font-weight:400;font-stretch:normal;font-size:medium;line-height:normal;font-family:sans-serif;font-variant-ligatures:normal;font-variant-position:normal;font-variant-caps:normal;font-variant-numeric:normal;font-variant-alternates:normal;font-feature-settings:normal;text-indent:0;text-align:start;text-decoration:none;text-decoration-line:none;text-decoration-style:solid;text-decoration-color:#000;letter-spacing:normal;word-spacing:normal;text-transform:none;writing-mode:lr-tb;direction:ltr;text-orientation:mixed;dominant-baseline:auto;baseline-shift:baseline;text-anchor:start;white-space:normal;shape-padding:0;clip-rule:nonzero;display:inline;overflow:visible;visibility:visible;opacity:1;isolation:auto;mix-blend-mode:normal;color-interpolation:sRGB;color-interpolation-filters:linearRGB;solid-color:#000;solid-opacity:1;vector-effect:none;fill:#fff;fill-opacity:1;fill-rule:nonzero;stroke:none;stroke-width:1;stroke-linecap:round;stroke-linejoin:round;stroke-miterlimit:4;stroke-dasharray:none;stroke-dashoffset:0;stroke-opacity:1;color-rendering:auto;image-rendering:auto;shape-rendering:auto;text-rendering:auto;enable-background:new" d="M183.813 200.016a4.567 4.567 0 0 1 4.17 4.154 4.57 4.57 0 0 1-3.393 4.812.5.5 0 1 1-.254-.968 3.56 3.56 0 0 0 2.65-3.758 3.557 3.557 0 0 0-3.256-3.244 3.558 3.558 0 0 0-3.744 2.668.5.5 0 1 1-.968-.248 4.568 4.568 0 0 1 4.794-3.416zM178.5 205a.5.5 0 1 1 0 1 3.498 3.498 0 0 0-2.475 5.975A3.498 3.498 0 0 0 182 209.5a.5.5 0 1 1 1 0 4.503 4.503 0 0 1-2.777 4.158 4.504 4.504 0 0 1-5.881-5.88A4.503 4.503 0 0 1 178.5 205z" transform="translate(-171 -197)"/>
        <path style="opacity:1;vector-effect:none;fill:#fff;fill-opacity:1;stroke:none;stroke-width:1;stroke-linecap:square;stroke-linejoin:round;stroke-miterlimit:4;stroke-dasharray:none;stroke-dashoffset:0;stroke-opacity:1;marker:none;paint-order:fill markers stroke" d="M182.996 206.502a1.498 1.498 0 0 1-1.498 1.498 1.498 1.498 0 0 1-1.498-1.498 1.498 1.498 0 0 1 1.498-1.498 1.498 1.498 0 0 1 1.498 1.498z" transform="translate(-171 -197)"/>
    </g>
</svg>
