<svg xmlns="http://www.w3.org/2000/svg" viewBox="0 0 20 20" xml:space="preserve">
    <g style="display:inline;fill:#fff;stroke:#fff;enable-background:new">
        <path style="color:#000;font-style:normal;font-variant:normal;font-weight:400;font-stretch:normal;font-size:medium;line-height:normal;font-family:sans-serif;font-variant-ligatures:normal;font-variant-position:normal;font-variant-caps:normal;font-variant-numeric:normal;font-variant-alternates:normal;font-feature-settings:normal;text-indent:0;text-align:start;text-decoration:none;text-decoration-line:none;text-decoration-style:solid;text-decoration-color:#000;letter-spacing:normal;word-spacing:normal;text-transform:none;writing-mode:lr-tb;direction:ltr;text-orientation:mixed;dominant-baseline:auto;baseline-shift:baseline;text-anchor:start;white-space:normal;shape-padding:0;clip-rule:nonzero;display:inline;overflow:visible;visibility:visible;opacity:1;isolation:auto;mix-blend-mode:normal;color-interpolation:sRGB;color-interpolation-filters:linearRGB;solid-color:#000;solid-opacity:1;vector-effect:none;fill:#fff;fill-opacity:1;fill-rule:nonzero;stroke:none;stroke-width:1;stroke-linecap:round;stroke-linejoin:round;stroke-miterlimit:4;stroke-dasharray:none;stroke-dashoffset:0;stroke-opacity:1;marker:none;paint-order:fill markers stroke;color-rendering:auto;image-rendering:auto;shape-rendering:auto;text-rendering:auto;enable-background:new" d="M411.492 577.947a.5.5 0 0 0-.492.508v7a.5.5 0 1 0 1 0v-7a.5.5 0 0 0-.508-.508zM408.477 580a.5.5 0 0 0-.223.068c-2.545 1.437-3.794 4.383-3.031 7.168.763 2.786 3.342 4.72 6.277 4.72s5.514-1.934 6.277-4.72c.763-2.785-.486-5.73-3.03-7.168a.5.5 0 1 0-.493.871c2.159 1.22 3.201 3.688 2.558 6.034-.642 2.345-2.815 3.982-5.312 3.982-2.497 0-4.67-1.637-5.313-3.982-.642-2.346.4-4.814 2.56-6.034a.5.5 0 0 0-.27-.939z" transform="translate(-401.5 -574.951)"/>
    </g>
</svg>
