<svg xmlns="http://www.w3.org/2000/svg" viewBox="0 0 20 20" xml:space="preserve">
    <g style="display:inline;fill:#fff;enable-background:new">
        <path style="color:#000;font-style:normal;font-variant:normal;font-weight:400;font-stretch:normal;font-size:medium;line-height:normal;font-family:sans-serif;font-variant-ligatures:normal;font-variant-position:normal;font-variant-caps:normal;font-variant-numeric:normal;font-variant-alternates:normal;font-feature-settings:normal;text-indent:0;text-align:start;text-decoration:none;text-decoration-line:none;text-decoration-style:solid;text-decoration-color:#000;letter-spacing:normal;word-spacing:normal;text-transform:none;writing-mode:lr-tb;direction:ltr;text-orientation:mixed;dominant-baseline:auto;baseline-shift:baseline;text-anchor:start;white-space:normal;shape-padding:0;clip-rule:nonzero;display:inline;overflow:visible;visibility:visible;opacity:.99;isolation:auto;mix-blend-mode:normal;color-interpolation:sRGB;color-interpolation-filters:linearRGB;solid-color:#000;solid-opacity:1;vector-effect:none;fill:#fff;fill-opacity:1;fill-rule:nonzero;stroke:none;stroke-width:1;stroke-linecap:round;stroke-linejoin:round;stroke-miterlimit:4;stroke-dasharray:none;stroke-dashoffset:0;stroke-opacity:1;marker:none;paint-order:fill markers stroke;color-rendering:auto;image-rendering:auto;shape-rendering:auto;text-rendering:auto;enable-background:new" d="M447.494 577.99a.5.5 0 0 0-.492.508v4a.5.5 0 0 0 .5.5h4a.5.5 0 1 0 0-1h-2.688a5.986 5.986 0 0 1 7.368-2.58 5.988 5.988 0 0 1 3.664 6.9 5.987 5.987 0 0 1-6.27 4.66 5.99 5.99 0 0 1-5.55-5.5.5.5 0 1 0-.997.08 6.997 6.997 0 0 0 6.475 6.417 6.999 6.999 0 0 0 7.318-5.436 7 7 0 0 0-4.275-8.053 6.998 6.998 0 0 0-8.545 2.93v-2.918a.5.5 0 0 0-.508-.508zm8.988 3.004a.5.5 0 0 0-.382.205l-3 4a.5.5 0 0 0-.016.578l2 3a.5.5 0 1 0 .832-.554l-1.803-2.705 2.787-3.717a.5.5 0 0 0 .104-.313.5.5 0 0 0-.522-.494z" transform="translate(-443.998 -574.991)"/>
    </g>
</svg>
