<svg xmlns="http://www.w3.org/2000/svg" viewBox="0 0 20 20" xml:space="preserve">
    <g style="display:inline;fill:#fff;enable-background:new">
        <path style="color:#000;font-style:normal;font-variant:normal;font-weight:400;font-stretch:normal;font-size:medium;line-height:normal;font-family:sans-serif;font-variant-ligatures:normal;font-variant-position:normal;font-variant-caps:normal;font-variant-numeric:normal;font-variant-alternates:normal;font-feature-settings:normal;text-indent:0;text-align:start;text-decoration:none;text-decoration-line:none;text-decoration-style:solid;text-decoration-color:#000;letter-spacing:normal;word-spacing:normal;text-transform:none;writing-mode:lr-tb;direction:ltr;text-orientation:mixed;dominant-baseline:auto;baseline-shift:baseline;text-anchor:start;white-space:normal;shape-padding:0;clip-rule:nonzero;display:inline;overflow:visible;visibility:visible;opacity:1;isolation:auto;mix-blend-mode:normal;color-interpolation:sRGB;color-interpolation-filters:linearRGB;solid-color:#000;solid-opacity:1;vector-effect:none;fill:#fff;fill-opacity:1;fill-rule:nonzero;stroke:none;stroke-width:1;stroke-linecap:round;stroke-linejoin:round;stroke-miterlimit:4;stroke-dasharray:none;stroke-dashoffset:0;stroke-opacity:1;marker:none;paint-order:fill markers stroke;color-rendering:auto;image-rendering:auto;shape-rendering:auto;text-rendering:auto;enable-background:accumulate" d="M202 473c-3.86 0-7 3.14-7 7s3.14 7 7 7 7-3.14 7-7-3.14-7-7-7zm0 1c1.099 0 2 .901 2 2s-.901 2-2 2-2-.901-2-2 .901-2 2-2zm-4 4c1.099 0 2 .901 2 2s-.901 2-2 2-2-.901-2-2 .901-2 2-2zm8 0c1.099 0 2 .901 2 2s-.901 2-2 2-2-.901-2-2 .901-2 2-2zm-4 1c.546 0 1 .454 1 1s-.454 1-1 1-1-.454-1-1 .454-1 1-1zm0 3c1.099 0 2 .901 2 2s-.901 2-2 2-2-.901-2-2 .901-2 2-2zm4.965 4a.5.5 0 0 0-.473.492.5.5 0 0 0 .508.508h.5c.833 0 1.147.354 1.646.854a.5.5 0 1 0 .708-.708c-.5-.5-1.187-1.146-2.354-1.146h-.5a.5.5 0 0 0-.035 0z" transform="translate(-192.504 -470.504)"/>
    </g>
</svg>
