<svg xmlns="http://www.w3.org/2000/svg" viewBox="0 0 20 20" xml:space="preserve">
    <path style="color:#000;font-style:normal;font-variant:normal;font-weight:400;font-stretch:normal;font-size:medium;line-height:normal;font-family:sans-serif;font-variant-ligatures:normal;font-variant-position:normal;font-variant-caps:normal;font-variant-numeric:normal;font-variant-alternates:normal;font-feature-settings:normal;text-indent:0;text-align:start;text-decoration:none;text-decoration-line:none;text-decoration-style:solid;text-decoration-color:#000;letter-spacing:normal;word-spacing:normal;text-transform:none;writing-mode:lr-tb;direction:ltr;text-orientation:mixed;dominant-baseline:auto;baseline-shift:baseline;text-anchor:start;white-space:normal;shape-padding:0;clip-rule:nonzero;display:inline;overflow:visible;visibility:visible;isolation:auto;mix-blend-mode:normal;color-interpolation:sRGB;color-interpolation-filters:linearRGB;solid-color:#000;solid-opacity:1;vector-effect:none;fill:#fff;fill-opacity:1;fill-rule:nonzero;stroke:none;stroke-width:1px;stroke-linecap:round;stroke-linejoin:round;stroke-miterlimit:4;stroke-dasharray:none;stroke-dashoffset:0;stroke-opacity:1;marker:none;color-rendering:auto;image-rendering:auto;shape-rendering:auto;text-rendering:auto;enable-background:new" d="M9 4.5a.5.5 0 0 0-.354.146L6.793 6.5H4a.5.5 0 0 0-.5.5v8a.5.5 0 0 0 .5.5h6.457a.435.435 0 0 0 .05-.004.619.619 0 0 0 .044.004H16a.5.5 0 0 0 .5-.5V7a.5.5 0 0 0-.5-.5h-1.793l-1.853-1.854A.5.5 0 0 0 12 4.5zm1.498 1.998A3.994 3.994 0 0 1 14.5 10.5a3.994 3.994 0 0 1-3.955 4 .435.435 0 0 0-.04.004l-.044-.004h-.004a3.994 3.994 0 0 1-3.96-4 3.994 3.994 0 0 1 4-4.002zm0 1.002a3.006 3.006 0 0 0-2.998 3c0 1.65 1.347 3 2.998 3 1.65 0 3-1.35 3-3s-1.35-3-3-3zm0 1c1.11 0 2 .89 2 2 0 1.11-.89 2-2 2-1.11 0-1.998-.89-1.998-2 0-1.11.888-2 1.998-2z"/>
</svg>
