<svg xmlns="http://www.w3.org/2000/svg" viewBox="0 0 20 20" xml:space="preserve">
    <g style="display:inline;opacity:.99;fill:#fff;enable-background:new">
        <path style="color:#000;font-style:normal;font-variant:normal;font-weight:400;font-stretch:normal;font-size:medium;line-height:normal;font-family:sans-serif;font-variant-ligatures:normal;font-variant-position:normal;font-variant-caps:normal;font-variant-numeric:normal;font-variant-alternates:normal;font-feature-settings:normal;text-indent:0;text-align:start;text-decoration:none;text-decoration-line:none;text-decoration-style:solid;text-decoration-color:#000;letter-spacing:normal;word-spacing:normal;text-transform:none;writing-mode:lr-tb;direction:ltr;text-orientation:mixed;dominant-baseline:auto;baseline-shift:baseline;text-anchor:start;white-space:normal;shape-padding:0;clip-rule:nonzero;display:inline;overflow:visible;visibility:visible;opacity:1;isolation:auto;mix-blend-mode:normal;color-interpolation:sRGB;color-interpolation-filters:linearRGB;solid-color:#000;solid-opacity:1;vector-effect:none;fill:#fff;fill-opacity:1;fill-rule:nonzero;stroke:none;stroke-width:1;stroke-linecap:round;stroke-linejoin:round;stroke-miterlimit:4;stroke-dasharray:none;stroke-dashoffset:0;stroke-opacity:1;color-rendering:auto;image-rendering:auto;shape-rendering:auto;text-rendering:auto;enable-background:new" d="M475 157.996c-1.798 0-2.785.233-3.389.752-.603.52-.611 1.254-.611 1.748v.5h-.002c-.128 0-.911 0-1.639.537-.728.538-1.36 1.61-1.359 3.467 0 .847.125 1.439.353 1.895.229.455.546.742.815.98a.5.5 0 1 0 .664-.75c-.264-.234-.445-.4-.584-.678-.139-.277-.248-.698-.248-1.447 0-1.643.494-2.323.953-2.662.46-.339.924-.342 1.047-.342h.443a.5.5 0 0 0 .059.004l3-.01a.5.5 0 0 0-.002-1h-.004l-2.496.004v-.498c0-.494-.008-.756.264-.99.271-.234 1.034-.51 2.736-.51 1.702 0 2.465.276 2.736.51.272.234.264.496.264.99v1.994c0 .479-.265.79-.846 1.13-.58.34-1.432.62-2.306.901-.875.282-1.775.564-2.506.989-.731.425-1.342 1.082-1.342 1.98v2.014c0 .494.008 1.229.611 1.748.604.52 1.59.752 3.389.752 1.798 0 2.785-.233 3.389-.752.603-.52.611-1.254.611-1.748v-.5c.127 0 .912 0 1.64-.537.73-.538 1.36-1.61 1.36-3.467 0-1.57-.67-2.348-1.137-2.844a.5.5 0 1 0-.726.688c.47.499.863.831.863 2.156 0 1.643-.494 2.323-.953 2.662-.46.339-.924.342-1.047.342h-.443a.5.5 0 0 0-.059-.004l-3 .01a.5.5 0 0 0 .002 1h.004l2.496-.004v.498c0 .494.008.756-.264.99-.271.234-1.034.51-2.736.51-1.702 0-2.465-.276-2.736-.51-.272-.234-.264-.496-.264-.99v-2.014c0-.472.264-.779.846-1.117.581-.338 1.431-.619 2.306-.9.876-.282 1.775-.563 2.506-.99.732-.429 1.342-1.091 1.342-1.993v-1.994c0-.494-.008-1.229-.611-1.748-.604-.52-1.59-.752-3.389-.752z" transform="translate(-465 -155)"/>
    </g>
</svg>
