<svg xmlns="http://www.w3.org/2000/svg" viewBox="0 0 20 20" xml:space="preserve">
    <g style="display:inline;fill:#fff;enable-background:new">
        <path style="color:#000;font-style:normal;font-variant:normal;font-weight:400;font-stretch:normal;font-size:medium;line-height:normal;font-family:sans-serif;font-variant-ligatures:normal;font-variant-position:normal;font-variant-caps:normal;font-variant-numeric:normal;font-variant-alternates:normal;font-feature-settings:normal;text-indent:0;text-align:start;text-decoration:none;text-decoration-line:none;text-decoration-style:solid;text-decoration-color:#000;letter-spacing:normal;word-spacing:normal;text-transform:none;writing-mode:lr-tb;direction:ltr;text-orientation:mixed;dominant-baseline:auto;baseline-shift:baseline;text-anchor:start;white-space:normal;shape-padding:0;clip-rule:nonzero;display:inline;overflow:visible;visibility:visible;opacity:1;isolation:auto;mix-blend-mode:normal;color-interpolation:sRGB;color-interpolation-filters:linearRGB;solid-color:#000;solid-opacity:1;vector-effect:none;fill:#fff;fill-opacity:1;fill-rule:nonzero;stroke:none;stroke-width:1;stroke-linecap:round;stroke-linejoin:round;stroke-miterlimit:4;stroke-dasharray:none;stroke-dashoffset:0;stroke-opacity:1;marker:none;color-rendering:auto;image-rendering:auto;shape-rendering:auto;text-rendering:auto;enable-background:accumulate" d="M143.139 515.033c-.496-.045-1.039.16-1.493.613l-1.75 1.75a.5.5 0 0 0 0 .708l3 3a.5.5 0 0 0 .708 0l1.75-1.75c.453-.454.658-.997.613-1.493-.045-.496-.305-.906-.613-1.215l-1-1c-.31-.308-.72-.568-1.215-.613zm-4.397 3.717a.5.5 0 0 0-.346.146l-.25.25a.5.5 0 0 0 0 .708l3 3a.5.5 0 0 0 .708 0l.25-.25a.5.5 0 0 0 0-.708l-3-3a.5.5 0 0 0-.362-.146zm-1.252 2.246a.5.5 0 0 0-.344.15l-4.25 4.25c-.838.839-1.068 1.758-.802 2.467.266.71.948 1.137 1.656 1.137H138c1 0 2-.798 2-2v-3.5a.5.5 0 1 0-1 0v3.5c0 .665-.504 1-1 1h-4.25a.798.798 0 0 1-.719-.488c-.109-.29-.09-.747.573-1.408l4.25-4.25a.5.5 0 0 0-.364-.858z" transform="translate(-128.98 -512.014)"/>
    </g>
</svg>
