<svg xmlns="http://www.w3.org/2000/svg" viewBox="0 0 20 20" xml:space="preserve">
    <g style="display:inline;fill:#fff;enable-background:new">
        <path transform="translate(-444.004 -322.998)" d="M447.004 325.998v2h1v-1h1v-1zm4 0v1h2v-1zm4 0v1h2v-1zm4 0v1h1v1h1v-2zm-12 4v2h1v-2zm13 0v2h1v-2zm-13 4v2h1v-2zm13 0v2h1v-2zm-13 4v2h2v-1h-1v-1zm13 0v1h-1v1h2v-2zm-9 1v1h2v-1zm4 0v1h2v-1z" style="opacity:1;vector-effect:none;fill:#fff;fill-opacity:1;stroke:none;stroke-width:1;stroke-linecap:round;stroke-linejoin:round;stroke-miterlimit:4;stroke-dasharray:none;stroke-dashoffset:0;stroke-opacity:1;marker:none"/>
    </g>
</svg>
