<svg xmlns="http://www.w3.org/2000/svg" viewBox="0 0 20 20" xml:space="preserve">
    <path style="color:#000;font-style:normal;font-variant:normal;font-weight:400;font-stretch:normal;font-size:medium;line-height:normal;font-family:sans-serif;font-variant-ligatures:normal;font-variant-position:normal;font-variant-caps:normal;font-variant-numeric:normal;font-variant-alternates:normal;font-feature-settings:normal;text-indent:0;text-align:start;text-decoration:none;text-decoration-line:none;text-decoration-style:solid;text-decoration-color:#000;letter-spacing:normal;word-spacing:normal;text-transform:none;writing-mode:lr-tb;direction:ltr;text-orientation:mixed;dominant-baseline:auto;baseline-shift:baseline;text-anchor:start;white-space:normal;shape-padding:0;clip-rule:nonzero;display:inline;overflow:visible;visibility:visible;opacity:.6;isolation:auto;mix-blend-mode:normal;color-interpolation:sRGB;color-interpolation-filters:linearRGB;solid-color:#000;solid-opacity:1;vector-effect:none;fill:#fff;fill-opacity:1;fill-rule:nonzero;stroke:none;stroke-width:1px;stroke-linecap:round;stroke-linejoin:round;stroke-miterlimit:4;stroke-dasharray:none;stroke-dashoffset:0;stroke-opacity:1;color-rendering:auto;image-rendering:auto;shape-rendering:auto;text-rendering:auto;enable-background:new" d="M6.489 12.005a.5.5 0 0 0-.493.508v1.5h-2.5a.5.5 0 0 0-.5.5v2a.5.5 0 1 0 1 0v-1.5h2.5a.5.5 0 0 0 .5-.5v-2a.5.5 0 0 0-.507-.508z"/>
    <path style="color:#000;font-style:normal;font-variant:normal;font-weight:400;font-stretch:normal;font-size:medium;line-height:normal;font-family:sans-serif;font-variant-ligatures:normal;font-variant-position:normal;font-variant-caps:normal;font-variant-numeric:normal;font-variant-alternates:normal;font-feature-settings:normal;text-indent:0;text-align:start;text-decoration:none;text-decoration-line:none;text-decoration-style:solid;text-decoration-color:#000;letter-spacing:normal;word-spacing:normal;text-transform:none;writing-mode:lr-tb;direction:ltr;text-orientation:mixed;dominant-baseline:auto;baseline-shift:baseline;text-anchor:start;white-space:normal;shape-padding:0;clip-rule:nonzero;display:inline;overflow:visible;visibility:visible;isolation:auto;mix-blend-mode:normal;color-interpolation:sRGB;color-interpolation-filters:linearRGB;solid-color:#000;solid-opacity:1;vector-effect:none;fill:#fff;fill-opacity:1;fill-rule:nonzero;stroke:none;stroke-width:1;stroke-linecap:round;stroke-linejoin:round;stroke-miterlimit:4;stroke-dasharray:none;stroke-dashoffset:0;stroke-opacity:1;marker:none;paint-order:fill markers stroke;color-rendering:auto;image-rendering:auto;shape-rendering:auto;text-rendering:auto;enable-background:new" d="M10.887 2.98c-1.595-.02-3.17.539-4.254 1.691l-.74.739a.5.5 0 0 0 0 .707l2 2a.5.5 0 0 0 .707 0l.5-.5c.585-.585 1.582-.898 2.346-.694.801.215 1.425.84 1.64 1.641.205.764-.108 1.76-.693 2.346l-.5.5a.5.5 0 0 0 0 .707l2 2a.5.5 0 0 0 .707 0l.75-.75c2.224-2.224 2.218-6.298-.098-8.613C14.094 3.596 12.482 3 10.887 2.98zM4.739 6.763a.5.5 0 0 0-.346.147l-1.25 1.25a.5.5 0 0 0 0 .707l2 2a.5.5 0 0 0 .707 0l1.25-1.25a.5.5 0 0 0 0-.707l-2-2a.5.5 0 0 0-.361-.147zm6 6a.5.5 0 0 0-.346.147l-1.25 1.25a.5.5 0 0 0 0 .707l2 2a.5.5 0 0 0 .707 0l1.25-1.25a.5.5 0 0 0 0-.707l-2-2a.5.5 0 0 0-.361-.147z"/>
</svg>
