<svg xmlns="http://www.w3.org/2000/svg" viewBox="0 0 20 20" xml:space="preserve">
    <g style="display:inline;fill:#fff;stroke-width:1.03551;enable-background:new">
        <path style="color:#000;font-style:normal;font-variant:normal;font-weight:400;font-stretch:normal;font-size:medium;line-height:normal;font-family:sans-serif;font-variant-ligatures:normal;font-variant-position:normal;font-variant-caps:normal;font-variant-numeric:normal;font-variant-alternates:normal;font-feature-settings:normal;text-indent:0;text-align:start;text-decoration:none;text-decoration-line:none;text-decoration-style:solid;text-decoration-color:#000;letter-spacing:normal;word-spacing:normal;text-transform:none;writing-mode:lr-tb;direction:ltr;text-orientation:mixed;dominant-baseline:auto;baseline-shift:baseline;text-anchor:start;white-space:normal;shape-padding:0;clip-rule:nonzero;display:inline;overflow:visible;visibility:visible;opacity:1;isolation:auto;mix-blend-mode:normal;color-interpolation:sRGB;color-interpolation-filters:linearRGB;solid-color:#000;solid-opacity:1;vector-effect:none;fill:#fff;fill-opacity:1;fill-rule:nonzero;stroke:none;stroke-width:1.03551;stroke-linecap:round;stroke-linejoin:round;stroke-miterlimit:4;stroke-dasharray:none;stroke-dashoffset:0;stroke-opacity:1;marker:none;color-rendering:auto;image-rendering:auto;shape-rendering:auto;text-rendering:auto;enable-background:accumulate" d="M23.46 40.03a.518.518 0 0 1-.491-.544l.031-.879v-.003a7.592 7.592 0 0 1 3.748-6.543 7.44 7.44 0 0 1 7.506 0 7.592 7.592 0 0 1 3.748 6.56v.883a.518.518 0 1 1-1.035 0v-.883a6.555 6.555 0 0 0-3.237-5.666 6.396 6.396 0 0 0-6.46 0 6.554 6.554 0 0 0-3.235 5.666.518.518 0 0 1-.002.018l-.03.882a.518.518 0 0 1-.542.508z" transform="matrix(.93036 0 0 1.00239 -18.362 -25.626)"/>
    </g>
</svg>
