<svg xmlns="http://www.w3.org/2000/svg" viewBox="0 0 20 20" xml:space="preserve">
    <path style="color:#000;font-style:normal;font-variant:normal;font-weight:400;font-stretch:normal;font-size:medium;line-height:normal;font-family:sans-serif;font-variant-ligatures:normal;font-variant-position:normal;font-variant-caps:normal;font-variant-numeric:normal;font-variant-alternates:normal;font-feature-settings:normal;text-indent:0;text-align:start;text-decoration:none;text-decoration-line:none;text-decoration-style:solid;text-decoration-color:#000;letter-spacing:normal;word-spacing:normal;text-transform:none;writing-mode:lr-tb;direction:ltr;text-orientation:mixed;dominant-baseline:auto;baseline-shift:baseline;text-anchor:start;white-space:normal;shape-padding:0;clip-rule:nonzero;display:inline;overflow:visible;visibility:visible;isolation:auto;mix-blend-mode:normal;color-interpolation:sRGB;color-interpolation-filters:linearRGB;solid-color:#000;solid-opacity:1;vector-effect:none;fill:#fff;fill-opacity:1;fill-rule:nonzero;stroke:none;stroke-width:1;stroke-linecap:round;stroke-linejoin:round;stroke-miterlimit:4;stroke-dasharray:none;stroke-dashoffset:0;stroke-opacity:1;marker:none;paint-order:fill markers stroke;color-rendering:auto;image-rendering:auto;shape-rendering:auto;text-rendering:auto;enable-background:new" d="M4.5 3C3.678 3 3 3.678 3 4.5 3 5.323 3.678 6 4.5 6c.647 0 1.198-.421 1.406-1h1.188c.208.579.76 1 1.406 1 .822 0 1.5-.677 1.5-1.5C10 3.678 9.322 3 8.5 3c-.646 0-1.197.422-1.406 1H5.906c-.209-.578-.76-1-1.406-1zm11 0c-.646 0-1.197.422-1.406 1H13.5a.5.5 0 0 0-.354.146L9.293 8H5.906c-.209-.578-.76-1-1.406-1C3.678 7 3 7.678 3 8.5c0 .823.678 1.5 1.5 1.5.647 0 1.198-.421 1.406-1H9.5a.5.5 0 0 0 .354-.146L13.707 5h.387c.208.579.76 1 1.406 1 .823 0 1.5-.677 1.5-1.5 0-.822-.677-1.5-1.5-1.5zm-11 1a.49.49 0 0 1 .494.469.5.5 0 0 0 0 .062A.49.49 0 0 1 4.5 5a.493.493 0 0 1-.5-.5c0-.282.218-.5.5-.5zm4 0c.282 0 .5.218.5.5 0 .282-.218.5-.5.5a.49.49 0 0 1-.494-.469.5.5 0 0 0 0-.062A.49.49 0 0 1 8.5 4zm7 0c.282 0 .5.218.5.5 0 .282-.218.5-.5.5a.49.49 0 0 1-.494-.469.5.5 0 0 0 0-.062A.49.49 0 0 1 15.5 4zm0 3c-.646 0-1.197.422-1.406 1H13.5a.5.5 0 0 0-.354.146l-5 5A.5.5 0 0 0 8 13.5v.594c-.579.208-1 .76-1 1.406 0 .823.678 1.5 1.5 1.5s1.5-.677 1.5-1.5c0-.647-.421-1.198-1-1.406v-.387L13.707 9h.387c.208.579.76 1 1.406 1 .823 0 1.5-.677 1.5-1.5 0-.822-.677-1.5-1.5-1.5zm-11 1c.282 0 .5.218.5.5 0 .282-.218.5-.5.5a.493.493 0 0 1-.5-.5c0-.282.218-.5.5-.5zm11 0c.282 0 .5.218.5.5 0 .282-.218.5-.5.5a.49.49 0 0 1-.494-.469.5.5 0 0 0 0-.062A.49.49 0 0 1 15.5 8zm-11 3c-.822 0-1.5.678-1.5 1.5 0 .823.678 1.5 1.5 1.5S6 13.323 6 12.5c0-.822-.678-1.5-1.5-1.5zm11 0c-.823 0-1.5.677-1.5 1.5 0 .23.058.447.152.643a.5.5 0 0 0-.006.004l-1 1a.5.5 0 0 0-.004.006A1.47 1.47 0 0 0 12.5 14c-.822 0-1.5.678-1.5 1.5 0 .823.677 1.5 1.5 1.5s1.5-.677 1.5-1.5c0-.23-.058-.445-.152-.64a.5.5 0 0 0 .006-.007l1-1a.5.5 0 0 0 .004-.004c.195.095.412.151.642.151.823 0 1.5-.677 1.5-1.5 0-.822-.677-1.5-1.5-1.5zm-11 1c.282 0 .5.218.5.5 0 .282-.218.5-.5.5a.493.493 0 0 1-.5-.5c0-.282.218-.5.5-.5zm11 0c.282 0 .5.218.5.5 0 .282-.218.5-.5.5a.493.493 0 0 1-.5-.5c0-.282.218-.5.5-.5zm-3 3c.282 0 .5.218.5.5 0 .282-.218.5-.5.5a.493.493 0 0 1-.5-.5c0-.282.218-.5.5-.5zm-4.03.006a.5.5 0 0 0 .038 0 .5.5 0 0 0 .017 0A.489.489 0 0 1 9 15.5c0 .282-.218.5-.5.5a.493.493 0 0 1-.5-.5.49.49 0 0 1 .47-.494z"/>
</svg>
