<svg xmlns="http://www.w3.org/2000/svg" viewBox="0 0 20 20" xml:space="preserve">
    <g style="display:inline;fill:#fff;enable-background:new">
        <path style="color:#000;font-style:normal;font-variant:normal;font-weight:400;font-stretch:normal;font-size:medium;line-height:normal;font-family:sans-serif;font-variant-ligatures:normal;font-variant-position:normal;font-variant-caps:normal;font-variant-numeric:normal;font-variant-alternates:normal;font-feature-settings:normal;text-indent:0;text-align:start;text-decoration:none;text-decoration-line:none;text-decoration-style:solid;text-decoration-color:#000;letter-spacing:normal;word-spacing:normal;text-transform:none;writing-mode:lr-tb;direction:ltr;text-orientation:mixed;dominant-baseline:auto;baseline-shift:baseline;text-anchor:start;white-space:normal;shape-padding:0;clip-rule:nonzero;display:inline;overflow:visible;visibility:visible;opacity:1;isolation:auto;mix-blend-mode:normal;color-interpolation:sRGB;color-interpolation-filters:linearRGB;solid-color:#000;solid-opacity:1;vector-effect:none;fill:#fff;fill-opacity:1;fill-rule:nonzero;stroke:none;stroke-width:1;stroke-linecap:round;stroke-linejoin:round;stroke-miterlimit:4;stroke-dasharray:none;stroke-dashoffset:0;stroke-opacity:1;marker:none;color-rendering:auto;image-rendering:auto;shape-rendering:auto;text-rendering:auto;enable-background:new" d="M363.494 141.994a.5.5 0 0 0-.348.86l7.153 7.152H367.5a.5.5 0 1 0 0 1h4a.5.5 0 0 0 .006 0 .5.5 0 0 0 .094-.012.5.5 0 0 0 .048-.012.5.5 0 0 0 .352-.543v-3.933a.5.5 0 1 0-1 0v2.787l-7.146-7.147a.5.5 0 0 0-.36-.152zM368.494 137a.5.5 0 0 0-.094.01.5.5 0 0 0-.048.012.5.5 0 0 0-.352.542v3.936a.5.5 0 1 0 1 0v-2.787l7.146 7.146a.5.5 0 1 0 .708-.707L369.7 138h2.799a.5.5 0 1 0 0-1h-4a.5.5 0 0 0-.006 0z" transform="matrix(-1 0 0 1 379.924 -134.003)"/>
    </g>
</svg>
