<svg xmlns="http://www.w3.org/2000/svg" viewBox="0 0 20 20" xml:space="preserve">
    <path d="M11.508 1.992c-3.569 0-6.5 2.932-6.5 6.5 0 1.426.473 2.746 1.263 3.823l-3.97 3.97A1 1 0 1 0 3.715 17.7l3.97-3.97a6.443 6.443 0 0 0 3.823 1.263c3.568 0 6.5-2.931 6.5-6.5 0-3.568-2.932-6.5-6.5-6.5zm0 3c.05 0 .098.014.148.016a.5.5 0 0 1 .352.484v2.5h2.5a.5.5 0 0 1 .486.358.5.5 0 0 1 0 .002c0 .047.014.092.014.14 0 .05-.012.095-.014.143a.5.5 0 0 1-.486.357h-2.5v2.5a.5.5 0 0 1-.358.487c-.048.002-.092.013-.14.013-.05 0-.094-.011-.143-.013a.5.5 0 0 1-.36-.487v-2.5h-2.5a.5.5 0 0 1-.486-.357.5.5 0 0 1 0-.002c0-.048-.014-.093-.014-.14 0-.05.012-.095.014-.143a.5.5 0 0 1 .487-.358h2.5v-2.5a.5.5 0 0 1 .351-.484c.05-.002.098-.016.149-.016z" style="color:#000;font-style:normal;font-variant:normal;font-weight:400;font-stretch:normal;font-size:medium;line-height:normal;font-family:sans-serif;font-variant-ligatures:normal;font-variant-position:normal;font-variant-caps:normal;font-variant-numeric:normal;font-variant-alternates:normal;font-feature-settings:normal;text-indent:0;text-align:start;text-decoration:none;text-decoration-line:none;text-decoration-style:solid;text-decoration-color:#000;letter-spacing:normal;word-spacing:normal;text-transform:none;writing-mode:lr-tb;direction:ltr;text-orientation:mixed;dominant-baseline:auto;baseline-shift:baseline;text-anchor:start;white-space:normal;shape-padding:0;clip-rule:nonzero;display:inline;overflow:visible;visibility:visible;isolation:auto;mix-blend-mode:normal;color-interpolation:sRGB;color-interpolation-filters:linearRGB;solid-color:#000;solid-opacity:1;vector-effect:none;fill:#fff;fill-opacity:1;fill-rule:nonzero;stroke:none;stroke-width:1;stroke-linecap:round;stroke-linejoin:round;stroke-miterlimit:7.17647;stroke-dasharray:none;stroke-dashoffset:0;stroke-opacity:1;color-rendering:auto;image-rendering:auto;shape-rendering:auto;text-rendering:auto;enable-background:accumulate"/>
</svg>
