<svg xmlns="http://www.w3.org/2000/svg" viewBox="0 0 20 20" xml:space="preserve">
    <g style="display:inline;fill:#fff;enable-background:new">
        <g style="fill:#fff">
            <path style="opacity:1;vector-effect:none;fill:#fff;fill-opacity:1;stroke:none;stroke-width:1;stroke-linecap:square;stroke-linejoin:round;stroke-miterlimit:4;stroke-dasharray:none;stroke-dashoffset:0;stroke-opacity:1;marker:none;paint-order:fill markers stroke" d="M112 515v2h-1v4h1v2h2v-8zm10 0v8h2v-2h1v-4h-1v-2zm-7 3v2h6v-2z" transform="translate(-108 -512)"/>
        </g>
        <path d="M203 691v5c0 .5.25 1 1 1s1-.5 1-1v-1c0-.5.534-1 1-1a1 1 0 0 1 1 1v2.5a1.5 1.5 0 1 0 3 0v-.5a1 1 0 0 1 1-1 1 1 0 0 0 1-1v-1h-3v-3z" style="display:inline;opacity:.6;vector-effect:none;fill:#fff;fill-opacity:1;stroke:none;stroke-width:2;stroke-linecap:round;stroke-linejoin:round;stroke-miterlimit:4;stroke-dasharray:none;stroke-dashoffset:0;stroke-opacity:1;marker:none;paint-order:fill markers stroke;enable-background:new" transform="translate(-196 -682)"/>
    </g>
</svg>
