<?xml version="1.0" encoding="utf-8"?>
<!-- Generator: Adobe Illustrator 25.3.0, SVG Export Plug-In . SVG Version: 6.00 Build 0)  -->
<svg version="1.1" id="Layer_1" xmlns="http://www.w3.org/2000/svg" xmlns:xlink="http://www.w3.org/1999/xlink" x="0px" y="0px"
	 viewBox="0 0 20 20" style="enable-background:new 0 0 20 20;" xml:space="preserve">
<style type="text/css">
	.st0{fill:#FFFFFF;}
</style>
<path class="st0" d="M16,3H4C3.4,3,3,3.4,3,4v12c0,0.6,0.4,1,1,1h12c0.6,0,1-0.4,1-1V4C17,3.4,16.6,3,16,3z M14.5,13h-4
	c-0.3,0-0.5-0.2-0.5-0.5s0.2-0.5,0.5-0.5h4c0.3,0,0.5,0.2,0.5,0.5S14.8,13,14.5,13z M4,15.3V4h11.3L4,15.3z"/>
<path class="st0" d="M9.5,7H8V5.5C8,5.2,7.8,5,7.5,5S7,5.2,7,5.5V7H5.5C5.2,7,5,7.2,5,7.5S5.2,8,5.5,8H7v1.5C7,9.8,7.2,10,7.5,10
	S8,9.8,8,9.5V8h1.5C9.8,8,10,7.8,10,7.5S9.8,7,9.5,7z"/>
</svg>
