<?xml version="1.0" encoding="utf-8"?>
<!-- Generator: Adobe Illustrator 25.2.3, SVG Export Plug-In . SVG Version: 6.00 Build 0)  -->
<svg version="1.1" id="Layer_1" xmlns="http://www.w3.org/2000/svg" xmlns:xlink="http://www.w3.org/1999/xlink" x="0px" y="0px"
	 viewBox="0 0 20 20" style="enable-background:new 0 0 20 20;" xml:space="preserve">
<style type="text/css">
	.st0{fill:#FFFFFF;}
</style>
<g>
	<path class="st0" d="M8.7,4.3v3.4H4.3V4.3H8.7 M9.5,3h-6C3.2,3,3,3.2,3,3.5v5C3,8.8,3.2,9,3.5,9h6C9.8,9,10,8.8,10,8.5v-5
		C10,3.2,9.8,3,9.5,3L9.5,3z"/>
</g>
<g>
	<path class="st0" d="M8.7,11.3v4.4H4.3v-4.4H8.7 M9.5,10h-6C3.2,10,3,10.2,3,10.5v6C3,16.8,3.2,17,3.5,17h6c0.3,0,0.5-0.2,0.5-0.5
		v-6C10,10.2,9.8,10,9.5,10L9.5,10z"/>
</g>
<g>
	<path class="st0" d="M15.9,4.1v11.8h-3.8V4.1H15.9 M16.5,3h-5C11.2,3,11,3.2,11,3.5v13c0,0.3,0.2,0.5,0.5,0.5h5
		c0.3,0,0.5-0.2,0.5-0.5v-13C17,3.2,16.8,3,16.5,3L16.5,3z"/>
</g>
</svg>
