<svg xmlns="http://www.w3.org/2000/svg" viewBox="0 0 20 20" xml:space="preserve">
    <g style="display:inline;fill:#fff;enable-background:new">
        <path d="M589 450c-1.1 0-2 .9-2 2v.43a3.24 3.24 0 0 1 1.234 2.416c.237.099.495.154.766.154h1c1.1 0 2-.9 2-2v-1c0-1.1-.9-2-2-2zm2.588 6.006a.502.502 0 0 0-.588.494c0 .25-.25.5-.5.5h-2c-.25 0-.5-.25-.5-.5v.5c0 .363-.261.684-.443.936l.004.004c.411.411.882.757 1.375 1.25.407.407.864 1.04 1.011 1.81h3.553a.5.5 0 0 0 .5-.5V459c0-.667-.357-1.19-.771-1.604-.415-.414-.905-.779-1.375-1.25a.493.493 0 0 0-.266-.14z" style="color:#000;font-style:normal;font-variant:normal;font-weight:400;font-stretch:normal;font-size:medium;line-height:normal;font-family:sans-serif;font-variant-ligatures:normal;font-variant-position:normal;font-variant-caps:normal;font-variant-numeric:normal;font-variant-alternates:normal;font-feature-settings:normal;text-indent:0;text-align:start;text-decoration:none;text-decoration-line:none;text-decoration-style:solid;text-decoration-color:#000;letter-spacing:normal;word-spacing:normal;text-transform:none;writing-mode:lr-tb;direction:ltr;text-orientation:mixed;dominant-baseline:auto;baseline-shift:baseline;text-anchor:start;white-space:normal;shape-padding:0;clip-rule:nonzero;display:inline;overflow:visible;visibility:visible;opacity:.6;isolation:auto;mix-blend-mode:normal;color-interpolation:sRGB;color-interpolation-filters:linearRGB;solid-color:#000;solid-opacity:1;vector-effect:none;fill:#fff;fill-opacity:1;fill-rule:nonzero;stroke:none;stroke-width:1px;stroke-linecap:round;stroke-linejoin:round;stroke-miterlimit:4;stroke-dasharray:none;stroke-dashoffset:0;stroke-opacity:1;color-rendering:auto;image-rendering:auto;shape-rendering:auto;text-rendering:auto;enable-background:accumulate" transform="translate(-577 -447)"/>
        <path style="color:#000;font-style:normal;font-variant:normal;font-weight:400;font-stretch:normal;font-size:medium;line-height:normal;font-family:sans-serif;font-variant-ligatures:normal;font-variant-position:normal;font-variant-caps:normal;font-variant-numeric:normal;font-variant-alternates:normal;font-feature-settings:normal;text-indent:0;text-align:start;text-decoration:none;text-decoration-line:none;text-decoration-style:solid;text-decoration-color:#000;letter-spacing:normal;word-spacing:normal;text-transform:none;writing-mode:lr-tb;direction:ltr;text-orientation:mixed;dominant-baseline:auto;baseline-shift:baseline;text-anchor:start;white-space:normal;shape-padding:0;clip-rule:nonzero;display:inline;overflow:visible;visibility:visible;opacity:1;isolation:auto;mix-blend-mode:normal;color-interpolation:sRGB;color-interpolation-filters:linearRGB;solid-color:#000;solid-opacity:1;vector-effect:none;fill:#fff;fill-opacity:1;fill-rule:nonzero;stroke:none;stroke-width:1px;stroke-linecap:round;stroke-linejoin:round;stroke-miterlimit:4;stroke-dasharray:none;stroke-dashoffset:0;stroke-opacity:1;color-rendering:auto;image-rendering:auto;shape-rendering:auto;text-rendering:auto;enable-background:accumulate" d="M584 453c-1.1 0-2 .9-2 2v1c0 1.1.9 2 2 2h1c1.1 0 2-.9 2-2v-1c0-1.1-.9-2-2-2zm-1.516 6a.5.5 0 0 0-.338.146c-.47.471-.96.836-1.375 1.25-.414.415-.771.937-.771 1.604v1.5a.5.5 0 0 0 .5.5h8a.5.5 0 0 0 .5-.5V462c0-.667-.357-1.19-.771-1.604-.415-.414-.905-.779-1.375-1.25a.5.5 0 0 0-.854.37.624.624 0 0 1-.164.302c-.116.12-.27.182-.336.182h-2a.544.544 0 0 1-.332-.168.561.561 0 0 1-.168-.332.5.5 0 0 0-.516-.5z" transform="translate(-577 -447)"/>
    </g>
</svg>
