<svg xmlns="http://www.w3.org/2000/svg" viewBox="0 0 20 20" xml:space="preserve">
    <g style="display:inline;fill:#fff;stroke:#fff;stroke-width:1.33333;stroke-miterlimit:4;stroke-dasharray:none;enable-background:new">
        <g style="fill:#fff;stroke:#fff;stroke-width:1.33333;stroke-miterlimit:4;stroke-dasharray:none">
            <g style="fill:#fff">
                <path style="color:#000;font-style:normal;font-variant:normal;font-weight:400;font-stretch:normal;font-size:medium;line-height:normal;font-family:sans-serif;font-variant-ligatures:normal;font-variant-position:normal;font-variant-caps:normal;font-variant-numeric:normal;font-variant-alternates:normal;font-feature-settings:normal;text-indent:0;text-align:start;text-decoration:none;text-decoration-line:none;text-decoration-style:solid;text-decoration-color:#000;letter-spacing:normal;word-spacing:normal;text-transform:none;writing-mode:lr-tb;direction:ltr;text-orientation:mixed;dominant-baseline:auto;baseline-shift:baseline;text-anchor:start;white-space:normal;shape-padding:0;clip-rule:nonzero;display:inline;overflow:visible;visibility:visible;opacity:1;isolation:auto;mix-blend-mode:normal;color-interpolation:sRGB;color-interpolation-filters:linearRGB;solid-color:#000;solid-opacity:1;vector-effect:none;fill:#fff;fill-opacity:1;fill-rule:nonzero;stroke:none;stroke-width:1;stroke-linecap:round;stroke-linejoin:miter;stroke-miterlimit:4;stroke-dasharray:none;stroke-dashoffset:0;stroke-opacity:1;color-rendering:auto;image-rendering:auto;shape-rendering:auto;text-rendering:auto;enable-background:accumulate" d="M281.512 579a.5.5 0 0 0-.418.209c-2.813 3.794-2.813 9.788 0 13.582a.5.5 0 1 0 .802-.596c-2.504-3.378-2.504-9.012 0-12.39a.5.5 0 0 0-.384-.805zm8.959 0a.5.5 0 0 0-.385.805c2.505 3.378 2.505 9.012 0 12.39a.5.5 0 1 0 .805.596c2.812-3.794 2.812-9.788 0-13.582a.5.5 0 0 0-.418-.209.5.5 0 0 1-.002 0zm-6.98 2.992a.5.5 0 0 0-.397.799l2.29 3.209-2.292 3.209a.501.501 0 1 0 .816.582l2.092-2.93 2.092 2.93a.501.501 0 1 0 .816-.582L286.615 586l2.291-3.209a.5.5 0 0 0-.031-.633.5.5 0 0 0-.781.051l-2.094 2.93-2.094-2.93a.5.5 0 0 0-.052-.066.5.5 0 0 0-.364-.15z" transform="matrix(1 0 0 1 -275.992 -576.003)"/>
            </g>
        </g>
    </g>
</svg>
