<svg xmlns="http://www.w3.org/2000/svg" viewBox="0 0 20 20" xml:space="preserve">
    <path style="color:#000;font-style:normal;font-variant:normal;font-weight:400;font-stretch:normal;font-size:medium;line-height:normal;font-family:sans-serif;font-variant-ligatures:normal;font-variant-position:normal;font-variant-caps:normal;font-variant-numeric:normal;font-variant-alternates:normal;font-feature-settings:normal;text-indent:0;text-align:start;text-decoration:none;text-decoration-line:none;text-decoration-style:solid;text-decoration-color:#000;letter-spacing:normal;word-spacing:normal;text-transform:none;writing-mode:lr-tb;direction:ltr;text-orientation:mixed;dominant-baseline:auto;baseline-shift:baseline;text-anchor:start;white-space:normal;shape-padding:0;clip-rule:nonzero;display:inline;overflow:visible;visibility:visible;isolation:auto;mix-blend-mode:normal;color-interpolation:sRGB;color-interpolation-filters:linearRGB;solid-color:#000;solid-opacity:1;vector-effect:none;fill:#fff;fill-opacity:1;fill-rule:nonzero;stroke:none;stroke-width:1;stroke-linecap:round;stroke-linejoin:round;stroke-miterlimit:4;stroke-dasharray:none;stroke-dashoffset:0;stroke-opacity:1;marker:none;paint-order:fill markers stroke;color-rendering:auto;image-rendering:auto;shape-rendering:auto;text-rendering:auto;enable-background:accumulate" d="M16.996 6h-1V4l.854-.854c.091.09.146.216.146.354zm-1-2 .854-.853A.495.495 0 0 0 16.496 3h-9a.501.501 0 0 0-.353.146l-4 4.008a.5.5 0 0 0-.147.354V16.5a.5.5 0 0 0 .5.5h13a.5.5 0 0 0 .5-.5V14a4.101 4.101 0 0 0-1.136-2.844l-.01-.01L13.703 9h2.793c.677.01.677-1.01 0-1h-3.939a.5.5 0 0 0-.56.56v3.94c-.01.676 1.01.676 1 0V9.707l2.142 2.143c.548.57.857 1.342.857 2.15v2h-12V7.715L7.703 4z"/>
</svg>
