<svg xmlns="http://www.w3.org/2000/svg" viewBox="0 0 20 20" xml:space="preserve">
    <g style="display:inline;enable-background:new">
        <path style="color:#000;font-style:normal;font-variant:normal;font-weight:400;font-stretch:normal;font-size:medium;line-height:normal;font-family:sans-serif;font-variant-ligatures:normal;font-variant-position:normal;font-variant-caps:normal;font-variant-numeric:normal;font-variant-alternates:normal;font-feature-settings:normal;text-indent:0;text-align:start;text-decoration:none;text-decoration-line:none;text-decoration-style:solid;text-decoration-color:#000;letter-spacing:normal;word-spacing:normal;text-transform:none;writing-mode:lr-tb;direction:ltr;text-orientation:mixed;dominant-baseline:auto;baseline-shift:baseline;text-anchor:start;white-space:normal;shape-padding:0;clip-rule:nonzero;display:inline;overflow:visible;visibility:visible;opacity:1;isolation:auto;mix-blend-mode:normal;color-interpolation:sRGB;color-interpolation-filters:linearRGB;solid-color:#000;solid-opacity:1;vector-effect:none;fill:#fff;fill-opacity:1;fill-rule:nonzero;stroke:none;stroke-width:1px;stroke-linecap:round;stroke-linejoin:round;stroke-miterlimit:4;stroke-dasharray:none;stroke-dashoffset:0;stroke-opacity:1;color-rendering:auto;image-rendering:auto;shape-rendering:auto;text-rendering:auto;enable-background:new" d="M521.5 84c-.657.01-.657.99 0 1h.25c.75 0 1.25.5 1.25 1.25v9.5c0 .75-.5 1.25-1.25 1.25h-.25c-.657.01-.657.99 0 1h6c.657-.01.657-.99 0-1h-.25c-.75 0-1.25-.5-1.25-1.25V91h2.5c.083 0 .225.057.334.166.109.109.166.25.166.334.009.657.99.657 1 0v-2a.5.5 0 0 0-1 0 .544.544 0 0 1-.166.334.544.544 0 0 1-.334.166H526v-5h4.75c.01-.295.616.168.863.434.247.265.387.62.387.816v.25c.009.657.99.657 1 0v-2a.5.5 0 0 0-.5-.5h-10.75z" transform="translate(-517.004 -81)"/>
    </g>
</svg>
