<svg xmlns="http://www.w3.org/2000/svg" viewBox="0 0 20 20" xml:space="preserve">
    <g style="display:inline;opacity:.99;fill:#fff;enable-background:new">
        <path style="color:#000;font-style:normal;font-variant:normal;font-weight:400;font-stretch:normal;font-size:medium;line-height:normal;font-family:sans-serif;font-variant-ligatures:normal;font-variant-position:normal;font-variant-caps:normal;font-variant-numeric:normal;font-variant-alternates:normal;font-feature-settings:normal;text-indent:0;text-align:start;text-decoration:none;text-decoration-line:none;text-decoration-style:solid;text-decoration-color:#000;letter-spacing:normal;word-spacing:normal;text-transform:none;writing-mode:lr-tb;direction:ltr;text-orientation:mixed;dominant-baseline:auto;baseline-shift:baseline;text-anchor:start;white-space:normal;shape-padding:0;clip-rule:nonzero;display:inline;overflow:visible;visibility:visible;opacity:1;isolation:auto;mix-blend-mode:normal;color-interpolation:sRGB;color-interpolation-filters:linearRGB;solid-color:#000;solid-opacity:1;vector-effect:none;fill:#fff;fill-opacity:1;fill-rule:evenodd;stroke:none;stroke-width:1;stroke-linecap:round;stroke-linejoin:round;stroke-miterlimit:4;stroke-dasharray:none;stroke-dashoffset:0;stroke-opacity:1;color-rendering:auto;image-rendering:auto;shape-rendering:auto;text-rendering:auto;enable-background:accumulate" d="M475.25 53a.5.5 0 0 0-.213.047l-5.754 2.709a.5.5 0 0 0-.285.453v7.293a.5.5 0 0 0 .275.447l6.002 3.002a.5.5 0 0 0 .448 0l6.002-3.002a.5.5 0 0 0 .275-.447v-6.916a.5.5 0 0 0 0-.182v-.195a.5.5 0 0 0-.287-.453l-5.75-2.707a.5.5 0 0 0-.213-.049zm.111 1h.278l5.01 2.36-5.149 2.51-5.148-2.51zm-5.363 3.299 5.002 2.44v5.956l-5.002-2.502zM481 57.3v5.892l-5 2.5v-5.955z" transform="translate(-465.503 -50.002)"/>
    </g>
</svg>
