<svg xmlns="http://www.w3.org/2000/svg" viewBox="0 0 20 20" xml:space="preserve">
    <path style="color:#000;font-style:normal;font-variant:normal;font-weight:400;font-stretch:normal;font-size:medium;line-height:normal;font-family:sans-serif;font-variant-ligatures:normal;font-variant-position:normal;font-variant-caps:normal;font-variant-numeric:normal;font-variant-alternates:normal;font-feature-settings:normal;text-indent:0;text-align:start;text-decoration:none;text-decoration-line:none;text-decoration-style:solid;text-decoration-color:#000;letter-spacing:normal;word-spacing:normal;text-transform:none;writing-mode:lr-tb;direction:ltr;text-orientation:mixed;dominant-baseline:auto;baseline-shift:baseline;text-anchor:start;white-space:normal;shape-padding:0;clip-rule:nonzero;display:inline;overflow:visible;visibility:visible;isolation:auto;mix-blend-mode:normal;color-interpolation:sRGB;color-interpolation-filters:linearRGB;solid-color:#000;solid-opacity:1;vector-effect:none;fill:#fff;fill-opacity:1;fill-rule:nonzero;stroke:none;stroke-width:1.1;stroke-linecap:round;stroke-linejoin:miter;stroke-miterlimit:4;stroke-dasharray:none;stroke-dashoffset:0;stroke-opacity:1;color-rendering:auto;image-rendering:auto;shape-rendering:auto;text-rendering:auto;enable-background:new" d="M15.463 3.09a.55.55 0 0 0-.441.866c.498.729.898 1.272.898 2.604 0 2.364-1.912 5.293-6.92 5.293-2.179 0-3.452-.379-4.13-.799-.68-.42-.8-.804-.8-1.101 0-.458.451-1.844 3.497-2.18.73-.057.647-1.154-.084-1.098a.425.425 0 0 0-.037.004C4.068 7.051 2.97 8.793 2.97 9.953c0 .673.379 1.455 1.318 2.037.94.581 2.408.963 4.711.963 5.452 0 8.022-3.414 8.022-6.393 0-1.582-.596-2.496-1.094-3.225a.55.55 0 0 0-.465-.246zm-3.992 3.83c-.645.008-.751.93-.125 1.084a7.06 7.06 0 0 1 2.213 1.026c.601.42 1.232-.482.63-.903a8.168 8.168 0 0 0-2.554-1.185.552.552 0 0 0-.164-.022zm4.814 4.192a.55.55 0 0 0-.498.732c.095.281.133.523.133.68 0 .159.016.33.006.584-.01.254-.045.564-.139.89-.187.654-.584 1.368-1.576 1.918-.642.357-.107 1.32.535.963 1.25-.693 1.85-1.708 2.098-2.576.124-.434.167-.834.18-1.15.013-.317-.002-.58-.002-.63 0-.32-.068-.66-.192-1.029a.55.55 0 0 0-.545-.382z"/>
    <path style="color:#000;font-style:normal;font-variant:normal;font-weight:400;font-stretch:normal;font-size:medium;line-height:normal;font-family:sans-serif;font-variant-ligatures:normal;font-variant-position:normal;font-variant-caps:normal;font-variant-numeric:normal;font-variant-alternates:normal;font-feature-settings:normal;text-indent:0;text-align:start;text-decoration:none;text-decoration-line:none;text-decoration-style:solid;text-decoration-color:#000;letter-spacing:normal;word-spacing:normal;text-transform:none;writing-mode:lr-tb;direction:ltr;text-orientation:mixed;dominant-baseline:auto;baseline-shift:baseline;text-anchor:start;white-space:normal;shape-padding:0;clip-rule:nonzero;display:inline;overflow:visible;visibility:visible;opacity:.6;isolation:auto;mix-blend-mode:normal;color-interpolation:sRGB;color-interpolation-filters:linearRGB;solid-color:#000;solid-opacity:1;vector-effect:none;fill:#fff;fill-opacity:1;fill-rule:evenodd;stroke:none;stroke-width:1;stroke-linecap:round;stroke-linejoin:miter;stroke-miterlimit:4;stroke-dasharray:none;stroke-dashoffset:0;stroke-opacity:1;marker:none;color-rendering:auto;image-rendering:auto;shape-rendering:auto;text-rendering:auto;enable-background:accumulate" d="M9.463 2.994a.5.5 0 0 0-.492.505v6.954a.5.5 0 1 0 1 0V3.499a.5.5 0 0 0-.508-.505zm0 10.95a.5.5 0 0 0-.492.509v2.046a.5.5 0 1 0 1 0v-2.046a.5.5 0 0 0-.508-.508z"/>
</svg>
