<svg xmlns="http://www.w3.org/2000/svg" viewBox="0 0 20 20" xml:space="preserve">
    <path style="color:#000;font-style:normal;font-variant:normal;font-weight:400;font-stretch:normal;font-size:medium;line-height:normal;font-family:sans-serif;font-variant-ligatures:normal;font-variant-position:normal;font-variant-caps:normal;font-variant-numeric:normal;font-variant-alternates:normal;font-feature-settings:normal;text-indent:0;text-align:start;text-decoration:none;text-decoration-line:none;text-decoration-style:solid;text-decoration-color:#000;letter-spacing:normal;word-spacing:normal;text-transform:none;writing-mode:lr-tb;direction:ltr;text-orientation:mixed;dominant-baseline:auto;baseline-shift:baseline;text-anchor:start;white-space:normal;shape-padding:0;clip-rule:nonzero;display:inline;overflow:visible;visibility:visible;opacity:.99;isolation:auto;mix-blend-mode:normal;color-interpolation:sRGB;color-interpolation-filters:linearRGB;solid-color:#000;solid-opacity:1;vector-effect:none;fill:#fff;fill-opacity:1;fill-rule:nonzero;stroke:none;stroke-width:1;stroke-linecap:round;stroke-linejoin:miter;stroke-miterlimit:4;stroke-dasharray:none;stroke-dashoffset:0;stroke-opacity:1;color-rendering:auto;image-rendering:auto;shape-rendering:auto;text-rendering:auto;enable-background:new" d="M12.557 4.963a.5.5 0 0 0-.475.611l.307 1.434h-4.71l.31-1.39a.5.5 0 1 0-.977-.22l-.358 1.61H4.5a.5.5 0 1 0 0 1h1.932l-.666 3H3.5a.5.5 0 1 0 0 1h2.043l-.531 2.39a.5.5 0 1 0 .976.22l.58-2.61h6.887l.557 2.603a.5.5 0 1 0 .976-.207l-.511-2.396H16.5a.5.5 0 1 0 0-1h-2.236l-.639-3H15.5a.5.5 0 1 0 0-1h-2.09l-.35-1.643a.5.5 0 0 0-.503-.402zm-5.1 3.045h5.145l.64 3H6.791z"/>
</svg>
