<svg xmlns="http://www.w3.org/2000/svg" viewBox="0 0 20 20" xml:space="preserve">
    <g style="display:inline;fill:#fff;enable-background:new">
        <path style="color:#000;font-style:normal;font-variant:normal;font-weight:400;font-stretch:normal;font-size:medium;line-height:normal;font-family:sans-serif;font-variant-ligatures:normal;font-variant-position:normal;font-variant-caps:normal;font-variant-numeric:normal;font-variant-alternates:normal;font-feature-settings:normal;text-indent:0;text-align:start;text-decoration:none;text-decoration-line:none;text-decoration-style:solid;text-decoration-color:#000;letter-spacing:normal;word-spacing:normal;text-transform:none;writing-mode:lr-tb;direction:ltr;text-orientation:mixed;dominant-baseline:auto;baseline-shift:baseline;text-anchor:start;white-space:normal;shape-padding:0;clip-rule:nonzero;display:inline;overflow:visible;visibility:visible;opacity:1;isolation:auto;mix-blend-mode:normal;color-interpolation:sRGB;color-interpolation-filters:linearRGB;solid-color:#000;solid-opacity:1;vector-effect:none;fill:#fff;fill-opacity:1;fill-rule:nonzero;stroke:none;stroke-width:1;stroke-linecap:round;stroke-linejoin:round;stroke-miterlimit:4;stroke-dasharray:none;stroke-dashoffset:0;stroke-opacity:1;marker:none;paint-order:fill markers stroke;color-rendering:auto;image-rendering:auto;shape-rendering:auto;text-rendering:auto;enable-background:accumulate" d="M457.5 473a.5.5 0 0 0-.5.5v.5h-8a2.01 2.01 0 0 0-1.393.576c-.368.36-.607.86-.607 1.426V485a2.001 2.001 0 0 0 2 2h2.5a.5.5 0 0 0 .5-.5v-9a.5.5 0 0 0-.5-.5H449c-.452 0-1-.471-1-.998 0-.264.138-.515.332-.7.193-.183.443-.302.668-.302h8v1.5a.5.5 0 0 0 .5.5h1.5v5h-1.5a.5.5 0 0 0-.5.5v1.5h-4v1h4v.5a.5.5 0 0 0 .5.5h3a.5.5 0 0 0 .5-.5v-3a.5.5 0 0 0-.5-.5h-.5v-5h.5a.5.5 0 0 0 .5-.5v-3a.5.5 0 0 0-.5-.5zm.5 1h2v2h-2zm0 9h2v2h-2z" transform="translate(-444 -470)"/>
    </g>
</svg>
