<svg xmlns="http://www.w3.org/2000/svg" viewBox="0 0 20 20" xml:space="preserve">
    <path style="color:#000;font-style:normal;font-variant:normal;font-weight:400;font-stretch:normal;font-size:medium;line-height:normal;font-family:sans-serif;font-variant-ligatures:normal;font-variant-position:normal;font-variant-caps:normal;font-variant-numeric:normal;font-variant-alternates:normal;font-feature-settings:normal;text-indent:0;text-align:start;text-decoration:none;text-decoration-line:none;text-decoration-style:solid;text-decoration-color:#000;letter-spacing:normal;word-spacing:normal;text-transform:none;writing-mode:lr-tb;direction:ltr;text-orientation:mixed;dominant-baseline:auto;baseline-shift:baseline;text-anchor:start;white-space:normal;shape-padding:0;clip-rule:nonzero;display:inline;overflow:visible;visibility:visible;opacity:.6;isolation:auto;mix-blend-mode:normal;color-interpolation:sRGB;color-interpolation-filters:linearRGB;solid-color:#000;solid-opacity:1;vector-effect:none;fill:#fff;fill-opacity:1;fill-rule:nonzero;stroke:none;stroke-width:1;stroke-linecap:round;stroke-linejoin:round;stroke-miterlimit:4;stroke-dasharray:none;stroke-dashoffset:0;stroke-opacity:1;marker:none;paint-order:fill markers stroke;color-rendering:auto;image-rendering:auto;shape-rendering:auto;text-rendering:auto;enable-background:accumulate" d="M6.322 3.033C4.612 3.106 3 4.517 3 6.97c0 2.053 1.07 4.012 2.387 5.713 1.316 1.701 2.9 3.155 4.031 4.16a.5.5 0 0 0 .332.127h.5a.5.5 0 0 0 .332-.127c1.131-1.005 2.715-2.459 4.031-4.16C15.93 10.982 17 9.023 17 6.97c0-2.453-1.612-3.864-3.322-3.937-1.522-.065-3.053.927-3.678 2.697-.625-1.77-2.156-2.762-3.678-2.697zm.043 1c1.228-.052 2.559.747 2.893 2.529a.5.5 0 0 0 .492.408h.5a.5.5 0 0 0 .492-.408c.334-1.782 1.665-2.581 2.893-2.53C14.862 4.086 16 4.925 16 6.97c0 1.697-.93 3.488-2.176 5.1-1.207 1.56-2.674 2.911-3.783 3.9h-.082c-1.109-.989-2.576-2.34-3.783-3.9C4.929 10.458 4 8.667 4 6.97c0-2.046 1.138-2.885 2.365-2.937z"/>
</svg>
