<svg xmlns="http://www.w3.org/2000/svg" viewBox="0 0 20 20" xml:space="preserve">
    <g style="display:inline;fill:#fff;enable-background:new">
        <path style="color:#000;font-style:normal;font-variant:normal;font-weight:400;font-stretch:normal;font-size:medium;line-height:normal;font-family:sans-serif;font-variant-ligatures:normal;font-variant-position:normal;font-variant-caps:normal;font-variant-numeric:normal;font-variant-alternates:normal;font-feature-settings:normal;text-indent:0;text-align:start;text-decoration:none;text-decoration-line:none;text-decoration-style:solid;text-decoration-color:#000;letter-spacing:normal;word-spacing:normal;text-transform:none;writing-mode:lr-tb;direction:ltr;text-orientation:mixed;dominant-baseline:auto;baseline-shift:baseline;text-anchor:start;white-space:normal;shape-padding:0;clip-rule:nonzero;display:inline;overflow:visible;visibility:visible;opacity:1;isolation:auto;mix-blend-mode:normal;color-interpolation:sRGB;color-interpolation-filters:linearRGB;solid-color:#000;solid-opacity:1;vector-effect:none;fill:#fff;fill-opacity:1;fill-rule:nonzero;stroke:none;stroke-width:1;stroke-linecap:round;stroke-linejoin:round;stroke-miterlimit:4;stroke-dasharray:none;stroke-dashoffset:0;stroke-opacity:1;marker:none;paint-order:fill markers stroke;color-rendering:auto;image-rendering:auto;shape-rendering:auto;text-rendering:auto;enable-background:new" d="M258.5-19a.5.5 0 0 0-.5.5v13a.5.5 0 0 0 .5.5h13a.5.5 0 0 0 .5-.5v-13a.5.5 0 0 0-.5-.5zm1.5 2h6v4h4v6h-6v-4h-4z" transform="matrix(-1 0 0 1 275 22)"/>
        <path style="display:inline;overflow:visible;visibility:visible;opacity:.5;fill:#fff;fill-opacity:1;fill-rule:nonzero;stroke:none;stroke-width:1.9;marker:none;enable-background:accumulate" d="M260-17h6v4h-2v2h-4z" transform="matrix(-1 0 0 1 275 22)"/>
    </g>
</svg>
