<svg xmlns="http://www.w3.org/2000/svg" viewBox="0 0 20 20" xml:space="preserve">
    <path d="M4.493 2.996a.5.5 0 0 0-.5.5v3a.5.5 0 0 0 .5.5h.862l-.828 3.307a.5.5 0 0 0-.002.006.5.5 0 0 0-.035.143.5.5 0 0 0 0 .004l-1.481 5.92a.5.5 0 0 0 .484.622h4.924a.5.5 0 0 0 .145 0h4.908a.5.5 0 0 0 .484-.378l3.037-11.99a.5.5 0 0 0-.484-.622l-4.91-.006a.5.5 0 0 0-.201 0l-3.403-.006v-.5a.5.5 0 0 0-.5-.5zm.5 1h2v2h-.921a.5.5 0 0 0-.145 0h-.934zm3 1 2.86.004-1.248 4.996H5.636l.75-3h1.107a.5.5 0 0 0 .5-.5zm3.891.006 3.98.006-1.263 4.989h-3.965zm-6.498 5.994h3.969l-1.252 5.002H4.136zm5 0h3.961l-1.268 5.002H9.136z" style="color:#000;font-style:normal;font-variant:normal;font-weight:400;font-stretch:normal;font-size:medium;line-height:normal;font-family:sans-serif;font-variant-ligatures:normal;font-variant-position:normal;font-variant-caps:normal;font-variant-numeric:normal;font-variant-alternates:normal;font-feature-settings:normal;text-indent:0;text-align:start;text-decoration:none;text-decoration-line:none;text-decoration-style:solid;text-decoration-color:#000;letter-spacing:normal;word-spacing:normal;text-transform:none;writing-mode:lr-tb;direction:ltr;text-orientation:mixed;dominant-baseline:auto;baseline-shift:baseline;text-anchor:start;white-space:normal;shape-padding:0;clip-rule:nonzero;display:inline;overflow:visible;visibility:visible;isolation:auto;mix-blend-mode:normal;color-interpolation:sRGB;color-interpolation-filters:linearRGB;solid-color:#000;solid-opacity:1;vector-effect:none;fill:#fff;fill-opacity:1;fill-rule:nonzero;stroke:none;stroke-width:1px;stroke-linecap:round;stroke-linejoin:round;stroke-miterlimit:4;stroke-dasharray:none;stroke-dashoffset:0;stroke-opacity:1;marker:none;paint-order:fill markers stroke;color-rendering:auto;image-rendering:auto;shape-rendering:auto;text-rendering:auto;enable-background:new"/>
</svg>
