<svg xmlns="http://www.w3.org/2000/svg" viewBox="0 0 20 20" xml:space="preserve">
    <g style="display:inline;fill:#fff;enable-background:new">
        <g style="display:inline;opacity:.6;fill:#fff;enable-background:new">
            <path style="color:#000;font-style:normal;font-variant:normal;font-weight:400;font-stretch:normal;font-size:medium;line-height:normal;font-family:sans-serif;font-variant-ligatures:normal;font-variant-position:normal;font-variant-caps:normal;font-variant-numeric:normal;font-variant-alternates:normal;font-feature-settings:normal;text-indent:0;text-align:start;text-decoration:none;text-decoration-line:none;text-decoration-style:solid;text-decoration-color:#000;letter-spacing:normal;word-spacing:normal;text-transform:none;writing-mode:lr-tb;direction:ltr;text-orientation:mixed;dominant-baseline:auto;baseline-shift:baseline;text-anchor:start;white-space:normal;shape-padding:0;clip-rule:nonzero;display:inline;overflow:visible;visibility:visible;opacity:1;isolation:auto;mix-blend-mode:normal;color-interpolation:sRGB;color-interpolation-filters:linearRGB;solid-color:#000;solid-opacity:1;vector-effect:none;fill:#fff;fill-opacity:1;fill-rule:evenodd;stroke:none;stroke-width:1;stroke-linecap:round;stroke-linejoin:round;stroke-miterlimit:4;stroke-dasharray:none;stroke-dashoffset:0;stroke-opacity:1;color-rendering:auto;image-rendering:auto;shape-rendering:auto;text-rendering:auto;enable-background:new" d="M446.5 161a.5.5 0 0 0-.5.5v8a.5.5 0 0 0 .5.5h7c.676.01.676-1.01 0-1H447v-7h6.5c.676.01.676-1.01 0-1h-6zm4.507 10.007L451 173h-1.5c-.676-.01-.676 1.01 0 1h1.92a.49.49 0 0 0 .162 0h1.918c.676.01.676-1.01 0-1H452l.007-1.993z" transform="translate(-443.004 -157.003)"/>
        </g>
        <path style="color:#000;font-style:normal;font-variant:normal;font-weight:400;font-stretch:normal;font-size:medium;line-height:normal;font-family:sans-serif;font-variant-ligatures:normal;font-variant-position:normal;font-variant-caps:normal;font-variant-numeric:normal;font-variant-alternates:normal;font-feature-settings:normal;text-indent:0;text-align:start;text-decoration:none;text-decoration-line:none;text-decoration-style:solid;text-decoration-color:#000;letter-spacing:normal;word-spacing:normal;text-transform:none;writing-mode:lr-tb;direction:ltr;text-orientation:mixed;dominant-baseline:auto;baseline-shift:baseline;text-anchor:start;white-space:normal;shape-padding:0;clip-rule:nonzero;display:inline;overflow:visible;visibility:visible;opacity:1;isolation:auto;mix-blend-mode:normal;color-interpolation:sRGB;color-interpolation-filters:linearRGB;solid-color:#000;solid-opacity:1;vector-effect:none;fill:#fff;fill-opacity:1;fill-rule:nonzero;stroke:none;stroke-width:1;stroke-linecap:round;stroke-linejoin:round;stroke-miterlimit:4;stroke-dasharray:none;stroke-dashoffset:0;stroke-opacity:1;marker:none;paint-order:fill markers stroke;color-rendering:auto;image-rendering:auto;shape-rendering:auto;text-rendering:auto;enable-background:accumulate" d="M206.5 115.992c-1.39 0-2.5 1.192-2.5 2.615v1.893a.5.5 0 1 0 1 0v-1.893c0-.912.681-1.615 1.5-1.615s1.5.703 1.5 1.615v1.893a.5.5 0 1 0 1 0v-1.893c0-1.423-1.11-2.615-2.5-2.615zm-2.008 9a.5.5 0 0 0-.492.508v1.885c0 1.423 1.11 2.615 2.5 2.615s2.5-1.192 2.5-2.615V125.5a.5.5 0 1 0-1 0v1.885c0 .912-.681 1.615-1.5 1.615s-1.5-.703-1.5-1.615V125.5a.5.5 0 0 0-.508-.508z" transform="translate(-191.996 -112.996)"/>
    </g>
</svg>
