<svg xmlns="http://www.w3.org/2000/svg" viewBox="0 0 20 20" xml:space="preserve">
    <g style="display:inline;fill:#fff;enable-background:new">
        <path style="color:#000;font-style:normal;font-variant:normal;font-weight:400;font-stretch:normal;font-size:medium;line-height:normal;font-family:sans-serif;font-variant-ligatures:normal;font-variant-position:normal;font-variant-caps:normal;font-variant-numeric:normal;font-variant-alternates:normal;font-feature-settings:normal;text-indent:0;text-align:start;text-decoration:none;text-decoration-line:none;text-decoration-style:solid;text-decoration-color:#000;letter-spacing:normal;word-spacing:normal;text-transform:none;writing-mode:lr-tb;direction:ltr;text-orientation:mixed;dominant-baseline:auto;baseline-shift:baseline;text-anchor:start;white-space:normal;shape-padding:0;clip-rule:nonzero;display:inline;overflow:visible;visibility:visible;opacity:1;isolation:auto;mix-blend-mode:normal;color-interpolation:sRGB;color-interpolation-filters:linearRGB;solid-color:#000;solid-opacity:1;vector-effect:none;fill:#fff;fill-opacity:1;fill-rule:nonzero;stroke:none;stroke-width:1.1;stroke-linecap:round;stroke-linejoin:round;stroke-miterlimit:4;stroke-dasharray:none;stroke-dashoffset:0;stroke-opacity:1;marker:none;paint-order:fill markers stroke;color-rendering:auto;image-rendering:auto;shape-rendering:auto;text-rendering:auto;enable-background:accumulate" d="M180.82 32.002a6.006 6.006 0 0 0-5.529 4.15 5.997 5.997 0 0 0 1.25 5.848h-.291a.5.5 0 0 0-.354.146l-1.75 1.75a.5.5 0 0 0-.146.354v1.25a.5.5 0 0 0 .5.5h13a.5.5 0 0 0 .5-.5v-1.25a.5.5 0 0 0-.146-.354l-1.75-1.75a.5.5 0 0 0-.354-.146h-.295a5.993 5.993 0 0 0 1.133-6.188 6.004 6.004 0 0 0-5.768-3.81zm.034 1.1a4.894 4.894 0 0 1 4.708 3.11 4.896 4.896 0 0 1-1.345 5.483.55.55 0 0 0-.178.305h-.539a.5.5 0 1 0 0 1h2.043L187 44.457V45h-12v-.543L176.457 43h4.043a.5.5 0 1 0 0-1h-2.377a.55.55 0 0 0-.111-.117 4.899 4.899 0 0 1 2.842-8.781z" transform="translate(-171 -29)"/>
        <path style="color:#000;font-style:normal;font-variant:normal;font-weight:400;font-stretch:normal;font-size:medium;line-height:normal;font-family:sans-serif;font-variant-ligatures:normal;font-variant-position:normal;font-variant-caps:normal;font-variant-numeric:normal;font-variant-alternates:normal;font-feature-settings:normal;text-indent:0;text-align:start;text-decoration:none;text-decoration-line:none;text-decoration-style:solid;text-decoration-color:#000;letter-spacing:normal;word-spacing:normal;text-transform:none;writing-mode:lr-tb;direction:ltr;text-orientation:mixed;dominant-baseline:auto;baseline-shift:baseline;text-anchor:start;white-space:normal;shape-padding:0;clip-rule:nonzero;display:inline;overflow:visible;visibility:visible;opacity:1;isolation:auto;mix-blend-mode:normal;color-interpolation:sRGB;color-interpolation-filters:linearRGB;solid-color:#000;solid-opacity:1;vector-effect:none;fill:#fff;fill-opacity:1;fill-rule:nonzero;stroke:none;stroke-width:1;stroke-linecap:round;stroke-linejoin:round;stroke-miterlimit:4;stroke-dasharray:none;stroke-dashoffset:0;stroke-opacity:1;marker:none;paint-order:fill markers stroke;color-rendering:auto;image-rendering:auto;shape-rendering:auto;text-rendering:auto;enable-background:accumulate" d="M348.555 328.691a.5.5 0 0 0-.086.008 3.346 3.346 0 0 0-2.772 2.782.5.5 0 1 0 .989.154 2.34 2.34 0 0 1 1.943-1.95.5.5 0 0 0-.074-.993z" transform="translate(-339 -323)"/>
    </g>
</svg>
