<svg xmlns="http://www.w3.org/2000/svg" viewBox="0 0 20 20" xml:space="preserve">
    <g style="display:inline;fill:#fff;enable-background:new">
        <g style="display:inline;opacity:1;fill:#fff;stroke:#f9f9f9;enable-background:new">
            <path style="color:#000;font-style:normal;font-variant:normal;font-weight:400;font-stretch:normal;font-size:medium;line-height:normal;font-family:sans-serif;font-variant-ligatures:normal;font-variant-position:normal;font-variant-caps:normal;font-variant-numeric:normal;font-variant-alternates:normal;font-feature-settings:normal;text-indent:0;text-align:start;text-decoration:none;text-decoration-line:none;text-decoration-style:solid;text-decoration-color:#000;letter-spacing:normal;word-spacing:normal;text-transform:none;writing-mode:lr-tb;direction:ltr;text-orientation:mixed;dominant-baseline:auto;baseline-shift:baseline;text-anchor:start;white-space:normal;shape-padding:0;clip-rule:nonzero;display:inline;overflow:visible;visibility:visible;opacity:1;isolation:auto;mix-blend-mode:normal;color-interpolation:sRGB;color-interpolation-filters:linearRGB;solid-color:#000;solid-opacity:1;vector-effect:none;fill:#fff;fill-opacity:1;fill-rule:nonzero;stroke:none;stroke-width:1;stroke-linecap:round;stroke-linejoin:round;stroke-miterlimit:4;stroke-dasharray:none;stroke-dashoffset:6.6;stroke-opacity:1;marker:none;paint-order:normal;color-rendering:auto;image-rendering:auto;shape-rendering:auto;text-rendering:auto;enable-background:accumulate" d="M145.492 241.992a.5.5 0 0 0-.492.508c0 1.278-.827 2.38-2.666 3.441-1.663.96-4.283 1.194-6.3 1.06-.98-.064-1.789-.305-2.313-.61-.52-.303-.716-.623-.72-.885.004-.262.2-.584.72-.887.524-.305 1.334-.544 2.312-.61 1.741-.114 3.903.018 5.244.688a.5.5 0 1 0 .446-.894c-1.66-.83-3.922-.913-5.756-.791-1.101.073-2.043.333-2.748.744-.638.37-1.097.91-1.184 1.553a.5.5 0 0 0-.035.191l.002.006-.002.006a.5.5 0 0 0 .035.19.5.5 0 0 0 .002.005c.088.642.545 1.18 1.182 1.55.706.41 1.647.669 2.748.741 2.141.142 4.886-.047 6.867-1.19 1.995-1.153 3.166-2.586 3.166-4.308a.5.5 0 0 0-.508-.508zm-.275 5.252a.5.5 0 0 0-.438.676c.122.335.221.661.221 1.08 0 1.833-.827 2.88-2.666 3.941-1.663.96-4.283 1.194-6.3 1.06-.98-.064-1.789-.305-2.313-.61-.52-.303-.716-.623-.72-.885.004-.262.2-.584.72-.887.524-.305 1.334-.544 2.312-.61 1.741-.114 3.903.018 5.244.688a.5.5 0 1 0 .446-.894c-1.66-.83-3.922-.913-5.756-.791-1.101.073-2.043.333-2.748.744-.638.37-1.097.91-1.184 1.553a.5.5 0 0 0-.035.191l.002.006-.002.006a.5.5 0 0 0 .037.195c.088.641.545 1.179 1.182 1.55.705.41 1.647.669 2.748.741 2.141.142 4.886-.047 6.867-1.191 1.968-1.136 3.13-2.603 3.16-4.723A.5.5 0 0 0 146 249a.5.5 0 0 0-.014-.127 4.245 4.245 0 0 0-.265-1.293.5.5 0 0 0-.504-.336zm.043 7a.5.5 0 0 0-.434.77s.174.356.174.52a.5.5 0 1 0 1 0c0-.6-.326-1.048-.326-1.048a.5.5 0 0 0-.414-.242z" transform="translate(-129 -239.016)"/>
        </g>
    </g>
</svg>
