<svg xmlns="http://www.w3.org/2000/svg" viewBox="0 0 20 20" xml:space="preserve">
    <g style="display:inline;enable-background:new">
        <path style="color:#000;font-style:normal;font-variant:normal;font-weight:400;font-stretch:normal;font-size:medium;line-height:normal;font-family:sans-serif;font-variant-ligatures:normal;font-variant-position:normal;font-variant-caps:normal;font-variant-numeric:normal;font-variant-alternates:normal;font-feature-settings:normal;text-indent:0;text-align:start;text-decoration:none;text-decoration-line:none;text-decoration-style:solid;text-decoration-color:#000;letter-spacing:normal;word-spacing:normal;text-transform:none;writing-mode:lr-tb;direction:ltr;text-orientation:mixed;dominant-baseline:auto;baseline-shift:baseline;text-anchor:start;white-space:normal;shape-padding:0;clip-rule:nonzero;display:inline;overflow:visible;visibility:visible;opacity:.6;isolation:auto;mix-blend-mode:normal;color-interpolation:sRGB;color-interpolation-filters:linearRGB;solid-color:#000;solid-opacity:1;vector-effect:none;fill:#fff;fill-opacity:1;fill-rule:nonzero;stroke:none;stroke-width:1;stroke-linecap:round;stroke-linejoin:round;stroke-miterlimit:4;stroke-dasharray:none;stroke-dashoffset:0;stroke-opacity:1;marker:none;paint-order:fill markers stroke;color-rendering:auto;image-rendering:auto;shape-rendering:auto;text-rendering:auto;enable-background:accumulate" d="M427.5 348a2.508 2.508 0 0 0-2.5 2.5c0 1.18.69 1.86 1.133 2.34.592.641 1.204 1.217 1.66 1.66l-.897.896c-.912.913-1.156 2.325-.562 3.354a2.504 2.504 0 0 0 2.812 1.164A2.504 2.504 0 0 0 431 357.5a.5.5 0 1 0-1 0c0 .681-.453 1.273-1.111 1.45a1.496 1.496 0 0 1-1.688-.7c-.311-.539-.185-1.559.403-2.146l1.25-1.25a.5.5 0 0 0 0-.708c-.432-.431-1.308-1.25-1.987-1.986-.48-.52-.867-.84-.867-1.66 0-.834.666-1.5 1.5-1.5 1.167 0 2.029 1.236 2.646 1.854a.5.5 0 1 0 .708-.708c-.383-.382-1.52-2.146-3.354-2.146z" transform="translate(-422.5 -344)"/>
        <path style="color:#000;font-style:normal;font-variant:normal;font-weight:400;font-stretch:normal;font-size:medium;line-height:normal;font-family:sans-serif;font-variant-ligatures:normal;font-variant-position:normal;font-variant-caps:normal;font-variant-numeric:normal;font-variant-alternates:normal;font-feature-settings:normal;text-indent:0;text-align:start;text-decoration:none;text-decoration-line:none;text-decoration-style:solid;text-decoration-color:#000;letter-spacing:normal;word-spacing:normal;text-transform:none;writing-mode:lr-tb;direction:ltr;text-orientation:mixed;dominant-baseline:auto;baseline-shift:baseline;text-anchor:start;white-space:normal;shape-padding:0;clip-rule:nonzero;display:inline;overflow:visible;visibility:visible;opacity:1;isolation:auto;mix-blend-mode:normal;color-interpolation:sRGB;color-interpolation-filters:linearRGB;solid-color:#000;solid-opacity:1;vector-effect:none;fill:#fff;fill-opacity:1;fill-rule:nonzero;stroke:none;stroke-width:1;stroke-linecap:round;stroke-linejoin:round;stroke-miterlimit:4;stroke-dasharray:none;stroke-dashoffset:0;stroke-opacity:1;marker:none;paint-order:fill markers stroke;color-rendering:auto;image-rendering:auto;shape-rendering:auto;text-rendering:auto;enable-background:accumulate" d="M437.5 348c-1.833 0-2.971 1.764-3.354 2.146a.5.5 0 1 0 .708.708c.617-.618 1.48-1.854 2.646-1.854.834 0 1.5.666 1.5 1.5 0 .82-.387 1.14-.867 1.66-.679.735-1.555 1.555-1.987 1.986a.5.5 0 0 0 0 .708l1.25 1.25c.588.587.714 1.607.403 2.146-.34.59-1.03.876-1.688.7A1.496 1.496 0 0 1 435 357.5a.5.5 0 1 0-1 0c0 1.13.763 2.122 1.854 2.414a2.504 2.504 0 0 0 2.812-1.164c.594-1.029.35-2.441-.562-3.354l-.897-.896c.456-.443 1.068-1.019 1.66-1.66.443-.48 1.133-1.16 1.133-2.34 0-1.375-1.125-2.5-2.5-2.5zm-4.5 4v-2h-1v2zm0-3v-2h-1v2zm0 12v-2h-1v2zm0-3v-2h-1v2zm0-3v-2h-1v2z" transform="translate(-422.5 -344)"/>
    </g>
</svg>
