<svg xmlns="http://www.w3.org/2000/svg" viewBox="0 0 20 20" xml:space="preserve">
    <g style="display:inline;fill:#fff;enable-background:new">
        <path style="color:#000;font-style:normal;font-variant:normal;font-weight:400;font-stretch:normal;font-size:medium;line-height:normal;font-family:sans-serif;font-variant-ligatures:normal;font-variant-position:normal;font-variant-caps:normal;font-variant-numeric:normal;font-variant-alternates:normal;font-feature-settings:normal;text-indent:0;text-align:start;text-decoration:none;text-decoration-line:none;text-decoration-style:solid;text-decoration-color:#000;letter-spacing:normal;word-spacing:normal;text-transform:none;writing-mode:lr-tb;direction:ltr;text-orientation:mixed;dominant-baseline:auto;baseline-shift:baseline;text-anchor:start;white-space:normal;shape-padding:0;clip-rule:nonzero;display:inline;overflow:visible;visibility:visible;opacity:1;isolation:auto;mix-blend-mode:normal;color-interpolation:sRGB;color-interpolation-filters:linearRGB;solid-color:#000;solid-opacity:1;vector-effect:none;fill:#fff;fill-opacity:1;fill-rule:nonzero;stroke:none;stroke-width:1;stroke-linecap:round;stroke-linejoin:round;stroke-miterlimit:4;stroke-dasharray:none;stroke-dashoffset:0;stroke-opacity:1;marker:none;paint-order:fill markers stroke;color-rendering:auto;image-rendering:auto;shape-rendering:auto;text-rendering:auto;enable-background:accumulate" d="M221 284c-.546 0-1 .454-1 1s.454 1 1 1 1-.454 1-1-.454-1-1-1zm3 0c-.546 0-1 .454-1 1s.454 1 1 1 1-.454 1-1-.454-1-1-1zm3 1c-.546 0-1 .454-1 1s.454 1 1 1 1-.454 1-1-.454-1-1-1zm-5.672 2.047a5.867 5.867 0 0 0-2.023.639c-1.234.65-2.227 1.687-2.95 2.843-.722 1.156-1.18 2.432-1.322 3.608-.142 1.175.018 2.283.688 3.029.682.76 1.69.98 2.613.691 1.018-.319 1.666-1.307 1.666-2.357 0-.876.23-1.11.643-1.293.413-.183 1.111-.207 1.857-.207.793 0 1.565-.15 2.207-.533.523-.313.895-.838 1.115-1.467h1.133a.5.5 0 0 0 .002 0c1.028 0 1.91-.757 2.03-1.77.119-1.012-.57-1.953-1.57-2.18-.732-.165-1.385.173-1.872.69-.494-.692-1.086-1.299-1.916-1.521a6.01 6.01 0 0 0-2.3-.172zm.12.986a5.008 5.008 0 0 1 1.923.15c.668.18 1.23.758 1.697 1.565a.5.5 0 0 0 .903-.078 1.05 1.05 0 0 1 1.224-.645c.527.12.859.586.8 1.088-.06.503-.497.887-1.038.887H225.5a.5.5 0 0 0-.492.414c-.103.585-.382.938-.813 1.195-.43.258-1.032.391-1.695.391-.745 0-1.548-.025-2.262.291S219 294.373 219 295.5c0 .632-.406 1.227-.965 1.402-.622.195-1.129.088-1.57-.404-.377-.42-.559-1.236-.438-2.24.121-1.004.531-2.165 1.178-3.2.647-1.034 1.527-1.94 2.566-2.488a4.848 4.848 0 0 1 1.676-.537z" transform="translate(-211.993 -280.99)"/>
    </g>
</svg>
