<svg xmlns="http://www.w3.org/2000/svg" viewBox="0 0 20 20" xml:space="preserve">
    <path style="color:#000;font-style:normal;font-variant:normal;font-weight:400;font-stretch:normal;font-size:medium;line-height:normal;font-family:sans-serif;font-variant-ligatures:normal;font-variant-position:normal;font-variant-caps:normal;font-variant-numeric:normal;font-variant-alternates:normal;font-feature-settings:normal;text-indent:0;text-align:start;text-decoration:none;text-decoration-line:none;text-decoration-style:solid;text-decoration-color:#000;letter-spacing:normal;word-spacing:normal;text-transform:none;writing-mode:lr-tb;direction:ltr;text-orientation:mixed;dominant-baseline:auto;baseline-shift:baseline;text-anchor:start;white-space:normal;shape-padding:0;clip-rule:nonzero;display:inline;overflow:visible;visibility:visible;isolation:auto;mix-blend-mode:normal;color-interpolation:sRGB;color-interpolation-filters:linearRGB;solid-color:#000;solid-opacity:1;vector-effect:none;fill:#fff;fill-opacity:1;fill-rule:nonzero;stroke:none;stroke-width:1;stroke-linecap:round;stroke-linejoin:round;stroke-miterlimit:4;stroke-dasharray:none;stroke-dashoffset:0;stroke-opacity:1;marker:none;paint-order:fill markers stroke;color-rendering:auto;image-rendering:auto;shape-rendering:auto;text-rendering:auto;enable-background:accumulate" d="M10.69 3.012A4.003 4.003 0 0 0 7 7a.5.5 0 0 0 .016.133 3.973 3.973 0 0 0-1.059.427 3.994 3.994 0 0 0-1.879 4.145A2.998 2.998 0 0 0 3.002 14.1a3.005 3.005 0 0 0 2.672 2.881 3 3 0 0 0 3.152-2.008 3.97 3.97 0 0 0 2.499-.746 3.498 3.498 0 0 0 3.789.377 3.5 3.5 0 0 0-.322-6.357 3.998 3.998 0 0 0-.885-3.996 4.024 4.024 0 0 0-3.217-1.24zm.521.996a2.996 2.996 0 0 1 2.51 4.256.5.5 0 0 0-.053.216.5.5 0 0 0 .387.582 2.498 2.498 0 0 1 .598 4.656 2.499 2.499 0 0 1-2.84-.372.5.5 0 0 0-.203-.12.5.5 0 0 0-.282-.097.5.5 0 0 0-.351.129 3 3 0 0 1-2.399.713.5.5 0 0 0-.543.33.5.5 0 0 0-.097.197 1.994 1.994 0 0 1-2.154 1.49 1.993 1.993 0 0 1-.957-3.598.5.5 0 0 0 .166-.117c.198-.115.418-.2.656-.242a.5.5 0 0 0-.09-.994.5.5 0 0 0-.084.01c-.16.028-.313.075-.463.127a2.992 2.992 0 0 1 5.057-2.346.5.5 0 0 0 .69-.724 3.995 3.995 0 0 0-2.31-1.079C8.302 7.008 8.15 7.01 8 7.01A.5.5 0 0 0 8 7a2.996 2.996 0 0 1 3.211-2.992z"/>
</svg>
