<svg xmlns="http://www.w3.org/2000/svg" viewBox="0 0 20 20" xml:space="preserve">
    <g style="display:inline;fill:#fff;enable-background:new">
        <path style="color:#000;font-style:normal;font-variant:normal;font-weight:400;font-stretch:normal;font-size:medium;line-height:normal;font-family:sans-serif;font-variant-ligatures:normal;font-variant-position:normal;font-variant-caps:normal;font-variant-numeric:normal;font-variant-alternates:normal;font-feature-settings:normal;text-indent:0;text-align:start;text-decoration:none;text-decoration-line:none;text-decoration-style:solid;text-decoration-color:#000;letter-spacing:normal;word-spacing:normal;text-transform:none;writing-mode:lr-tb;direction:ltr;text-orientation:mixed;dominant-baseline:auto;baseline-shift:baseline;text-anchor:start;white-space:normal;shape-padding:0;clip-rule:nonzero;display:inline;overflow:visible;visibility:visible;opacity:1;isolation:auto;mix-blend-mode:normal;color-interpolation:sRGB;color-interpolation-filters:linearRGB;solid-color:#000;solid-opacity:1;vector-effect:none;fill:#fff;fill-opacity:1;fill-rule:nonzero;stroke:none;stroke-width:1;stroke-linecap:round;stroke-linejoin:round;stroke-miterlimit:4;stroke-dasharray:none;stroke-dashoffset:0;stroke-opacity:1;marker:none;color-rendering:auto;image-rendering:auto;shape-rendering:auto;text-rendering:auto;enable-background:new" d="M54.75 284a.5.5 0 0 0-.432.248l-3.646 6.25a.5.5 0 0 0-.002.002 5.005 5.005 0 0 0 1.115 6.33 5.008 5.008 0 0 0 6.43 0 5.005 5.005 0 0 0 1.115-6.33.5.5 0 0 0-.002-.002l-3.646-6.25a.5.5 0 0 0-.432-.248zm.25 1.064 3.465 5.938a3.995 3.995 0 0 1-.895 5.062 3.992 3.992 0 0 1-5.14 0 3.995 3.995 0 0 1-.895-5.062V291zm-.512 2.93a.5.5 0 0 0-.43.272l-1.697 3.207a3.042 3.042 0 0 0-.35.922.5.5 0 1 0 .981.197 2.01 2.01 0 0 1 .235-.617.5.5 0 0 0 .01-.018l1.704-3.223a.5.5 0 0 0-.453-.74z" transform="translate(-45 -281)"/>
    </g>
</svg>
