<svg xmlns="http://www.w3.org/2000/svg" viewBox="0 0 20 20" xml:space="preserve">
    <g style="display:inline;fill:#fff;stroke-width:1;stroke-miterlimit:4;stroke-dasharray:none;enable-background:new">
        <path style="color:#000;font-style:normal;font-variant:normal;font-weight:400;font-stretch:normal;font-size:medium;line-height:normal;font-family:sans-serif;font-variant-ligatures:normal;font-variant-position:normal;font-variant-caps:normal;font-variant-numeric:normal;font-variant-alternates:normal;font-feature-settings:normal;text-indent:0;text-align:start;text-decoration:none;text-decoration-line:none;text-decoration-style:solid;text-decoration-color:#000;letter-spacing:normal;word-spacing:normal;text-transform:none;writing-mode:lr-tb;direction:ltr;text-orientation:mixed;dominant-baseline:auto;baseline-shift:baseline;text-anchor:start;white-space:normal;shape-padding:0;clip-rule:nonzero;display:inline;overflow:visible;visibility:visible;opacity:1;isolation:auto;mix-blend-mode:normal;color-interpolation:sRGB;color-interpolation-filters:linearRGB;solid-color:#000;solid-opacity:1;vector-effect:none;fill:#fff;fill-opacity:1;fill-rule:nonzero;stroke:none;stroke-width:1.1;stroke-linecap:round;stroke-linejoin:round;stroke-miterlimit:4;stroke-dasharray:none;stroke-dashoffset:0;stroke-opacity:1;marker:none;paint-order:fill markers stroke;color-rendering:auto;image-rendering:auto;shape-rendering:auto;text-rendering:auto;enable-background:new" d="M14.506 263.016a.55.55 0 0 0-.057.004 5.014 5.014 0 0 0-3.633 2.218c-.754 1.141-.943 2.547-.65 3.875l-3.523 3.522c-.417.38-.636.955-.66 1.613-.025.656.19 1.407.783 2a2.634 2.634 0 0 0 1.998.77c.652-.032 1.211-.256 1.591-.637l3.534-3.543c1.328.291 2.734.1 3.873-.654a5.018 5.018 0 0 0 2.218-3.63.55.55 0 0 0-.16-.45l-.943-.93a.55.55 0 0 0-.775.002l-1.807 1.799h-.59l-1.68-1.68v-.59l1.805-1.8a.55.55 0 0 0 .004-.776l-.932-.947a.55.55 0 0 0-.396-.166zm-.156 1.173.316.323-1.58 1.576a.55.55 0 0 0-.162.39l.002 1.047a.55.55 0 0 0 .162.387l2.002 2.002a.55.55 0 0 0 .389.162l1.046-.002a.55.55 0 0 0 .387-.16l1.58-1.574.319.314c-.184 1.059-.752 2.015-1.655 2.612-.97.642-2.22.83-3.33.492a.55.55 0 0 0-.549.136l-3.699 3.71c-.102.102-.475.295-.869.314a1.473 1.473 0 0 1-1.166-.447 1.531 1.531 0 0 1-.463-1.182c.015-.395.21-.755.305-.842a.55.55 0 0 0 .017-.017l3.707-3.705a.55.55 0 0 0 .137-.55 3.996 3.996 0 0 1 .488-3.331c.598-.904 1.556-1.472 2.616-1.655z" transform="translate(-2.982 -260.018)"/>
    </g>
</svg>
