<svg xmlns="http://www.w3.org/2000/svg" viewBox="0 0 20 20" xml:space="preserve">
    <path style="color:#000;font-style:normal;font-variant:normal;font-weight:400;font-stretch:normal;font-size:medium;line-height:normal;font-family:sans-serif;font-variant-ligatures:normal;font-variant-position:normal;font-variant-caps:normal;font-variant-numeric:normal;font-variant-alternates:normal;font-feature-settings:normal;text-indent:0;text-align:start;text-decoration:none;text-decoration-line:none;text-decoration-style:solid;text-decoration-color:#000;letter-spacing:normal;word-spacing:normal;text-transform:none;writing-mode:lr-tb;direction:ltr;text-orientation:mixed;dominant-baseline:auto;baseline-shift:baseline;text-anchor:start;white-space:normal;shape-padding:0;clip-rule:nonzero;display:inline;overflow:visible;visibility:visible;isolation:auto;mix-blend-mode:normal;color-interpolation:sRGB;color-interpolation-filters:linearRGB;solid-color:#000;solid-opacity:1;vector-effect:none;fill:#fff;fill-opacity:1;fill-rule:nonzero;stroke:none;stroke-width:1;stroke-linecap:butt;stroke-linejoin:round;stroke-miterlimit:4;stroke-dasharray:none;stroke-dashoffset:0;stroke-opacity:1;marker:none;color-rendering:auto;image-rendering:auto;shape-rendering:auto;text-rendering:auto;enable-background:accumulate" d="M9.516 2.99A3.48 3.48 0 0 1 13 6.473v3.015a.5.5 0 0 1-.498.5l-4.01.008a.5.5 0 0 1-.5-.5L8 3.525v-.038a.5.5 0 0 1 .5-.498zM7 2.99v1H5.484A2.469 2.469 0 0 0 3 6.473v8.031c0 1.385 1.1 2.484 2.484 2.484h4.032c1.384 0 2.484-1.1 2.484-2.484V10.99h1v3.516a3.488 3.488 0 0 1-3.484 3.484H5.484A3.488 3.488 0 0 1 2 14.505V6.474a3.488 3.488 0 0 1 3.484-3.485zm7.477-.979a.5.5 0 0 0-.315.871c.588.545.842 1.086.842 1.602L15 10.489a.5.5 0 1 0 1 0l.004-6.005c0-.851-.432-1.66-1.162-2.336a.5.5 0 0 0-.365-.137zm3.015 2.016a.5.5 0 0 0-.492.505v4.059a.5.5 0 1 0 1 0V4.532a.5.5 0 0 0-.508-.505z"/>
</svg>
