<svg xmlns="http://www.w3.org/2000/svg" viewBox="0 0 20 20" xml:space="preserve">
    <g style="display:inline;fill:#fff;enable-background:new">
        <path d="M164.508 224a.5.5 0 0 1 .431.271c1.44 2.72 1.438 6.742-.008 9.46a.5.5 0 1 1-.882-.471c1.244-2.339 1.245-6.18.006-8.52a.5.5 0 0 1 .453-.74zm-1.996 1.998a.5.5 0 0 1 .492.506v4.992a.5.5 0 1 1-1 0v-4.992a.5.5 0 0 1 .508-.506zM159.25 223a.5.5 0 0 0-.354.146L156.043 226H154.5a.5.5 0 0 0-.5.5v5a.5.5 0 0 0 .5.5h1.543l2.853 2.854a.5.5 0 0 0 .354.146h.25a.5.5 0 0 0 .5-.5v-11a.5.5 0 0 0-.5-.5z" style="color:#000;font-style:normal;font-variant:normal;font-weight:400;font-stretch:normal;font-size:medium;line-height:normal;font-family:sans-serif;font-variant-ligatures:normal;font-variant-position:normal;font-variant-caps:normal;font-variant-numeric:normal;font-variant-alternates:normal;font-feature-settings:normal;text-indent:0;text-align:start;text-decoration:none;text-decoration-line:none;text-decoration-style:solid;text-decoration-color:#000;letter-spacing:normal;word-spacing:normal;text-transform:none;writing-mode:lr-tb;direction:ltr;text-orientation:mixed;dominant-baseline:auto;baseline-shift:baseline;text-anchor:start;white-space:normal;shape-padding:0;clip-rule:nonzero;display:inline;overflow:visible;visibility:visible;opacity:1;isolation:auto;mix-blend-mode:normal;color-interpolation:sRGB;color-interpolation-filters:linearRGB;solid-color:#000;solid-opacity:1;vector-effect:none;fill:#fff;fill-opacity:1;fill-rule:nonzero;stroke:none;stroke-width:1;stroke-linecap:round;stroke-linejoin:round;stroke-miterlimit:4;stroke-dasharray:none;stroke-dashoffset:0;stroke-opacity:1;marker:none;paint-order:fill markers stroke;color-rendering:auto;image-rendering:auto;shape-rendering:auto;text-rendering:auto;enable-background:accumulate" transform="translate(-150.009 -219)"/>
    </g>
</svg>
