<svg xmlns="http://www.w3.org/2000/svg" viewBox="0 0 20 20" xml:space="preserve">
    <g style="display:inline;fill:#fff;enable-background:new">
        <path style="color:#000;font-style:normal;font-variant:normal;font-weight:400;font-stretch:normal;font-size:medium;line-height:normal;font-family:sans-serif;font-variant-ligatures:normal;font-variant-position:normal;font-variant-caps:normal;font-variant-numeric:normal;font-variant-alternates:normal;font-feature-settings:normal;text-indent:0;text-align:start;text-decoration:none;text-decoration-line:none;text-decoration-style:solid;text-decoration-color:#000;letter-spacing:normal;word-spacing:normal;text-transform:none;writing-mode:lr-tb;direction:ltr;text-orientation:mixed;dominant-baseline:auto;baseline-shift:baseline;text-anchor:start;white-space:normal;shape-padding:0;clip-rule:nonzero;display:inline;overflow:visible;visibility:visible;opacity:1;isolation:auto;mix-blend-mode:normal;color-interpolation:sRGB;color-interpolation-filters:linearRGB;solid-color:#000;solid-opacity:1;vector-effect:none;fill:#fff;fill-opacity:1;fill-rule:nonzero;stroke:none;stroke-width:1;stroke-linecap:butt;stroke-linejoin:round;stroke-miterlimit:4;stroke-dasharray:none;stroke-dashoffset:0;stroke-opacity:1;marker:none;color-rendering:auto;image-rendering:auto;shape-rendering:auto;text-rendering:auto;enable-background:accumulate" d="M324.61 536c-.857 0-1.61.648-1.61 1.5v3c0 .852.753 1.5 1.61 1.5h4.78c.857 0 1.61-.648 1.61-1.5v-3c0-.852-.753-1.5-1.61-1.5zm7.39 1v3c.563 0 1-.504 1-1.031v-.938c0-.527-.437-1.031-1-1.031zm-7.535 3a.5.5 0 0 1 .035 0h5a.5.5 0 1 1 0 1h-5a.5.5 0 0 1-.035-1zm-1.856 4c-.856 0-1.609.648-1.609 1.5v3c0 .852.753 1.5 1.61 1.5h4.78c.857 0 1.61-.648 1.61-1.5v-3c0-.852-.753-1.5-1.61-1.5zm7.391 2v3c.563 0 1-.504 1-1.031v-.938c0-.527-.437-1.031-1-1.031zm-7.535 2a.5.5 0 0 1 .035 0h5a.5.5 0 1 1 0 1h-5a.5.5 0 0 1-.035-1z" transform="translate(-318 -533)"/>
        <g style="opacity:1;fill:#fff">
            <path style="color:#000;font-style:normal;font-variant:normal;font-weight:400;font-stretch:normal;font-size:medium;line-height:normal;font-family:sans-serif;font-variant-ligatures:normal;font-variant-position:normal;font-variant-caps:normal;font-variant-numeric:normal;font-variant-alternates:normal;font-feature-settings:normal;text-indent:0;text-align:start;text-decoration:none;text-decoration-line:none;text-decoration-style:solid;text-decoration-color:#000;letter-spacing:normal;word-spacing:normal;text-transform:none;writing-mode:lr-tb;direction:ltr;text-orientation:mixed;dominant-baseline:auto;baseline-shift:baseline;text-anchor:start;white-space:normal;shape-padding:0;clip-rule:nonzero;display:inline;overflow:visible;visibility:visible;opacity:.7;isolation:auto;mix-blend-mode:normal;color-interpolation:sRGB;color-interpolation-filters:linearRGB;solid-color:#000;solid-opacity:1;vector-effect:none;fill:#fff;fill-opacity:1;fill-rule:nonzero;stroke:none;stroke-width:1;stroke-linecap:round;stroke-linejoin:round;stroke-miterlimit:4;stroke-dasharray:none;stroke-dashoffset:0;stroke-opacity:1;marker:none;color-rendering:auto;image-rendering:auto;shape-rendering:auto;text-rendering:auto;enable-background:accumulate" d="M332.5 307v1c.56 0 .908.143 1.133.367.224.225.367.574.367 1.133v5c0 .56-.143.908-.367 1.133-.225.224-.574.367-1.133.367h-2v1h2c.74 0 1.389-.21 1.84-.66.45-.451.66-1.1.66-1.84v-5c0-.74-.21-1.389-.66-1.84-.451-.45-1.1-.66-1.84-.66z" transform="translate(-318 -302)"/>
        </g>
    </g>
</svg>
