<svg xmlns="http://www.w3.org/2000/svg" viewBox="0 0 20 20" xml:space="preserve">
    <g style="display:inline;fill:#fff;enable-background:new">
        <g style="fill:#fff">
            <path style="color:#000;font-style:normal;font-variant:normal;font-weight:400;font-stretch:normal;font-size:medium;line-height:normal;font-family:sans-serif;font-variant-ligatures:normal;font-variant-position:normal;font-variant-caps:normal;font-variant-numeric:normal;font-variant-alternates:normal;font-feature-settings:normal;text-indent:0;text-align:start;text-decoration:none;text-decoration-line:none;text-decoration-style:solid;text-decoration-color:#000;letter-spacing:normal;word-spacing:normal;text-transform:none;writing-mode:lr-tb;direction:ltr;text-orientation:mixed;dominant-baseline:auto;baseline-shift:baseline;text-anchor:start;white-space:normal;shape-padding:0;clip-rule:nonzero;display:inline;overflow:visible;visibility:visible;opacity:.6;isolation:auto;mix-blend-mode:normal;color-interpolation:sRGB;color-interpolation-filters:linearRGB;solid-color:#000;solid-opacity:1;vector-effect:none;fill:#fff;fill-opacity:1;fill-rule:nonzero;stroke:none;stroke-width:1;stroke-linecap:round;stroke-linejoin:round;stroke-miterlimit:4;stroke-dasharray:none;stroke-dashoffset:0;stroke-opacity:1;marker:none;color-rendering:auto;image-rendering:auto;shape-rendering:auto;text-rendering:auto;enable-background:accumulate" d="M430.492 134.992a.5.5 0 0 0-.388.196.5.5 0 0 0-.004.006l-1.954 1.953a.5.5 0 1 0 .707.707l1.147-1.147v3.793a.5.5 0 1 0 1 0v-3.793l1.146 1.147a.5.5 0 1 0 .708-.708l-1.958-1.957a.5.5 0 0 0-.404-.197zm7.002 7.002a.5.5 0 0 0-.348.86l1.147 1.146H434.5a.5.5 0 1 0 0 1h3.793l-1.147 1.146a.5.5 0 1 0 .708.708l1.957-1.958a.5.5 0 0 0 .002-.792.5.5 0 0 0-.006-.004l-1.954-1.954a.5.5 0 0 0-.359-.152zm-11.002 2.998a.5.5 0 0 0-.492.508v2.94a.5.5 0 0 0 .56.56h2.94a.5.5 0 1 0 0-1h-1.793l1.147-1.146a.5.5 0 1 0-.708-.708L427 147.293V145.5a.5.5 0 0 0-.508-.508z" transform="translate(-423.001 -131.998)"/>
            <path d="M432.996 144a1.996 1.996 0 0 1-1.996 1.996 1.996 1.996 0 0 1-1.996-1.996 1.996 1.996 0 0 1 1.996-1.996 1.996 1.996 0 0 1 1.996 1.996z" style="display:inline;opacity:1;vector-effect:none;fill:#fff;fill-opacity:1;stroke:none;stroke-width:1;stroke-linecap:square;stroke-linejoin:round;stroke-miterlimit:4;stroke-dasharray:none;stroke-dashoffset:0;stroke-opacity:1;marker:none;paint-order:fill markers stroke;enable-background:new" transform="translate(-423.001 -131.998)"/>
        </g>
    </g>
</svg>
