<svg xmlns="http://www.w3.org/2000/svg" viewBox="0 0 20 20" xml:space="preserve">
    <g style="display:inline;fill:#fff;enable-background:new">
        <path transform="translate(-528 -155)" d="M533.492 157.992a.5.5 0 0 0-.388.196.5.5 0 0 0-.004.006l-1.954 1.953a.5.5 0 1 0 .707.707l1.147-1.147v7.574c-.594.348-1 .986-1 1.719 0 1.099.901 2 2 2 .733 0 1.37-.406 1.719-1h7.574l-1.147 1.146a.5.5 0 1 0 .708.708l1.957-1.958a.5.5 0 0 0 .002-.792.5.5 0 0 0-.006-.004l-1.954-1.954a.5.5 0 0 0-.359-.152.5.5 0 0 0-.348.86l1.147 1.146H536c0-1.099-.901-2-2-2v-7.293l1.146 1.147a.5.5 0 1 0 .708-.708l-1.958-1.957a.5.5 0 0 0-.404-.197zM534 168c.558 0 1 .442 1 1s-.442 1-1 1-1-.442-1-1 .442-1 1-1z" style="color:#000;font-style:normal;font-variant:normal;font-weight:400;font-stretch:normal;font-size:medium;line-height:normal;font-family:sans-serif;font-variant-ligatures:normal;font-variant-position:normal;font-variant-caps:normal;font-variant-numeric:normal;font-variant-alternates:normal;font-feature-settings:normal;text-indent:0;text-align:start;text-decoration:none;text-decoration-line:none;text-decoration-style:solid;text-decoration-color:#000;letter-spacing:normal;word-spacing:normal;text-transform:none;writing-mode:lr-tb;direction:ltr;text-orientation:mixed;dominant-baseline:auto;baseline-shift:baseline;text-anchor:start;white-space:normal;shape-padding:0;clip-rule:nonzero;display:inline;overflow:visible;visibility:visible;opacity:1;isolation:auto;mix-blend-mode:normal;color-interpolation:sRGB;color-interpolation-filters:linearRGB;solid-color:#000;solid-opacity:1;vector-effect:none;fill:#fff;fill-opacity:1;fill-rule:nonzero;stroke:none;stroke-width:1;stroke-linecap:round;stroke-linejoin:round;stroke-miterlimit:4;stroke-dasharray:none;stroke-dashoffset:0;stroke-opacity:1;marker:none;color-rendering:auto;image-rendering:auto;shape-rendering:auto;text-rendering:auto;enable-background:accumulate"/>
    </g>
</svg>
