<svg xmlns="http://www.w3.org/2000/svg" viewBox="0 0 20 20" xml:space="preserve">
    <g style="display:inline;fill:#fff;enable-background:new">
        <path transform="translate(42.998 -155.003)" d="M-28.482 162.002a.5.5 0 0 0-.366.857l1.147 1.147h-5.586a2 2 0 0 0-1.72-1c-1.1 0-2 .901-2 2s.9 2 2 2c1.098 0 2-.901 2-2h5.306l-1.147 1.146a.5.5 0 0 0 .71.707l2-2a.5.5 0 0 0 0-.707l-2-2a.5.5 0 0 0-.344-.15zm-6.526 2.004c.558 0 1 .442 1 1s-.442 1-1 1-1-.442-1-1 .442-1 1-1z" style="color:#000;font-style:normal;font-variant:normal;font-weight:400;font-stretch:normal;font-size:medium;line-height:normal;font-family:sans-serif;font-variant-ligatures:normal;font-variant-position:normal;font-variant-caps:normal;font-variant-numeric:normal;font-variant-alternates:normal;font-feature-settings:normal;text-indent:0;text-align:start;text-decoration:none;text-decoration-line:none;text-decoration-style:solid;text-decoration-color:#000;letter-spacing:normal;word-spacing:normal;text-transform:none;writing-mode:lr-tb;direction:ltr;text-orientation:mixed;dominant-baseline:auto;baseline-shift:baseline;text-anchor:start;white-space:normal;shape-padding:0;clip-rule:nonzero;display:inline;overflow:visible;visibility:visible;opacity:1;isolation:auto;mix-blend-mode:normal;color-interpolation:sRGB;color-interpolation-filters:linearRGB;solid-color:#000;solid-opacity:1;vector-effect:none;fill:#fff;fill-opacity:1;fill-rule:nonzero;stroke:none;stroke-width:1px;stroke-linecap:butt;stroke-linejoin:round;stroke-miterlimit:4;stroke-dasharray:none;stroke-dashoffset:0;stroke-opacity:1;marker:none;paint-order:fill markers stroke;color-rendering:auto;image-rendering:auto;shape-rendering:auto;text-rendering:auto;enable-background:accumulate"/>
        <g style="display:inline;opacity:.6;fill:#fff;enable-background:new">
            <g style="fill:#fff">
                <path d="m-559.998 608.996-4.502.004a.5.5 0 0 0-.5.504l.008 1.002a.5.5 0 0 0 .02.133l1.992 6.998a.5.5 0 0 0 .48.363h11a.5.5 0 0 0 .5-.496l.01-.998a.5.5 0 0 0-.02-.14l-2.005-7.003a.5.5 0 0 0-.481-.363l-3.502-.004v1l3.125.004 1.88 6.57-.001.43h-10.127l-1.871-6.568-.004-.432 3.998-.004z" style="color:#000;font-style:normal;font-variant:normal;font-weight:400;font-stretch:normal;font-size:medium;line-height:normal;font-family:sans-serif;font-variant-ligatures:normal;font-variant-position:normal;font-variant-caps:normal;font-variant-numeric:normal;font-variant-alternates:normal;font-feature-settings:normal;text-indent:0;text-align:start;text-decoration:none;text-decoration-line:none;text-decoration-style:solid;text-decoration-color:#000;letter-spacing:normal;word-spacing:normal;text-transform:none;writing-mode:lr-tb;direction:ltr;text-orientation:mixed;dominant-baseline:auto;baseline-shift:baseline;text-anchor:start;white-space:normal;shape-padding:0;clip-rule:nonzero;display:inline;overflow:visible;visibility:visible;opacity:1;isolation:auto;mix-blend-mode:normal;color-interpolation:sRGB;color-interpolation-filters:linearRGB;solid-color:#000;solid-opacity:1;vector-effect:none;fill:#fff;fill-opacity:1;fill-rule:nonzero;stroke:none;stroke-width:1;stroke-linecap:butt;stroke-linejoin:round;stroke-miterlimit:4;stroke-dasharray:none;stroke-dashoffset:0;stroke-opacity:1;color-rendering:auto;image-rendering:auto;shape-rendering:auto;text-rendering:auto;enable-background:new" transform="rotate(90 26.5 594.494)"/>
            </g>
        </g>
    </g>
</svg>
