<svg xmlns="http://www.w3.org/2000/svg" viewBox="0 0 20 20" xml:space="preserve">
    <g style="display:inline;opacity:.99;fill:#fff;enable-background:new">
        <path style="color:#000;font-style:normal;font-variant:normal;font-weight:400;font-stretch:normal;font-size:medium;line-height:normal;font-family:sans-serif;font-variant-ligatures:normal;font-variant-position:normal;font-variant-caps:normal;font-variant-numeric:normal;font-variant-alternates:normal;font-feature-settings:normal;text-indent:0;text-align:start;text-decoration:none;text-decoration-line:none;text-decoration-style:solid;text-decoration-color:#000;letter-spacing:normal;word-spacing:normal;text-transform:none;writing-mode:lr-tb;direction:ltr;text-orientation:mixed;dominant-baseline:auto;baseline-shift:baseline;text-anchor:start;white-space:normal;shape-padding:0;clip-rule:nonzero;display:inline;overflow:visible;visibility:visible;opacity:1;isolation:auto;mix-blend-mode:normal;color-interpolation:sRGB;color-interpolation-filters:linearRGB;solid-color:#000;solid-opacity:1;vector-effect:none;fill:#fff;fill-opacity:1;fill-rule:evenodd;stroke:none;stroke-width:1;stroke-linecap:round;stroke-linejoin:round;stroke-miterlimit:4;stroke-dasharray:none;stroke-dashoffset:0;stroke-opacity:1;color-rendering:auto;image-rendering:auto;shape-rendering:auto;text-rendering:auto;enable-background:accumulate" d="M968.5 168a.5.5 0 0 1 .5.5v13a.5.5 0 0 1-.5.5h-13a.5.5 0 0 1-.5-.5v-13a.5.5 0 0 1 .5-.5zm-10 2c-.823 0-1.5.678-1.5 1.5 0 .823.677 1.5 1.5 1.5s1.5-.677 1.5-1.5c0-.822-.677-1.5-1.5-1.5zm4.977 3a.5.5 0 0 0-.41.252l-4 7a.5.5 0 0 0 .433.748h8a.5.5 0 0 0 .434-.748l-4-7a.5.5 0 0 0-.457-.252z" transform="matrix(-1 0 0 1 972 -165)"/>
    </g>
</svg>
