<svg xmlns="http://www.w3.org/2000/svg" viewBox="0 0 20 20" xml:space="preserve">
    <path d="M5.511 2.997a.5.5 0 0 0-.5.5v3a.5.5 0 0 0 .5.5h1.504c.02.583.04 1.036-.049 1.248-.228.543-.56.827-1.008 1.11-.447.282-1.007.53-1.537.974-.53.443-1 1.1-1.226 2.088-.226.987-.234 2.299.062 4.164a.5.5 0 0 0 .494.422h8.756a.5.5 0 0 0 .494-.578c-.369-2.326-.215-3.637.123-4.408.338-.772.853-1.086 1.498-1.455.645-.37 1.436-.781 1.909-1.708.472-.926.595-2.259.213-4.437a.5.5 0 0 0-.493-.414h-7.24v-.506a.5.5 0 0 0-.5-.5zm.5 1h2v2h-2zm3 1.006h6.781c.255 1.75.145 2.816-.152 3.398-.325.637-.848.912-1.514 1.293-.666.381-1.462.88-1.918 1.92-.412.941-.496 2.355-.236 4.389H4.238c-.193-1.475-.231-2.652-.069-3.363.183-.8.497-1.212.893-1.543.396-.332.903-.566 1.43-.899.526-.333 1.073-.798 1.396-1.566.22-.524.177-1.055.139-1.635h.484a.5.5 0 0 0 .5-.5z" style="color:#000;font-style:normal;font-variant:normal;font-weight:400;font-stretch:normal;font-size:medium;line-height:normal;font-family:sans-serif;font-variant-ligatures:normal;font-variant-position:normal;font-variant-caps:normal;font-variant-numeric:normal;font-variant-alternates:normal;font-feature-settings:normal;text-indent:0;text-align:start;text-decoration:none;text-decoration-line:none;text-decoration-style:solid;text-decoration-color:#000;letter-spacing:normal;word-spacing:normal;text-transform:none;writing-mode:lr-tb;direction:ltr;text-orientation:mixed;dominant-baseline:auto;baseline-shift:baseline;text-anchor:start;white-space:normal;shape-padding:0;clip-rule:nonzero;display:inline;overflow:visible;visibility:visible;isolation:auto;mix-blend-mode:normal;color-interpolation:sRGB;color-interpolation-filters:linearRGB;solid-color:#000;solid-opacity:1;vector-effect:none;fill:#fff;fill-opacity:1;fill-rule:nonzero;stroke:none;stroke-width:1;stroke-linecap:round;stroke-linejoin:round;stroke-miterlimit:4;stroke-dasharray:none;stroke-dashoffset:0;stroke-opacity:1;marker:none;color-rendering:auto;image-rendering:auto;shape-rendering:auto;text-rendering:auto;enable-background:new"/>
</svg>
