<svg xmlns="http://www.w3.org/2000/svg" viewBox="0 0 20 20" xml:space="preserve">
    <g style="display:inline;fill:#fff;enable-background:new">
        <g style="fill:#fff;stroke:#fff">
            <path style="color:#000;font-style:normal;font-variant:normal;font-weight:400;font-stretch:normal;font-size:medium;line-height:normal;font-family:sans-serif;font-variant-ligatures:normal;font-variant-position:normal;font-variant-caps:normal;font-variant-numeric:normal;font-variant-alternates:normal;font-feature-settings:normal;text-indent:0;text-align:start;text-decoration:none;text-decoration-line:none;text-decoration-style:solid;text-decoration-color:#000;letter-spacing:normal;word-spacing:normal;text-transform:none;writing-mode:lr-tb;direction:ltr;text-orientation:mixed;dominant-baseline:auto;baseline-shift:baseline;text-anchor:start;white-space:normal;shape-padding:0;clip-rule:nonzero;display:inline;overflow:visible;visibility:visible;opacity:1;isolation:auto;mix-blend-mode:normal;color-interpolation:sRGB;color-interpolation-filters:linearRGB;solid-color:#000;solid-opacity:1;vector-effect:none;fill:#fff;fill-opacity:1;fill-rule:nonzero;stroke:none;stroke-width:2;stroke-linecap:round;stroke-linejoin:round;stroke-miterlimit:4;stroke-dasharray:none;stroke-dashoffset:0;stroke-opacity:1;color-rendering:auto;image-rendering:auto;shape-rendering:auto;text-rendering:auto;enable-background:accumulate" d="M258.996 451.988a1 1 0 0 0-.82 1.567l1.63 2.445-1.63 2.445a1 1 0 0 0 0 1.11l1.63 2.445-1.63 2.445a1 1 0 1 0 1.664 1.11l2-3a1 1 0 0 0 0-1.11L260.209 459l1.63-2.445a1 1 0 0 0 0-1.11l-2-3a1 1 0 0 0-.843-.457zm5 0a1 1 0 0 0-.82 1.567l1.63 2.445-1.63 2.445a1 1 0 0 0 0 1.11l1.63 2.445-1.63 2.445a1 1 0 1 0 1.664 1.11l2-3a1 1 0 0 0 0-1.11L265.209 459l1.63-2.445a1 1 0 0 0 0-1.11l-2-3a1 1 0 0 0-.843-.457zm5 0a1 1 0 0 0-.82 1.567l1.63 2.445-1.63 2.445a1 1 0 0 0 0 1.11l1.63 2.445-1.63 2.445a1 1 0 1 0 1.664 1.11l2-3a1 1 0 0 0 0-1.11L270.209 459l1.63-2.445a1 1 0 0 0 0-1.11l-2-3a1 1 0 0 0-.843-.457z" transform="translate(-255.003 -449)"/>
        </g>
    </g>
</svg>
