<svg xmlns="http://www.w3.org/2000/svg" viewBox="0 0 20 20" xml:space="preserve">
    <g style="display:inline;fill:#fff;enable-background:new">
        <path transform="translate(390.5 -1844.502)" d="M-377.5 1847c-2.14 0-3.854 1.535-4.307 3.541-.634-.873-1.534-1.541-2.693-1.541a3.508 3.508 0 0 0-3.5 3.5c0 1.927 1.573 3.5 3.5 3.5h7c2.48 0 4.5-2.02 4.5-4.5s-2.02-4.5-4.5-4.5zm0 3c.823 0 1.5.677 1.5 1.5s-.677 1.5-1.5 1.5-1.5-.677-1.5-1.5.677-1.5 1.5-1.5zm-7 1c.823 0 1.5.677 1.5 1.5s-.677 1.5-1.5 1.5-1.5-.677-1.5-1.5.677-1.5 1.5-1.5zm7 0c-.282 0-.5.218-.5.5 0 .282.218.5.5.5.282 0 .5-.218.5-.5 0-.282-.218-.5-.5-.5zm-3.95.998h-.05a.5.5 0 0 0 .05 0zm-3.05 0c-.282 0-.5.218-.5.5 0 .282.218.5.5.5.282 0 .5-.218.5-.5 0-.282-.218-.5-.5-.5z" style="color:#000;font-style:normal;font-variant:normal;font-weight:400;font-stretch:normal;font-size:medium;line-height:normal;font-family:sans-serif;font-variant-ligatures:normal;font-variant-position:normal;font-variant-caps:normal;font-variant-numeric:normal;font-variant-alternates:normal;font-feature-settings:normal;text-indent:0;text-align:start;text-decoration:none;text-decoration-line:none;text-decoration-style:solid;text-decoration-color:#000;letter-spacing:normal;word-spacing:normal;text-transform:none;writing-mode:lr-tb;direction:ltr;text-orientation:mixed;dominant-baseline:auto;baseline-shift:baseline;text-anchor:start;white-space:normal;shape-padding:0;clip-rule:nonzero;display:inline;overflow:visible;visibility:visible;opacity:1;isolation:auto;mix-blend-mode:normal;color-interpolation:sRGB;color-interpolation-filters:linearRGB;solid-color:#000;solid-opacity:1;vector-effect:none;fill:#fff;fill-opacity:1;fill-rule:nonzero;stroke:none;stroke-width:1;stroke-linecap:round;stroke-linejoin:round;stroke-miterlimit:4;stroke-dasharray:none;stroke-dashoffset:.5;stroke-opacity:1;marker:none;color-rendering:auto;image-rendering:auto;shape-rendering:auto;text-rendering:auto;enable-background:accumulate"/>
        <path transform="translate(390.5 -1844.502)" d="M-385.508 1856.992a.5.5 0 0 0-.492.508v2a.5.5 0 0 0 1 0v-.5h1v1.5a.5.5 0 0 0 .146.353l1 1a.5.5 0 0 0 .354.147h5a.5.5 0 0 0 .5-.5v-4a.5.5 0 0 0-.5-.5h-6a.5.5 0 0 0-.5.5v.5h-1v-.5a.5.5 0 0 0-.508-.508zm11.992.01a.48.48 0 0 0-.296.11l-2.5 2a.5.5 0 0 0 0 .78l2.5 2a.5.5 0 0 0 .812-.39v-4a.5.5 0 0 0-.516-.5z" style="color:#000;font-style:normal;font-variant:normal;font-weight:400;font-stretch:normal;font-size:medium;line-height:normal;font-family:sans-serif;font-variant-ligatures:normal;font-variant-position:normal;font-variant-caps:normal;font-variant-numeric:normal;font-variant-alternates:normal;font-feature-settings:normal;text-indent:0;text-align:start;text-decoration:none;text-decoration-line:none;text-decoration-style:solid;text-decoration-color:#000;letter-spacing:normal;word-spacing:normal;text-transform:none;writing-mode:lr-tb;direction:ltr;text-orientation:mixed;dominant-baseline:auto;baseline-shift:baseline;text-anchor:start;white-space:normal;shape-padding:0;clip-rule:nonzero;display:inline;overflow:visible;visibility:visible;opacity:1;isolation:auto;mix-blend-mode:normal;color-interpolation:sRGB;color-interpolation-filters:linearRGB;solid-color:#000;solid-opacity:1;vector-effect:none;fill:#fff;fill-opacity:1;fill-rule:nonzero;stroke:none;stroke-width:1;stroke-linecap:round;stroke-linejoin:round;stroke-miterlimit:4;stroke-dasharray:none;stroke-dashoffset:0;stroke-opacity:1;marker:none;color-rendering:auto;image-rendering:auto;shape-rendering:auto;text-rendering:auto;enable-background:accumulate"/>
    </g>
</svg>
