<svg xmlns="http://www.w3.org/2000/svg" viewBox="0 0 20 20" xml:space="preserve">
    <g style="display:inline;fill:#fff;enable-background:new">
        <path style="color:#000;font-style:normal;font-variant:normal;font-weight:400;font-stretch:normal;font-size:medium;line-height:normal;font-family:sans-serif;font-variant-ligatures:normal;font-variant-position:normal;font-variant-caps:normal;font-variant-numeric:normal;font-variant-alternates:normal;font-feature-settings:normal;text-indent:0;text-align:start;text-decoration:none;text-decoration-line:none;text-decoration-style:solid;text-decoration-color:#000;letter-spacing:normal;word-spacing:normal;text-transform:none;writing-mode:lr-tb;direction:ltr;text-orientation:mixed;dominant-baseline:auto;baseline-shift:baseline;text-anchor:start;white-space:normal;shape-padding:0;clip-rule:nonzero;display:inline;overflow:visible;visibility:visible;opacity:1;isolation:auto;mix-blend-mode:normal;color-interpolation:sRGB;color-interpolation-filters:linearRGB;solid-color:#000;solid-opacity:1;vector-effect:none;fill:#fff;fill-opacity:1;fill-rule:nonzero;stroke:none;stroke-width:2;stroke-linecap:round;stroke-linejoin:miter;stroke-miterlimit:4;stroke-dasharray:none;stroke-dashoffset:0;stroke-opacity:1;color-rendering:auto;image-rendering:auto;shape-rendering:auto;text-rendering:auto;enable-background:new" d="M-447.963 710.988a1 1 0 0 0-.838.412c-3.306 4.409-3.182 10.968-3.185 12.584a1 1 0 1 0 2 .006c.004-1.642.093-7.799 2.787-11.39a1 1 0 0 0-.764-1.612zm4.975 3.002a1 1 0 0 0-.698.281c-2.254 2.123-3.373 3.99-3.89 5.643-.517 1.653-.424 3.05-.424 4.086a1 1 0 1 0 2 0c0-1.136-.07-2.203.332-3.488.402-1.285 1.281-2.833 3.354-4.783a1 1 0 0 0-.674-1.739zm3.945 4.008a1 1 0 0 0-.168.023c-2.457.529-4.789 2.808-4.789 5.979a1 1 0 1 0 2 0c0-2.174 1.668-3.69 3.21-4.021a1 1 0 0 0-.253-1.981z" transform="translate(455 -708)"/>
    </g>
</svg>
