<svg xmlns="http://www.w3.org/2000/svg" viewBox="0 0 20 20" xml:space="preserve">
    <path d="M5.5 3A2.498 2.498 0 0 0 3 5.5v1C3 7.882 4.118 9 5.5 9h9C15.882 9 17 7.882 17 6.5v-1c0-1.386-1.135-2.484-2.512-2.486zM9 4.006l5.486.008C15.35 4.014 16 4.646 16 5.5v1c0 .858-.642 1.5-1.5 1.5H9zM5.5 11A2.498 2.498 0 0 0 3 13.5v1C3 15.882 4.118 17 5.5 17h9c1.382 0 2.5-1.118 2.5-2.5v-1c0-1.386-1.135-2.484-2.512-2.486zm6.51 1.01 2.476.004c.863 0 1.514.632 1.514 1.486v1c0 .858-.642 1.5-1.5 1.5H12z" style="color:#000;font-style:normal;font-variant:normal;font-weight:400;font-stretch:normal;font-size:medium;line-height:normal;font-family:sans-serif;font-variant-ligatures:normal;font-variant-position:normal;font-variant-caps:normal;font-variant-numeric:normal;font-variant-alternates:normal;font-feature-settings:normal;text-indent:0;text-align:start;text-decoration:none;text-decoration-line:none;text-decoration-style:solid;text-decoration-color:#000;letter-spacing:normal;word-spacing:normal;text-transform:none;writing-mode:lr-tb;direction:ltr;text-orientation:mixed;dominant-baseline:auto;baseline-shift:baseline;text-anchor:start;white-space:normal;shape-padding:0;clip-rule:nonzero;display:inline;overflow:visible;visibility:visible;isolation:auto;mix-blend-mode:normal;color-interpolation:sRGB;color-interpolation-filters:linearRGB;solid-color:#000;solid-opacity:1;vector-effect:none;fill:#fff;fill-opacity:1;fill-rule:nonzero;stroke:none;stroke-width:1;stroke-linecap:square;stroke-linejoin:round;stroke-miterlimit:4;stroke-dasharray:none;stroke-dashoffset:0;stroke-opacity:1;color-rendering:auto;image-rendering:auto;shape-rendering:auto;text-rendering:auto;enable-background:accumulate"/>
</svg>
