<svg xmlns="http://www.w3.org/2000/svg" viewBox="0 0 20 20" xml:space="preserve">
    <path style="color:#000;font-style:normal;font-variant:normal;font-weight:400;font-stretch:normal;font-size:medium;line-height:normal;font-family:sans-serif;font-variant-ligatures:normal;font-variant-position:normal;font-variant-caps:normal;font-variant-numeric:normal;font-variant-alternates:normal;font-feature-settings:normal;text-indent:0;text-align:start;text-decoration:none;text-decoration-line:none;text-decoration-style:solid;text-decoration-color:#000;letter-spacing:normal;word-spacing:normal;text-transform:none;writing-mode:lr-tb;direction:ltr;text-orientation:mixed;dominant-baseline:auto;baseline-shift:baseline;text-anchor:start;white-space:normal;shape-padding:0;clip-rule:nonzero;display:inline;overflow:visible;visibility:visible;isolation:auto;mix-blend-mode:normal;color-interpolation:sRGB;color-interpolation-filters:linearRGB;solid-color:#000;solid-opacity:1;vector-effect:none;fill:#fff;fill-opacity:1;fill-rule:nonzero;stroke:none;stroke-width:1;stroke-linecap:round;stroke-linejoin:round;stroke-miterlimit:4;stroke-dasharray:none;stroke-dashoffset:0;stroke-opacity:1;marker:none;paint-order:fill markers stroke;color-rendering:auto;image-rendering:auto;shape-rendering:auto;text-rendering:auto;enable-background:accumulate" d="M5.5 2.5a.5.5 0 1 0 0 1h3a.5.5 0 1 0 0-1zm-2 2A.5.5 0 0 0 3 5v12a.5.5 0 0 0 .5.5h7c.676.01.676-1.01 0-1H4v-1h2.508a.5.5 0 0 0 .5-.5V7.5H16V10c0 .525-.148.879-.385 1.115-.236.237-.59.385-1.115.385h-1a.5.5 0 0 0-.5.5v2.5H8.5c-.676-.01-.676 1.01 0 1h5a.5.5 0 0 0 .5-.5v-2.5h.5c.725 0 1.371-.227 1.822-.678.451-.45.678-1.097.678-1.822V7a.5.5 0 0 0-.5-.5H11V5a.5.5 0 0 0-.5-.5zm.5 1h6v1H4zm4 3v1h1v-1zm2 0v1h1v-1zm2 0v1h1v-1zm2 0v1h1v-1z"/>
</svg>
