<svg xmlns="http://www.w3.org/2000/svg" viewBox="0 0 20 20" xml:space="preserve">
    <g style="display:inline;fill:#fff;enable-background:new">
        <path d="M718.492 868a.5.5 0 0 0-.346.146L717 869.293l1.707 1.707 1.147-1.146a.5.5 0 0 0 0-.708l-1-1a.5.5 0 0 0-.362-.146zm-2.199 2-5.147 5.146a.5.5 0 0 0 0 .708l1 1a.5.5 0 0 0 .708 0l5.146-5.147z" style="color:#000;font-style:normal;font-variant:normal;font-weight:400;font-stretch:normal;font-size:medium;line-height:normal;font-family:sans-serif;font-variant-ligatures:normal;font-variant-position:normal;font-variant-caps:normal;font-variant-numeric:normal;font-variant-alternates:normal;font-feature-settings:normal;text-indent:0;text-align:start;text-decoration:none;text-decoration-line:none;text-decoration-style:solid;text-decoration-color:#000;letter-spacing:normal;word-spacing:normal;text-transform:none;writing-mode:lr-tb;direction:ltr;text-orientation:mixed;dominant-baseline:auto;baseline-shift:baseline;text-anchor:start;white-space:normal;shape-padding:0;clip-rule:nonzero;display:inline;overflow:visible;visibility:visible;opacity:.7;isolation:auto;mix-blend-mode:normal;color-interpolation:sRGB;color-interpolation-filters:linearRGB;solid-color:#000;solid-opacity:1;vector-effect:none;fill:#fff;fill-opacity:1;fill-rule:nonzero;stroke:none;stroke-width:1;stroke-linecap:round;stroke-linejoin:round;stroke-miterlimit:4;stroke-dasharray:none;stroke-dashoffset:0;stroke-opacity:1;marker:none;color-rendering:auto;image-rendering:auto;shape-rendering:auto;text-rendering:auto;enable-background:accumulate" transform="translate(-708.004 -859.996)"/>
        <g style="opacity:1;fill:#fff">
            <path style="color:#000;font-style:normal;font-variant:normal;font-weight:400;font-stretch:normal;font-size:medium;line-height:normal;font-family:sans-serif;font-variant-ligatures:normal;font-variant-position:normal;font-variant-caps:normal;font-variant-numeric:normal;font-variant-alternates:normal;font-feature-settings:normal;text-indent:0;text-align:start;text-decoration:none;text-decoration-line:none;text-decoration-style:solid;text-decoration-color:#000;letter-spacing:normal;word-spacing:normal;text-transform:none;writing-mode:lr-tb;direction:ltr;text-orientation:mixed;dominant-baseline:auto;baseline-shift:baseline;text-anchor:start;white-space:normal;shape-padding:0;clip-rule:nonzero;display:inline;overflow:visible;visibility:visible;opacity:1;isolation:auto;mix-blend-mode:normal;color-interpolation:sRGB;color-interpolation-filters:linearRGB;solid-color:#000;solid-opacity:1;vector-effect:none;fill:#fff;fill-opacity:1;fill-rule:nonzero;stroke:none;stroke-width:1;stroke-linecap:round;stroke-linejoin:round;stroke-miterlimit:4;stroke-dasharray:none;stroke-dashoffset:0;stroke-opacity:1;marker:none;color-rendering:auto;image-rendering:auto;shape-rendering:auto;text-rendering:auto;enable-background:accumulate" d="M672.492 862.992a.5.5 0 0 0-.492.508v1.5h-1.5a.5.5 0 1 0 0 1h1.5v1.5a.5.5 0 1 0 1 0V866h1.5a.5.5 0 1 0 0-1H673v-1.5a.5.5 0 0 0-.508-.508zm8 .5A.5.5 0 0 0 680 864v1h-1a.5.5 0 1 0 0 1h1v1a.5.5 0 1 0 1 0v-1h1a.5.5 0 1 0 0-1h-1v-1a.5.5 0 0 0-.508-.508zm0 7.5a.5.5 0 0 0-.492.508v1.5h-1.5a.5.5 0 1 0 0 1h1.5v1.5a.5.5 0 1 0 1 0V874h1.5a.5.5 0 1 0 0-1H681v-1.5a.5.5 0 0 0-.508-.508z" transform="translate(-666.004 -859.996)"/>
        </g>
    </g>
</svg>
