<svg xmlns="http://www.w3.org/2000/svg" viewBox="0 0 20 20" xml:space="preserve">
    <g style="display:inline;fill:#fff;enable-background:new">
        <path d="M103 78h1v1h-1zm0-3h1v1h-1zm-8 3h1v1h-1zm0 3h1v1h-1zm0-6h1v1h-1z" style="display:inline;opacity:1;vector-effect:none;fill:#fff;fill-opacity:1;stroke:none;stroke-width:3;stroke-linecap:round;stroke-linejoin:round;stroke-miterlimit:4;stroke-dasharray:none;stroke-dashoffset:0;stroke-opacity:1;marker:none;paint-order:fill markers stroke;enable-background:new" transform="translate(-87.008 -70.5)"/>
        <path d="M98.516 74a.5.5 0 0 0-.5.5v6a.5.5 0 0 0 .5.5h2.984a.5.5 0 0 0 .5-.5v-6a.5.5 0 0 0-.5-.5zm.5 1H101v2h-1.984zm0 3H101v2h-1.984zm-8.5-4a.5.5 0 0 0-.5.5v12a.5.5 0 0 0 .5.5H93.5a.5.5 0 0 0 .5-.5v-12a.5.5 0 0 0-.5-.5zm.5 1H93v2h-1.984zm0 3H93v2h-1.984zm0 3H93v2h-1.984zm0 3H93v2h-1.984z" style="color:#000;font-style:normal;font-variant:normal;font-weight:400;font-stretch:normal;font-size:medium;line-height:normal;font-family:sans-serif;font-variant-ligatures:normal;font-variant-position:normal;font-variant-caps:normal;font-variant-numeric:normal;font-variant-alternates:normal;font-feature-settings:normal;text-indent:0;text-align:start;text-decoration:none;text-decoration-line:none;text-decoration-style:solid;text-decoration-color:#000;letter-spacing:normal;word-spacing:normal;text-transform:none;writing-mode:lr-tb;direction:ltr;text-orientation:mixed;dominant-baseline:auto;baseline-shift:baseline;text-anchor:start;white-space:normal;shape-padding:0;clip-rule:nonzero;display:inline;overflow:visible;visibility:visible;opacity:1;isolation:auto;mix-blend-mode:normal;color-interpolation:sRGB;color-interpolation-filters:linearRGB;solid-color:#000;solid-opacity:1;vector-effect:none;fill:#fff;fill-opacity:1;fill-rule:nonzero;stroke:none;stroke-width:1;stroke-linecap:round;stroke-linejoin:round;stroke-miterlimit:4;stroke-dasharray:none;stroke-dashoffset:0;stroke-opacity:1;marker:none;paint-order:fill markers stroke;color-rendering:auto;image-rendering:auto;shape-rendering:auto;text-rendering:auto;enable-background:new" transform="translate(-87.008 -70.5)"/>
    </g>
</svg>
