<svg xmlns="http://www.w3.org/2000/svg" viewBox="0 0 20 20" xml:space="preserve">
    <path style="color:#000;font-style:normal;font-variant:normal;font-weight:400;font-stretch:normal;font-size:medium;line-height:normal;font-family:sans-serif;font-variant-ligatures:normal;font-variant-position:normal;font-variant-caps:normal;font-variant-numeric:normal;font-variant-alternates:normal;font-feature-settings:normal;text-indent:0;text-align:start;text-decoration:none;text-decoration-line:none;text-decoration-style:solid;text-decoration-color:#000;letter-spacing:normal;word-spacing:normal;text-transform:none;writing-mode:lr-tb;direction:ltr;text-orientation:mixed;dominant-baseline:auto;baseline-shift:baseline;text-anchor:start;white-space:normal;shape-padding:0;clip-rule:nonzero;display:inline;overflow:visible;visibility:visible;isolation:auto;mix-blend-mode:normal;color-interpolation:sRGB;color-interpolation-filters:linearRGB;solid-color:#000;solid-opacity:1;vector-effect:none;fill:#fff;fill-opacity:1;fill-rule:nonzero;stroke:none;stroke-width:1;stroke-linecap:round;stroke-linejoin:round;stroke-miterlimit:4;stroke-dasharray:none;stroke-dashoffset:0;stroke-opacity:1;color-rendering:auto;image-rendering:auto;shape-rendering:auto;text-rendering:auto;enable-background:accumulate" d="M10.001 4a2.06 2.06 0 0 0-1.447.617c-.377.372-.65.857-.881 1.408-.463 1.102-.757 2.49-1.08 3.86-.323 1.369-.676 2.716-1.174 3.664C4.92 14.497 4.377 15 3.507 15a.5.5 0 1 0 0 1c1.294 0 2.212-.872 2.797-1.986.584-1.115.935-2.518 1.261-3.899.327-1.38.627-2.743 1.03-3.703.201-.48.43-.854.662-1.084C9.489 5.098 9.7 5 10 5s.512.098.744.328c.233.23.46.604.662 1.084.403.96.703 2.322 1.03 3.703.326 1.381.675 2.784 1.26 3.899C14.28 15.128 15.198 16 16.492 16a.5.5 0 1 0 0-1c-.87 0-1.412-.503-1.91-1.451-.498-.948-.85-2.295-1.174-3.664-.323-1.37-.617-2.758-1.08-3.86-.231-.55-.505-1.036-.88-1.408A2.06 2.06 0 0 0 10 4z"/>
</svg>
