<svg xmlns="http://www.w3.org/2000/svg" viewBox="0 0 20 20" xml:space="preserve">
    <path style="color:#000;font-style:normal;font-variant:normal;font-weight:400;font-stretch:normal;font-size:medium;line-height:normal;font-family:sans-serif;font-variant-ligatures:normal;font-variant-position:normal;font-variant-caps:normal;font-variant-numeric:normal;font-variant-alternates:normal;font-feature-settings:normal;text-indent:0;text-align:start;text-decoration:none;text-decoration-line:none;text-decoration-style:solid;text-decoration-color:#000;letter-spacing:normal;word-spacing:normal;text-transform:none;writing-mode:lr-tb;direction:ltr;text-orientation:mixed;dominant-baseline:auto;baseline-shift:baseline;text-anchor:start;white-space:normal;shape-padding:0;clip-rule:nonzero;display:inline;overflow:visible;visibility:visible;isolation:auto;mix-blend-mode:normal;color-interpolation:sRGB;color-interpolation-filters:linearRGB;solid-color:#000;solid-opacity:1;vector-effect:none;fill:#fff;fill-opacity:1;fill-rule:nonzero;stroke:none;stroke-width:1;stroke-linecap:round;stroke-linejoin:round;stroke-miterlimit:4;stroke-dasharray:none;stroke-dashoffset:0;stroke-opacity:1;color-rendering:auto;image-rendering:auto;shape-rendering:auto;text-rendering:auto;enable-background:new" d="M9.75 3a.5.5 0 0 0-.473.334L7.645 8H3.5a.5.5 0 0 0-.5.5v.75a.5.5 0 0 0 .23.42l3.166 2.037-1.367 3.877A.5.5 0 0 0 5 15.75v.75a.5.5 0 0 0 .5.5h.75a.5.5 0 0 0 .326-.121L9.936 14h.128l3.36 2.879a.5.5 0 0 0 .33.121l.746-.006a.5.5 0 0 0 .496-.496l.004-.746a.5.5 0 0 0-.03-.168l-1.366-3.877L16.77 9.67a.5.5 0 0 0 .23-.42V8.5a.5.5 0 0 0-.5-.5h-4.145l-1.632-4.666A.5.5 0 0 0 10.25 3h-.252z"/>
</svg>
