<svg xmlns="http://www.w3.org/2000/svg" viewBox="0 0 20 20" xml:space="preserve">
    <path style="color:#000;font-style:normal;font-variant:normal;font-weight:400;font-stretch:normal;font-size:medium;line-height:normal;font-family:sans-serif;font-variant-ligatures:normal;font-variant-position:normal;font-variant-caps:normal;font-variant-numeric:normal;font-variant-alternates:normal;font-feature-settings:normal;text-indent:0;text-align:start;text-decoration:none;text-decoration-line:none;text-decoration-style:solid;text-decoration-color:#000;letter-spacing:normal;word-spacing:normal;text-transform:none;writing-mode:lr-tb;direction:ltr;text-orientation:mixed;dominant-baseline:auto;baseline-shift:baseline;text-anchor:start;white-space:normal;shape-padding:0;clip-rule:nonzero;display:inline;overflow:visible;visibility:visible;isolation:auto;mix-blend-mode:normal;color-interpolation:sRGB;color-interpolation-filters:linearRGB;solid-color:#000;solid-opacity:1;vector-effect:none;fill:#fff;fill-opacity:1;fill-rule:nonzero;stroke:none;stroke-width:1;stroke-linecap:round;stroke-linejoin:round;stroke-miterlimit:4;stroke-dasharray:none;stroke-dashoffset:0;stroke-opacity:1;marker:none;paint-order:fill markers stroke;color-rendering:auto;image-rendering:auto;shape-rendering:auto;text-rendering:auto;enable-background:accumulate" d="M16.508 6.493A.5.5 0 0 1 17 7v6a.5.5 0 1 1-1 0v-2.925a.5.5 0 0 1-.5.418h-1a.5.5 0 1 1 0-1h1a.5.5 0 0 1 .5.421V7a.5.5 0 0 1 .508-.507zm-13 0A.5.5 0 0 1 4 7v6a.5.5 0 1 1-1 0V7a.5.5 0 0 1 .508-.507zm4.998.002a.5.5 0 0 1 .348.859L6.207 10l2.647 2.647a.5.5 0 1 1-.708.707l-3-3a.5.5 0 0 1 0-.707l3-3a.5.5 0 0 1 .36-.152zM12.5 9.5a.5.5 0 1 1 0 1h-1a.5.5 0 1 1 0-1zm-3 0a.5.5 0 1 1 0 1h-1a.5.5 0 1 1 0-1z"/>
</svg>
