<svg xmlns="http://www.w3.org/2000/svg" viewBox="0 0 20 20" xml:space="preserve">
    <path style="color:#000;font-style:normal;font-variant:normal;font-weight:400;font-stretch:normal;font-size:medium;line-height:normal;font-family:sans-serif;font-variant-ligatures:normal;font-variant-position:normal;font-variant-caps:normal;font-variant-numeric:normal;font-variant-alternates:normal;font-feature-settings:normal;text-indent:0;text-align:start;text-decoration:none;text-decoration-line:none;text-decoration-style:solid;text-decoration-color:#000;letter-spacing:normal;word-spacing:normal;text-transform:none;writing-mode:lr-tb;direction:ltr;text-orientation:mixed;dominant-baseline:auto;baseline-shift:baseline;text-anchor:start;white-space:normal;shape-padding:0;clip-rule:nonzero;display:inline;overflow:visible;visibility:visible;isolation:auto;mix-blend-mode:normal;color-interpolation:sRGB;color-interpolation-filters:linearRGB;solid-color:#000;solid-opacity:1;vector-effect:none;fill:#fff;fill-opacity:1;fill-rule:nonzero;stroke:none;stroke-width:1px;stroke-linecap:butt;stroke-linejoin:round;stroke-miterlimit:4;stroke-dasharray:none;stroke-dashoffset:0;stroke-opacity:1;marker:none;paint-order:fill markers stroke;color-rendering:auto;image-rendering:auto;shape-rendering:auto;text-rendering:auto;enable-background:accumulate" d="M5.25 3c-.65 0-1.236.197-1.645.605C3.197 4.014 3 4.6 3 5.25v9.5c0 .65.197 1.236.605 1.645.409.408.994.605 1.645.605H6v-1h-.75c-.457 0-.748-.123-.937-.313-.19-.19-.313-.48-.313-.937v-9.5c0-.457.123-.748.313-.938.19-.19.48-.312.937-.312H6V3zM14 3v1h.75c.457 0 .748.123.938.313.19.19.312.48.312.937v9.5c0 .457-.123.748-.313.938-.19.19-.48.312-.937.312H14v1h.75c.65 0 1.236-.197 1.645-.605.408-.409.605-.994.605-1.645v-9.5c0-.65-.197-1.236-.605-1.645C15.986 3.197 15.4 3 14.75 3zm-4 4v2H8.5a.5.5 0 0 0-.5.5V11H6v1h2v1.5a.5.5 0 0 0 .5.5H10v2h1v-2h1.5a.5.5 0 0 0 .5-.5V12h2v-1h-2V9.5a.5.5 0 0 0-.5-.5H11V7zm-1 3h3v3H9z"/>
</svg>
