<svg xmlns="http://www.w3.org/2000/svg" viewBox="0 0 20 20" xml:space="preserve">
    <g style="display:inline;fill:#fff;enable-background:new">
        <path d="M468.5 116a.5.5 0 0 0-.5.5v10a.5.5 0 0 0 .5.5h7a.5.5 0 1 0 0-1H469v-9h9v6.5a.5.5 0 1 0 1 0v-7a.5.5 0 0 0-.5-.5z" style="color:#000;font-style:normal;font-variant:normal;font-weight:400;font-stretch:normal;font-size:medium;line-height:normal;font-family:sans-serif;font-variant-ligatures:normal;font-variant-position:normal;font-variant-caps:normal;font-variant-numeric:normal;font-variant-alternates:normal;font-feature-settings:normal;text-indent:0;text-align:start;text-decoration:none;text-decoration-line:none;text-decoration-style:solid;text-decoration-color:#000;letter-spacing:normal;word-spacing:normal;text-transform:none;writing-mode:lr-tb;direction:ltr;text-orientation:mixed;dominant-baseline:auto;baseline-shift:baseline;text-anchor:start;white-space:normal;shape-padding:0;clip-rule:nonzero;display:inline;overflow:visible;visibility:visible;opacity:.6;isolation:auto;mix-blend-mode:normal;color-interpolation:sRGB;color-interpolation-filters:linearRGB;solid-color:#000;solid-opacity:1;vector-effect:none;fill:#fff;fill-opacity:1;fill-rule:nonzero;stroke:none;stroke-width:1;stroke-linecap:round;stroke-linejoin:round;stroke-miterlimit:4;stroke-dasharray:none;stroke-dashoffset:0;stroke-opacity:1;marker:none;paint-order:fill markers stroke;color-rendering:auto;image-rendering:auto;shape-rendering:auto;text-rendering:auto;enable-background:accumulate" transform="translate(-465.005 -113.01)"/>
        <path d="M475.996 122a1.996 1.996 0 0 1-1.996 1.996 1.996 1.996 0 0 1-1.996-1.996 1.996 1.996 0 0 1 1.996-1.996 1.996 1.996 0 0 1 1.996 1.996zm.508 2.016a.5.5 0 0 0-.348.857l4.147 4.147-2.803-.02c-.676-.01-.676 1.01 0 1l4.01.02a.5.5 0 0 0 .5-.5l-.01-4.02c.01-.676-1.01-.676-1 0l.01 2.813-4.146-4.147a.5.5 0 0 0-.36-.15z" style="display:inline;opacity:1;vector-effect:none;fill:#fff;fill-opacity:1;stroke:none;stroke-width:1;stroke-linecap:square;stroke-linejoin:round;stroke-miterlimit:4;stroke-dasharray:none;stroke-dashoffset:0;stroke-opacity:1;marker:none;paint-order:fill markers stroke;enable-background:new" transform="translate(-465.005 -113.01)"/>
    </g>
</svg>
