<svg xmlns="http://www.w3.org/2000/svg" viewBox="0 0 20 20" xml:space="preserve">
    <path d="M5.75 3.5a.5.5 0 0 0-.482.37l-3.25 12a.5.5 0 0 0 .482.63h15a.5.5 0 0 0 .482-.63l-3.25-12a.5.5 0 0 0-.482-.37zm.383 1h2.086l-.217 2H5.59zm3.094 0h1.546l.217 2H9.01zm2.554 0h2.086l.541 2h-2.41zm-6.46 3h2.572l-.327 3H4.508zm3.58 0H11.1l.326 3H8.574zm3.206 0h2.573l.812 3h-3.058zm-7.87 4h3.22l-.434 4h-3.87zm4.23 0h3.066l.436 4H8.03zm4.076 0h3.22l1.085 4h-3.871z" style="color:#000;font-style:normal;font-variant:normal;font-weight:400;font-stretch:normal;font-size:medium;line-height:normal;font-family:sans-serif;font-variant-ligatures:normal;font-variant-position:normal;font-variant-caps:normal;font-variant-numeric:normal;font-variant-alternates:normal;font-feature-settings:normal;text-indent:0;text-align:start;text-decoration:none;text-decoration-line:none;text-decoration-style:solid;text-decoration-color:#000;letter-spacing:normal;word-spacing:normal;text-transform:none;writing-mode:lr-tb;direction:ltr;text-orientation:mixed;dominant-baseline:auto;baseline-shift:baseline;text-anchor:start;white-space:normal;shape-padding:0;clip-rule:nonzero;display:inline;overflow:visible;visibility:visible;isolation:auto;mix-blend-mode:normal;color-interpolation:sRGB;color-interpolation-filters:linearRGB;solid-color:#000;solid-opacity:1;vector-effect:none;fill:#fff;fill-opacity:1;fill-rule:nonzero;stroke:none;stroke-width:1;stroke-linecap:round;stroke-linejoin:round;stroke-miterlimit:4;stroke-dasharray:none;stroke-dashoffset:.5;stroke-opacity:1;marker:none;paint-order:fill markers stroke;color-rendering:auto;image-rendering:auto;shape-rendering:auto;text-rendering:auto;enable-background:accumulate"/>
</svg>
