<svg xmlns="http://www.w3.org/2000/svg" viewBox="0 0 20 20" xml:space="preserve">
    <g style="display:inline;fill:#fff;enable-background:new">
        <g style="fill:#fff">
            <path d="M155.502 121.994a.5.5 0 0 0-.361.854c1.232 1.274 2.634 3.152 5.359 3.152s4.127-1.878 5.36-3.152a.5.5 0 1 0-.72-.696c-1.305 1.35-2.365 2.848-4.64 2.848-2.275 0-3.335-1.497-4.64-2.848a.5.5 0 0 0-.358-.158z" style="color:#000;font-style:normal;font-variant:normal;font-weight:400;font-stretch:normal;font-size:medium;line-height:normal;font-family:sans-serif;font-variant-ligatures:normal;font-variant-position:normal;font-variant-caps:normal;font-variant-numeric:normal;font-variant-alternates:normal;font-feature-settings:normal;text-indent:0;text-align:start;text-decoration:none;text-decoration-line:none;text-decoration-style:solid;text-decoration-color:#000;letter-spacing:normal;word-spacing:normal;text-transform:none;writing-mode:lr-tb;direction:ltr;text-orientation:mixed;dominant-baseline:auto;baseline-shift:baseline;text-anchor:start;white-space:normal;shape-padding:0;clip-rule:nonzero;display:inline;overflow:visible;visibility:visible;opacity:.6;isolation:auto;mix-blend-mode:normal;color-interpolation:sRGB;color-interpolation-filters:linearRGB;solid-color:#000;solid-opacity:1;vector-effect:none;fill:#fff;fill-opacity:1;fill-rule:nonzero;stroke:none;stroke-width:1px;stroke-linecap:round;stroke-linejoin:round;stroke-miterlimit:4;stroke-dasharray:none;stroke-dashoffset:0;stroke-opacity:1;color-rendering:auto;image-rendering:auto;shape-rendering:auto;text-rendering:auto;enable-background:new" transform="translate(-149.002 -117.497)"/>
        </g>
        <path d="M132.502 143a.5.5 0 0 0-.461.697l3 7a.5.5 0 0 0 .934-.039l.92-2.763 2.763-.92a.5.5 0 0 0 .04-.934l-7-3a.501.501 0 0 0-.196-.041z" style="color:#000;font-style:normal;font-variant:normal;font-weight:400;font-stretch:normal;font-size:medium;line-height:normal;font-family:sans-serif;font-variant-ligatures:normal;font-variant-position:normal;font-variant-caps:normal;font-variant-numeric:normal;font-variant-alternates:normal;font-feature-settings:normal;text-indent:0;text-align:start;text-decoration:none;text-decoration-line:none;text-decoration-style:solid;text-decoration-color:#000;letter-spacing:normal;word-spacing:normal;text-transform:none;writing-mode:lr-tb;direction:ltr;text-orientation:mixed;dominant-baseline:auto;baseline-shift:baseline;text-anchor:start;white-space:normal;shape-padding:0;clip-rule:nonzero;display:inline;overflow:visible;visibility:visible;opacity:1;isolation:auto;mix-blend-mode:normal;color-interpolation:sRGB;color-interpolation-filters:linearRGB;solid-color:#000;solid-opacity:1;vector-effect:none;fill:#fff;fill-opacity:1;fill-rule:nonzero;stroke:none;stroke-width:1px;stroke-linecap:butt;stroke-linejoin:round;stroke-miterlimit:4;stroke-dasharray:none;stroke-dashoffset:0;stroke-opacity:1;color-rendering:auto;image-rendering:auto;shape-rendering:auto;text-rendering:auto;enable-background:new" transform="translate(-129.002 -135.497)"/>
    </g>
</svg>
