<svg xmlns="http://www.w3.org/2000/svg" viewBox="0 0 20 20" xml:space="preserve">
    <g style="display:inline;fill:#fff;enable-background:new">
        <path style="color:#000;font-style:normal;font-variant:normal;font-weight:400;font-stretch:normal;font-size:medium;line-height:normal;font-family:sans-serif;font-variant-ligatures:normal;font-variant-position:normal;font-variant-caps:normal;font-variant-numeric:normal;font-variant-alternates:normal;font-feature-settings:normal;text-indent:0;text-align:start;text-decoration:none;text-decoration-line:none;text-decoration-style:solid;text-decoration-color:#000;letter-spacing:normal;word-spacing:normal;text-transform:none;writing-mode:lr-tb;direction:ltr;text-orientation:mixed;dominant-baseline:auto;baseline-shift:baseline;text-anchor:start;white-space:normal;shape-padding:0;clip-rule:nonzero;display:inline;overflow:visible;visibility:visible;opacity:1;isolation:auto;mix-blend-mode:normal;color-interpolation:sRGB;color-interpolation-filters:linearRGB;solid-color:#000;solid-opacity:1;vector-effect:none;fill:#fff;fill-opacity:1;fill-rule:nonzero;stroke:none;stroke-width:1;stroke-linecap:round;stroke-linejoin:round;stroke-miterlimit:7.17647;stroke-dasharray:none;stroke-dashoffset:0;stroke-opacity:1;color-rendering:auto;image-rendering:auto;shape-rendering:auto;text-rendering:auto;enable-background:new" d="M202.5 578c-3.573 0-6.5 2.927-6.5 6.5a6.46 6.46 0 0 0 1.574 4.219l-2.428 2.427a.5.5 0 1 0 .708.708l2.425-2.426A6.466 6.466 0 0 0 202.5 591c3.573 0 6.5-2.927 6.5-6.5s-2.927-6.5-6.5-6.5zm0 1c3.027 0 5.5 2.473 5.5 5.5s-2.473 5.5-5.5 5.5a5.513 5.513 0 0 1-5.5-5.5c0-3.027 2.473-5.5 5.5-5.5zm-.008 1.992a.5.5 0 0 0-.492.508v2.5h-2.5a.5.5 0 1 0 0 1h2.5v2.5a.5.5 0 1 0 1 0V585h2.5a.5.5 0 1 0 0-1H203v-2.5a.5.5 0 0 0-.508-.508z" transform="translate(-191.95 -575.05)"/>
    </g>
</svg>
