<?xml version="1.0" encoding="UTF-8" standalone="no"?>
<svg
   xmlns:dc="http://purl.org/dc/elements/1.1/"
   xmlns:cc="http://creativecommons.org/ns#"
   xmlns:rdf="http://www.w3.org/1999/02/22-rdf-syntax-ns#"
   xmlns:svg="http://www.w3.org/2000/svg"
   xmlns="http://www.w3.org/2000/svg"
   xmlns:sodipodi="http://sodipodi.sourceforge.net/DTD/sodipodi-0.dtd"
   xmlns:inkscape="http://www.inkscape.org/namespaces/inkscape"
   id="Layer_1"
   x="0"
   y="0"
   enable-background="new 0 0 20 20"
   version="1.1"
   viewBox="0 0 20 20"
   xml:space="preserve"
   sodipodi:docname="bl_icons_548.svg"
   inkscape:version="1.0.2 (e86c870879, 2021-01-15, custom)"><metadata
     id="metadata7"><rdf:RDF><cc:Work
         rdf:about=""><dc:format>image/svg+xml</dc:format><dc:type
           rdf:resource="http://purl.org/dc/dcmitype/StillImage" /><dc:title></dc:title></cc:Work></rdf:RDF></metadata><defs
     id="defs5" /><sodipodi:namedview
     pagecolor="#808080"
     bordercolor="#666666"
     borderopacity="1"
     objecttolerance="10"
     gridtolerance="10"
     guidetolerance="10"
     inkscape:pageopacity="0"
     inkscape:pageshadow="2"
     inkscape:window-width="1750"
     inkscape:window-height="991"
     id="namedview3"
     showgrid="false"
     inkscape:pagecheckerboard="true"
     inkscape:zoom="25.577418"
     inkscape:cx="6.5585485"
     inkscape:cy="7.3015881"
     inkscape:window-x="87"
     inkscape:window-y="37"
     inkscape:window-maximized="0"
     inkscape:current-layer="Layer_1"
     inkscape:document-rotation="0" /><path
     style="color:#000000;font-style:normal;font-variant:normal;font-weight:normal;font-stretch:normal;font-size:medium;line-height:normal;font-family:sans-serif;font-variant-ligatures:normal;font-variant-position:normal;font-variant-caps:normal;font-variant-numeric:normal;font-variant-alternates:normal;font-feature-settings:normal;text-indent:0;text-align:start;text-decoration:none;text-decoration-line:none;text-decoration-style:solid;text-decoration-color:#000000;letter-spacing:normal;word-spacing:normal;text-transform:none;writing-mode:lr-tb;direction:ltr;text-orientation:mixed;dominant-baseline:auto;baseline-shift:baseline;text-anchor:start;white-space:normal;shape-padding:0;clip-rule:nonzero;display:inline;overflow:visible;visibility:visible;isolation:auto;mix-blend-mode:normal;color-interpolation:sRGB;color-interpolation-filters:linearRGB;solid-color:#000000;solid-opacity:1;vector-effect:none;fill:#ffffff;fill-opacity:1;fill-rule:nonzero;stroke:none;stroke-width:1;stroke-linecap:round;stroke-linejoin:round;stroke-miterlimit:4;stroke-dasharray:none;stroke-dashoffset:0;stroke-opacity:1;marker:none;paint-order:fill markers stroke;color-rendering:auto;image-rendering:auto;shape-rendering:auto;text-rendering:auto;enable-background:accumulate"
     d="M 16.50781,6.4925293 A 0.50005,0.50005 0 0 1 17,7.0003393 v 5.9999997 a 0.50005,0.50005 0 1 1 -1,0 v -2.92578 a 0.50005,0.50005 0 0 1 -0.5,0.41797 h -1 a 0.50005,0.50005 0 1 1 0,-0.9999997 h 1 a 0.50005,0.50005 0 0 1 0.5,0.42187 v -2.91406 a 0.50005,0.50005 0 0 1 0.50781,-0.50781 z m -13,0 A 0.50005,0.50005 0 0 1 4,7.0003393 v 5.9999997 a 0.50005,0.50005 0 1 1 -1,0 V 7.0003393 a 0.50005,0.50005 0 0 1 0.50781,-0.50781 z m 4.99805,0.002 a 0.50005,0.50005 0 0 1 0.34766,0.85937 l -2.64649,2.6464897 2.64649,2.64648 a 0.50005,0.50005 0 1 1 -0.70704,0.70703 l -3,-3 a 0.50005,0.50005 0 0 1 0,-0.7070297 l 3,-3 a 0.50005,0.50005 0 0 1 0.35938,-0.15234 z M 12.5,9.5003393 a 0.50005,0.50005 0 1 1 0,0.9999997 h -1 a 0.50005,0.50005 0 1 1 0,-0.9999997 z m -3,0 a 0.50005,0.50005 0 1 1 0,0.9999997 h -1 a 0.50005,0.50005 0 1 1 0,-0.9999997 z"
     id="path14267"
     inkscape:connector-curvature="0" /></svg>
