<?xml version="1.0" encoding="UTF-8" standalone="no"?>
<svg
   xmlns:dc="http://purl.org/dc/elements/1.1/"
   xmlns:cc="http://creativecommons.org/ns#"
   xmlns:rdf="http://www.w3.org/1999/02/22-rdf-syntax-ns#"
   xmlns:svg="http://www.w3.org/2000/svg"
   xmlns="http://www.w3.org/2000/svg"
   xmlns:sodipodi="http://sodipodi.sourceforge.net/DTD/sodipodi-0.dtd"
   xmlns:inkscape="http://www.inkscape.org/namespaces/inkscape"
   id="Layer_1"
   x="0"
   y="0"
   enable-background="new 0 0 20 20"
   version="1.1"
   viewBox="0 0 20 20"
   xml:space="preserve"
   sodipodi:docname="bl_icons_611.svg"
   inkscape:version="1.0.2 (e86c870879, 2021-01-15, custom)"><metadata
     id="metadata7"><rdf:RDF><cc:Work
         rdf:about=""><dc:format>image/svg+xml</dc:format><dc:type
           rdf:resource="http://purl.org/dc/dcmitype/StillImage" /><dc:title></dc:title></cc:Work></rdf:RDF></metadata><defs
     id="defs5" /><sodipodi:namedview
     pagecolor="#808080"
     bordercolor="#666666"
     borderopacity="1"
     objecttolerance="10"
     gridtolerance="10"
     guidetolerance="10"
     inkscape:pageopacity="0"
     inkscape:pageshadow="2"
     inkscape:window-width="1750"
     inkscape:window-height="991"
     id="namedview3"
     showgrid="false"
     inkscape:pagecheckerboard="true"
     inkscape:zoom="25.577418"
     inkscape:cx="-0.44644607"
     inkscape:cy="8.0087009"
     inkscape:window-x="87"
     inkscape:window-y="37"
     inkscape:window-maximized="0"
     inkscape:current-layer="Layer_1"
     inkscape:document-rotation="0" /><g
     id="g17481"
     style="display:inline;fill:#ffffff;enable-background:new"
     transform="translate(-755.50087,10.501064)"
     inkscape:export-filename="C:\Users\Andrzej Ambroż\Desktop\mtrx.png"
     inkscape:export-xdpi="96"
     inkscape:export-ydpi="96"><g
       style="opacity:0.7;fill:#ffffff;stroke-width:1.15355"
       transform="matrix(0.86707513,0,0,0.86670066,799.68613,161.07329)"
       id="g17477"><path
         style="color:#000000;font-style:normal;font-variant:normal;font-weight:normal;font-stretch:normal;font-size:medium;line-height:normal;font-family:sans-serif;font-variant-ligatures:normal;font-variant-position:normal;font-variant-caps:normal;font-variant-numeric:normal;font-variant-alternates:normal;font-feature-settings:normal;text-indent:0;text-align:start;text-decoration:none;text-decoration-line:none;text-decoration-style:solid;text-decoration-color:#000000;letter-spacing:normal;word-spacing:normal;text-transform:none;writing-mode:lr-tb;direction:ltr;text-orientation:mixed;dominant-baseline:auto;baseline-shift:baseline;text-anchor:start;white-space:normal;shape-padding:0;clip-rule:nonzero;display:inline;overflow:visible;visibility:visible;opacity:1;isolation:auto;mix-blend-mode:normal;color-interpolation:sRGB;color-interpolation-filters:linearRGB;solid-color:#000000;solid-opacity:1;vector-effect:none;fill:#ffffff;fill-opacity:1;fill-rule:evenodd;stroke:none;stroke-width:1;stroke-linecap:round;stroke-linejoin:round;stroke-miterlimit:4;stroke-dasharray:none;stroke-dashoffset:0;stroke-opacity:1;marker:none;color-rendering:auto;image-rendering:auto;shape-rendering:auto;text-rendering:auto;enable-background:accumulate"
         d="m 432.96875,577.99609 a 0.50015801,0.499942 0 0 0 -0.0488,0.006 0.50015801,0.499942 0 0 0 -0.0879,0.0215 c -0.22504,0.005 -0.45054,4.4e-4 -0.67383,0.0273 -1.50924,0.18184 -2.95823,0.85326 -4.0957,1.98242 -2.27494,2.25834 -2.72493,5.78034 -1.08984,8.53711 1.26078,2.1257 3.51721,3.36761 5.89257,3.41407 6.5e-4,10e-6 10e-4,-2e-5 0.002,0 a 0.50015801,0.499942 0 0 0 0.32031,-0.01 c 0.60037,-0.016 1.20402,-0.0867 1.80078,-0.26367 a 0.50073965,0.5005234 0 1 0 -0.28516,-0.95899 c -0.52501,0.15567 -1.05482,0.21548 -1.58203,0.22657 -0.32205,-0.21838 -0.86207,-0.82158 -1.28906,-1.77344 -0.15847,-0.35327 -0.29568,-0.76712 -0.41992,-1.20508 H 433.5 a 0.50043241,0.50021629 0 1 0 0,-1 h -2.31641 C 431.07457,586.38509 431,585.72514 431,585 c 0,-0.72848 0.074,-1.38791 0.18359,-2 h 3.5625 c 0.15752,0.77172 0.25391,1.61389 0.25391,2.5 a 0.50015801,0.499942 0 1 0 1,0 c 0,-0.883 -0.0936,-1.71998 -0.24023,-2.5 h 2.88671 c 0.41677,1.17713 0.47801,2.4832 0.0937,3.74609 a 0.50015801,0.499942 0 1 0 0.95704,0.28907 c 0.93293,-3.06617 -0.34127,-6.37791 -3.08789,-8.03125 -1.07945,-0.64978 -2.27964,-0.96925 -3.47657,-0.99219 a 0.50015801,0.499942 0 0 0 -0.14648,-0.0156 0.50015801,0.499942 0 0 0 -0.0176,0 z m 0.0273,1.13086 c 0.3107,0.30928 0.79344,0.97648 1.16602,1.90039 0.12076,0.29947 0.23379,0.62673 0.33594,0.97266 h -3.08399 c 0.12298,-0.42695 0.25956,-0.8299 0.41602,-1.17578 0.37038,-0.81882 0.82294,-1.39159 1.16601,-1.69727 z m 1.33789,0.0312 c 0.60769,0.13919 1.20278,0.36589 1.75977,0.70118 0.89497,0.53872 1.60631,1.28287 2.10156,2.14062 h -2.66797 c -0.12978,-0.47868 -0.2726,-0.9368 -0.4375,-1.3457 -0.23548,-0.58396 -0.48644,-1.07928 -0.75586,-1.4961 z m -2.70507,0.0156 c -0.24979,0.35295 -0.49203,0.75628 -0.71094,1.24023 -0.21038,0.4651 -0.38853,1.0058 -0.53906,1.58594 h -2.5586 c 0.26045,-0.4489 0.56294,-0.87823 0.94531,-1.25781 0.81076,-0.80484 1.80942,-1.32143 2.86329,-1.56836 z m -4.26758,3.80664 A 0.50043241,0.50021629 0 0 0 427.50195,583 h 2.66993 C 430.0701,583.62227 430,584.28017 430,585 c 0,0.71751 0.0707,1.37536 0.17188,2 h -2.66993 a 0.50043241,0.50021629 0 0 0 -0.14648,0.0234 c -0.47566,-1.32219 -0.45827,-2.74775 0.006,-4.04297 z M 427.80469,588 h 2.57226 c 0.15111,0.59053 0.32906,1.14077 0.54102,1.61328 0.21198,0.47256 0.44409,0.86643 0.68555,1.21289 -1.53987,-0.36784 -2.91769,-1.3294 -3.76954,-2.76562 -0.0116,-0.0196 -0.0179,-0.0409 -0.0293,-0.0606 z"
         transform="matrix(1.1533026,0,0,1.1538009,-539.37632,-861.97281)"
         id="path17465"
         inkscape:connector-curvature="0" /><path
         cx="-40.000011"
         cy="-186.99979"
         r="7.5"
         id="path17471"
         style="opacity:1;vector-effect:none;fill:#ffffff;fill-opacity:1;stroke:#ffffff;stroke-width:1.15355;stroke-linecap:round;stroke-linejoin:round;stroke-miterlimit:4;stroke-dasharray:none;stroke-dashoffset:0;stroke-opacity:1;marker:none;paint-order:fill markers stroke"
         d=""
         inkscape:connector-curvature="0" /></g><path
       style="color:#000000;font-style:normal;font-variant:normal;font-weight:normal;font-stretch:normal;font-size:medium;line-height:normal;font-family:sans-serif;font-variant-ligatures:normal;font-variant-position:normal;font-variant-caps:normal;font-variant-numeric:normal;font-variant-alternates:normal;font-feature-settings:normal;text-indent:0;text-align:start;text-decoration:none;text-decoration-line:none;text-decoration-style:solid;text-decoration-color:#000000;letter-spacing:normal;word-spacing:normal;text-transform:none;writing-mode:lr-tb;direction:ltr;text-orientation:mixed;dominant-baseline:auto;baseline-shift:baseline;text-anchor:start;white-space:normal;shape-padding:0;clip-rule:nonzero;display:inline;overflow:visible;visibility:visible;opacity:1;isolation:auto;mix-blend-mode:normal;color-interpolation:sRGB;color-interpolation-filters:linearRGB;solid-color:#000000;solid-opacity:1;vector-effect:none;fill:#ffffff;fill-opacity:1;fill-rule:nonzero;stroke:none;stroke-width:1px;stroke-linecap:butt;stroke-linejoin:round;stroke-miterlimit:4;stroke-dasharray:none;stroke-dashoffset:0;stroke-opacity:1;color-rendering:auto;image-rendering:auto;shape-rendering:auto;text-rendering:auto;enable-background:new"
       d="m 767.49023,1 c -0.3497,0.00648 -0.58488,0.3607678 -0.45507,0.6855469 l 2,5 c 0.1836,0.4628079 0.85703,0.4022128 0.95507,-0.085937 l 0.43946,-2.1738282 2.16797,-0.4355468 c 0.48875,-0.096787 0.55077,-0.7707095 0.0879,-0.9550782 l -5,-2 C 767.62345,1.0105047 767.55703,0.99855041 767.49023,1 Z"
       id="path17479"
       inkscape:connector-curvature="0"
       sodipodi:nodetypes="ccccccccc" /></g></svg>
