<?xml version="1.0" encoding="UTF-8" standalone="no"?>
<svg
   xmlns:dc="http://purl.org/dc/elements/1.1/"
   xmlns:cc="http://creativecommons.org/ns#"
   xmlns:rdf="http://www.w3.org/1999/02/22-rdf-syntax-ns#"
   xmlns:svg="http://www.w3.org/2000/svg"
   xmlns="http://www.w3.org/2000/svg"
   xmlns:sodipodi="http://sodipodi.sourceforge.net/DTD/sodipodi-0.dtd"
   xmlns:inkscape="http://www.inkscape.org/namespaces/inkscape"
   id="Layer_1"
   x="0"
   y="0"
   enable-background="new 0 0 20 20"
   version="1.1"
   viewBox="0 0 20 20"
   xml:space="preserve"
   sodipodi:docname="bl_icons_586.svg"
   inkscape:version="1.0.2 (e86c870879, 2021-01-15, custom)"><metadata
     id="metadata7"><rdf:RDF><cc:Work
         rdf:about=""><dc:format>image/svg+xml</dc:format><dc:type
           rdf:resource="http://purl.org/dc/dcmitype/StillImage" /><dc:title></dc:title></cc:Work></rdf:RDF></metadata><defs
     id="defs5" /><sodipodi:namedview
     pagecolor="#808080"
     bordercolor="#666666"
     borderopacity="1"
     objecttolerance="10"
     gridtolerance="10"
     guidetolerance="10"
     inkscape:pageopacity="0"
     inkscape:pageshadow="2"
     inkscape:window-width="1750"
     inkscape:window-height="991"
     id="namedview3"
     showgrid="false"
     inkscape:pagecheckerboard="true"
     inkscape:zoom="25.577418"
     inkscape:cx="-0.44644607"
     inkscape:cy="8.0087009"
     inkscape:window-x="87"
     inkscape:window-y="37"
     inkscape:window-maximized="0"
     inkscape:current-layer="Layer_1"
     inkscape:document-rotation="0" /><g
     style="display:inline;fill:#ffffff;enable-background:new"
     id="g13069"
     transform="translate(-275.9998,-511.99684)"><path
       sodipodi:nodetypes="ccccccccccccccc"
       inkscape:connector-curvature="0"
       id="ellipse12909"
       d="m 290,517 h 2.5 c 0.27613,-3e-5 0.49997,-0.22387 0.5,-0.5 v -1 c -3e-5,-0.27613 -0.22387,-0.49997 -0.5,-0.5 h -2.91992 c -0.029,-0.005 -0.0584,-0.008 -0.0879,-0.008 -0.27614,0.004 -0.49651,0.23167 -0.49219,0.50781 v 1 5.64062 c -0.56586,-0.20756 -1.28645,-0.18129 -1.98242,0.0723 -1.35506,0.4963 -2.23747,1.69879 -1.9707,2.68555 0.26595,0.98712 1.58042,1.38505 2.93554,0.88867 1.22872,-0.45129 2.01759,-1.35494 2.01758,-2.53711 z"
       style="display:inline;overflow:visible;visibility:visible;opacity:0.99;fill:#ffffff;fill-opacity:1;fill-rule:nonzero;stroke:none;stroke-width:0.755428px;marker:none;enable-background:accumulate" /><path
       style="color:#000000;font-style:normal;font-variant:normal;font-weight:normal;font-stretch:normal;font-size:medium;line-height:normal;font-family:sans-serif;font-variant-ligatures:normal;font-variant-position:normal;font-variant-caps:normal;font-variant-numeric:normal;font-variant-alternates:normal;font-feature-settings:normal;text-indent:0;text-align:start;text-decoration:none;text-decoration-line:none;text-decoration-style:solid;text-decoration-color:#000000;letter-spacing:normal;word-spacing:normal;text-transform:none;writing-mode:lr-tb;direction:ltr;text-orientation:mixed;dominant-baseline:auto;baseline-shift:baseline;text-anchor:start;white-space:normal;shape-padding:0;clip-rule:nonzero;display:inline;overflow:visible;visibility:visible;opacity:0.7;isolation:auto;mix-blend-mode:normal;color-interpolation:sRGB;color-interpolation-filters:linearRGB;solid-color:#000000;solid-opacity:1;vector-effect:none;fill:#ffffff;fill-opacity:1;fill-rule:nonzero;stroke:none;stroke-width:1;stroke-linecap:round;stroke-linejoin:round;stroke-miterlimit:4;stroke-dasharray:none;stroke-dashoffset:0;stroke-opacity:1;marker:none;paint-order:fill markers stroke;color-rendering:auto;image-rendering:auto;shape-rendering:auto;text-rendering:auto;enable-background:accumulate"
       d="m 283.51562,517 a 0.50005,0.50005 0 0 0 -0.22656,0.0566 c -1.99745,1.00305 -3.4683,2.88412 -4.03515,5.13477 -0.56686,2.25064 -0.17629,4.64784 1.07421,6.56836 a 0.50005,0.50005 0 1 0 0.8379,-0.54493 c -1.09418,-1.68042 -1.44042,-3.798 -0.94141,-5.77929 0.49902,-1.9813 1.78869,-3.62011 3.51367,-4.48633 A 0.50005,0.50005 0 0 0 283.51562,517 Z m 0.98243,3 a 0.50005,0.50005 0 0 0 -0.26758,0.082 c -1.21391,0.77866 -2.01457,2.12204 -2.19336,3.63086 -0.17879,1.50883 0.2812,3.02564 1.26367,4.11719 a 0.50005,0.50005 0 1 0 0.74219,-0.66992 c -0.77619,-0.86237 -1.15757,-2.0993 -1.01172,-3.33008 0.14584,-1.23079 0.79828,-2.30329 1.73828,-2.90625 A 0.50005,0.50005 0 0 0 284.49805,520 Z"
       id="path12979"
       inkscape:connector-curvature="0" /></g></svg>
