<svg xmlns="http://www.w3.org/2000/svg" viewBox="0 0 20 20" xml:space="preserve">
    <g style="display:inline;fill:#5fd38d;stroke:#fff;stroke-width:1.33333;stroke-miterlimit:4;stroke-dasharray:none;enable-background:new">
        <g style="fill:#5fd38d;stroke:#fff;stroke-width:1.33333;stroke-miterlimit:4;stroke-dasharray:none">
            <path transform="matrix(1 0 0 1 -254.992 -281.006)" d="M262.588 287.027a.6.6 0 0 0-.473.96l2.149 3.029-2.149 3.029a.6.6 0 1 0 .979.695l1.906-2.687 1.906 2.687a.6.6 0 1 0 .979-.695l-2.149-3.03 2.149-3.029a.6.6 0 0 0-.041-.757.6.6 0 0 0-.938.062L265 289.979l-1.906-2.688a.6.6 0 0 0-.065-.078.6.6 0 0 0-.441-.186z" style="color:#000;font-style:normal;font-variant:normal;font-weight:400;font-stretch:normal;font-size:medium;line-height:normal;font-family:sans-serif;font-variant-ligatures:normal;font-variant-position:normal;font-variant-caps:normal;font-variant-numeric:normal;font-variant-alternates:normal;font-feature-settings:normal;text-indent:0;text-align:start;text-decoration:none;text-decoration-line:none;text-decoration-style:solid;text-decoration-color:#000;letter-spacing:normal;word-spacing:normal;text-transform:none;writing-mode:lr-tb;direction:ltr;text-orientation:mixed;dominant-baseline:auto;baseline-shift:baseline;text-anchor:start;white-space:normal;shape-padding:0;clip-rule:nonzero;display:inline;overflow:visible;visibility:visible;opacity:1;isolation:auto;mix-blend-mode:normal;color-interpolation:sRGB;color-interpolation-filters:linearRGB;solid-color:#000;solid-opacity:1;vector-effect:none;fill:#fff;fill-opacity:1;fill-rule:nonzero;stroke:none;stroke-width:1.2;stroke-linecap:round;stroke-linejoin:miter;stroke-miterlimit:4;stroke-dasharray:none;stroke-dashoffset:0;stroke-opacity:1;color-rendering:auto;image-rendering:auto;shape-rendering:auto;text-rendering:auto;enable-background:accumulate"/>
            <path d="M310.325 237.241a.667.667 0 0 0-.59-.197c-6.229.925-11.88 6.576-12.805 12.805a.667.667 0 1 0 1.319.197c.823-5.546 6.135-10.858 11.682-11.682a.667.667 0 0 0 .394-1.123zm8.449 8.45a.667.667 0 0 1 .197.59c-.925 6.228-6.576 11.88-12.805 12.805a.667.667 0 1 1-.196-1.318c5.547-.824 10.859-6.136 11.683-11.682a.667.667 0 0 1 1.121-.395z" style="color:#000;font-style:normal;font-variant:normal;font-weight:400;font-stretch:normal;font-size:medium;line-height:normal;font-family:sans-serif;font-variant-ligatures:normal;font-variant-position:normal;font-variant-caps:normal;font-variant-numeric:normal;font-variant-alternates:normal;font-feature-settings:normal;text-indent:0;text-align:start;text-decoration:none;text-decoration-line:none;text-decoration-style:solid;text-decoration-color:#000;letter-spacing:normal;word-spacing:normal;text-transform:none;writing-mode:lr-tb;direction:ltr;text-orientation:mixed;dominant-baseline:auto;baseline-shift:baseline;text-anchor:start;white-space:normal;shape-padding:0;clip-rule:nonzero;display:inline;overflow:visible;visibility:visible;opacity:1;isolation:auto;mix-blend-mode:normal;color-interpolation:sRGB;color-interpolation-filters:linearRGB;solid-color:#000;solid-opacity:1;vector-effect:none;fill:#fff;fill-opacity:1;fill-rule:nonzero;stroke:none;stroke-width:1.33333px;stroke-linecap:round;stroke-linejoin:miter;stroke-miterlimit:4;stroke-dasharray:none;stroke-dashoffset:0;stroke-opacity:1;marker:none;paint-order:fill markers stroke;color-rendering:auto;image-rendering:auto;shape-rendering:auto;text-rendering:auto;enable-background:accumulate" transform="scale(-.75 .75) rotate(-45 -136.048 518.519)"/>
        </g>
    </g>
</svg>
