<svg xmlns="http://www.w3.org/2000/svg" viewBox="0 0 20 20" xml:space="preserve">
    <g style="display:inline;fill:#fff;enable-background:new">
        <path style="color:#000;font-style:normal;font-variant:normal;font-weight:400;font-stretch:normal;font-size:medium;line-height:normal;font-family:sans-serif;font-variant-ligatures:normal;font-variant-position:normal;font-variant-caps:normal;font-variant-numeric:normal;font-variant-alternates:normal;font-feature-settings:normal;text-indent:0;text-align:start;text-decoration:none;text-decoration-line:none;text-decoration-style:solid;text-decoration-color:#000;letter-spacing:normal;word-spacing:normal;text-transform:none;writing-mode:lr-tb;direction:ltr;text-orientation:mixed;dominant-baseline:auto;baseline-shift:baseline;text-anchor:start;white-space:normal;shape-padding:0;clip-rule:nonzero;display:inline;overflow:visible;visibility:visible;opacity:1;isolation:auto;mix-blend-mode:normal;color-interpolation:sRGB;color-interpolation-filters:linearRGB;solid-color:#000;solid-opacity:1;vector-effect:none;fill:#fff;fill-opacity:1;fill-rule:nonzero;stroke:none;stroke-width:1;stroke-linecap:round;stroke-linejoin:round;stroke-miterlimit:4;stroke-dasharray:none;stroke-dashoffset:.5;stroke-opacity:1;marker:none;paint-order:fill markers stroke;color-rendering:auto;image-rendering:auto;shape-rendering:auto;text-rendering:auto;enable-background:accumulate" d="M142.162 494.002a3.996 3.996 0 0 0-1.185.13 3.993 3.993 0 0 0-2.444 1.895 6 6 0 0 0-5.976 3.448 6.003 6.003 0 0 0 8.13 7.89 5.995 5.995 0 0 0 3.276-5.892 3.984 3.984 0 0 0 1.469-1.418 4 4 0 0 0-3.27-6.053zm-.04 1a2.998 2.998 0 1 1-.58 5.963.5.5 0 1 0-.153.988 3.979 3.979 0 0 0 1.595-.086 4.985 4.985 0 0 1-2.746 4.604 4.996 4.996 0 0 1-5.72-.883 4.995 4.995 0 0 1-1.053-5.691 4.986 4.986 0 0 1 4.666-2.881c-.04.156-.077.313-.098.476a.5.5 0 0 0 .992.127 2.997 2.997 0 0 1 3.096-2.617z" transform="translate(-129 -490.999)"/>
    </g>
</svg>
