<svg xmlns="http://www.w3.org/2000/svg" viewBox="0 0 20 20" xml:space="preserve">
    <g style="display:inline;fill:#fff;enable-background:new">
        <g style="opacity:1;fill:#fff">
            <path style="color:#000;font-style:normal;font-variant:normal;font-weight:400;font-stretch:normal;font-size:medium;line-height:normal;font-family:sans-serif;font-variant-ligatures:normal;font-variant-position:normal;font-variant-caps:normal;font-variant-numeric:normal;font-variant-alternates:normal;font-feature-settings:normal;text-indent:0;text-align:start;text-decoration:none;text-decoration-line:none;text-decoration-style:solid;text-decoration-color:#000;letter-spacing:normal;word-spacing:normal;text-transform:none;writing-mode:lr-tb;direction:ltr;text-orientation:mixed;dominant-baseline:auto;baseline-shift:baseline;text-anchor:start;white-space:normal;shape-padding:0;clip-rule:nonzero;display:inline;overflow:visible;visibility:visible;opacity:1;isolation:auto;mix-blend-mode:normal;color-interpolation:sRGB;color-interpolation-filters:linearRGB;solid-color:#000;solid-opacity:1;vector-effect:none;fill:#fff;fill-opacity:1;fill-rule:evenodd;stroke:none;stroke-width:1;stroke-linecap:round;stroke-linejoin:round;stroke-miterlimit:4;stroke-dasharray:none;stroke-dashoffset:0;stroke-opacity:1;color-rendering:auto;image-rendering:auto;shape-rendering:auto;text-rendering:auto;enable-background:accumulate" d="M268.5 242c-1.887 0-3.425 1.51-3.488 3.383a.476.476 0 0 0-.012.152V249h-3.5a.53.53 0 0 0-.113.012c-1.874.061-3.387 1.6-3.387 3.488 0 1.887 1.51 3.425 3.383 3.488a.476.476 0 0 0 .117.012h7a3.5 3.5 0 0 0 3.5-3.5v-7a.49.49 0 0 0-.012-.117c-.063-1.872-1.601-3.383-3.488-3.383zm0 1a2.492 2.492 0 0 1 2.5 2.535v6.965a2.5 2.5 0 0 1-2.5 2.5h-7a2.492 2.492 0 0 1-2.5-2.5c0-1.387 1.113-2.5 2.5-2.5h3.75a.5.5 0 0 0 .354-.146l.25-.25a.5.5 0 0 0 .146-.354v-3.75c0-1.387 1.113-2.5 2.5-2.5z" transform="translate(-255 -239)"/>
        </g>
        <path style="color:#000;font-style:normal;font-variant:normal;font-weight:400;font-stretch:normal;font-size:medium;line-height:normal;font-family:sans-serif;font-variant-ligatures:normal;font-variant-position:normal;font-variant-caps:normal;font-variant-numeric:normal;font-variant-alternates:normal;font-feature-settings:normal;text-indent:0;text-align:start;text-decoration:none;text-decoration-line:none;text-decoration-style:solid;text-decoration-color:#000;letter-spacing:normal;word-spacing:normal;text-transform:none;writing-mode:lr-tb;direction:ltr;text-orientation:mixed;dominant-baseline:auto;baseline-shift:baseline;text-anchor:start;white-space:normal;shape-padding:0;clip-rule:nonzero;display:inline;overflow:visible;visibility:visible;opacity:.6;isolation:auto;mix-blend-mode:normal;color-interpolation:sRGB;color-interpolation-filters:linearRGB;solid-color:#000;solid-opacity:1;vector-effect:none;fill:#fff;fill-opacity:1;fill-rule:nonzero;stroke:none;stroke-width:1;stroke-linecap:round;stroke-linejoin:round;stroke-miterlimit:4;stroke-dasharray:none;stroke-dashoffset:0;stroke-opacity:1;marker:none;paint-order:fill markers stroke;color-rendering:auto;image-rendering:auto;shape-rendering:auto;text-rendering:auto;enable-background:accumulate" d="M303.492 307.992a.5.5 0 0 0-.492.508v6.92a.5.5 0 0 0 .113.404.5.5 0 0 0 .016.02.5.5 0 0 0 .017.017.5.5 0 0 0 .004.002.5.5 0 0 0 .034.032.5.5 0 0 0 .004.002.5.5 0 0 0 .394.103h6.918a.5.5 0 1 0 0-1H304v-6.5a.5.5 0 0 0-.508-.508z" transform="matrix(-1 0 0 1 317 -302)"/>
    </g>
</svg>
