<svg xmlns="http://www.w3.org/2000/svg" viewBox="0 0 20 20" xml:space="preserve">
    <g style="display:inline;fill:#fff;enable-background:new">
        <path style="color:#000;font-style:normal;font-variant:normal;font-weight:400;font-stretch:normal;font-size:medium;line-height:normal;font-family:sans-serif;font-variant-ligatures:normal;font-variant-position:normal;font-variant-caps:normal;font-variant-numeric:normal;font-variant-alternates:normal;font-feature-settings:normal;text-indent:0;text-align:start;text-decoration:none;text-decoration-line:none;text-decoration-style:solid;text-decoration-color:#000;letter-spacing:normal;word-spacing:normal;text-transform:none;writing-mode:lr-tb;direction:ltr;text-orientation:mixed;dominant-baseline:auto;baseline-shift:baseline;text-anchor:start;white-space:normal;shape-padding:0;clip-rule:nonzero;display:inline;overflow:visible;visibility:visible;opacity:1;isolation:auto;mix-blend-mode:normal;color-interpolation:sRGB;color-interpolation-filters:linearRGB;solid-color:#000;solid-opacity:1;vector-effect:none;fill:#fff;fill-opacity:1;fill-rule:nonzero;stroke:none;stroke-width:1.2;stroke-linecap:round;stroke-linejoin:miter;stroke-miterlimit:4;stroke-dasharray:none;stroke-dashoffset:0;stroke-opacity:1;marker:none;color-rendering:auto;image-rendering:auto;shape-rendering:auto;text-rendering:auto;enable-background:accumulate" d="M247.6 579a.6.6 0 0 0-.418 1.031l2.787 2.787a.6.6 0 0 0 .85-.85l-2.788-2.786a.6.6 0 0 0-.431-.182zm-.112 2.895a.6.6 0 0 0-.412.181l-1 1a.6.6 0 1 0 .848.848l1-1a.6.6 0 0 0-.436-1.03zm-3 3a.6.6 0 0 0-.412.181l-1 1a.6.6 0 1 0 .848.848l1-1a.6.6 0 0 0-.436-1.03zm-3 3a.6.6 0 0 0-.412.181l-1 1a.6.6 0 1 0 .848.848l1-1a.6.6 0 0 0-.436-1.03zM237.6 589a.6.6 0 0 0-.418 1.031l2.787 2.787a.6.6 0 0 0 .85-.85l-2.788-2.786a.6.6 0 0 0-.431-.182z" transform="translate(-233.997 -575.997)"/>
    </g>
</svg>
