<?xml version="1.0" encoding="UTF-8" standalone="no"?>
<svg
   xmlns:dc="http://purl.org/dc/elements/1.1/"
   xmlns:cc="http://creativecommons.org/ns#"
   xmlns:rdf="http://www.w3.org/1999/02/22-rdf-syntax-ns#"
   xmlns:svg="http://www.w3.org/2000/svg"
   xmlns="http://www.w3.org/2000/svg"
   xmlns:sodipodi="http://sodipodi.sourceforge.net/DTD/sodipodi-0.dtd"
   xmlns:inkscape="http://www.inkscape.org/namespaces/inkscape"
   id="Layer_1"
   x="0"
   y="0"
   enable-background="new 0 0 20 20"
   version="1.1"
   viewBox="0 0 20 20"
   xml:space="preserve"
   sodipodi:docname="bl_icons_579.svg"
   inkscape:version="1.0.2 (e86c870879, 2021-01-15, custom)"><metadata
     id="metadata7"><rdf:RDF><cc:Work
         rdf:about=""><dc:format>image/svg+xml</dc:format><dc:type
           rdf:resource="http://purl.org/dc/dcmitype/StillImage" /><dc:title></dc:title></cc:Work></rdf:RDF></metadata><defs
     id="defs5" /><sodipodi:namedview
     pagecolor="#808080"
     bordercolor="#666666"
     borderopacity="1"
     objecttolerance="10"
     gridtolerance="10"
     guidetolerance="10"
     inkscape:pageopacity="0"
     inkscape:pageshadow="2"
     inkscape:window-width="1750"
     inkscape:window-height="991"
     id="namedview3"
     showgrid="false"
     inkscape:pagecheckerboard="true"
     inkscape:zoom="25.577418"
     inkscape:cx="-0.44644607"
     inkscape:cy="8.0087009"
     inkscape:window-x="87"
     inkscape:window-y="37"
     inkscape:window-maximized="0"
     inkscape:current-layer="Layer_1"
     inkscape:document-rotation="0" /><g
     transform="matrix(-1,0,0,1,318.57979,-490.92685)"
     style="display:inline;fill:#ffffff;enable-background:new"
     id="g23034"><path
       style="color:#000000;font-style:normal;font-variant:normal;font-weight:normal;font-stretch:normal;font-size:medium;line-height:normal;font-family:sans-serif;font-variant-ligatures:normal;font-variant-position:normal;font-variant-caps:normal;font-variant-numeric:normal;font-variant-alternates:normal;font-feature-settings:normal;text-indent:0;text-align:start;text-decoration:none;text-decoration-line:none;text-decoration-style:solid;text-decoration-color:#000000;letter-spacing:normal;word-spacing:normal;text-transform:none;writing-mode:lr-tb;direction:ltr;text-orientation:mixed;dominant-baseline:auto;baseline-shift:baseline;text-anchor:start;white-space:normal;shape-padding:0;clip-rule:nonzero;display:inline;overflow:visible;visibility:visible;opacity:1;isolation:auto;mix-blend-mode:normal;color-interpolation:sRGB;color-interpolation-filters:linearRGB;solid-color:#000000;solid-opacity:1;vector-effect:none;fill:#ffffff;fill-opacity:1;fill-rule:nonzero;stroke:none;stroke-width:1;stroke-linecap:round;stroke-linejoin:round;stroke-miterlimit:4;stroke-dasharray:none;stroke-dashoffset:7.4;stroke-opacity:1;color-rendering:auto;image-rendering:auto;shape-rendering:auto;text-rendering:auto;enable-background:new"
       d="m 310.58203,494 c -1.1875,0 -2.13583,0.69085 -2.52344,1.62109 -0.3876,0.93025 -0.20775,2.10475 0.66993,2.98243 l 2.5,2.5 c 0.62232,0.62232 0.69247,1.32282 0.45507,1.89257 C 311.4462,503.56585 310.89453,504 310.08203,504 l -6.53515,-0.008 2.13867,-2.13867 a 0.50005,0.50005 0 1 0 -0.70703,-0.70704 l -2.9336,2.93555 -0.01,0.008 a 0.50005,0.50005 0 0 0 -0.20704,0.41602 0.50005,0.50005 0 0 0 0,0.008 0.50005,0.50005 0 0 0 0.004,0.0469 0.50005,0.50005 0 0 0 0.008,0.0488 0.50005,0.50005 0 0 0 0.19336,0.29882 l 2.94532,2.94532 a 0.50005,0.50005 0 1 0 0.70703,-0.70704 l -2.1543,-2.15429 6.55078,0.008 c 1.1875,0 2.13584,-0.69085 2.52344,-1.62109 0.3876,-0.93025 0.20775,-2.10475 -0.66992,-2.98243 l -2.5,-2.5 c -0.62233,-0.62232 -0.69248,-1.32282 -0.45508,-1.89257 0.2374,-0.56976 0.78906,-1.00391 1.60156,-1.00391 h 4.75 a 0.50005,0.50005 0 1 0 0,-1 z"
       id="path23032"
       inkscape:connector-curvature="0" /></g></svg>
