<svg xmlns="http://www.w3.org/2000/svg" viewBox="0 0 20 20" xml:space="preserve">
    <path style="display:inline;overflow:visible;visibility:visible;fill:#fff;fill-opacity:1;fill-rule:nonzero;stroke:none;stroke-width:.8;stroke-linecap:square;stroke-linejoin:round;stroke-miterlimit:4;stroke-dasharray:none;stroke-dashoffset:0;stroke-opacity:1;marker:none;enable-background:accumulate" d="M6.508 10.018A3.482 3.482 0 0 0 3.025 13.5a3.482 3.482 0 0 0 3.483 3.482A3.482 3.482 0 0 0 9.99 13.5a3.482 3.482 0 0 0-3.482-3.482zm-.506.986h1.014v1.986h1.996v1.014H7.016v1.986H6.002v-1.986H4.006V12.99h1.996z"/>
    <path style="display:inline;opacity:.6;fill:#fff;fill-opacity:1;fill-rule:nonzero;stroke:none;stroke-width:.8;stroke-linecap:square;stroke-linejoin:round;stroke-miterlimit:4;stroke-dasharray:none;stroke-dashoffset:0;stroke-opacity:1;enable-background:new" d="M13.486 3.018a3.488 3.488 0 0 0-3.488 3.488 3.488 3.488 0 0 0 3.488 3.488 3.488 3.488 0 0 0 3.489-3.488 3.488 3.488 0 0 0-3.489-3.488zm-2.48 3h5.006V7.03h-5.006z"/>
</svg>
