<svg xmlns="http://www.w3.org/2000/svg" viewBox="0 0 20 20" xml:space="preserve">
    <g style="display:inline;fill:#fff;stroke-width:1.14286;enable-background:new">
        <path style="color:#000;font-style:normal;font-variant:normal;font-weight:400;font-stretch:normal;font-size:medium;line-height:normal;font-family:sans-serif;font-variant-ligatures:normal;font-variant-position:normal;font-variant-caps:normal;font-variant-numeric:normal;font-variant-alternates:normal;font-feature-settings:normal;text-indent:0;text-align:start;text-decoration:none;text-decoration-line:none;text-decoration-style:solid;text-decoration-color:#000;letter-spacing:normal;word-spacing:normal;text-transform:none;writing-mode:lr-tb;direction:ltr;text-orientation:mixed;dominant-baseline:auto;baseline-shift:baseline;text-anchor:start;white-space:normal;shape-padding:0;clip-rule:nonzero;display:inline;overflow:visible;visibility:visible;opacity:1;isolation:auto;mix-blend-mode:normal;color-interpolation:sRGB;color-interpolation-filters:linearRGB;solid-color:#000;solid-opacity:1;vector-effect:none;fill:#fff;fill-opacity:1;fill-rule:evenodd;stroke:none;stroke-width:1;stroke-linecap:round;stroke-linejoin:round;stroke-miterlimit:4;stroke-dasharray:none;stroke-dashoffset:0;stroke-opacity:1;marker:none;color-rendering:auto;image-rendering:auto;shape-rendering:auto;text-rendering:auto;enable-background:accumulate" d="M496 535.938a7.066 7.066 0 0 0-6.291 3.85 7.038 7.038 0 0 0-.772 3.212 7.07 7.07 0 0 0 7.063 7.063 7.07 7.07 0 0 0 7.063-7.063 7.07 7.07 0 0 0-7.063-7.063zm0 1a6.055 6.055 0 0 1 6.063 6.062 6.055 6.055 0 0 1-6.063 6.063 6.055 6.055 0 0 1-6.063-6.063 6.058 6.058 0 0 1 6.063-6.063zm0 1.062a1 1 0 0 0-1 1 1 1 0 0 0 1 1 1 1 0 0 0 1-1 1 1 0 0 0-1-1zm-2.824 1.162a1 1 0 0 0-.688.305 5 5 0 0 0-1.289 2.24 1 1 0 1 0 1.932.516c.136-.51.402-.974.773-1.346a1 1 0 0 0-.728-1.715z" transform="matrix(1 0 0 1 -486 -533)"/>
    </g>
</svg>
