<?xml version="1.0" encoding="UTF-8" standalone="no"?>
<svg
   xmlns:dc="http://purl.org/dc/elements/1.1/"
   xmlns:cc="http://creativecommons.org/ns#"
   xmlns:rdf="http://www.w3.org/1999/02/22-rdf-syntax-ns#"
   xmlns:svg="http://www.w3.org/2000/svg"
   xmlns="http://www.w3.org/2000/svg"
   xmlns:sodipodi="http://sodipodi.sourceforge.net/DTD/sodipodi-0.dtd"
   xmlns:inkscape="http://www.inkscape.org/namespaces/inkscape"
   id="Layer_1"
   x="0"
   y="0"
   enable-background="new 0 0 20 20"
   version="1.1"
   viewBox="0 0 20 20"
   xml:space="preserve"
   sodipodi:docname="bl_icons_565.svg"
   inkscape:version="1.0.2 (e86c870879, 2021-01-15, custom)"><metadata
     id="metadata7"><rdf:RDF><cc:Work
         rdf:about=""><dc:format>image/svg+xml</dc:format><dc:type
           rdf:resource="http://purl.org/dc/dcmitype/StillImage" /><dc:title></dc:title></cc:Work></rdf:RDF></metadata><defs
     id="defs5" /><sodipodi:namedview
     pagecolor="#808080"
     bordercolor="#666666"
     borderopacity="1"
     objecttolerance="10"
     gridtolerance="10"
     guidetolerance="10"
     inkscape:pageopacity="0"
     inkscape:pageshadow="2"
     inkscape:window-width="1750"
     inkscape:window-height="991"
     id="namedview3"
     showgrid="false"
     inkscape:pagecheckerboard="true"
     inkscape:zoom="25.577418"
     inkscape:cx="-0.44644607"
     inkscape:cy="8.0087009"
     inkscape:window-x="87"
     inkscape:window-y="37"
     inkscape:window-maximized="0"
     inkscape:current-layer="Layer_1"
     inkscape:document-rotation="0" /><g
     id="g12053"
     transform="translate(-233,-322.97515)"
     style="display:inline;fill:#ffffff;enable-background:new"><path
       style="color:#000000;font-style:normal;font-variant:normal;font-weight:normal;font-stretch:normal;font-size:medium;line-height:normal;font-family:sans-serif;font-variant-ligatures:normal;font-variant-position:normal;font-variant-caps:normal;font-variant-numeric:normal;font-variant-alternates:normal;font-feature-settings:normal;text-indent:0;text-align:start;text-decoration:none;text-decoration-line:none;text-decoration-style:solid;text-decoration-color:#000000;letter-spacing:normal;word-spacing:normal;text-transform:none;writing-mode:lr-tb;direction:ltr;text-orientation:mixed;dominant-baseline:auto;baseline-shift:baseline;text-anchor:start;white-space:normal;shape-padding:0;clip-rule:nonzero;display:inline;overflow:visible;visibility:visible;opacity:1;isolation:auto;mix-blend-mode:normal;color-interpolation:sRGB;color-interpolation-filters:linearRGB;solid-color:#000000;solid-opacity:1;vector-effect:none;fill:#ffffff;fill-opacity:1;fill-rule:nonzero;stroke:none;stroke-width:0.9;stroke-linecap:butt;stroke-linejoin:round;stroke-miterlimit:4;stroke-dasharray:none;stroke-dashoffset:0;stroke-opacity:1;color-rendering:auto;image-rendering:auto;shape-rendering:auto;text-rendering:auto;enable-background:new"
       d="m 237.49414,326.05078 c -0.11724,0.001 -0.22936,0.0482 -0.3125,0.13086 l -2,2 c -0.17593,0.17578 -0.17593,0.46094 0,0.63672 l 2,2 c 0.17578,0.17593 0.46094,0.17593 0.63672,0 l 2,-2 c 0.17593,-0.17578 0.17593,-0.46094 0,-0.63672 l -2,-2 c -0.086,-0.0855 -0.20293,-0.13272 -0.32422,-0.13086 z m 11,0 c -0.11724,0.001 -0.22936,0.0482 -0.3125,0.13086 l -2,2 c -0.17593,0.17578 -0.17593,0.46094 0,0.63672 l 2,2 c 0.17578,0.17593 0.46094,0.17593 0.63672,0 l 2,-2 c 0.17593,-0.17578 0.17593,-0.46094 0,-0.63672 l -2,-2 c -0.086,-0.0855 -0.20293,-0.13272 -0.32422,-0.13086 z m -6.02734,6.75 c -0.1137,0.009 -0.21981,0.0605 -0.29688,0.14453 l -3,3.25 c -0.16377,0.17723 -0.15861,0.45209 0.0117,0.62305 l 3,3 c 0.17578,0.17593 0.46094,0.17593 0.63672,0 l 3,-3 c 0.17031,-0.17096 0.17547,-0.44582 0.0117,-0.62305 l -3,-3.25 c -0.0927,-0.10101 -0.22649,-0.15422 -0.36328,-0.14453 z m 0.0332,1.11133 2.37695,2.57617 -2.37695,2.375 -2.37695,-2.37695 z"
       id="path12048"
       inkscape:connector-curvature="0"
       sodipodi:nodetypes="cccccccccccccccccccccccccccccccccccc" /><path
       style="opacity:0.5;vector-effect:none;fill:#ffffff;fill-opacity:1;stroke:none;stroke-width:1;stroke-linecap:round;stroke-linejoin:round;stroke-miterlimit:4;stroke-dasharray:none;stroke-dashoffset:0;stroke-opacity:1;marker:none;paint-order:fill markers stroke"
       d="m 239.12109,326 1.43946,1.43945 c 0.58556,0.5858 0.58556,1.5353 0,2.1211 L 239.12109,331 h 7.75782 l -1.43946,-1.43945 c -0.58556,-0.5858 -0.58556,-1.5353 0,-2.1211 L 246.87891,326 Z"
       id="path12051"
       inkscape:connector-curvature="0"
       sodipodi:nodetypes="ccccccccc" /></g></svg>
