<svg xmlns="http://www.w3.org/2000/svg" viewBox="0 0 20 20" xml:space="preserve">
    <path d="M9 4.5a.5.5 0 0 0-.354.146L6.793 6.5H4a.5.5 0 0 0-.5.5v8a.5.5 0 0 0 .5.5h12a.5.5 0 0 0 .5-.5V7a.5.5 0 0 0-.5-.5h-1.793l-1.853-1.854A.5.5 0 0 0 12 4.5zm.207 1h2.586l1.853 1.854A.5.5 0 0 0 14 7.5h1.5v7h-11v-7H7a.5.5 0 0 0 .354-.146zm-.46 2.744a.5.5 0 0 0-.35.86L9.792 10.5l-1.397 1.396a.5.5 0 1 0 .708.708l1.396-1.397 1.396 1.397a.5.5 0 1 0 .708-.708L11.207 10.5l1.397-1.396a.5.5 0 1 0-.708-.708L10.5 9.793 9.104 8.396a.5.5 0 0 0-.358-.152z" style="color:#000;font-style:normal;font-variant:normal;font-weight:400;font-stretch:normal;font-size:medium;line-height:normal;font-family:sans-serif;font-variant-ligatures:normal;font-variant-position:normal;font-variant-caps:normal;font-variant-numeric:normal;font-variant-alternates:normal;font-feature-settings:normal;text-indent:0;text-align:start;text-decoration:none;text-decoration-line:none;text-decoration-style:solid;text-decoration-color:#000;letter-spacing:normal;word-spacing:normal;text-transform:none;writing-mode:lr-tb;direction:ltr;text-orientation:mixed;dominant-baseline:auto;baseline-shift:baseline;text-anchor:start;white-space:normal;shape-padding:0;clip-rule:nonzero;display:inline;overflow:visible;visibility:visible;opacity:.6;isolation:auto;mix-blend-mode:normal;color-interpolation:sRGB;color-interpolation-filters:linearRGB;solid-color:#000;solid-opacity:1;vector-effect:none;fill:#fff;fill-opacity:1;fill-rule:nonzero;stroke:none;stroke-width:1;stroke-linecap:round;stroke-linejoin:round;stroke-miterlimit:4;stroke-dasharray:none;stroke-dashoffset:0;stroke-opacity:1;marker:none;paint-order:fill markers stroke;color-rendering:auto;image-rendering:auto;shape-rendering:auto;text-rendering:auto;enable-background:new"/>
</svg>
