<?xml version="1.0" encoding="UTF-8" standalone="no"?>
<svg
   xmlns:dc="http://purl.org/dc/elements/1.1/"
   xmlns:cc="http://creativecommons.org/ns#"
   xmlns:rdf="http://www.w3.org/1999/02/22-rdf-syntax-ns#"
   xmlns:svg="http://www.w3.org/2000/svg"
   xmlns="http://www.w3.org/2000/svg"
   xmlns:sodipodi="http://sodipodi.sourceforge.net/DTD/sodipodi-0.dtd"
   xmlns:inkscape="http://www.inkscape.org/namespaces/inkscape"
   id="Layer_1"
   x="0"
   y="0"
   enable-background="new 0 0 20 20"
   version="1.1"
   viewBox="0 0 20 20"
   xml:space="preserve"
   sodipodi:docname="bl_icons_532.svg"
   inkscape:version="1.0.2 (e86c870879, 2021-01-15, custom)"><metadata
     id="metadata7"><rdf:RDF><cc:Work
         rdf:about=""><dc:format>image/svg+xml</dc:format><dc:type
           rdf:resource="http://purl.org/dc/dcmitype/StillImage" /><dc:title></dc:title></cc:Work></rdf:RDF></metadata><defs
     id="defs5" /><sodipodi:namedview
     pagecolor="#808080"
     bordercolor="#666666"
     borderopacity="1"
     objecttolerance="10"
     gridtolerance="10"
     guidetolerance="10"
     inkscape:pageopacity="0"
     inkscape:pageshadow="2"
     inkscape:window-width="1750"
     inkscape:window-height="991"
     id="namedview3"
     showgrid="false"
     inkscape:pagecheckerboard="true"
     inkscape:zoom="25.577418"
     inkscape:cx="-0.44644607"
     inkscape:cy="8.0087009"
     inkscape:window-x="87"
     inkscape:window-y="37"
     inkscape:window-maximized="0"
     inkscape:current-layer="Layer_1"
     inkscape:document-rotation="0" /><g
     id="g6417"
     style="display:inline;fill:#ffffff;enable-background:new"
     transform="translate(-464.99707,-490.98811)"><path
       id="path8180-3"
       d="m 470.66016,493.97656 c -0.37961,-0.006 -0.76447,0.0652 -1.1211,0.21289 -0.93286,0.38641 -1.54492,1.30084 -1.54492,2.31055 v 3.5 h 1 v -3.5 c 0,-0.60813 0.3659,-1.154 0.92774,-1.38672 0.5437,-0.22521 1.42162,-0.0569 1.71874,0.24024 l 0.5,0.5 c 0.47128,0.49023 1.19727,-0.23577 0.70704,-0.70704 l -0.5,-0.5 c -0.35144,-0.35143 -0.81472,-0.56325 -1.31055,-0.63867 -0.12396,-0.0188 -0.25042,-0.0294 -0.37695,-0.0312 z m 8.67382,0 c -0.12653,0.002 -0.25299,0.0124 -0.37695,0.0312 -0.49583,0.0754 -0.95911,0.28724 -1.31055,0.63867 l -0.5,0.5 c -0.49023,0.47127 0.23577,1.19727 0.70704,0.70704 l 0.5,-0.5 c 0.29713,-0.29714 1.17505,-0.46545 1.71875,-0.24024 C 480.63411,495.346 481,495.89187 481,496.5 v 3.5 h 1 v -3.5 c 0,-1.00971 -0.61206,-1.92414 -1.54492,-2.31055 -0.35663,-0.1477 -0.74149,-0.21856 -1.1211,-0.21289 z M 468.49414,501 a 0.50005,0.50005 0 0 0 -0.5,0.5 v 6 a 0.50005,0.50005 0 0 0 0.5,0.5 h 1 3.00586 a 0.50005,0.50005 0 0 0 0.41602,-0.22266 L 474.76758,505 h 0.46484 l 1.85156,2.77734 A 0.50005,0.50005 0 0 0 477.5,508 h 2.99414 1 a 0.50005,0.50005 0 0 0 0.5,-0.5 v -6 a 0.50005,0.50005 0 0 0 -0.5,-0.5 z M 474,502 v 2.34766 L 472.23242,507 h -2.23828 -1 L 469,502.00195 Z m 1.99414,0 5,0.002 V 507 h -0.5 H 480 477.76758 L 476,504.34766 Z"
       style="fill:#ffffff;stroke:none;stroke-width:1px;stroke-linecap:round;stroke-linejoin:round;stroke-opacity:1"
       inkscape:connector-curvature="0" /><path
       sodipodi:nodetypes="ccccccccccc"
       inkscape:connector-curvature="0"
       id="path8043-2"
       d="m 470.49414,503 c -0.27613,3e-5 -0.49997,0.22387 -0.5,0.5 v 2 c 3e-5,0.27613 0.22387,0.49997 0.5,0.5 H 471.5 c 0.16717,-10e-6 0.32328,-0.0836 0.41602,-0.22266 l 1,-1.5 c 0.0559,-0.0838 0.0852,-0.18249 0.084,-0.2832 l -0.006,-0.5 c -0.003,-0.27384 -0.22614,-0.49413 -0.5,-0.49414 z"
       style="color:#000000;font-style:normal;font-variant:normal;font-weight:normal;font-stretch:normal;font-size:medium;line-height:normal;font-family:sans-serif;font-variant-ligatures:normal;font-variant-position:normal;font-variant-caps:normal;font-variant-numeric:normal;font-variant-alternates:normal;font-feature-settings:normal;text-indent:0;text-align:start;text-decoration:none;text-decoration-line:none;text-decoration-style:solid;text-decoration-color:#000000;letter-spacing:normal;word-spacing:normal;text-transform:none;writing-mode:lr-tb;direction:ltr;text-orientation:mixed;dominant-baseline:auto;baseline-shift:baseline;text-anchor:start;white-space:normal;shape-padding:0;clip-rule:nonzero;display:inline;overflow:visible;visibility:visible;opacity:0.3;isolation:auto;mix-blend-mode:normal;color-interpolation:sRGB;color-interpolation-filters:linearRGB;solid-color:#000000;solid-opacity:1;vector-effect:none;fill:#ffffff;fill-opacity:1;fill-rule:nonzero;stroke:none;stroke-width:1;stroke-linecap:butt;stroke-linejoin:round;stroke-miterlimit:4;stroke-dasharray:none;stroke-dashoffset:0;stroke-opacity:1;marker:none;color-rendering:auto;image-rendering:auto;shape-rendering:auto;text-rendering:auto;enable-background:accumulate" /></g></svg>
