<?xml version="1.0" encoding="UTF-8" standalone="no"?>
<svg
   xmlns:dc="http://purl.org/dc/elements/1.1/"
   xmlns:cc="http://creativecommons.org/ns#"
   xmlns:rdf="http://www.w3.org/1999/02/22-rdf-syntax-ns#"
   xmlns:svg="http://www.w3.org/2000/svg"
   xmlns="http://www.w3.org/2000/svg"
   xmlns:sodipodi="http://sodipodi.sourceforge.net/DTD/sodipodi-0.dtd"
   xmlns:inkscape="http://www.inkscape.org/namespaces/inkscape"
   id="Layer_1"
   x="0"
   y="0"
   enable-background="new 0 0 20 20"
   version="1.1"
   viewBox="0 0 20 20"
   xml:space="preserve"
   sodipodi:docname="bl_icons_597.svg"
   inkscape:version="1.0.2 (e86c870879, 2021-01-15, custom)"><metadata
     id="metadata7"><rdf:RDF><cc:Work
         rdf:about=""><dc:format>image/svg+xml</dc:format><dc:type
           rdf:resource="http://purl.org/dc/dcmitype/StillImage" /><dc:title></dc:title></cc:Work></rdf:RDF></metadata><defs
     id="defs5" /><sodipodi:namedview
     pagecolor="#808080"
     bordercolor="#666666"
     borderopacity="1"
     objecttolerance="10"
     gridtolerance="10"
     guidetolerance="10"
     inkscape:pageopacity="0"
     inkscape:pageshadow="2"
     inkscape:window-width="1750"
     inkscape:window-height="991"
     id="namedview3"
     showgrid="false"
     inkscape:pagecheckerboard="true"
     inkscape:zoom="25.577418"
     inkscape:cx="-0.44644607"
     inkscape:cy="8.0087009"
     inkscape:window-x="87"
     inkscape:window-y="37"
     inkscape:window-maximized="0"
     inkscape:current-layer="Layer_1"
     inkscape:document-rotation="0" /><g
     transform="translate(-128.99957,-575)"
     style="display:inline;fill:#ffffff;enable-background:new"
     id="g10061"
     inkscape:export-filename="C:\Users\Andrzej Ambroż\Desktop\mtrx.png"
     inkscape:export-xdpi="96"
     inkscape:export-ydpi="96"><g
       id="g9978"
       transform="translate(159,3)"
       style="display:inline;fill:#ffffff;enable-background:new"><g
         style="display:inline;fill:#ffffff;stroke-width:1.25053;enable-background:new"
         id="g9976"
         transform="matrix(0.79966332,0,0,0.79966332,-130.65118,113.69494)"><path
           style="color:#000000;font-style:normal;font-variant:normal;font-weight:normal;font-stretch:normal;font-size:medium;line-height:normal;font-family:sans-serif;font-variant-ligatures:normal;font-variant-position:normal;font-variant-caps:normal;font-variant-numeric:normal;font-variant-alternates:normal;font-feature-settings:normal;text-indent:0;text-align:start;text-decoration:none;text-decoration-line:none;text-decoration-style:solid;text-decoration-color:#000000;letter-spacing:normal;word-spacing:normal;text-transform:none;writing-mode:lr-tb;direction:ltr;text-orientation:mixed;dominant-baseline:auto;baseline-shift:baseline;text-anchor:start;white-space:normal;shape-padding:0;clip-rule:nonzero;display:inline;overflow:visible;visibility:visible;opacity:1;isolation:auto;mix-blend-mode:normal;color-interpolation:sRGB;color-interpolation-filters:linearRGB;solid-color:#000000;solid-opacity:1;vector-effect:none;fill:#ffffff;fill-opacity:1;fill-rule:nonzero;stroke:none;stroke-width:1;stroke-linecap:round;stroke-linejoin:round;stroke-miterlimit:4;stroke-dasharray:none;stroke-dashoffset:0;stroke-opacity:1;color-rendering:auto;image-rendering:auto;shape-rendering:auto;text-rendering:auto;enable-background:accumulate"
           d="m 142,578 c -2.19759,0 -4,1.80241 -4,4 0,0.9193 0.32769,1.75955 0.85547,2.4375 l -3.70899,3.70898 a 0.50029086,0.50029086 0 1 0 0.70704,0.70704 l 3.70898,-3.70899 C 140.24045,585.67231 141.0807,586 142,586 c 2.19759,0 4,-1.80241 4,-4 0,-2.19759 -1.80241,-4 -4,-4 z m 0,1 c 1.65213,0 3,1.34787 3,3 0,1.65213 -1.34787,3 -3,3 -1.65214,0 -3,-1.34787 -3,-3 0,-1.65214 1.34786,-3 3,-3 z"
           transform="matrix(1.2505263,0,0,1.2505263,-35.450942,-145.9301)"
           id="path9971"
           inkscape:connector-curvature="0" /></g></g><g
       style="display:inline;opacity:0.6;vector-effect:none;fill:#ffffff;fill-opacity:1;stroke:#ffffff;stroke-width:0.8;stroke-linecap:round;stroke-linejoin:round;stroke-miterlimit:4;stroke-dasharray:none;stroke-dashoffset:0;stroke-opacity:1;marker:none;enable-background:new"
       transform="translate(-21.00001,84.99938)"
       id="g10042"><path
         style="color:#000000;font-style:normal;font-variant:normal;font-weight:normal;font-stretch:normal;font-size:medium;line-height:normal;font-family:sans-serif;font-variant-ligatures:normal;font-variant-position:normal;font-variant-caps:normal;font-variant-numeric:normal;font-variant-alternates:normal;font-feature-settings:normal;text-indent:0;text-align:start;text-decoration:none;text-decoration-line:none;text-decoration-style:solid;text-decoration-color:#000000;letter-spacing:normal;word-spacing:normal;text-transform:none;writing-mode:lr-tb;direction:ltr;text-orientation:mixed;dominant-baseline:auto;baseline-shift:baseline;text-anchor:start;white-space:normal;shape-padding:0;clip-rule:nonzero;display:inline;overflow:visible;visibility:visible;opacity:1;isolation:auto;mix-blend-mode:normal;color-interpolation:sRGB;color-interpolation-filters:linearRGB;solid-color:#000000;solid-opacity:1;vector-effect:none;fill:#ffffff;fill-opacity:1;fill-rule:evenodd;stroke:none;stroke-width:1px;stroke-linecap:round;stroke-linejoin:round;stroke-miterlimit:4;stroke-dasharray:none;stroke-dashoffset:0;stroke-opacity:1;marker:none;color-rendering:auto;image-rendering:auto;shape-rendering:auto;text-rendering:auto;enable-background:new"
         d="m 135.48438,579 c -0.12718,0.004 -0.248,0.0564 -0.3379,0.14648 l -3,3 c -0.31479,0.315 -0.0918,0.85335 0.35352,0.85352 h 3 c 0.27613,-3e-5 0.49997,-0.22387 0.5,-0.5 V 580 h 0.5 c 0.67616,0.01 0.67616,-1.00956 0,-1 h -1 v 0.002 c -0.005,0 -0.0101,-0.002 -0.0156,-0.002 z M 132,584 v 7.5 c 3e-5,0.27613 0.22387,0.49997 0.5,0.5 h 9 c 0.27613,-3e-5 0.49997,-0.22387 0.5,-0.5 v -4 c 0.01,-0.67616 -1.00956,-0.67616 -1,0 v 3.5 h -8 v -7 z"
         transform="translate(21.000012,-84.999384)"
         id="path10038"
         inkscape:connector-curvature="0" /></g></g></svg>
