<?xml version="1.0" encoding="UTF-8" standalone="no"?>
<svg
   xmlns:dc="http://purl.org/dc/elements/1.1/"
   xmlns:cc="http://creativecommons.org/ns#"
   xmlns:rdf="http://www.w3.org/1999/02/22-rdf-syntax-ns#"
   xmlns:svg="http://www.w3.org/2000/svg"
   xmlns="http://www.w3.org/2000/svg"
   xmlns:sodipodi="http://sodipodi.sourceforge.net/DTD/sodipodi-0.dtd"
   xmlns:inkscape="http://www.inkscape.org/namespaces/inkscape"
   id="Layer_1"
   x="0"
   y="0"
   enable-background="new 0 0 20 20"
   version="1.1"
   viewBox="0 0 20 20"
   xml:space="preserve"
   sodipodi:docname="bl_icons_535.svg"
   inkscape:version="1.0.2 (e86c870879, 2021-01-15, custom)"><metadata
     id="metadata7"><rdf:RDF><cc:Work
         rdf:about=""><dc:format>image/svg+xml</dc:format><dc:type
           rdf:resource="http://purl.org/dc/dcmitype/StillImage" /><dc:title></dc:title></cc:Work></rdf:RDF></metadata><defs
     id="defs5" /><sodipodi:namedview
     pagecolor="#808080"
     bordercolor="#666666"
     borderopacity="1"
     objecttolerance="10"
     gridtolerance="10"
     guidetolerance="10"
     inkscape:pageopacity="0"
     inkscape:pageshadow="2"
     inkscape:window-width="1750"
     inkscape:window-height="991"
     id="namedview3"
     showgrid="false"
     inkscape:pagecheckerboard="true"
     inkscape:zoom="25.577418"
     inkscape:cx="-0.44644607"
     inkscape:cy="8.0087009"
     inkscape:window-x="87"
     inkscape:window-y="37"
     inkscape:window-maximized="0"
     inkscape:current-layer="Layer_1"
     inkscape:document-rotation="0" /><path
     style="color:#000000;font-style:normal;font-variant:normal;font-weight:normal;font-stretch:normal;font-size:medium;line-height:normal;font-family:sans-serif;font-variant-ligatures:normal;font-variant-position:normal;font-variant-caps:normal;font-variant-numeric:normal;font-variant-alternates:normal;font-feature-settings:normal;text-indent:0;text-align:start;text-decoration:none;text-decoration-line:none;text-decoration-style:solid;text-decoration-color:#000000;letter-spacing:normal;word-spacing:normal;text-transform:none;writing-mode:lr-tb;direction:ltr;text-orientation:mixed;dominant-baseline:auto;baseline-shift:baseline;text-anchor:start;white-space:normal;shape-padding:0;clip-rule:nonzero;display:inline;overflow:visible;visibility:visible;isolation:auto;mix-blend-mode:normal;color-interpolation:sRGB;color-interpolation-filters:linearRGB;solid-color:#000000;solid-opacity:1;vector-effect:none;fill:#ffffff;fill-opacity:1;fill-rule:nonzero;stroke:none;stroke-width:1;stroke-linecap:round;stroke-linejoin:round;stroke-miterlimit:4;stroke-dasharray:none;stroke-dashoffset:0;stroke-opacity:1;marker:none;paint-order:fill markers stroke;color-rendering:auto;image-rendering:auto;shape-rendering:auto;text-rendering:auto;enable-background:accumulate"
     d="m 7.4914729,2.999955 c -0.27613,3e-5 -0.49997,0.22387 -0.5,0.5 v 1 c 2e-5,0.1326 0.0527,0.25976 0.14648,0.35352 l 0.85352,0.85351 v 2.61524 l -4.38672,5.36132 -0.004,0.004 c -0.58889,0.7361 -0.70787,1.57018 -0.44922,2.2168 0.25864,0.64662 0.88151,1.0957 1.58984,1.0957 H 15.241373 c 0.70833,0 1.33692,-0.44332 1.60352,-1.0918 0.26614,-0.64736 0.14367,-1.48967 -0.4668,-2.22461 l -4.38662,-5.36141 v -2.61524 l 0.85352,-0.85351 c 0.0938,-0.0938 0.14646,-0.22092 0.14648,-0.35352 v -1 c -3e-5,-0.27613 -0.22387,-0.49997 -0.5,-0.5 z m 0.5,1 h 4.0000001 v 0.29297 l -0.85352,0.85351 c -0.0938,0.0938 -0.14646,0.22092 -0.14648,0.35352 v 3 c 1.3e-4,0.11538 0.0402,0.22717 0.11328,0.31641 l 4.5,5.5 c 6.6e-4,0.001 9.5e-4,0.003 0.002,0.004 0.42848,0.51418 0.43133,0.91996 0.3125,1.20899 -0.11892,0.28882 -0.38611,0.4706 -0.67778,0.4706 H 4.7414729 c -0.29167,0 -0.5438,-0.17592 -0.66016,-0.4668 -0.11635,-0.29088 -0.11033,-0.7068 0.30078,-1.2207 l 4.4961,-5.49609 c 0.0731,-0.0892 0.11315,-0.20103 0.11328,-0.31641 v -3 c -2e-5,-0.1326 -0.0527,-0.25976 -0.14648,-0.35352 l -0.85352,-0.85351 z m 0,8 c -0.14428,-3.9e-4 -0.2817,0.0616 -0.37695,0.16992 l -1.75,2 c -0.28426,0.32357 -0.0537,0.83118 0.37695,0.83008 h 7.5000001 c 0.43069,10e-4 0.66121,-0.50651 0.37695,-0.83008 l -1.75,-2 c -0.09525,-0.10837 -0.23267,-0.17031 -0.37695,-0.16992 z"
     id="path13700"
     inkscape:connector-curvature="0" /></svg>
