<svg xmlns="http://www.w3.org/2000/svg" viewBox="0 0 20 20" xml:space="preserve">
    <g style="display:inline;opacity:.99;fill:#fff;enable-background:new">
        <path style="display:inline;overflow:visible;visibility:visible;opacity:1;fill:#fff;fill-opacity:1;fill-rule:nonzero;stroke:none;stroke-width:.755428px;marker:none;enable-background:accumulate" d="M220.5 536a.5.5 0 0 0-.5.5v9.64a1.837 2.622 64.988 0 0-1.982.073 1.837 2.622 64.988 0 0-1.971 2.685 1.837 2.622 64.988 0 0 2.935.89 1.837 2.622 64.988 0 0 2.01-2.19.5.5 0 0 0 .008-.098V538h8v7.14a1.837 2.622 64.988 0 0-1.982.073 1.837 2.622 64.988 0 0-1.971 2.685 1.837 2.622 64.988 0 0 2.935.89 1.837 2.622 64.988 0 0 2.01-2.19.5.5 0 0 0 .008-.098v-10a.5.5 0 0 0-.5-.5z" transform="translate(-213 -533)"/>
    </g>
</svg>
