<?xml version="1.0" encoding="UTF-8" standalone="no"?>
<svg
   xmlns:dc="http://purl.org/dc/elements/1.1/"
   xmlns:cc="http://creativecommons.org/ns#"
   xmlns:rdf="http://www.w3.org/1999/02/22-rdf-syntax-ns#"
   xmlns:svg="http://www.w3.org/2000/svg"
   xmlns="http://www.w3.org/2000/svg"
   xmlns:sodipodi="http://sodipodi.sourceforge.net/DTD/sodipodi-0.dtd"
   xmlns:inkscape="http://www.inkscape.org/namespaces/inkscape"
   id="Layer_1"
   x="0"
   y="0"
   enable-background="new 0 0 20 20"
   version="1.1"
   viewBox="0 0 20 20"
   xml:space="preserve"
   sodipodi:docname="bl_icons_555.svg"
   inkscape:version="1.0.2 (e86c870879, 2021-01-15, custom)"><metadata
     id="metadata7"><rdf:RDF><cc:Work
         rdf:about=""><dc:format>image/svg+xml</dc:format><dc:type
           rdf:resource="http://purl.org/dc/dcmitype/StillImage" /><dc:title></dc:title></cc:Work></rdf:RDF></metadata><defs
     id="defs5" /><sodipodi:namedview
     pagecolor="#808080"
     bordercolor="#666666"
     borderopacity="1"
     objecttolerance="10"
     gridtolerance="10"
     guidetolerance="10"
     inkscape:pageopacity="0"
     inkscape:pageshadow="2"
     inkscape:window-width="1750"
     inkscape:window-height="991"
     id="namedview3"
     showgrid="false"
     inkscape:pagecheckerboard="true"
     inkscape:zoom="25.577418"
     inkscape:cx="-0.44644607"
     inkscape:cy="8.0087009"
     inkscape:window-x="87"
     inkscape:window-y="37"
     inkscape:window-maximized="0"
     inkscape:current-layer="Layer_1"
     inkscape:document-rotation="0" /><g
     id="g6733"
     transform="translate(-66,-29)"
     style="display:inline;fill:#ffffff;enable-background:new"
     inkscape:export-filename="C:\Users\Andrzej Ambroż\Desktop\mtrx.png"
     inkscape:export-xdpi="96"
     inkscape:export-ydpi="96"><rect
       ry="0"
       rx="0"
       y="31"
       x="68"
       height="16"
       width="16"
       id="rect4338"
       style="opacity:0;vector-effect:none;fill:#ffffff;fill-opacity:1;stroke:none;stroke-width:1;stroke-linecap:round;stroke-linejoin:round;stroke-miterlimit:4;stroke-dasharray:none;stroke-dashoffset:0;stroke-opacity:1;marker:none" /><path
       style="color:#000000;font-style:normal;font-variant:normal;font-weight:normal;font-stretch:normal;font-size:medium;line-height:normal;font-family:sans-serif;font-variant-ligatures:normal;font-variant-position:normal;font-variant-caps:normal;font-variant-numeric:normal;font-variant-alternates:normal;font-feature-settings:normal;text-indent:0;text-align:start;text-decoration:none;text-decoration-line:none;text-decoration-style:solid;text-decoration-color:#000000;letter-spacing:normal;word-spacing:normal;text-transform:none;writing-mode:lr-tb;direction:ltr;text-orientation:mixed;dominant-baseline:auto;baseline-shift:baseline;text-anchor:start;white-space:normal;shape-padding:0;clip-rule:nonzero;display:inline;overflow:visible;visibility:visible;opacity:1;isolation:auto;mix-blend-mode:normal;color-interpolation:sRGB;color-interpolation-filters:linearRGB;solid-color:#000000;solid-opacity:1;vector-effect:none;fill:#ffffff;fill-opacity:1;fill-rule:nonzero;stroke:none;stroke-width:2;stroke-linecap:butt;stroke-linejoin:round;stroke-miterlimit:4;stroke-dasharray:none;stroke-dashoffset:0;stroke-opacity:1;marker:none;color-rendering:auto;image-rendering:auto;shape-rendering:auto;text-rendering:auto;enable-background:accumulate"
       d="m 81.75,32.099609 c -1.433114,0 -2.573994,0.599965 -3.328125,1.414063 -0.754131,0.814098 -1.193245,1.779187 -1.615234,2.65039 -0.42199,0.871204 -0.825206,1.64712 -1.308594,2.146485 -0.483388,0.499365 -0.99066,0.789062 -1.998047,0.789062 H 69 v 2 h 4.5 c 1.476988,0 2.648427,-0.585302 3.435547,-1.398437 0.78712,-0.813135 1.246208,-1.787219 1.671875,-2.666016 0.425667,-0.878796 0.819561,-1.663707 1.28125,-2.162109 0.461689,-0.498402 0.919442,-0.773438 1.861328,-0.773438 H 83 v -2 z"
       id="path4336"
       inkscape:connector-curvature="0" /><g
       id="g23052"
       style="opacity:0.7;fill:#ffffff"><path
         style="color:#000000;font-style:normal;font-variant:normal;font-weight:normal;font-stretch:normal;font-size:medium;line-height:normal;font-family:sans-serif;font-variant-ligatures:normal;font-variant-position:normal;font-variant-caps:normal;font-variant-numeric:normal;font-variant-alternates:normal;font-feature-settings:normal;text-indent:0;text-align:start;text-decoration:none;text-decoration-line:none;text-decoration-style:solid;text-decoration-color:#000000;letter-spacing:normal;word-spacing:normal;text-transform:none;writing-mode:lr-tb;direction:ltr;text-orientation:mixed;dominant-baseline:auto;baseline-shift:baseline;text-anchor:start;white-space:normal;shape-padding:0;clip-rule:nonzero;display:inline;overflow:visible;visibility:visible;opacity:1;isolation:auto;mix-blend-mode:normal;color-interpolation:sRGB;color-interpolation-filters:linearRGB;solid-color:#000000;solid-opacity:1;vector-effect:none;fill:#ffffff;fill-opacity:1;fill-rule:nonzero;stroke:none;stroke-width:1.2;stroke-linecap:round;stroke-linejoin:round;stroke-miterlimit:4;stroke-dasharray:none;stroke-dashoffset:0;stroke-opacity:1;marker:none;color-rendering:auto;image-rendering:auto;shape-rendering:auto;text-rendering:auto;enable-background:accumulate"
         d="m 27,536.90039 v 1.19922 h 0.75 c 0.646429,0 1.301953,0.38 1.880859,1.04297 0.578907,0.66296 1.046871,1.58637 1.289063,2.49023 0.207018,0.77346 1.367174,0.46292 1.160156,-0.31054 -0.287808,-1.07411 -0.818828,-2.13723 -1.544922,-2.96875 -0.726093,-0.83153 -1.681585,-1.45313 -2.785156,-1.45313 z m 13.25,9 c -1.91571,0 -2.93215,0.90502 -3.558594,1.66992 -0.313222,0.38245 -0.555819,0.7142 -0.798828,0.91797 -0.243008,0.20377 -0.458964,0.3125 -0.892578,0.3125 -0.401011,0 -0.71548,-0.20341 -1.054688,-0.64648 -0.339207,-0.44308 -0.639641,-1.1033 -0.878906,-1.79492 -0.238226,-0.80225 -1.442094,-0.38505 -1.132812,0.39257 0.260735,0.7537 0.585301,1.5146 1.058594,2.13282 C 33.46548,549.50298 34.151011,550 35,550 c 0.691386,0 1.25668,-0.25378 1.662109,-0.59375 0.405429,-0.33997 0.678457,-0.73364 0.958985,-1.07617 0.561056,-0.68506 1.044616,-1.23047 2.628906,-1.23047 H 41 v -1.19922 z"
         transform="translate(42.000002,-503.9)"
         id="path4334"
         inkscape:connector-curvature="0" /></g></g></svg>
