<?xml version="1.0" encoding="UTF-8" standalone="no"?>
<svg
   xmlns:dc="http://purl.org/dc/elements/1.1/"
   xmlns:cc="http://creativecommons.org/ns#"
   xmlns:rdf="http://www.w3.org/1999/02/22-rdf-syntax-ns#"
   xmlns:svg="http://www.w3.org/2000/svg"
   xmlns="http://www.w3.org/2000/svg"
   xmlns:sodipodi="http://sodipodi.sourceforge.net/DTD/sodipodi-0.dtd"
   xmlns:inkscape="http://www.inkscape.org/namespaces/inkscape"
   id="Layer_1"
   x="0"
   y="0"
   enable-background="new 0 0 20 20"
   version="1.1"
   viewBox="0 0 20 20"
   xml:space="preserve"
   sodipodi:docname="bl_icons_605.svg"
   inkscape:version="1.0.2 (e86c870879, 2021-01-15, custom)"><metadata
     id="metadata7"><rdf:RDF><cc:Work
         rdf:about=""><dc:format>image/svg+xml</dc:format><dc:type
           rdf:resource="http://purl.org/dc/dcmitype/StillImage" /><dc:title></dc:title></cc:Work></rdf:RDF></metadata><defs
     id="defs5" /><sodipodi:namedview
     pagecolor="#808080"
     bordercolor="#666666"
     borderopacity="1"
     objecttolerance="10"
     gridtolerance="10"
     guidetolerance="10"
     inkscape:pageopacity="0"
     inkscape:pageshadow="2"
     inkscape:window-width="1750"
     inkscape:window-height="991"
     id="namedview3"
     showgrid="false"
     inkscape:pagecheckerboard="true"
     inkscape:zoom="25.577418"
     inkscape:cx="-0.44644607"
     inkscape:cy="8.0087009"
     inkscape:window-x="87"
     inkscape:window-y="37"
     inkscape:window-maximized="0"
     inkscape:current-layer="Layer_1"
     inkscape:document-rotation="0" /><path
     style="color:#000000;font-style:normal;font-variant:normal;font-weight:normal;font-stretch:normal;font-size:medium;line-height:normal;font-family:sans-serif;font-variant-ligatures:normal;font-variant-position:normal;font-variant-caps:normal;font-variant-numeric:normal;font-variant-alternates:normal;font-feature-settings:normal;text-indent:0;text-align:start;text-decoration:none;text-decoration-line:none;text-decoration-style:solid;text-decoration-color:#000000;letter-spacing:normal;word-spacing:normal;text-transform:none;writing-mode:lr-tb;direction:ltr;text-orientation:mixed;dominant-baseline:auto;baseline-shift:baseline;text-anchor:start;white-space:normal;shape-padding:0;clip-rule:nonzero;display:inline;overflow:visible;visibility:visible;isolation:auto;mix-blend-mode:normal;color-interpolation:sRGB;color-interpolation-filters:linearRGB;solid-color:#000000;solid-opacity:1;vector-effect:none;fill:#ffffff;fill-opacity:1;fill-rule:nonzero;stroke:none;stroke-width:1;stroke-linecap:round;stroke-linejoin:round;stroke-miterlimit:4;stroke-dasharray:none;stroke-dashoffset:0;stroke-opacity:1;marker:none;paint-order:fill markers stroke;color-rendering:auto;image-rendering:auto;shape-rendering:auto;text-rendering:auto;enable-background:accumulate"
     d="M 9.49219,2.992566 A 0.50004997,0.50004997 0 0 0 9,3.500376 v 2.79297 L 6.85352,4.146856 A 0.50004997,0.50004997 0 1 0 6.14648,4.853896 L 9,7.707406 v 0.58203 c -0.58959,0.34718 -0.99219,0.98165 -0.99219,1.71094 H 7.70703 L 4.85352,7.146856 A 0.50004997,0.50004997 0 0 0 4.49414,6.994516 0.50004997,0.50004997 0 0 0 4.14648,7.853896 l 2.14649,2.14648 H 3.5 a 0.50004997,0.50004997 0 1 0 0,1 h 2.79297 l -2.14649,2.14648 a 0.50004997,0.50004997 0 1 0 0.70704,0.70704 l 2.85351,-2.85352 h 0.58203 c 0.34718,0.58959 0.98165,0.99219 1.71094,0.99219 v 0.30078 l -2.85352,2.85351 a 0.50004997,0.50004997 0 1 0 0.70704,0.70704 L 10,13.707406 v 2.79297 a 0.50004997,0.50004997 0 1 0 1,0 v -2.79297 l 2.14648,2.14649 a 0.50004997,0.50004997 0 1 0 0.70704,-0.70704 L 11,12.293346 v -0.58203 c 0.58959,-0.34718 0.99219,-0.98165 0.99219,-1.71094 h 0.30078 l 2.85351,2.85352 a 0.50004997,0.50004997 0 1 0 0.70704,-0.70704 l -2.14649,-2.14648 H 16.5 a 0.50004997,0.50004997 0 1 0 0,-1 h -2.79297 l 2.14649,-2.14648 a 0.50004997,0.50004997 0 0 0 -0.36329,-0.85743 0.50004997,0.50004997 0 0 0 -0.34375,0.15039 l -2.85351,2.85352 H 11.71094 C 11.36376,8.410786 10.72929,8.008186 10,8.008186 v -0.30078 l 2.85352,-2.85351 A 0.50004997,0.50004997 0 1 0 12.14648,4.146856 L 10,6.293346 V 3.500376 A 0.50004997,0.50004997 0 0 0 9.49219,2.992566 Z M 10,9.008186 c 0.55427,0 0.99219,0.43792 0.99219,0.99219 0,0.55427 -0.43792,0.99219 -0.99219,0.99219 -0.55427,0 -0.99219,-0.43792 -0.99219,-0.99219 0,-0.55427 0.43792,-0.99219 0.99219,-0.99219 z"
     id="path14282"
     inkscape:connector-curvature="0" /></svg>
