<svg xmlns="http://www.w3.org/2000/svg" viewBox="0 0 20 20" xml:space="preserve">
    <path d="M10.5 3c-1.485 0-2.853.467-3.861 1.336S5 6.485 5 8v3.5c0 1.667.001 2.823-.89 3.938a.5.5 0 0 0-.11.312v.75a.5.5 0 0 0 .5.5H5c1.049 0 2.137-.634 3.459-2.043l1.668 1.875a.5.5 0 0 0 .746 0l1.627-1.83 1.627 1.83A.5.5 0 0 0 14.5 17h1a.5.5 0 0 0 .5-.5V8c0-1.515-.63-2.795-1.639-3.664C13.353 3.467 11.985 3 10.5 3zM7.492 7a.5.5 0 0 1 .362.146l2 2A.5.5 0 0 1 9.5 10h-2a.5.5 0 0 1-.5-.5v-2a.5.5 0 0 1 .492-.5zm5.992 0a.5.5 0 0 1 .516.5v2a.5.5 0 0 1-.5.5h-2a.5.5 0 0 1-.354-.854l2-2A.5.5 0 0 1 13.484 7z" style="color:#000;font-style:normal;font-variant:normal;font-weight:400;font-stretch:normal;font-size:medium;line-height:normal;font-family:sans-serif;font-variant-ligatures:normal;font-variant-position:normal;font-variant-caps:normal;font-variant-numeric:normal;font-variant-alternates:normal;font-feature-settings:normal;text-indent:0;text-align:start;text-decoration:none;text-decoration-line:none;text-decoration-style:solid;text-decoration-color:#000;letter-spacing:normal;word-spacing:normal;text-transform:none;writing-mode:lr-tb;direction:ltr;text-orientation:mixed;dominant-baseline:auto;baseline-shift:baseline;text-anchor:start;white-space:normal;shape-padding:0;clip-rule:nonzero;display:inline;overflow:visible;visibility:visible;isolation:auto;mix-blend-mode:normal;color-interpolation:sRGB;color-interpolation-filters:linearRGB;solid-color:#000;solid-opacity:1;vector-effect:none;fill:#fff;fill-opacity:1;fill-rule:nonzero;stroke:none;stroke-width:1;stroke-linecap:round;stroke-linejoin:round;stroke-miterlimit:4;stroke-dasharray:none;stroke-dashoffset:0;stroke-opacity:1;marker:none;paint-order:fill markers stroke;color-rendering:auto;image-rendering:auto;shape-rendering:auto;text-rendering:auto;enable-background:accumulate"/>
</svg>
