<svg xmlns="http://www.w3.org/2000/svg" viewBox="0 0 20 20" xml:space="preserve">
    <path d="M7.984 2.5A3.48 3.48 0 0 0 4.5 5.984V9a.5.5 0 0 0 .498.5l4.01.008a.5.5 0 0 0 .5-.5L9.5 3.035V2.998A.5.5 0 0 0 9 2.5zm2.516 0v1h1.516C13.4 3.5 14.5 4.6 14.5 5.984v8.032c0 1.384-1.1 2.484-2.484 2.484H7.984A2.469 2.469 0 0 1 5.5 14.016V10.5h-1v3.516A3.488 3.488 0 0 0 7.984 17.5h4.032a3.488 3.488 0 0 0 3.484-3.484V5.984A3.488 3.488 0 0 0 12.016 2.5z" style="color:#000;font-style:normal;font-variant:normal;font-weight:400;font-stretch:normal;font-size:medium;line-height:normal;font-family:sans-serif;font-variant-ligatures:normal;font-variant-position:normal;font-variant-caps:normal;font-variant-numeric:normal;font-variant-alternates:normal;font-feature-settings:normal;text-indent:0;text-align:start;text-decoration:none;text-decoration-line:none;text-decoration-style:solid;text-decoration-color:#000;letter-spacing:normal;word-spacing:normal;text-transform:none;writing-mode:lr-tb;direction:ltr;text-orientation:mixed;dominant-baseline:auto;baseline-shift:baseline;text-anchor:start;white-space:normal;shape-padding:0;clip-rule:nonzero;display:inline;overflow:visible;visibility:visible;isolation:auto;mix-blend-mode:normal;color-interpolation:sRGB;color-interpolation-filters:linearRGB;solid-color:#000;solid-opacity:1;vector-effect:none;fill:#fff;fill-opacity:1;fill-rule:nonzero;stroke:none;stroke-width:1;stroke-linecap:butt;stroke-linejoin:round;stroke-miterlimit:4;stroke-dasharray:none;stroke-dashoffset:0;stroke-opacity:1;marker:none;color-rendering:auto;image-rendering:auto;shape-rendering:auto;text-rendering:auto;enable-background:accumulate"/>
</svg>
