<svg xmlns="http://www.w3.org/2000/svg" viewBox="0 0 20 20" xml:space="preserve">
    <g style="display:inline;fill:#fff;enable-background:new">
        <g style="fill:#fff">
            <path style="color:#000;font-style:normal;font-variant:normal;font-weight:400;font-stretch:normal;font-size:medium;line-height:normal;font-family:sans-serif;font-variant-ligatures:normal;font-variant-position:normal;font-variant-caps:normal;font-variant-numeric:normal;font-variant-alternates:normal;font-feature-settings:normal;text-indent:0;text-align:start;text-decoration:none;text-decoration-line:none;text-decoration-style:solid;text-decoration-color:#000;letter-spacing:normal;word-spacing:normal;text-transform:none;writing-mode:lr-tb;direction:ltr;text-orientation:mixed;dominant-baseline:auto;baseline-shift:baseline;text-anchor:start;white-space:normal;shape-padding:0;clip-rule:nonzero;display:inline;overflow:visible;visibility:visible;opacity:1;isolation:auto;mix-blend-mode:normal;color-interpolation:sRGB;color-interpolation-filters:linearRGB;solid-color:#000;solid-opacity:1;vector-effect:none;fill:#fff;fill-opacity:1;fill-rule:nonzero;stroke:none;stroke-width:1px;stroke-linecap:round;stroke-linejoin:round;stroke-miterlimit:4;stroke-dasharray:none;stroke-dashoffset:0;stroke-opacity:1;marker:none;color-rendering:auto;image-rendering:auto;shape-rendering:auto;text-rendering:auto;enable-background:accumulate" d="M386.486 221a.5.5 0 0 0-.492.508v7.556a2.505 2.505 0 0 0-1.994 2.444 2.501 2.501 0 0 0 2.494 2.494 2.501 2.501 0 0 0 2.494-2.494c0-1.201-.859-2.21-1.994-2.444v-7.556a.5.5 0 0 0-.508-.508zm1.008 1.008v3h1a.5.5 0 0 0 .5-.5v-2a.5.5 0 0 0-.5-.5zm-1 8.006c.832 0 1.494.662 1.494 1.494 0 .831-.662 1.494-1.494 1.494a1.486 1.486 0 0 1-1.494-1.494c0-.832.663-1.494 1.494-1.494z" transform="translate(-380.997 -218.007)"/>
        </g>
        <g style="display:inline;opacity:.7;fill:#fff;enable-background:new">
            <path style="color:#000;font-style:normal;font-variant:normal;font-weight:400;font-stretch:normal;font-size:medium;line-height:normal;font-family:sans-serif;font-variant-ligatures:normal;font-variant-position:normal;font-variant-caps:normal;font-variant-numeric:normal;font-variant-alternates:normal;font-feature-settings:normal;text-indent:0;text-align:start;text-decoration:none;text-decoration-line:none;text-decoration-style:solid;text-decoration-color:#000;letter-spacing:normal;word-spacing:normal;text-transform:none;writing-mode:lr-tb;direction:ltr;text-orientation:mixed;dominant-baseline:auto;baseline-shift:baseline;text-anchor:start;white-space:normal;shape-padding:0;clip-rule:nonzero;display:inline;overflow:visible;visibility:visible;opacity:1;isolation:auto;mix-blend-mode:normal;color-interpolation:sRGB;color-interpolation-filters:linearRGB;solid-color:#000;solid-opacity:1;vector-effect:none;fill:#fff;fill-opacity:1;fill-rule:nonzero;stroke:none;stroke-width:1px;stroke-linecap:butt;stroke-linejoin:round;stroke-miterlimit:4;stroke-dasharray:none;stroke-dashoffset:0;stroke-opacity:1;color-rendering:auto;image-rendering:auto;shape-rendering:auto;text-rendering:auto;enable-background:accumulate" d="m-97.896 538.396-1.708 1.708.75.75a.5.5 0 0 0 .708 0l.525-.526.475-.474a.5.5 0 0 0 0-.708zm-.615-1.4a.5.5 0 0 0-.343.151l-4.412 4.41a2.996 2.996 0 0 0-1.315-.527.5.5 0 0 0-.1-.006.5.5 0 0 0-.04.996c.717.101 1.321.58 1.583 1.256a1.998 1.998 0 0 1-2.216 2.693.5.5 0 1 0-.178.985 3.002 3.002 0 0 0 3.328-4.041 2.983 2.983 0 0 0-.353-.65l4.41-4.409a.5.5 0 0 0-.364-.857z" transform="translate(113.997 -530)"/>
        </g>
    </g>
</svg>
