<?xml version="1.0" encoding="UTF-8" standalone="no"?>
<svg
   xmlns:dc="http://purl.org/dc/elements/1.1/"
   xmlns:cc="http://creativecommons.org/ns#"
   xmlns:rdf="http://www.w3.org/1999/02/22-rdf-syntax-ns#"
   xmlns:svg="http://www.w3.org/2000/svg"
   xmlns="http://www.w3.org/2000/svg"
   xmlns:sodipodi="http://sodipodi.sourceforge.net/DTD/sodipodi-0.dtd"
   xmlns:inkscape="http://www.inkscape.org/namespaces/inkscape"
   id="Layer_1"
   x="0"
   y="0"
   enable-background="new 0 0 20 20"
   version="1.1"
   viewBox="0 0 20 20"
   xml:space="preserve"
   sodipodi:docname="bl_icons_522.svg"
   inkscape:version="1.0.2 (e86c870879, 2021-01-15, custom)"><metadata
     id="metadata7"><rdf:RDF><cc:Work
         rdf:about=""><dc:format>image/svg+xml</dc:format><dc:type
           rdf:resource="http://purl.org/dc/dcmitype/StillImage" /><dc:title></dc:title></cc:Work></rdf:RDF></metadata><defs
     id="defs5" /><sodipodi:namedview
     pagecolor="#808080"
     bordercolor="#666666"
     borderopacity="1"
     objecttolerance="10"
     gridtolerance="10"
     guidetolerance="10"
     inkscape:pageopacity="0"
     inkscape:pageshadow="2"
     inkscape:window-width="1750"
     inkscape:window-height="991"
     id="namedview3"
     showgrid="false"
     inkscape:pagecheckerboard="true"
     inkscape:zoom="25.577418"
     inkscape:cx="-0.44644607"
     inkscape:cy="8.0087009"
     inkscape:window-x="87"
     inkscape:window-y="37"
     inkscape:window-maximized="0"
     inkscape:current-layer="Layer_1"
     inkscape:document-rotation="0" /><g
     transform="translate(369.50003,-1844.5022)"
     style="display:inline;fill:#ffffff;enable-background:new"
     id="g24304"><path
       style="display:inline;opacity:0.7;vector-effect:none;fill:#ffffff;fill-opacity:1;stroke:none;stroke-width:1;stroke-linecap:round;stroke-linejoin:round;stroke-miterlimit:3.7;stroke-dasharray:none;stroke-dashoffset:0;stroke-opacity:1;marker:none;enable-background:new"
       d="m -356.5,1850 c -0.8225,0 -1.5,0.6775 -1.5,1.5 0,0.8225 0.6775,1.5 1.5,1.5 0.8225,0 1.5,-0.6775 1.5,-1.5 0,-0.8225 -0.6775,-1.5 -1.5,-1.5 z m 0,1 c 0.28206,0 0.5,0.2179 0.5,0.5 0,0.2821 -0.21794,0.5 -0.5,0.5 -0.28206,0 -0.5,-0.2179 -0.5,-0.5 0,-0.2821 0.21794,-0.5 0.5,-0.5 z m -7,1 a 0.5,0.5 0 0 0 -0.5,0.5 0.5,0.5 0 0 0 0.5,0.5 0.5,0.5 0 0 0 0.5,-0.5 0.5,0.5 0 0 0 -0.5,-0.5 z"
       id="path24284"
       inkscape:connector-curvature="0" /><path
       id="path24300"
       style="color:#000000;font-style:normal;font-variant:normal;font-weight:normal;font-stretch:normal;font-size:medium;line-height:normal;font-family:sans-serif;font-variant-ligatures:normal;font-variant-position:normal;font-variant-caps:normal;font-variant-numeric:normal;font-variant-alternates:normal;font-feature-settings:normal;text-indent:0;text-align:start;text-decoration:none;text-decoration-line:none;text-decoration-style:solid;text-decoration-color:#000000;letter-spacing:normal;word-spacing:normal;text-transform:none;writing-mode:lr-tb;direction:ltr;text-orientation:mixed;dominant-baseline:auto;baseline-shift:baseline;text-anchor:start;white-space:normal;shape-padding:0;clip-rule:nonzero;display:inline;overflow:visible;visibility:visible;opacity:1;isolation:auto;mix-blend-mode:normal;color-interpolation:sRGB;color-interpolation-filters:linearRGB;solid-color:#000000;solid-opacity:1;vector-effect:none;fill:#ffffff;fill-opacity:1;fill-rule:nonzero;stroke:none;stroke-width:1;stroke-linecap:round;stroke-linejoin:round;stroke-miterlimit:4;stroke-dasharray:none;stroke-dashoffset:0.5;stroke-opacity:1;marker:none;color-rendering:auto;image-rendering:auto;shape-rendering:auto;text-rendering:auto;enable-background:new"
       d="m -357.5,1856.0041 h 0.49805 c 3.5943,0 5.00195,-2.5001 5.00195,-4.5001 v 0 c 0,-2.4794 -2.02064,-4.5 -4.5,-4.5 -1.88915,0 -3.45662,1.2594 -4.10547,3 h -0.51758 c -0.64602,-0.6132 -1.47755,-0.9979 -2.375,-1 h -0.002 c -1.92707,0 -3.5,1.5729 -3.5,3.5 0,1.9271 1.57293,3.5 3.5,3.5 z m -6,-1.0041 c -1.38663,0 -2.5,-1.1134 -2.5,-2.5 0,-1.386 1.11233,-2.4989 2.49805,-2.5 0.71036,0 1.38608,0.3048 1.85937,0.834 0.0951,0.1059 0.23074,0.1663 0.37305,0.166 h 0.90234 c 0.22809,10e-5 0.42734,-0.1542 0.48438,-0.375 0.39914,-1.5459 1.78609,-2.6224 3.38281,-2.625 1.93892,0 3.5,1.5611 3.5,3.5 0,1.9279 -1.54523,3.4765 -3.46875,3.4941 -0.0392,0 -0.0785,-6e-4 -0.11719,0.01 H -357.5 Z m -1.00781,1.9922 c -0.27614,0 -0.4965,0.2317 -0.49219,0.5078 v 1 1 c 0.009,0.6573 0.9907,0.6573 1,0 v -0.5 h 1 v 1.5 c 3e-5,0.1326 0.0527,0.2597 0.14648,0.3535 l 1,1 c 0.0937,0.094 0.22092,0.1465 0.35352,0.1465 h 5 c 0.27613,0 0.49997,-0.2239 0.5,-0.5 v -1.5039 h 0.33594 l 2.61914,1.9043 c 0.0852,0.064 0.18852,0.099 0.29492,0.1 h 0.25 c 0.27613,0 0.49997,-0.2239 0.5,-0.5 v -4 c -3e-5,-0.2761 -0.22387,-0.5 -0.5,-0.5 h -0.25 c -0.106,-10e-5 -0.20927,0.034 -0.29492,0.096 L -355.66211,1859 H -356 v -2 h -1 v 4 h -4.29297 L -362,1860.293 V 1857 h -1 v 1 h -1 v -0.5 c 0.004,-0.2823 -0.22555,-0.5122 -0.50781,-0.5078 z M -353,1858.3008 v 2.3984 l -1.65039,-1.1992 z"
       inkscape:connector-curvature="0"
       sodipodi:nodetypes="csssscccsscccsccccccscccccccccccccccccccccsccsccccccccccccccccccc" /><path
       inkscape:connector-curvature="0"
       style="display:inline;opacity:0.6;vector-effect:none;fill:#ffffff;fill-opacity:1;stroke:none;stroke-width:1;stroke-linecap:butt;stroke-linejoin:round;stroke-miterlimit:4;stroke-dasharray:none;stroke-dashoffset:0;stroke-opacity:1;marker:none;paint-order:fill markers stroke;enable-background:new"
       d="m -362,1857 h 5 v 1 h -5 z"
       id="path24302" /></g></svg>
