<?xml version="1.0" encoding="UTF-8" standalone="no"?>
<svg
   xmlns:dc="http://purl.org/dc/elements/1.1/"
   xmlns:cc="http://creativecommons.org/ns#"
   xmlns:rdf="http://www.w3.org/1999/02/22-rdf-syntax-ns#"
   xmlns:svg="http://www.w3.org/2000/svg"
   xmlns="http://www.w3.org/2000/svg"
   xmlns:sodipodi="http://sodipodi.sourceforge.net/DTD/sodipodi-0.dtd"
   xmlns:inkscape="http://www.inkscape.org/namespaces/inkscape"
   id="Layer_1"
   x="0"
   y="0"
   enable-background="new 0 0 20 20"
   version="1.1"
   viewBox="0 0 20 20"
   xml:space="preserve"
   sodipodi:docname="bl_icons_542.svg"
   inkscape:version="1.0.2 (e86c870879, 2021-01-15, custom)"><metadata
     id="metadata7"><rdf:RDF><cc:Work
         rdf:about=""><dc:format>image/svg+xml</dc:format><dc:type
           rdf:resource="http://purl.org/dc/dcmitype/StillImage" /><dc:title></dc:title></cc:Work></rdf:RDF></metadata><defs
     id="defs5" /><sodipodi:namedview
     pagecolor="#808080"
     bordercolor="#666666"
     borderopacity="1"
     objecttolerance="10"
     gridtolerance="10"
     guidetolerance="10"
     inkscape:pageopacity="0"
     inkscape:pageshadow="2"
     inkscape:window-width="1750"
     inkscape:window-height="991"
     id="namedview3"
     showgrid="false"
     inkscape:pagecheckerboard="true"
     inkscape:zoom="25.577418"
     inkscape:cx="6.4972471"
     inkscape:cy="8.3115701"
     inkscape:window-x="87"
     inkscape:window-y="37"
     inkscape:window-maximized="0"
     inkscape:current-layer="Layer_1"
     inkscape:document-rotation="0" /><g
     style="display:inline;fill:#ffffff;enable-background:new"
     id="g19653"
     transform="translate(-756.98089,-470.01354)"><path
       style="color:#000000;font-style:normal;font-variant:normal;font-weight:normal;font-stretch:normal;font-size:medium;line-height:normal;font-family:sans-serif;font-variant-ligatures:normal;font-variant-position:normal;font-variant-caps:normal;font-variant-numeric:normal;font-variant-alternates:normal;font-feature-settings:normal;text-indent:0;text-align:start;text-decoration:none;text-decoration-line:none;text-decoration-style:solid;text-decoration-color:#000000;letter-spacing:normal;word-spacing:normal;text-transform:none;writing-mode:lr-tb;direction:ltr;text-orientation:mixed;dominant-baseline:auto;baseline-shift:baseline;text-anchor:start;white-space:normal;shape-padding:0;clip-rule:nonzero;display:inline;overflow:visible;visibility:visible;opacity:1;isolation:auto;mix-blend-mode:normal;color-interpolation:sRGB;color-interpolation-filters:linearRGB;solid-color:#000000;solid-opacity:1;vector-effect:none;fill:#ffffff;fill-opacity:1;fill-rule:nonzero;stroke:none;stroke-width:1;stroke-linecap:round;stroke-linejoin:round;stroke-miterlimit:4;stroke-dasharray:none;stroke-dashoffset:0;stroke-opacity:1;marker:none;color-rendering:auto;image-rendering:auto;shape-rendering:auto;text-rendering:auto;enable-background:accumulate"
       d="m 143.13867,515.0332 c -0.49613,-0.0451 -1.03862,0.15972 -1.49219,0.61328 l -1.75,1.75 c -0.19519,0.19527 -0.19519,0.51177 0,0.70704 l 3,3 c 0.19527,0.19519 0.51177,0.19519 0.70704,0 l 1.75,-1.75 c 0.45356,-0.45357 0.65838,-0.99606 0.61328,-1.49219 -0.0451,-0.49613 -0.30436,-0.90592 -0.61328,-1.21485 l -1,-1 c -0.30893,-0.30892 -0.71872,-0.56817 -1.21485,-0.61328 z m -4.39648,3.7168 a 0.50005,0.50005 0 0 0 -0.34571,0.14648 l -0.25,0.25 a 0.50005,0.50005 0 0 0 0,0.70704 l 3,3 a 0.50005,0.50005 0 0 0 0.70704,0 l 0.25,-0.25 a 0.50005,0.50005 0 0 0 0,-0.70704 l -3,-3 A 0.50005,0.50005 0 0 0 138.74219,518.75 Z m -1.25196,2.24609 a 0.50005,0.50005 0 0 0 -0.34375,0.15039 l -4.25,4.25 c -0.83838,0.83839 -1.06879,1.7573 -0.80273,2.4668 C 132.35981,528.57278 133.04167,529 133.75,529 H 138 c 1.00042,0 2,-0.79793 2,-2 v -3.5 a 0.50005,0.50005 0 1 0 -1,0 v 3.5 c 0,0.66505 -0.50442,1 -1,1 h -4.25 c -0.29167,0 -0.60981,-0.19778 -0.71875,-0.48828 -0.10894,-0.2905 -0.0893,-0.74659 0.57227,-1.4082 l 4.25,-4.25 a 0.50005,0.50005 0 0 0 -0.36329,-0.85743 z"
       transform="translate(628,-42.000005)"
       id="path19637"
       inkscape:connector-curvature="0" /><g
       style="display:inline;fill:#ffffff;enable-background:new"
       inkscape:export-ydpi="96"
       inkscape:export-xdpi="96"
       inkscape:export-filename="C:\Users\Andrzej Ambroż\Desktop\mtrx.png"
       transform="translate(418)"
       id="g19647" /></g></svg>
