<?xml version="1.0" encoding="UTF-8" standalone="no"?>
<svg
   xmlns:dc="http://purl.org/dc/elements/1.1/"
   xmlns:cc="http://creativecommons.org/ns#"
   xmlns:rdf="http://www.w3.org/1999/02/22-rdf-syntax-ns#"
   xmlns:svg="http://www.w3.org/2000/svg"
   xmlns="http://www.w3.org/2000/svg"
   xmlns:sodipodi="http://sodipodi.sourceforge.net/DTD/sodipodi-0.dtd"
   xmlns:inkscape="http://www.inkscape.org/namespaces/inkscape"
   id="Layer_1"
   x="0"
   y="0"
   enable-background="new 0 0 20 20"
   version="1.1"
   viewBox="0 0 20 20"
   xml:space="preserve"
   sodipodi:docname="bl_icons_644.svg"
   inkscape:version="1.0.2 (e86c870879, 2021-01-15, custom)"><metadata
     id="metadata7"><rdf:RDF><cc:Work
         rdf:about=""><dc:format>image/svg+xml</dc:format><dc:type
           rdf:resource="http://purl.org/dc/dcmitype/StillImage" /><dc:title></dc:title></cc:Work></rdf:RDF></metadata><defs
     id="defs5" /><sodipodi:namedview
     pagecolor="#808080"
     bordercolor="#666666"
     borderopacity="1"
     objecttolerance="10"
     gridtolerance="10"
     guidetolerance="10"
     inkscape:pageopacity="0"
     inkscape:pageshadow="2"
     inkscape:window-width="1750"
     inkscape:window-height="991"
     id="namedview3"
     showgrid="false"
     inkscape:pagecheckerboard="true"
     inkscape:zoom="25.577418"
     inkscape:cx="-0.44644607"
     inkscape:cy="8.0087009"
     inkscape:window-x="87"
     inkscape:window-y="37"
     inkscape:window-maximized="0"
     inkscape:current-layer="Layer_1"
     inkscape:document-rotation="0" /><g
     transform="translate(-24,-617)"
     inkscape:export-ydpi="96"
     inkscape:export-xdpi="96"
     inkscape:export-filename="C:\Users\Andrzej Ambroż\Desktop\mtrx.png"
     id="g20495"
     style="display:inline;fill:#ffffff;enable-background:new"><g
       transform="translate(-189,588)"
       id="g20491"
       style="fill:#ffffff" /><path
       id="path20493"
       style="color:#000000;font-style:normal;font-variant:normal;font-weight:normal;font-stretch:normal;font-size:medium;line-height:normal;font-family:sans-serif;font-variant-ligatures:normal;font-variant-position:normal;font-variant-caps:normal;font-variant-numeric:normal;font-variant-alternates:normal;font-feature-settings:normal;text-indent:0;text-align:start;text-decoration:none;text-decoration-line:none;text-decoration-style:solid;text-decoration-color:#000000;letter-spacing:normal;word-spacing:normal;text-transform:none;writing-mode:lr-tb;direction:ltr;text-orientation:mixed;dominant-baseline:auto;baseline-shift:baseline;text-anchor:start;white-space:normal;shape-padding:0;clip-rule:nonzero;display:inline;overflow:visible;visibility:visible;opacity:1;isolation:auto;mix-blend-mode:normal;color-interpolation:sRGB;color-interpolation-filters:linearRGB;solid-color:#000000;solid-opacity:1;vector-effect:none;fill:#ffffff;fill-opacity:1;fill-rule:nonzero;stroke:none;stroke-width:2;stroke-linecap:butt;stroke-linejoin:round;stroke-miterlimit:4;stroke-dasharray:none;stroke-dashoffset:0;stroke-opacity:1;marker:none;color-rendering:auto;image-rendering:auto;shape-rendering:auto;text-rendering:auto;enable-background:accumulate"
       d="m 34,622 c -1.783333,0 -3,1.5 -3,3 h 2 c 0,-0.5 0.283333,-1 1,-1 0.716667,0 1,0.5 1,1 0,0.24702 -0.03644,0.30082 -0.117188,0.41016 -0.08074,0.10934 -0.253932,0.25966 -0.513671,0.4707 C 33.849662,626.30294 33,627.16667 33,628.5 v 0.5 h 2 v -0.5 c 0,-0.66667 0.150338,-0.67794 0.630859,-1.06836 0.240261,-0.19521 0.567072,-0.43551 0.861329,-0.83398 C 36.786444,626.19918 37,625.62798 37,625 c 0,-1.5 -1.216667,-3 -3,-3 z m -1,8.00009 h 2 v 2 H 33 Z M 34,620 c -3.86007,0 -7,3.13991 -7,7 0,3.86009 3.13993,7 7,7 3.86008,0 7,-3.13991 7,-7 0,-3.86009 -3.13992,-7 -7,-7 z m 0,1 c 3.31964,0 6,2.68035 6,6 0,3.31965 -2.68036,6 -6,6 -3.31963,0 -6,-2.68035 -6,-6 0,-3.31965 2.68037,-6 6,-6 z"
       inkscape:connector-curvature="0" /></g></svg>
