<?xml version="1.0" encoding="UTF-8" standalone="no"?>
<svg
   xmlns:dc="http://purl.org/dc/elements/1.1/"
   xmlns:cc="http://creativecommons.org/ns#"
   xmlns:rdf="http://www.w3.org/1999/02/22-rdf-syntax-ns#"
   xmlns:svg="http://www.w3.org/2000/svg"
   xmlns="http://www.w3.org/2000/svg"
   xmlns:sodipodi="http://sodipodi.sourceforge.net/DTD/sodipodi-0.dtd"
   xmlns:inkscape="http://www.inkscape.org/namespaces/inkscape"
   id="Layer_1"
   x="0"
   y="0"
   enable-background="new 0 0 20 20"
   version="1.1"
   viewBox="0 0 20 20"
   xml:space="preserve"
   sodipodi:docname="bl_icons_553.svg"
   inkscape:version="1.0.2 (e86c870879, 2021-01-15, custom)"><metadata
     id="metadata7"><rdf:RDF><cc:Work
         rdf:about=""><dc:format>image/svg+xml</dc:format><dc:type
           rdf:resource="http://purl.org/dc/dcmitype/StillImage" /><dc:title></dc:title></cc:Work></rdf:RDF></metadata><defs
     id="defs5" /><sodipodi:namedview
     pagecolor="#808080"
     bordercolor="#666666"
     borderopacity="1"
     objecttolerance="10"
     gridtolerance="10"
     guidetolerance="10"
     inkscape:pageopacity="0"
     inkscape:pageshadow="2"
     inkscape:window-width="1750"
     inkscape:window-height="991"
     id="namedview3"
     showgrid="false"
     inkscape:pagecheckerboard="true"
     inkscape:zoom="25.577418"
     inkscape:cx="-0.44644607"
     inkscape:cy="8.0087009"
     inkscape:window-x="87"
     inkscape:window-y="37"
     inkscape:window-maximized="0"
     inkscape:current-layer="Layer_1"
     inkscape:document-rotation="0" /><g
     style="display:inline;fill:#ffffff;enable-background:new"
     id="g14371"
     transform="matrix(1,0,0,-1,-171.49996,-18)"><g
       transform="matrix(1,0,0,-1,0,-99.00505)"
       id="g14352"
       style="fill:#ffffff"><path
         style="color:#000000;font-style:normal;font-variant:normal;font-weight:normal;font-stretch:normal;font-size:medium;line-height:normal;font-family:sans-serif;font-variant-ligatures:normal;font-variant-position:normal;font-variant-caps:normal;font-variant-numeric:normal;font-variant-alternates:normal;font-feature-settings:normal;text-indent:0;text-align:start;text-decoration:none;text-decoration-line:none;text-decoration-style:solid;text-decoration-color:#000000;letter-spacing:normal;word-spacing:normal;text-transform:none;writing-mode:lr-tb;direction:ltr;text-orientation:mixed;dominant-baseline:auto;baseline-shift:baseline;text-anchor:start;white-space:normal;shape-padding:0;clip-rule:nonzero;display:inline;overflow:visible;visibility:visible;opacity:1;isolation:auto;mix-blend-mode:normal;color-interpolation:sRGB;color-interpolation-filters:linearRGB;solid-color:#000000;solid-opacity:1;vector-effect:none;fill:#ffffff;fill-opacity:1;fill-rule:nonzero;stroke:none;stroke-width:1;stroke-linecap:round;stroke-linejoin:round;stroke-miterlimit:4;stroke-dasharray:none;stroke-dashoffset:0;stroke-opacity:1;marker:none;paint-order:fill markers stroke;color-rendering:auto;image-rendering:auto;shape-rendering:auto;text-rendering:auto;enable-background:accumulate"
         d="m 520.49414,515 a 0.50005,0.50005 0 0 0 -0.34766,0.85938 l 2.64649,2.64648 -2.64649,2.64648 a 0.50005,0.50005 0 1 0 0.70704,0.70704 l 3,-3 a 0.50005,0.50005 0 0 0 0,-0.70704 l -3,-3 A 0.50005,0.50005 0 0 0 520.49414,515 Z m 0.0332,2.99414 a 0.50005,0.50005 0 0 0 -0.14843,0.0215 l -1,0.25 a 0.50005,0.50005 0 0 0 0.0937,0.98633 0.50005,0.50005 0 0 0 0.14843,-0.0176 l 1,-0.25 a 0.50005,0.50005 0 0 0 -0.0937,-0.99024 z m -3,0.75 a 0.50005,0.50005 0 0 0 -0.14843,0.0215 l -1,0.25 a 0.50005,0.50005 0 0 0 0.0937,0.98633 0.50005,0.50005 0 0 0 0.14843,-0.0176 l 1,-0.25 a 0.50005,0.50005 0 0 0 -0.0937,-0.99024 z m -3.02343,1.24805 a 0.50005,0.50005 0 0 0 -0.35743,0.15429 l -1,1 a 0.50005,0.50005 0 0 0 0.34766,0.85938 0.50005,0.50005 0 0 0 0.35938,-0.15234 l 1,-1 a 0.50005,0.50005 0 0 0 -0.34961,-0.86133 z m -1.9961,3 A 0.50005,0.50005 0 0 0 512,523.5 v 1 a 0.50005,0.50005 0 0 0 0.49219,0.50781 A 0.50005,0.50005 0 0 0 513,524.5 v -1 a 0.50005,0.50005 0 0 0 -0.49219,-0.50781 z"
         transform="translate(-336,-593.00505)"
         id="path14350"
         inkscape:connector-curvature="0" /></g><path
       style="color:#000000;font-style:normal;font-variant:normal;font-weight:normal;font-stretch:normal;font-size:medium;line-height:normal;font-family:sans-serif;font-variant-ligatures:normal;font-variant-position:normal;font-variant-caps:normal;font-variant-numeric:normal;font-variant-alternates:normal;font-feature-settings:normal;text-indent:0;text-align:start;text-decoration:none;text-decoration-line:none;text-decoration-style:solid;text-decoration-color:#000000;letter-spacing:normal;word-spacing:normal;text-transform:none;writing-mode:lr-tb;direction:ltr;text-orientation:mixed;dominant-baseline:auto;baseline-shift:baseline;text-anchor:start;white-space:normal;shape-padding:0;clip-rule:nonzero;display:inline;overflow:visible;visibility:visible;opacity:1;isolation:auto;mix-blend-mode:normal;color-interpolation:sRGB;color-interpolation-filters:linearRGB;solid-color:#000000;solid-opacity:1;vector-effect:none;fill:#ffffff;fill-opacity:1;fill-rule:nonzero;stroke:none;stroke-width:1;stroke-linecap:round;stroke-linejoin:round;stroke-miterlimit:4;stroke-dasharray:none;stroke-dashoffset:0;stroke-opacity:1;marker:none;paint-order:fill markers stroke;color-rendering:auto;image-rendering:auto;shape-rendering:auto;text-rendering:auto;enable-background:new"
       d="m 176.5,-32 c 0.8225,0 1.5,-0.677495 1.5,-1.5 0,-0.822505 -0.6775,-1.5 -1.5,-1.5 -0.8225,0 -1.5,0.677495 -1.5,1.5 0,0.822505 0.6775,1.5 1.5,1.5 z"
       id="circle14357"
       inkscape:connector-curvature="0"
       sodipodi:nodetypes="sssss" /></g></svg>
