<?xml version="1.0" encoding="UTF-8" standalone="no"?>
<svg
   xmlns:dc="http://purl.org/dc/elements/1.1/"
   xmlns:cc="http://creativecommons.org/ns#"
   xmlns:rdf="http://www.w3.org/1999/02/22-rdf-syntax-ns#"
   xmlns:svg="http://www.w3.org/2000/svg"
   xmlns="http://www.w3.org/2000/svg"
   xmlns:sodipodi="http://sodipodi.sourceforge.net/DTD/sodipodi-0.dtd"
   xmlns:inkscape="http://www.inkscape.org/namespaces/inkscape"
   id="Layer_1"
   x="0"
   y="0"
   enable-background="new 0 0 20 20"
   version="1.1"
   viewBox="0 0 20 20"
   xml:space="preserve"
   sodipodi:docname="bl_icons_564.svg"
   inkscape:version="1.0.2 (e86c870879, 2021-01-15, custom)"><metadata
     id="metadata7"><rdf:RDF><cc:Work
         rdf:about=""><dc:format>image/svg+xml</dc:format><dc:type
           rdf:resource="http://purl.org/dc/dcmitype/StillImage" /><dc:title></dc:title></cc:Work></rdf:RDF></metadata><defs
     id="defs5" /><sodipodi:namedview
     pagecolor="#808080"
     bordercolor="#666666"
     borderopacity="1"
     objecttolerance="10"
     gridtolerance="10"
     guidetolerance="10"
     inkscape:pageopacity="0"
     inkscape:pageshadow="2"
     inkscape:window-width="1750"
     inkscape:window-height="991"
     id="namedview3"
     showgrid="false"
     inkscape:pagecheckerboard="true"
     inkscape:zoom="25.577418"
     inkscape:cx="-0.44644607"
     inkscape:cy="8.0087009"
     inkscape:window-x="87"
     inkscape:window-y="37"
     inkscape:window-maximized="0"
     inkscape:current-layer="Layer_1"
     inkscape:document-rotation="0" /><g
     transform="translate(-487.03126,-92.999936)"
     style="display:inline;opacity:0.99;fill:#ffffff;enable-background:new"
     id="g13513"
     inkscape:export-filename="C:\Users\Andrzej Ambroż\Desktop\mtrx.png"
     inkscape:export-xdpi="96"
     inkscape:export-ydpi="96"><path
       style="display:inline;overflow:visible;visibility:visible;opacity:1;fill:#ffffff;fill-opacity:1;fill-rule:nonzero;stroke:none;stroke-width:0.755428px;marker:none;enable-background:accumulate"
       d="m 220.5,536 a 0.50005,0.50005 0 0 0 -0.5,0.5 v 9.64062 a 1.8365096,2.6222708 64.987834 0 0 -1.98242,0.0723 1.8365096,2.6222708 64.987834 0 0 -1.9707,2.68555 1.8365096,2.6222708 64.987834 0 0 2.93554,0.88867 1.8365096,2.6222708 64.987834 0 0 2.00977,-2.18945 A 0.50005,0.50005 0 0 0 221,547.5 V 547.47461 538 h 8 v 7.14062 a 1.8365125,2.6222911 64.988434 0 0 -1.98242,0.0723 1.8365125,2.6222911 64.988434 0 0 -1.9707,2.68555 1.8365125,2.6222911 64.988434 0 0 2.93554,0.88867 1.8365125,2.6222911 64.988434 0 0 2.00977,-2.18945 A 0.50005,0.50005 0 0 0 230,546.5 v -10 a 0.50005,0.50005 0 0 0 -0.5,-0.5 z"
       transform="translate(274.03132,-440.00025)"
       id="ellipse13504"
       inkscape:connector-curvature="0" /></g></svg>
