<svg xmlns="http://www.w3.org/2000/svg" viewBox="0 0 20 20" xml:space="preserve">
    <g style="display:inline;fill:#fff;enable-background:new">
        <path style="color:#000;font-style:normal;font-variant:normal;font-weight:400;font-stretch:normal;font-size:medium;line-height:normal;font-family:sans-serif;font-variant-ligatures:normal;font-variant-position:normal;font-variant-caps:normal;font-variant-numeric:normal;font-variant-alternates:normal;font-feature-settings:normal;text-indent:0;text-align:start;text-decoration:none;text-decoration-line:none;text-decoration-style:solid;text-decoration-color:#000;letter-spacing:normal;word-spacing:normal;text-transform:none;writing-mode:lr-tb;direction:ltr;text-orientation:mixed;dominant-baseline:auto;baseline-shift:baseline;text-anchor:start;white-space:normal;shape-padding:0;clip-rule:nonzero;display:inline;overflow:visible;visibility:visible;opacity:1;isolation:auto;mix-blend-mode:normal;color-interpolation:sRGB;color-interpolation-filters:linearRGB;solid-color:#000;solid-opacity:1;vector-effect:none;fill:#fff;fill-opacity:1;fill-rule:nonzero;stroke:none;stroke-width:1;stroke-linecap:round;stroke-linejoin:miter;stroke-miterlimit:4;stroke-dasharray:none;stroke-dashoffset:2.2;stroke-opacity:1;color-rendering:auto;image-rendering:auto;shape-rendering:auto;text-rendering:auto;enable-background:new" d="M552.5 621a.5.5 0 1 0 0 1h1.992a.5.5 0 1 0 0-1zm4.023 0a.5.5 0 1 0 0 1h1.916a.5.5 0 1 0 0-1zm3.971 0a.5.5 0 1 0 0 1h1.998a.5.5 0 1 0 0-1zm3.998 0a.5.5 0 1 0 0 1h1a.5.5 0 1 0 0-1zm-11.992 3a.5.5 0 1 0 0 1h1a.5.5 0 1 0 0-1zm3 0a.5.5 0 1 0 0 1h1.998a.5.5 0 1 0 0-1zm4.053 0a.5.5 0 1 0 0 1h1.918a.5.5 0 1 0 0-1zm3.947 0a.5.5 0 1 0 0 1h1.992a.5.5 0 1 0 0-1zm-11 3a.5.5 0 1 0 0 1h1.992a.5.5 0 1 0 0-1zm4.023 0a.5.5 0 1 0 0 1h1.916a.5.5 0 1 0 0-1zm3.971 0a.5.5 0 1 0 0 1h1.998a.5.5 0 1 0 0-1zm3.998 0a.5.5 0 1 0 0 1h1a.5.5 0 1 0 0-1zm-11.992 3a.5.5 0 1 0 0 1h1a.5.5 0 1 0 0-1zm3 0a.5.5 0 1 0 0 1h1.998a.5.5 0 1 0 0-1zm4.053 0a.5.5 0 1 0 0 1h1.918a.5.5 0 1 0 0-1zm3.947 0a.5.5 0 1 0 0 1h1.992a.5.5 0 1 0 0-1zm-11 3a.5.5 0 1 0 0 1h1.992a.5.5 0 1 0 0-1zm4.023 0a.5.5 0 1 0 0 1h1.916a.5.5 0 1 0 0-1zm3.971 0a.5.5 0 1 0 0 1h1.998a.5.5 0 1 0 0-1zm3.998 0a.5.5 0 1 0 0 1h1a.5.5 0 1 0 0-1z" transform="translate(-548.996 -617.5)"/>
    </g>
</svg>
