<svg xmlns="http://www.w3.org/2000/svg" viewBox="0 0 20 20" xml:space="preserve">
    <path style="color:#000;font-style:normal;font-variant:normal;font-weight:400;font-stretch:normal;font-size:medium;line-height:normal;font-family:sans-serif;font-variant-ligatures:normal;font-variant-position:normal;font-variant-caps:normal;font-variant-numeric:normal;font-variant-alternates:normal;font-feature-settings:normal;text-indent:0;text-align:start;text-decoration:none;text-decoration-line:none;text-decoration-style:solid;text-decoration-color:#000;letter-spacing:normal;word-spacing:normal;text-transform:none;writing-mode:lr-tb;direction:ltr;text-orientation:mixed;dominant-baseline:auto;baseline-shift:baseline;text-anchor:start;white-space:normal;shape-padding:0;clip-rule:nonzero;display:inline;overflow:visible;visibility:visible;isolation:auto;mix-blend-mode:normal;color-interpolation:sRGB;color-interpolation-filters:linearRGB;solid-color:#000;solid-opacity:1;vector-effect:none;fill:#fff;fill-opacity:1;fill-rule:nonzero;stroke:none;stroke-width:1px;stroke-linecap:round;stroke-linejoin:round;stroke-miterlimit:4;stroke-dasharray:none;stroke-dashoffset:0;stroke-opacity:1;color-rendering:auto;image-rendering:auto;shape-rendering:auto;text-rendering:auto;enable-background:new" d="M8.765 2.995c-1.56 0-2.838.685-4 1.322a.5.5 0 0 0-.26.438v1.75c-.002.58.82.698.98.14.548-1.862 2.262-2.699 3.871-2.564.056.003.088.016.143.02 1.594.195 3.006 1.286 3.006 3.654v1.25H8.33c-1.719 0-2.95.486-3.738 1.262-.788.775-1.098 1.803-1.098 2.775 0 1.375.634 2.434 1.58 3.07.946.637 2.167.893 3.43.893 1.613 0 3.426-.642 4.455-1.568.432.429.802.788 1.113 1.039.388.312.751.529 1.182.529h.75c.315 0 .5-.25.5-.5s-.164-.5-.5-.5a.544.544 0 0 1-.334-.166.544.544 0 0 1-.166-.334v-7c0-1.042-.084-2.5-1.084-3.576-1.37-1.476-2.916-1.934-5.656-1.934zm1.24 7.01h2.5v4.49c-.855.62-1.604.957-2.28 1.149-.156.047-.308.06-.466.097-.636.104-1.221.105-1.658-.074-1.01-.414-1.596-1.454-1.596-2.662 0-.639.216-1.396.744-1.977.528-.58 1.367-1.023 2.756-1.023z"/>
</svg>
