<svg xmlns="http://www.w3.org/2000/svg" viewBox="0 0 20 20" xml:space="preserve">
    <path style="color:#000;font-style:normal;font-variant:normal;font-weight:400;font-stretch:normal;font-size:medium;line-height:normal;font-family:sans-serif;font-variant-ligatures:normal;font-variant-position:normal;font-variant-caps:normal;font-variant-numeric:normal;font-variant-alternates:normal;font-feature-settings:normal;text-indent:0;text-align:start;text-decoration:none;text-decoration-line:none;text-decoration-style:solid;text-decoration-color:#000;letter-spacing:normal;word-spacing:normal;text-transform:none;writing-mode:lr-tb;direction:ltr;text-orientation:mixed;dominant-baseline:auto;baseline-shift:baseline;text-anchor:start;white-space:normal;shape-padding:0;clip-rule:nonzero;display:inline;overflow:visible;visibility:visible;isolation:auto;mix-blend-mode:normal;color-interpolation:sRGB;color-interpolation-filters:linearRGB;solid-color:#000;solid-opacity:1;vector-effect:none;fill:#fff;fill-opacity:1;fill-rule:nonzero;stroke:none;stroke-width:3;stroke-linecap:round;stroke-linejoin:miter;stroke-miterlimit:4;stroke-dasharray:none;stroke-dashoffset:0;stroke-opacity:1;color-rendering:auto;image-rendering:auto;shape-rendering:auto;text-rendering:auto;enable-background:new" d="M12.992 3.007c-2.224 0-4.077 1.3-5.123 3.19a8.528 8.528 0 0 1 4.094.043 2.6 2.6 0 0 1 1.029-.233h.5c2.028.029 2.028-3.029 0-3zm-3.059 3.96c-3.698-.076-6.931 2.528-6.931 6.04v1.5c-.029 2.029 3.028 2.029 3 0v-1.5c0-1.754 1.803-3.306 4.326-3.01.373.044.719.118 1.037.215 1.308.4 2.144 1.21 2.477 1.912.229.484.34 1.194-.1 1.633-.495.493-1.25.349-1.893-.053-.704-.44-1.437-1.36-1.752-2.718a4.397 4.397 0 0 0-.607-.024c-1.069.053-1.816.534-2.197 1.131.528 1.851 1.607 3.305 2.967 4.154 1.615 1.01 3.824 1.06 5.336-.253.075-.052.146-.11.21-.174.057-.057.108-.119.155-.184 1.191-1.342 1.311-3.279.592-4.797-.752-1.586-2.282-2.873-4.309-3.494a8.893 8.893 0 0 0-1.566-.328 7.726 7.726 0 0 0-.745-.05z"/>
</svg>
