<?xml version="1.0" encoding="UTF-8" standalone="no"?>
<svg
   xmlns:dc="http://purl.org/dc/elements/1.1/"
   xmlns:cc="http://creativecommons.org/ns#"
   xmlns:rdf="http://www.w3.org/1999/02/22-rdf-syntax-ns#"
   xmlns:svg="http://www.w3.org/2000/svg"
   xmlns="http://www.w3.org/2000/svg"
   xmlns:sodipodi="http://sodipodi.sourceforge.net/DTD/sodipodi-0.dtd"
   xmlns:inkscape="http://www.inkscape.org/namespaces/inkscape"
   id="Layer_1"
   x="0"
   y="0"
   enable-background="new 0 0 20 20"
   version="1.1"
   viewBox="0 0 20 20"
   xml:space="preserve"
   sodipodi:docname="bl_icons_524.svg"
   inkscape:version="1.0.2 (e86c870879, 2021-01-15, custom)"><metadata
     id="metadata7"><rdf:RDF><cc:Work
         rdf:about=""><dc:format>image/svg+xml</dc:format><dc:type
           rdf:resource="http://purl.org/dc/dcmitype/StillImage" /><dc:title></dc:title></cc:Work></rdf:RDF></metadata><defs
     id="defs5" /><sodipodi:namedview
     pagecolor="#808080"
     bordercolor="#666666"
     borderopacity="1"
     objecttolerance="10"
     gridtolerance="10"
     guidetolerance="10"
     inkscape:pageopacity="0"
     inkscape:pageshadow="2"
     inkscape:window-width="1750"
     inkscape:window-height="991"
     id="namedview3"
     showgrid="false"
     inkscape:pagecheckerboard="true"
     inkscape:zoom="25.577418"
     inkscape:cx="-0.44644607"
     inkscape:cy="8.0087009"
     inkscape:window-x="87"
     inkscape:window-y="37"
     inkscape:window-maximized="0"
     inkscape:current-layer="Layer_1"
     inkscape:document-rotation="0" /><path
     inkscape:connector-curvature="0"
     id="path6351"
     d="m 13.555216,3.0171024 c -0.79787,-0.038 -1.57177,0.27684 -2.16015,0.86523 l -1.4863303,1.48828 c -0.61577,0.57533 -0.93433,1.35407 -0.89258,2.1543 a 0.50005,0.50005 0 1 0 0.9980503,-0.0508 c -0.0269,-0.51495 0.15566,-0.98016 0.57617,-1.37305 a 0.50005,0.50005 0 0 0 0.0117,-0.0117 l 1.5,-1.5 c 0.41161,-0.41161 0.88966,-0.59872 1.40429,-0.57422 0.51464,0.0245 1.08439,0.26993 1.63868,0.82422 0.55479,0.5548 0.80954,1.13546 0.83789,1.65235 0.0283,0.51688 -0.15241,0.9848 -0.57422,1.3789 a 0.50005,0.50005 0 0 0 -0.0137,0.0117 l -1.5,1.5 c -0.41213,0.41213 -0.87694,0.60352 -1.39649,0.60352 a 0.50005,0.50005 0 1 0 0,1.0000006 c 0.78067,0 1.52491,-0.31788 2.10352,-0.89649 l 1.48828,-1.4882806 c 0.61768,-0.57711 0.9366,-1.36125 0.89258,-2.16406 -0.044,-0.80281 -0.43566,-1.60948 -1.13086,-2.30469 -0.69571,-0.69571 -1.49901,-1.07724 -2.29688,-1.11523 z m -1.08008,3.97851 a 0.50005,0.50005 0 0 0 -0.34375,0.15039 L 7.1313857,12.146003 a 0.50005,0.50005 0 1 0 0.70704,0.70704 L 12.838426,7.8530424 a 0.50005,0.50005 0 0 0 -0.36329,-0.85743 z m -4.9296803,2.02149 c -0.80753,-0.0482 -1.5954,0.26944 -2.17578,0.89062 l -1.48829,1.4882806 c -0.58838,0.58839 -0.90322,1.36034 -0.86523,2.15821 0.038,0.79787 0.41952,1.60311 1.11523,2.29883 0.69521,0.6952 1.50384,1.08487 2.30664,1.1289 0.80281,0.044 1.585,-0.27294 2.16211,-0.89062 l 1.4882903,-1.48828 c 0.57861,-0.57862 0.89648,-1.32285 0.89648,-2.10352 a 0.50005,0.50005 0 1 0 -1.0000003,0 c 0,0.51955 -0.19139,0.98436 -0.60352,1.39648 l -1.5,1.5 a 0.50005,0.50005 0 0 0 -0.0117,0.0117 c -0.39411,0.42182 -0.86007,0.60452 -1.37696,0.57618 -0.51688,-0.0283 -1.0995,-0.2831 -1.65429,-0.8379 -0.55429,-0.55428 -0.79776,-1.12404 -0.82227,-1.63867 -0.0245,-0.51463 0.16065,-0.99268 0.57227,-1.40429 l 1.5,-1.5 a 0.50005,0.50005 0 0 0 0.0117,-0.0117 c 0.39634,-0.4242 0.86629,-0.6072506 1.38672,-0.57618 a 0.50005,0.50005 0 1 0 0.0586,-0.9980406 z"
     style="color:#000000;font-style:normal;font-variant:normal;font-weight:normal;font-stretch:normal;font-size:medium;line-height:normal;font-family:sans-serif;font-variant-ligatures:normal;font-variant-position:normal;font-variant-caps:normal;font-variant-numeric:normal;font-variant-alternates:normal;font-feature-settings:normal;text-indent:0;text-align:start;text-decoration:none;text-decoration-line:none;text-decoration-style:solid;text-decoration-color:#000000;letter-spacing:normal;word-spacing:normal;text-transform:none;writing-mode:lr-tb;direction:ltr;text-orientation:mixed;dominant-baseline:auto;baseline-shift:baseline;text-anchor:start;white-space:normal;shape-padding:0;clip-rule:nonzero;display:inline;overflow:visible;visibility:visible;isolation:auto;mix-blend-mode:normal;color-interpolation:sRGB;color-interpolation-filters:linearRGB;solid-color:#000000;solid-opacity:1;vector-effect:none;fill:#ffffff;fill-opacity:1;fill-rule:nonzero;stroke:none;stroke-width:1;stroke-linecap:round;stroke-linejoin:round;stroke-miterlimit:4;stroke-dasharray:none;stroke-dashoffset:0;stroke-opacity:1;marker:none;color-rendering:auto;image-rendering:auto;shape-rendering:auto;text-rendering:auto;enable-background:accumulate" /></svg>
