<svg xmlns="http://www.w3.org/2000/svg" viewBox="0 0 20 20" xml:space="preserve">
    <g style="display:inline;fill:#fff;enable-background:new">
        <path style="color:#000;font-style:normal;font-variant:normal;font-weight:400;font-stretch:normal;font-size:medium;line-height:normal;font-family:sans-serif;font-variant-ligatures:normal;font-variant-position:normal;font-variant-caps:normal;font-variant-numeric:normal;font-variant-alternates:normal;font-feature-settings:normal;text-indent:0;text-align:start;text-decoration:none;text-decoration-line:none;text-decoration-style:solid;text-decoration-color:#000;letter-spacing:normal;word-spacing:normal;text-transform:none;writing-mode:lr-tb;direction:ltr;text-orientation:mixed;dominant-baseline:auto;baseline-shift:baseline;text-anchor:start;white-space:normal;shape-padding:0;clip-rule:nonzero;display:inline;overflow:visible;visibility:visible;opacity:1;isolation:auto;mix-blend-mode:normal;color-interpolation:sRGB;color-interpolation-filters:linearRGB;solid-color:#000;solid-opacity:1;vector-effect:none;fill:#fff;fill-opacity:1;fill-rule:nonzero;stroke:none;stroke-width:1;stroke-linecap:round;stroke-linejoin:round;stroke-miterlimit:4;stroke-dasharray:none;stroke-dashoffset:.5;stroke-opacity:1;marker:none;paint-order:fill markers stroke;color-rendering:auto;image-rendering:auto;shape-rendering:auto;text-rendering:auto;enable-background:accumulate" d="M100.248 410.014c-1.271.111-2.329.986-2.846 2.177-2.575-.62-5.267.504-6.597 2.809a6.003 6.003 0 0 0 .953 7.242 6.003 6.003 0 0 0 7.242.953c2.305-1.33 3.428-4.022 2.809-6.597 1.361-.591 2.31-1.888 2.177-3.403a3.505 3.505 0 0 0-3.181-3.181 3.184 3.184 0 0 0-.557 0zm.023.996a2.493 2.493 0 0 1 2.719 2.271 2.495 2.495 0 0 1-1.844 2.633.5.5 0 0 0-.359.582l.035.18a.5.5 0 0 0 .008.03 4.997 4.997 0 0 1-2.33 5.624 4.995 4.995 0 0 1-6.035-.795 4.995 4.995 0 0 1-.795-6.035 4.997 4.997 0 0 1 5.625-2.33.5.5 0 0 0 .03.008l.18.035a.5.5 0 0 0 .581-.36 2.496 2.496 0 0 1 2.186-1.843zM94.5 416a.5.5 0 0 0-.5.5v3a.5.5 0 0 0 .5.5h3a.5.5 0 0 0 .5-.5v-3a.5.5 0 0 0-.5-.5zm.5 1h2v2h-2z" transform="translate(-87 -407)"/>
    </g>
</svg>
