<svg xmlns="http://www.w3.org/2000/svg" viewBox="0 0 20 20" xml:space="preserve">
    <path d="M9.992 3a.493.493 0 0 0-.346.146C8.245 4.548 6.69 5 4 5a.5.5 0 0 0-.5.5v3c0 2.463.68 4.068 1.787 5.275 1.107 1.208 2.574 2.025 4.178 3.135.084.058.183.09.285.09h.5a.503.503 0 0 0 .285-.09c1.604-1.11 3.071-1.927 4.178-3.135C15.82 12.568 16.5 10.963 16.5 8.5v-3A.5.5 0 0 0 16 5c-2.69 0-4.245-.452-5.646-1.854A.5.5 0 0 0 9.992 3zm3.477 3.99a1 1 0 0 1 .812 1.635l-4 5a1 1 0 0 1-1.488.082l-2-2a1 1 0 1 1 1.414-1.414l1.209 1.209 3.303-4.127a1 1 0 0 1 .75-.385z" style="color:#000;font-style:normal;font-variant:normal;font-weight:400;font-stretch:normal;font-size:medium;line-height:normal;font-family:sans-serif;font-variant-ligatures:normal;font-variant-position:normal;font-variant-caps:normal;font-variant-numeric:normal;font-variant-alternates:normal;font-feature-settings:normal;text-indent:0;text-align:start;text-decoration:none;text-decoration-line:none;text-decoration-style:solid;text-decoration-color:#000;letter-spacing:normal;word-spacing:normal;text-transform:none;writing-mode:lr-tb;direction:ltr;text-orientation:mixed;dominant-baseline:auto;baseline-shift:baseline;text-anchor:start;white-space:normal;shape-padding:0;clip-rule:nonzero;display:inline;overflow:visible;visibility:visible;isolation:auto;mix-blend-mode:normal;color-interpolation:sRGB;color-interpolation-filters:linearRGB;solid-color:#000;solid-opacity:1;vector-effect:none;fill:#fff;fill-opacity:1;fill-rule:nonzero;stroke:none;stroke-width:1px;stroke-linecap:round;stroke-linejoin:round;stroke-miterlimit:4;stroke-dasharray:none;stroke-dashoffset:0;stroke-opacity:1;marker:none;paint-order:fill markers stroke;color-rendering:auto;image-rendering:auto;shape-rendering:auto;text-rendering:auto;enable-background:new"/>
</svg>
