<?xml version="1.0" encoding="UTF-8" standalone="no"?>
<svg
   xmlns:dc="http://purl.org/dc/elements/1.1/"
   xmlns:cc="http://creativecommons.org/ns#"
   xmlns:rdf="http://www.w3.org/1999/02/22-rdf-syntax-ns#"
   xmlns:svg="http://www.w3.org/2000/svg"
   xmlns="http://www.w3.org/2000/svg"
   xmlns:sodipodi="http://sodipodi.sourceforge.net/DTD/sodipodi-0.dtd"
   xmlns:inkscape="http://www.inkscape.org/namespaces/inkscape"
   id="Layer_1"
   x="0"
   y="0"
   enable-background="new 0 0 20 20"
   version="1.1"
   viewBox="0 0 20 20"
   xml:space="preserve"
   sodipodi:docname="bl_icons_584.svg"
   inkscape:version="1.0.2 (e86c870879, 2021-01-15, custom)"><metadata
     id="metadata7"><rdf:RDF><cc:Work
         rdf:about=""><dc:format>image/svg+xml</dc:format><dc:type
           rdf:resource="http://purl.org/dc/dcmitype/StillImage" /><dc:title></dc:title></cc:Work></rdf:RDF></metadata><defs
     id="defs5" /><sodipodi:namedview
     pagecolor="#808080"
     bordercolor="#666666"
     borderopacity="1"
     objecttolerance="10"
     gridtolerance="10"
     guidetolerance="10"
     inkscape:pageopacity="0"
     inkscape:pageshadow="2"
     inkscape:window-width="1750"
     inkscape:window-height="991"
     id="namedview3"
     showgrid="false"
     inkscape:pagecheckerboard="true"
     inkscape:zoom="25.577418"
     inkscape:cx="5.965331"
     inkscape:cy="7.1687767"
     inkscape:window-x="87"
     inkscape:window-y="37"
     inkscape:window-maximized="0"
     inkscape:current-layer="Layer_1"
     inkscape:document-rotation="0" /><g
     transform="rotate(90,414,-50)"
     id="g12586"
     style="display:inline;fill:#ffffff;enable-background:new"
     inkscape:export-filename="C:\Users\Andrzej Ambroż\Desktop\mtrx.png"
     inkscape:export-xdpi="96"
     inkscape:export-ydpi="96"><path
       style="color:#000000;font-style:normal;font-variant:normal;font-weight:normal;font-stretch:normal;font-size:medium;line-height:normal;font-family:sans-serif;font-variant-ligatures:normal;font-variant-position:normal;font-variant-caps:normal;font-variant-numeric:normal;font-variant-alternates:normal;font-feature-settings:normal;text-indent:0;text-align:start;text-decoration:none;text-decoration-line:none;text-decoration-style:solid;text-decoration-color:#000000;letter-spacing:normal;word-spacing:normal;text-transform:none;writing-mode:lr-tb;direction:ltr;text-orientation:mixed;dominant-baseline:auto;baseline-shift:baseline;text-anchor:start;white-space:normal;shape-padding:0;clip-rule:nonzero;display:inline;overflow:visible;visibility:visible;opacity:1;isolation:auto;mix-blend-mode:normal;color-interpolation:sRGB;color-interpolation-filters:linearRGB;solid-color:#000000;solid-opacity:1;vector-effect:none;fill:#ffffff;fill-opacity:1;fill-rule:evenodd;stroke:none;stroke-width:1;stroke-linecap:round;stroke-linejoin:round;stroke-miterlimit:4;stroke-dasharray:none;stroke-dashoffset:0;stroke-opacity:1;marker:none;color-rendering:auto;image-rendering:auto;shape-rendering:auto;text-rendering:auto;enable-background:accumulate"
       d="m 469.5,356 c -1.37478,0 -2.5,1.12522 -2.5,2.5 0,1.37478 1.12522,2.5 2.5,2.5 1.37478,0 2.5,-1.12522 2.5,-2.5 0,-1.37478 -1.12522,-2.5 -2.5,-2.5 z"
       id="path12572"
       inkscape:connector-curvature="0"
       sodipodi:nodetypes="sssss" /><g
       id="g23031"
       style="opacity:0.7;fill:#ffffff"><path
         style="color:#000000;font-style:normal;font-variant:normal;font-weight:normal;font-stretch:normal;font-size:medium;line-height:normal;font-family:sans-serif;font-variant-ligatures:normal;font-variant-position:normal;font-variant-caps:normal;font-variant-numeric:normal;font-variant-alternates:normal;font-feature-settings:normal;text-indent:0;text-align:start;text-decoration:none;text-decoration-line:none;text-decoration-style:solid;text-decoration-color:#000000;letter-spacing:normal;word-spacing:normal;text-transform:none;writing-mode:lr-tb;direction:ltr;text-orientation:mixed;dominant-baseline:auto;baseline-shift:baseline;text-anchor:start;white-space:normal;shape-padding:0;clip-rule:nonzero;display:inline;overflow:visible;visibility:visible;opacity:1;isolation:auto;mix-blend-mode:normal;color-interpolation:sRGB;color-interpolation-filters:linearRGB;solid-color:#000000;solid-opacity:1;vector-effect:none;fill:#ffffff;fill-opacity:1;fill-rule:evenodd;stroke:none;stroke-width:1;stroke-linecap:round;stroke-linejoin:round;stroke-miterlimit:4;stroke-dasharray:none;stroke-dashoffset:0;stroke-opacity:1;marker:none;color-rendering:auto;image-rendering:auto;shape-rendering:auto;text-rendering:auto;enable-background:accumulate"
         d="m 218.5,557 c -0.8225,0 -1.5,0.6775 -1.5,1.5 0,0.64684 0.42097,1.19777 1,1.40625 V 564.5 c -0.01,0.67616 1.01,0.67616 1,0 v -4.59375 c 0.57903,-0.20848 1,-0.75941 1,-1.40625 0,-0.8225 -0.6775,-1.5 -1.5,-1.5 z m 9.5,0 c -1.09865,0 -2,0.90135 -2,2 0,0.36859 0.10883,0.71022 0.28516,1.00781 l -5.13868,5.13867 c -0.49023,0.47127 0.23577,1.19727 0.70704,0.70704 l 5.13867,-5.13868 C 227.28978,560.89117 227.63141,561 228,561 c 1.09865,-10e-6 2,-0.90135 2,-2 0,-1.09865 -0.90135,-1.99999 -2,-2 z m 0.5,10 c -0.64684,0 -1.19777,0.42097 -1.40625,1 H 222.5 c -0.67616,-0.01 -0.67616,1.01 0,1 h 4.59375 c 0.20848,0.57903 0.75941,1 1.40625,1 0.82251,0 1.5,-0.67749 1.5,-1.5 0,-0.82251 -0.67749,-1.5 -1.5,-1.5 z"
         transform="matrix(0,-1,-1,0,1038,577)"
         id="path12578"
         inkscape:connector-curvature="0" /></g></g></svg>
