<svg xmlns="http://www.w3.org/2000/svg" viewBox="0 0 20 20" xml:space="preserve">
    <g style="display:inline;fill:#fff;enable-background:new">
        <path d="M290 517h2.5a.5.5 0 0 0 .5-.5v-1a.5.5 0 0 0-.5-.5h-2.92a.5.5 0 0 0-.58.5v6.64c-.566-.207-1.286-.18-1.982.073-1.355.496-2.238 1.699-1.971 2.685.266.987 1.58 1.385 2.935.889 1.23-.451 2.018-1.355 2.018-2.537z" style="display:inline;overflow:visible;visibility:visible;opacity:.99;fill:#fff;fill-opacity:1;fill-rule:nonzero;stroke:none;stroke-width:.755428px;marker:none;enable-background:accumulate" transform="translate(-276 -511.997)"/>
        <path style="color:#000;font-style:normal;font-variant:normal;font-weight:400;font-stretch:normal;font-size:medium;line-height:normal;font-family:sans-serif;font-variant-ligatures:normal;font-variant-position:normal;font-variant-caps:normal;font-variant-numeric:normal;font-variant-alternates:normal;font-feature-settings:normal;text-indent:0;text-align:start;text-decoration:none;text-decoration-line:none;text-decoration-style:solid;text-decoration-color:#000;letter-spacing:normal;word-spacing:normal;text-transform:none;writing-mode:lr-tb;direction:ltr;text-orientation:mixed;dominant-baseline:auto;baseline-shift:baseline;text-anchor:start;white-space:normal;shape-padding:0;clip-rule:nonzero;display:inline;overflow:visible;visibility:visible;opacity:.7;isolation:auto;mix-blend-mode:normal;color-interpolation:sRGB;color-interpolation-filters:linearRGB;solid-color:#000;solid-opacity:1;vector-effect:none;fill:#fff;fill-opacity:1;fill-rule:nonzero;stroke:none;stroke-width:1;stroke-linecap:round;stroke-linejoin:round;stroke-miterlimit:4;stroke-dasharray:none;stroke-dashoffset:0;stroke-opacity:1;marker:none;paint-order:fill markers stroke;color-rendering:auto;image-rendering:auto;shape-rendering:auto;text-rendering:auto;enable-background:accumulate" d="M283.516 517a.5.5 0 0 0-.227.057c-1.997 1.003-3.468 2.884-4.035 5.134-.567 2.251-.176 4.648 1.074 6.569a.5.5 0 1 0 .838-.545c-1.094-1.68-1.44-3.798-.941-5.78.499-1.98 1.788-3.62 3.513-4.486a.5.5 0 0 0-.222-.949zm.982 3a.5.5 0 0 0-.268.082c-1.213.779-2.014 2.122-2.193 3.63-.179 1.51.281 3.026 1.264 4.118a.5.5 0 1 0 .742-.67c-.776-.862-1.158-2.1-1.012-3.33.146-1.23.799-2.303 1.739-2.906a.5.5 0 0 0-.272-.924z" transform="translate(-276 -511.997)"/>
    </g>
</svg>
