<svg xmlns="http://www.w3.org/2000/svg" viewBox="0 0 20 20" xml:space="preserve">
    <path style="color:#000;font-style:normal;font-variant:normal;font-weight:400;font-stretch:normal;font-size:medium;line-height:normal;font-family:sans-serif;font-variant-ligatures:normal;font-variant-position:normal;font-variant-caps:normal;font-variant-numeric:normal;font-variant-alternates:normal;font-feature-settings:normal;text-indent:0;text-align:start;text-decoration:none;text-decoration-line:none;text-decoration-style:solid;text-decoration-color:#000;letter-spacing:normal;word-spacing:normal;text-transform:none;writing-mode:lr-tb;direction:ltr;text-orientation:mixed;dominant-baseline:auto;baseline-shift:baseline;text-anchor:start;white-space:normal;shape-padding:0;clip-rule:nonzero;display:inline;overflow:visible;visibility:visible;isolation:auto;mix-blend-mode:normal;color-interpolation:sRGB;color-interpolation-filters:linearRGB;solid-color:#000;solid-opacity:1;vector-effect:none;fill:#fff;fill-opacity:1;fill-rule:nonzero;stroke:none;stroke-width:1;stroke-linecap:round;stroke-linejoin:round;stroke-miterlimit:4;stroke-dasharray:none;stroke-dashoffset:0;stroke-opacity:1;marker:none;color-rendering:auto;image-rendering:auto;shape-rendering:auto;text-rendering:auto;enable-background:accumulate" d="M5.484 2.99A3.488 3.488 0 0 0 2 6.473v8.031a3.488 3.488 0 0 0 3.484 3.484h4.032A3.488 3.488 0 0 0 13 14.505V6.474a3.488 3.488 0 0 0-3.484-3.485zm0 1h4.032C10.9 3.99 12 5.09 12 6.473v8.031c0 1.385-1.1 2.484-2.484 2.484H5.484A2.469 2.469 0 0 1 3 14.505V6.474c0-1.385 1.1-2.485 2.484-2.485zm1.563 1C6.476 4.99 6 5.464 6 6.035v3.907c0 .57.476 1.046 1.047 1.046h.906C8.524 10.99 9 10.514 9 9.943V6.036c0-.571-.476-1.047-1.047-1.047zm7.43-2.979a.5.5 0 0 0-.315.871c.588.545.842 1.086.842 1.602L15 10.489a.5.5 0 1 0 1 0l.004-6.005c0-.851-.432-1.66-1.162-2.336a.5.5 0 0 0-.365-.137zm3.015 2.016a.5.5 0 0 0-.492.505v4.059a.5.5 0 1 0 1 0V4.532a.5.5 0 0 0-.508-.505z"/>
</svg>
