<svg xmlns="http://www.w3.org/2000/svg" viewBox="0 0 20 20" xml:space="preserve">
    <g style="display:inline;fill:#fff;enable-background:new">
        <path style="color:#000;font-style:normal;font-variant:normal;font-weight:400;font-stretch:normal;font-size:medium;line-height:normal;font-family:sans-serif;font-variant-ligatures:normal;font-variant-position:normal;font-variant-caps:normal;font-variant-numeric:normal;font-variant-alternates:normal;font-feature-settings:normal;text-indent:0;text-align:start;text-decoration:none;text-decoration-line:none;text-decoration-style:solid;text-decoration-color:#000;letter-spacing:normal;word-spacing:normal;text-transform:none;writing-mode:lr-tb;direction:ltr;text-orientation:mixed;dominant-baseline:auto;baseline-shift:baseline;text-anchor:start;white-space:normal;shape-padding:0;clip-rule:nonzero;display:inline;overflow:visible;visibility:visible;opacity:1;isolation:auto;mix-blend-mode:normal;color-interpolation:sRGB;color-interpolation-filters:linearRGB;solid-color:#000;solid-opacity:1;vector-effect:none;fill:#fff;fill-opacity:1;fill-rule:nonzero;stroke:none;stroke-width:1;stroke-linecap:round;stroke-linejoin:round;stroke-miterlimit:4;stroke-dasharray:none;stroke-dashoffset:0;stroke-opacity:1;marker:none;paint-order:fill markers stroke;color-rendering:auto;image-rendering:auto;shape-rendering:auto;text-rendering:auto;enable-background:new" d="M-98.58 578c-1.409 0-2.42 1.163-2.42 2.5a.5.5 0 1 0 1 0c0-.872.53-1.5 1.42-1.5.89 0 1.58.677 1.58 1.5s-.69 1.5-1.58 1.5h-4.914a.5.5 0 1 0 0 1h4.914c1.409 0 2.58-1.114 2.58-2.5s-1.171-2.5-2.58-2.5zm-8.916.004c-1.386 0-2.5 1.171-2.5 2.58s1.163 2.418 2.5 2.418a.5.5 0 1 0 0-1c-.872 0-1.5-.529-1.5-1.418 0-.89.677-1.58 1.5-1.58s1.498.69 1.498 1.58v4.912a.5.5 0 1 0 1 0v-4.912c0-1.409-1.113-2.58-2.498-2.58zm6.988 5.988a.5.5 0 0 0-.492.508v4.912c0 1.409 1.114 2.58 2.5 2.58s2.5-1.171 2.5-2.58-1.163-2.42-2.5-2.42a.5.5 0 1 0 0 1c.872 0 1.5.53 1.5 1.42 0 .89-.677 1.58-1.5 1.58s-1.5-.69-1.5-1.58V584.5a.5.5 0 0 0-.508-.508zm-6.908 3.004c-1.409 0-2.58 1.115-2.58 2.5 0 1.386 1.171 2.5 2.58 2.5s2.42-1.163 2.42-2.5a.5.5 0 1 0-1 0c0 .872-.53 1.5-1.42 1.5-.89 0-1.58-.677-1.58-1.5s.69-1.5 1.58-1.5h4.912a.5.5 0 1 0 0-1z" transform="translate(112.998 -574.998)"/>
    </g>
</svg>
