<svg xmlns="http://www.w3.org/2000/svg" viewBox="0 0 20 20" xml:space="preserve">
    <path style="color:#000;font-style:normal;font-variant:normal;font-weight:400;font-stretch:normal;font-size:medium;line-height:normal;font-family:sans-serif;font-variant-ligatures:normal;font-variant-position:normal;font-variant-caps:normal;font-variant-numeric:normal;font-variant-alternates:normal;font-feature-settings:normal;text-indent:0;text-align:start;text-decoration:none;text-decoration-line:none;text-decoration-style:solid;text-decoration-color:#000;letter-spacing:normal;word-spacing:normal;text-transform:none;writing-mode:lr-tb;direction:ltr;text-orientation:mixed;dominant-baseline:auto;baseline-shift:baseline;text-anchor:start;white-space:normal;shape-padding:0;clip-rule:nonzero;display:inline;overflow:visible;visibility:visible;isolation:auto;mix-blend-mode:normal;color-interpolation:sRGB;color-interpolation-filters:linearRGB;solid-color:#000;solid-opacity:1;vector-effect:none;fill:#fff;fill-opacity:1;fill-rule:nonzero;stroke:none;stroke-width:1;stroke-linecap:round;stroke-linejoin:round;stroke-miterlimit:4;stroke-dasharray:none;stroke-dashoffset:0;stroke-opacity:1;marker:none;paint-order:fill markers stroke;color-rendering:auto;image-rendering:auto;shape-rendering:auto;text-rendering:auto;enable-background:new" d="M12.025 3.057c-1.23.064-2.423.634-3.379 1.59l-4 4c-.955.955-1.53 2.15-1.597 3.384-.068 1.234.388 2.496 1.414 3.51 1.024 1.012 2.281 1.467 3.512 1.402 1.23-.064 2.423-.634 3.379-1.59l4-4c.955-.955 1.53-2.15 1.597-3.384.068-1.234-.388-2.496-1.414-3.51-1.024-1.012-2.281-1.467-3.512-1.402zm.053.998c.956-.05 1.912.281 2.756 1.115.842.832 1.172 1.786 1.12 2.744-.054.959-.506 1.93-1.308 2.732l-4 4c-.802.802-1.768 1.25-2.724 1.3-.956.05-1.912-.282-2.756-1.116-.842-.832-1.172-1.786-1.12-2.744.053-.959.505-1.93 1.307-2.732l4-4c.803-.803 1.769-1.25 2.725-1.3z"/>
</svg>
