<?xml version="1.0" encoding="UTF-8" standalone="no"?>
<svg
   xmlns:dc="http://purl.org/dc/elements/1.1/"
   xmlns:cc="http://creativecommons.org/ns#"
   xmlns:rdf="http://www.w3.org/1999/02/22-rdf-syntax-ns#"
   xmlns:svg="http://www.w3.org/2000/svg"
   xmlns="http://www.w3.org/2000/svg"
   xmlns:sodipodi="http://sodipodi.sourceforge.net/DTD/sodipodi-0.dtd"
   xmlns:inkscape="http://www.inkscape.org/namespaces/inkscape"
   id="Layer_1"
   x="0"
   y="0"
   enable-background="new 0 0 20 20"
   version="1.1"
   viewBox="0 0 20 20"
   xml:space="preserve"
   sodipodi:docname="bl_icons_545.svg"
   inkscape:version="1.0.2 (e86c870879, 2021-01-15, custom)"><metadata
     id="metadata7"><rdf:RDF><cc:Work
         rdf:about=""><dc:format>image/svg+xml</dc:format><dc:type
           rdf:resource="http://purl.org/dc/dcmitype/StillImage" /><dc:title></dc:title></cc:Work></rdf:RDF></metadata><defs
     id="defs5" /><sodipodi:namedview
     pagecolor="#808080"
     bordercolor="#666666"
     borderopacity="1"
     objecttolerance="10"
     gridtolerance="10"
     guidetolerance="10"
     inkscape:pageopacity="0"
     inkscape:pageshadow="2"
     inkscape:window-width="1750"
     inkscape:window-height="991"
     id="namedview3"
     showgrid="false"
     inkscape:pagecheckerboard="true"
     inkscape:zoom="25.577418"
     inkscape:cx="-0.44644607"
     inkscape:cy="8.0087009"
     inkscape:window-x="87"
     inkscape:window-y="37"
     inkscape:window-maximized="0"
     inkscape:current-layer="Layer_1"
     inkscape:document-rotation="0" /><g
     id="g15557"
     transform="translate(-297,-512.00609)"
     style="display:inline;fill:#ffffff;enable-background:new"><g
       transform="matrix(1,0,0,-1,-42,813.00707)"
       id="g15497"
       style="display:inline;fill:#ffffff;enable-background:new"><path
         style="color:#000000;font-style:normal;font-variant:normal;font-weight:normal;font-stretch:normal;font-size:medium;line-height:normal;font-family:sans-serif;font-variant-ligatures:normal;font-variant-position:normal;font-variant-caps:normal;font-variant-numeric:normal;font-variant-alternates:normal;font-feature-settings:normal;text-indent:0;text-align:start;text-decoration:none;text-decoration-line:none;text-decoration-style:solid;text-decoration-color:#000000;letter-spacing:normal;word-spacing:normal;text-transform:none;writing-mode:lr-tb;direction:ltr;text-orientation:mixed;dominant-baseline:auto;baseline-shift:baseline;text-anchor:start;white-space:normal;shape-padding:0;clip-rule:nonzero;display:inline;overflow:visible;visibility:visible;opacity:1;isolation:auto;mix-blend-mode:normal;color-interpolation:sRGB;color-interpolation-filters:linearRGB;solid-color:#000000;solid-opacity:1;vector-effect:none;fill:#ffffff;fill-opacity:1;fill-rule:nonzero;stroke:none;stroke-width:1;stroke-linecap:round;stroke-linejoin:round;stroke-miterlimit:4;stroke-dasharray:none;stroke-dashoffset:0;stroke-opacity:1;marker:none;paint-order:fill markers stroke;color-rendering:auto;image-rendering:auto;shape-rendering:auto;text-rendering:auto;enable-background:new"
         d="m 346,286.00391 c 0,-1.09977 -0.90081,-2.00196 -2,-2.00196 -1.09919,0 -2,0.90219 -2,2.00196 0,1.09976 0.90081,2.0039 2,2.0039 1.09919,0 2,-0.90414 2,-2.0039 z m -1,0 c 0,0.56041 -0.44233,1.0039 -1,1.0039 -0.55767,0 -1,-0.44349 -1,-1.0039 0,-0.56041 0.44233,-1.00196 1,-1.00196 0.55767,0 1,0.44155 1,1.00196 z"
         id="ellipse15493"
         inkscape:connector-curvature="0" /><path
         style="color:#000000;font-style:normal;font-variant:normal;font-weight:normal;font-stretch:normal;font-size:medium;line-height:normal;font-family:sans-serif;font-variant-ligatures:normal;font-variant-position:normal;font-variant-caps:normal;font-variant-numeric:normal;font-variant-alternates:normal;font-feature-settings:normal;text-indent:0;text-align:start;text-decoration:none;text-decoration-line:none;text-decoration-style:solid;text-decoration-color:#000000;letter-spacing:normal;word-spacing:normal;text-transform:none;writing-mode:lr-tb;direction:ltr;text-orientation:mixed;dominant-baseline:auto;baseline-shift:baseline;text-anchor:start;white-space:normal;shape-padding:0;clip-rule:nonzero;display:inline;overflow:visible;visibility:visible;opacity:1;isolation:auto;mix-blend-mode:normal;color-interpolation:sRGB;color-interpolation-filters:linearRGB;solid-color:#000000;solid-opacity:1;vector-effect:none;fill:#ffffff;fill-opacity:1;fill-rule:nonzero;stroke:none;stroke-width:1;stroke-linecap:round;stroke-linejoin:round;stroke-miterlimit:4;stroke-dasharray:none;stroke-dashoffset:0;stroke-opacity:1;marker:none;paint-order:fill markers stroke;color-rendering:auto;image-rendering:auto;shape-rendering:auto;text-rendering:auto;enable-background:new"
         d="m 356,296.00391 c 0,-1.09734 -0.90199,-1.9961 -2,-1.9961 -1.09801,0 -2,0.89876 -2,1.9961 0,1.09733 0.90199,1.99609 2,1.99609 1.09801,0 2,-0.89876 2,-1.99609 z"
         id="ellipse15495"
         inkscape:connector-curvature="0"
         sodipodi:nodetypes="sssss" /></g><path
       style="color:#000000;font-style:normal;font-variant:normal;font-weight:normal;font-stretch:normal;font-size:medium;line-height:normal;font-family:sans-serif;font-variant-ligatures:normal;font-variant-position:normal;font-variant-caps:normal;font-variant-numeric:normal;font-variant-alternates:normal;font-feature-settings:normal;text-indent:0;text-align:start;text-decoration:none;text-decoration-line:none;text-decoration-style:solid;text-decoration-color:#000000;letter-spacing:normal;word-spacing:normal;text-transform:none;writing-mode:lr-tb;direction:ltr;text-orientation:mixed;dominant-baseline:auto;baseline-shift:baseline;text-anchor:start;white-space:normal;shape-padding:0;clip-rule:nonzero;display:inline;overflow:visible;visibility:visible;opacity:1;isolation:auto;mix-blend-mode:normal;color-interpolation:sRGB;color-interpolation-filters:linearRGB;solid-color:#000000;solid-opacity:1;vector-effect:none;fill:#ffffff;fill-opacity:1;fill-rule:nonzero;stroke:none;stroke-width:1;stroke-linecap:round;stroke-linejoin:round;stroke-miterlimit:4;stroke-dasharray:none;stroke-dashoffset:0;stroke-opacity:1;marker:none;paint-order:fill markers stroke;color-rendering:auto;image-rendering:auto;shape-rendering:auto;text-rendering:auto;enable-background:new"
       d="m 306.49609,516.00391 a 0.50005,0.50005 0 1 0 0,1 h 2 a 0.50005,0.50005 0 1 0 0,-1 z m -2.00976,0.99414 a 0.50005,0.50005 0 0 0 -0.34375,0.15234 l -1,1 a 0.50005,0.50005 0 1 0 0.70703,0.70703 l 1,-1 a 0.50005,0.50005 0 0 0 -0.36328,-0.85937 z m -1.00195,3 a 0.50005,0.50005 0 0 0 -0.34766,0.85937 l 1,1 a 0.50005,0.50005 0 1 0 0.70703,-0.70703 l -1,-1 a 0.50005,0.50005 0 0 0 -0.35937,-0.15234 z m 3.01171,2.00586 a 0.50005,0.50005 0 1 0 0,1 h 1 a 0.50005,0.50005 0 1 0 0,-1 z m 2.9961,0.99414 a 0.50005,0.50005 0 0 0 -0.34961,0.85937 l 1,1 a 0.50005,0.50005 0 1 0 0.70703,-0.70703 l -1,-1 a 0.50005,0.50005 0 0 0 -0.35742,-0.15234 z m 0.99414,3 a 0.50005,0.50005 0 0 0 -0.34375,0.15234 l -1,1 a 0.50005,0.50005 0 1 0 0.70703,0.70703 l 1,-1 a 0.50005,0.50005 0 0 0 -0.36328,-0.85937 z m -4.9961,1.00586 a 0.50005,0.50005 0 1 0 0,1 h 2 a 0.50005,0.50005 0 1 0 0,-1 z"
       id="path15483-4"
       inkscape:connector-curvature="0" /></g></svg>
