<?xml version="1.0" encoding="UTF-8" standalone="no"?>
<svg
   xmlns:dc="http://purl.org/dc/elements/1.1/"
   xmlns:cc="http://creativecommons.org/ns#"
   xmlns:rdf="http://www.w3.org/1999/02/22-rdf-syntax-ns#"
   xmlns:svg="http://www.w3.org/2000/svg"
   xmlns="http://www.w3.org/2000/svg"
   xmlns:sodipodi="http://sodipodi.sourceforge.net/DTD/sodipodi-0.dtd"
   xmlns:inkscape="http://www.inkscape.org/namespaces/inkscape"
   id="Layer_1"
   x="0"
   y="0"
   enable-background="new 0 0 20 20"
   version="1.1"
   viewBox="0 0 20 20"
   xml:space="preserve"
   sodipodi:docname="bl_icons_575.svg"
   inkscape:version="1.0.2 (e86c870879, 2021-01-15, custom)"><metadata
     id="metadata7"><rdf:RDF><cc:Work
         rdf:about=""><dc:format>image/svg+xml</dc:format><dc:type
           rdf:resource="http://purl.org/dc/dcmitype/StillImage" /><dc:title></dc:title></cc:Work></rdf:RDF></metadata><defs
     id="defs5" /><sodipodi:namedview
     pagecolor="#808080"
     bordercolor="#666666"
     borderopacity="1"
     objecttolerance="10"
     gridtolerance="10"
     guidetolerance="10"
     inkscape:pageopacity="0"
     inkscape:pageshadow="2"
     inkscape:window-width="1750"
     inkscape:window-height="991"
     id="namedview3"
     showgrid="false"
     inkscape:pagecheckerboard="true"
     inkscape:zoom="25.577418"
     inkscape:cx="-0.44644607"
     inkscape:cy="8.0087009"
     inkscape:window-x="87"
     inkscape:window-y="37"
     inkscape:window-maximized="0"
     inkscape:current-layer="Layer_1"
     inkscape:document-rotation="0" /><path
     id="path19004-3"
     d="M 5,3 C 4.47553,3 3.9763,3.21715 3.60742,3.57617 3.23866,3.93533 3,4.43678 3,5.00195 V 15 c 8e-5,0.53017 0.21103,1.03915 0.58594,1.41406 C 3.96085,16.78897 4.46978,17 5,17 h 1.5 c 0.27613,-3e-5 0.49997,-0.22387 0.5,-0.5 V 6.5 C 6.99997,6.22387 6.77613,6.00003 6.5,6 H 5 C 4.54768,6 4,5.52894 4,5.00195 4,4.73846 4.1383,4.48741 4.33203,4.30273 4.52545,4.11905 4.77501,4 5,4 h 6 v 2 h 2 V 4 h 2 V 6.00586 L 13,6 v 2 l 2,0.006 v 2 L 13,10 v 2 l 2,0.006 V 14 h -1.99414 l -0.01,-2 h -2 l 0.01,2 H 8 v 1 h 8.5 c 0.27613,-3e-5 0.49997,-0.22387 0.5,-0.5 V 3.5 C 16.99997,3.22387 16.77613,3.00003 16.5,3 h -11 z m 8,7 V 8 h -2 v 2 z"
     style="display:inline;vector-effect:none;fill:#ffffff;fill-opacity:1;stroke:none;stroke-width:1;stroke-linecap:round;stroke-linejoin:round;stroke-miterlimit:4;stroke-dasharray:none;stroke-dashoffset:0;stroke-opacity:1;marker:none;paint-order:fill markers stroke;enable-background:new"
     inkscape:connector-curvature="0" /><path
     sodipodi:nodetypes="cccccccccc"
     inkscape:connector-curvature="0"
     d="m 9,12 h 2 V 10 H 9 Z M 9,8 h 2 V 6 H 9 Z"
     style="display:inline;opacity:0.8;vector-effect:none;fill:#ffffff;fill-opacity:1;stroke:none;stroke-width:1;stroke-linecap:round;stroke-linejoin:round;stroke-miterlimit:4;stroke-dasharray:none;stroke-dashoffset:0;stroke-opacity:1;marker:none;paint-order:fill markers stroke;enable-background:new"
     id="path19014-3-8" /></svg>
