<?xml version="1.0" encoding="UTF-8" standalone="no"?>
<svg
   xmlns:dc="http://purl.org/dc/elements/1.1/"
   xmlns:cc="http://creativecommons.org/ns#"
   xmlns:rdf="http://www.w3.org/1999/02/22-rdf-syntax-ns#"
   xmlns:svg="http://www.w3.org/2000/svg"
   xmlns="http://www.w3.org/2000/svg"
   xmlns:sodipodi="http://sodipodi.sourceforge.net/DTD/sodipodi-0.dtd"
   xmlns:inkscape="http://www.inkscape.org/namespaces/inkscape"
   id="Layer_1"
   x="0"
   y="0"
   enable-background="new 0 0 20 20"
   version="1.1"
   viewBox="0 0 20 20"
   xml:space="preserve"
   sodipodi:docname="bl_icons_554.svg"
   inkscape:version="1.0.2 (e86c870879, 2021-01-15, custom)"><metadata
     id="metadata7"><rdf:RDF><cc:Work
         rdf:about=""><dc:format>image/svg+xml</dc:format><dc:type
           rdf:resource="http://purl.org/dc/dcmitype/StillImage" /><dc:title></dc:title></cc:Work></rdf:RDF></metadata><defs
     id="defs5" /><sodipodi:namedview
     pagecolor="#808080"
     bordercolor="#666666"
     borderopacity="1"
     objecttolerance="10"
     gridtolerance="10"
     guidetolerance="10"
     inkscape:pageopacity="0"
     inkscape:pageshadow="2"
     inkscape:window-width="1750"
     inkscape:window-height="991"
     id="namedview3"
     showgrid="false"
     inkscape:pagecheckerboard="true"
     inkscape:zoom="12.788709"
     inkscape:cx="1.3072568"
     inkscape:cy="9.1740663"
     inkscape:window-x="87"
     inkscape:window-y="37"
     inkscape:window-maximized="0"
     inkscape:current-layer="Layer_1"
     inkscape:document-rotation="0" /><g
     transform="translate(-3,-533.00018)"
     style="display:inline;fill:#ffffff;enable-background:new"
     id="g13451"
     inkscape:export-filename="C:\Users\Andrzej Ambroż\Desktop\mtrx.png"
     inkscape:export-xdpi="96"
     inkscape:export-ydpi="96"><g
       id="g23046"
       style="opacity:1;fill:#ffffff"><path
         style="opacity:0.99;vector-effect:none;fill:#ffffff;fill-opacity:1;stroke:none;stroke-width:1;stroke-linecap:round;stroke-linejoin:round;stroke-miterlimit:4;stroke-dasharray:none;stroke-dashoffset:0;stroke-opacity:1;marker:none"
         d="m 16.501953,536 c -1.926262,0 -3.498047,1.57178 -3.498047,3.49805 0,1.92626 1.571785,3.49804 3.498047,3.49804 C 18.428216,542.99609 20,541.42431 20,539.49805 20,537.57178 18.428216,536 16.501953,536 Z m 0,0.99609 a 0.50005,0.50005 0 1 1 0,1 C 15.666793,537.99609 15,538.66288 15,539.49805 a 0.50005,0.50005 0 1 1 -1,0 c 0,-1.37561 1.126353,-2.50196 2.501953,-2.50196 z"
         transform="translate(1.8554137e-6,-5.18e-5)"
         id="circle12697"
         inkscape:connector-curvature="0" /></g><path
       style="color:#000000;font-style:normal;font-variant:normal;font-weight:normal;font-stretch:normal;font-size:medium;line-height:normal;font-family:sans-serif;font-variant-ligatures:normal;font-variant-position:normal;font-variant-caps:normal;font-variant-numeric:normal;font-variant-alternates:normal;font-feature-settings:normal;text-indent:0;text-align:start;text-decoration:none;text-decoration-line:none;text-decoration-style:solid;text-decoration-color:#000000;letter-spacing:normal;word-spacing:normal;text-transform:none;writing-mode:lr-tb;direction:ltr;text-orientation:mixed;dominant-baseline:auto;baseline-shift:baseline;text-anchor:start;white-space:normal;shape-padding:0;clip-rule:nonzero;display:inline;overflow:visible;visibility:visible;opacity:0.8;isolation:auto;mix-blend-mode:normal;color-interpolation:sRGB;color-interpolation-filters:linearRGB;solid-color:#000000;solid-opacity:1;vector-effect:none;fill:#ffffff;fill-opacity:1;fill-rule:nonzero;stroke:none;stroke-width:1;stroke-linecap:round;stroke-linejoin:miter;stroke-miterlimit:4;stroke-dasharray:none;stroke-dashoffset:0;stroke-opacity:1;color-rendering:auto;image-rendering:auto;shape-rendering:auto;text-rendering:auto;enable-background:accumulate"
       d="m 10.503906,539.99219 a 0.50005,0.50005 0 0 0 -0.492187,0.39843 L 9.6542969,542 H 7.5 a 0.50005,0.50005 0 1 0 0,1 H 9.4316406 L 8.765625,546 H 6.5 a 0.50005,0.50005 0 1 0 0,1 h 2.0429688 l -0.53125,2.39062 a 0.50038237,0.50038237 0 1 0 0.9765624,0.21876 L 9.5683594,547 H 16.53125 l 0.476562,2.58984 a 0.50032015,0.50032015 0 1 0 0.984376,-0.17968 L 17.546875,547 H 19.5 a 0.50005,0.50005 0 1 0 0,-1 H 17.363281 L 17.0625,544.37109 a 0.50005,0.50005 0 1 0 -0.982422,0.18164 L 16.345703,546 H 9.7910156 l 0.6660154,-3 H 12.5 a 0.50005,0.50005 0 1 0 0,-1 h -1.820312 l 0.308593,-1.39062 a 0.50005,0.50005 0 0 0 -0.484375,-0.61719 z"
       id="path8399"
       inkscape:connector-curvature="0" /></g></svg>
