<?xml version="1.0" encoding="UTF-8" standalone="no"?>
<svg
   xmlns:dc="http://purl.org/dc/elements/1.1/"
   xmlns:cc="http://creativecommons.org/ns#"
   xmlns:rdf="http://www.w3.org/1999/02/22-rdf-syntax-ns#"
   xmlns:svg="http://www.w3.org/2000/svg"
   xmlns="http://www.w3.org/2000/svg"
   xmlns:sodipodi="http://sodipodi.sourceforge.net/DTD/sodipodi-0.dtd"
   xmlns:inkscape="http://www.inkscape.org/namespaces/inkscape"
   id="Layer_1"
   x="0"
   y="0"
   enable-background="new 0 0 20 20"
   version="1.1"
   viewBox="0 0 20 20"
   xml:space="preserve"
   sodipodi:docname="bl_icons_596.svg"
   inkscape:version="1.0.2 (e86c870879, 2021-01-15, custom)"><metadata
     id="metadata7"><rdf:RDF><cc:Work
         rdf:about=""><dc:format>image/svg+xml</dc:format><dc:type
           rdf:resource="http://purl.org/dc/dcmitype/StillImage" /><dc:title></dc:title></cc:Work></rdf:RDF></metadata><defs
     id="defs5" /><sodipodi:namedview
     pagecolor="#808080"
     bordercolor="#666666"
     borderopacity="1"
     objecttolerance="10"
     gridtolerance="10"
     guidetolerance="10"
     inkscape:pageopacity="0"
     inkscape:pageshadow="2"
     inkscape:window-width="1750"
     inkscape:window-height="991"
     id="namedview3"
     showgrid="false"
     inkscape:pagecheckerboard="true"
     inkscape:zoom="25.577418"
     inkscape:cx="-0.44644607"
     inkscape:cy="8.0087009"
     inkscape:window-x="87"
     inkscape:window-y="37"
     inkscape:window-maximized="0"
     inkscape:current-layer="Layer_1"
     inkscape:document-rotation="0" /><g
     style="display:inline;fill:#ffffff;enable-background:new"
     id="g15743"
     transform="translate(112.99804,-574.99809)"
     inkscape:export-filename="C:\Users\Andrzej Ambroż\Desktop\mtrx.png"
     inkscape:export-xdpi="96"
     inkscape:export-ydpi="96"><path
       style="color:#000000;font-style:normal;font-variant:normal;font-weight:normal;font-stretch:normal;font-size:medium;line-height:normal;font-family:sans-serif;font-variant-ligatures:normal;font-variant-position:normal;font-variant-caps:normal;font-variant-numeric:normal;font-variant-alternates:normal;font-feature-settings:normal;text-indent:0;text-align:start;text-decoration:none;text-decoration-line:none;text-decoration-style:solid;text-decoration-color:#000000;letter-spacing:normal;word-spacing:normal;text-transform:none;writing-mode:lr-tb;direction:ltr;text-orientation:mixed;dominant-baseline:auto;baseline-shift:baseline;text-anchor:start;white-space:normal;shape-padding:0;clip-rule:nonzero;display:inline;overflow:visible;visibility:visible;opacity:1;isolation:auto;mix-blend-mode:normal;color-interpolation:sRGB;color-interpolation-filters:linearRGB;solid-color:#000000;solid-opacity:1;vector-effect:none;fill:#ffffff;fill-opacity:1;fill-rule:nonzero;stroke:none;stroke-width:1;stroke-linecap:round;stroke-linejoin:round;stroke-miterlimit:4;stroke-dasharray:none;stroke-dashoffset:0;stroke-opacity:1;marker:none;paint-order:fill markers stroke;color-rendering:auto;image-rendering:auto;shape-rendering:auto;text-rendering:auto;enable-background:new"
       d="M -98.580078,578 C -99.98888,578 -101,579.16322 -101,580.5 a 0.50005,0.50005 0 1 0 1,0 c 0,-0.87198 0.530524,-1.5 1.419922,-1.5 0.889383,0 1.580078,0.67678 1.580078,1.5 0,0.82323 -0.69069,1.49999 -1.580078,1.5 h -4.914062 a 0.50005,0.50005 0 1 0 0,1 h 4.914062 C -97.171286,582.99999 -96,581.88555 -96,580.5 c 0,-1.38554 -1.171281,-2.5 -2.580078,-2.5 z m -8.916012,0.004 c -1.38554,0 -2.5,1.17128 -2.5,2.58007 0,1.40881 1.16321,2.41797 2.5,2.41797 a 0.50005,0.50005 0 1 0 0,-1 c -0.87198,0 -1.5,-0.52857 -1.5,-1.41797 0,-0.88938 0.67678,-1.58007 1.5,-1.58007 0.82323,0 1.49804,0.69069 1.49804,1.58007 v 4.91211 a 0.50005,0.50005 0 1 0 1,0 v -4.91211 c -10e-6,-1.40879 -1.1125,-2.58007 -2.49804,-2.58007 z m 6.98828,5.98828 A 0.50005,0.50005 0 0 0 -101,584.5 v 4.91211 c 1e-5,1.40879 1.114453,2.58008 2.5,2.58008 1.385539,0 2.5,-1.17128 2.5,-2.58008 0,-1.4088 -1.163215,-2.41992 -2.5,-2.41992 a 0.50005,0.50005 0 1 0 0,1 c 0.871975,0 1.5,0.53052 1.5,1.41992 0,0.88938 -0.676779,1.58008 -1.5,1.58008 -0.823233,0 -1.499992,-0.69069 -1.5,-1.58008 V 584.5 a 0.50005,0.50005 0 0 0 -0.50781,-0.50781 z m -6.90821,3.0039 c -1.40879,2e-5 -2.58007,1.11446 -2.58007,2.5 0,1.38554 1.17128,2.5 2.58007,2.5 1.40881,0 2.41993,-1.16321 2.41993,-2.5 a 0.50005,0.50005 0 1 0 -1,0 c 0,0.87198 -0.53053,1.5 -1.41993,1.5 -0.88938,0 -1.58007,-0.67678 -1.58007,-1.5 0,-0.82323 0.69069,-1.49999 1.58007,-1.5 h 4.91211 a 0.50005,0.50005 0 1 0 0,-1 z"
       id="path10848"
       inkscape:connector-curvature="0" /></g></svg>
