<svg xmlns="http://www.w3.org/2000/svg" viewBox="0 0 20 20" xml:space="preserve">
    <g style="display:inline;fill:#fff;enable-background:new">
        <path style="opacity:1;vector-effect:none;fill:#fff;fill-opacity:1;stroke:none;stroke-width:1;stroke-linecap:round;stroke-linejoin:round;stroke-miterlimit:4;stroke-dasharray:none;stroke-dashoffset:0;stroke-opacity:1;marker:none" d="M75 599v2h1v-2zm3 0v1h2v-1zm4 0v2h1v-2zm-6 3c-2.198 0-4 1.802-4 4 0 .92.327 1.76.855 2.438l-3.709 3.708a.5.5 0 1 0 .708.708l3.709-3.71A3.956 3.956 0 0 0 76 610a4.013 4.013 0 0 0 3.998-4c0-2.198-1.8-4-3.998-4zm6 1v2h1v-2zm-6 .002c1.652 0 3 1.346 3 2.998 0 1.652-1.348 3-3 3s-3-1.348-3-3a3.004 3.004 0 0 1 3-2.998zM82 607v2h1v-2zm-7 4v2h1v-2zm7 0v2h1v-2zm-4 1v1h2v-1z" transform="translate(-65.996 -596.004)"/>
        <path style="color:#000;font-style:normal;font-variant:normal;font-weight:400;font-stretch:normal;font-size:medium;line-height:normal;font-family:sans-serif;font-variant-ligatures:normal;font-variant-position:normal;font-variant-caps:normal;font-variant-numeric:normal;font-variant-alternates:normal;font-feature-settings:normal;text-indent:0;text-align:start;text-decoration:none;text-decoration-line:none;text-decoration-style:solid;text-decoration-color:#000;letter-spacing:normal;word-spacing:normal;text-transform:none;writing-mode:lr-tb;direction:ltr;text-orientation:mixed;dominant-baseline:auto;baseline-shift:baseline;text-anchor:start;white-space:normal;shape-padding:0;clip-rule:nonzero;display:inline;overflow:visible;visibility:visible;opacity:.25;isolation:auto;mix-blend-mode:normal;color-interpolation:sRGB;color-interpolation-filters:linearRGB;solid-color:#000;solid-opacity:1;vector-effect:none;fill:#fff;fill-opacity:1;fill-rule:nonzero;stroke:none;stroke-width:1;stroke-linecap:butt;stroke-linejoin:miter;stroke-miterlimit:4;stroke-dasharray:none;stroke-dashoffset:0;stroke-opacity:1;marker:none;paint-order:fill markers stroke;color-rendering:auto;image-rendering:auto;shape-rendering:auto;text-rendering:auto;enable-background:accumulate" d="M96 620v3.5h1V621h6v12h-6v-2.25h-1V634h8v-14z" transform="translate(-86.996 -617.004)"/>
    </g>
</svg>
