<svg xmlns="http://www.w3.org/2000/svg" viewBox="0 0 20 20" xml:space="preserve">
    <g style="display:inline;fill:#fff;enable-background:new">
        <g style="fill:#fff">
            <g style="opacity:.6;fill:#fff">
                <path d="M532.576 472.98a.55.55 0 0 0-.424.186c-.466.514-1.202 1.131-1.203 2.143 0 1.184.856 2.114 1.944 2.918 1.087.803 2.479 1.527 3.847 2.257.442.236.883.47 1.309.704 1.113.607 2.135 1.214 2.844 1.818.708.604 1.059 1.159 1.058 1.683 0 .481-.328 1.007-.795 1.381a.55.55 0 1 0 .688.86c.653-.524 1.206-1.302 1.207-2.239 0-.994-.62-1.82-1.446-2.523-.825-.703-1.898-1.329-3.03-1.947-.435-.237-.876-.47-1.315-.705-1.374-.734-2.735-1.451-3.713-2.174-.978-.723-1.499-1.407-1.498-2.031 0-.44.397-.831.918-1.405a.55.55 0 0 0-.39-.926zm1.926 7.967a.55.55 0 0 0-.248.06c-.75.376-1.531.76-2.168 1.29-.637.53-1.137 1.27-1.139 2.203 0 .988.536 1.853 1.194 2.418a.551.551 0 1 0 .718-.836c-.447-.385-.812-1.02-.812-1.582.002-.566.254-.952.742-1.36.49-.407 1.207-.773 1.957-1.148a.55.55 0 0 0-.244-1.045z" style="color:#000;font-style:normal;font-variant:normal;font-weight:400;font-stretch:normal;font-size:medium;line-height:normal;font-family:sans-serif;font-variant-ligatures:normal;font-variant-position:normal;font-variant-caps:normal;font-variant-numeric:normal;font-variant-alternates:normal;font-feature-settings:normal;text-indent:0;text-align:start;text-decoration:none;text-decoration-line:none;text-decoration-style:solid;text-decoration-color:#000;letter-spacing:normal;word-spacing:normal;text-transform:none;writing-mode:lr-tb;direction:ltr;text-orientation:mixed;dominant-baseline:auto;baseline-shift:baseline;text-anchor:start;white-space:normal;shape-padding:0;clip-rule:nonzero;display:inline;overflow:visible;visibility:visible;opacity:1;isolation:auto;mix-blend-mode:normal;color-interpolation:sRGB;color-interpolation-filters:linearRGB;solid-color:#000;solid-opacity:1;vector-effect:none;fill:#fff;fill-opacity:1;fill-rule:nonzero;stroke:none;stroke-width:1.1;stroke-linecap:round;stroke-linejoin:round;stroke-miterlimit:4;stroke-dasharray:none;stroke-dashoffset:0;stroke-opacity:1;marker:none;color-rendering:auto;image-rendering:auto;shape-rendering:auto;text-rendering:auto;enable-background:accumulate" transform="translate(-527.474 -469.65)"/>
            </g>
            <path d="M533.5 475a.5.5 0 1 0 0 1h2a.5.5 0 1 0 0-1zm0 9a.5.5 0 1 0 0 1h2a.5.5 0 0 0 .5-.42.5.5 0 0 0 .5.42h4a.5.5 0 1 0 0-1h-4a.5.5 0 0 0-.5.42.5.5 0 0 0-.5-.42z" style="color:#000;font-style:normal;font-variant:normal;font-weight:400;font-stretch:normal;font-size:medium;line-height:normal;font-family:sans-serif;font-variant-ligatures:normal;font-variant-position:normal;font-variant-caps:normal;font-variant-numeric:normal;font-variant-alternates:normal;font-feature-settings:normal;text-indent:0;text-align:start;text-decoration:none;text-decoration-line:none;text-decoration-style:solid;text-decoration-color:#000;letter-spacing:normal;word-spacing:normal;text-transform:none;writing-mode:lr-tb;direction:ltr;text-orientation:mixed;dominant-baseline:auto;baseline-shift:baseline;text-anchor:start;white-space:normal;shape-padding:0;clip-rule:nonzero;display:inline;overflow:visible;visibility:visible;opacity:.5;isolation:auto;mix-blend-mode:normal;color-interpolation:sRGB;color-interpolation-filters:linearRGB;solid-color:#000;solid-opacity:1;vector-effect:none;fill:#fff;fill-opacity:1;fill-rule:nonzero;stroke:none;stroke-width:1px;stroke-linecap:round;stroke-linejoin:round;stroke-miterlimit:4;stroke-dasharray:none;stroke-dashoffset:0;stroke-opacity:1;marker:none;color-rendering:auto;image-rendering:auto;shape-rendering:auto;text-rendering:auto;enable-background:accumulate" transform="translate(-527.474 -469.65)"/>
        </g>
        <path d="M540.5 472.25a3.5 3.5 0 1 0 0 7 3.5 3.5 0 0 0 0-7zm-.5 1h1v2h2v1h-2v2h-1v-2h-2v-1h2z" style="display:inline;opacity:1;vector-effect:none;fill:#fff;fill-opacity:1;stroke:none;stroke-width:.8;stroke-linecap:round;stroke-linejoin:round;stroke-miterlimit:4;stroke-dasharray:none;stroke-dashoffset:0;stroke-opacity:1;marker:none;enable-background:new" transform="translate(-527.474 -469.65)"/>
    </g>
</svg>
