<svg xmlns="http://www.w3.org/2000/svg" viewBox="0 0 20 20" xml:space="preserve">
    <path style="color:#000;font-style:normal;font-variant:normal;font-weight:400;font-stretch:normal;font-size:medium;line-height:normal;font-family:sans-serif;font-variant-ligatures:normal;font-variant-position:normal;font-variant-caps:normal;font-variant-numeric:normal;font-variant-alternates:normal;font-feature-settings:normal;text-indent:0;text-align:start;text-decoration:none;text-decoration-line:none;text-decoration-style:solid;text-decoration-color:#000;letter-spacing:normal;word-spacing:normal;text-transform:none;writing-mode:lr-tb;direction:ltr;text-orientation:mixed;dominant-baseline:auto;baseline-shift:baseline;text-anchor:start;white-space:normal;shape-padding:0;clip-rule:nonzero;display:inline;overflow:visible;visibility:visible;isolation:auto;mix-blend-mode:normal;color-interpolation:sRGB;color-interpolation-filters:linearRGB;solid-color:#000;solid-opacity:1;vector-effect:none;fill:#fff;fill-opacity:1;fill-rule:nonzero;stroke:none;stroke-width:1;stroke-linecap:round;stroke-linejoin:round;stroke-miterlimit:4;stroke-dasharray:none;stroke-dashoffset:0;stroke-opacity:1;marker:none;paint-order:fill markers stroke;color-rendering:auto;image-rendering:auto;shape-rendering:auto;text-rendering:auto;enable-background:new" d="m12.479 3.021-.969.016a.616.616 0 0 0-.057.004c-2.582.33-4.58 2.6-4.45 5.215.028.585.231 1.098.44 1.596l-3.785 3.785c-.337.307-.6.729-.64 1.23-.04.501.172 1.04.625 1.492.453.454.996.659 1.492.614.496-.045.906-.304 1.215-.614l3.807-3.806c.527.225 1.069.433 1.693.45A5.005 5.005 0 0 0 16.965 8.5l.022-.967a.5.5 0 0 0-.854-.365l-2.844 2.838h-1.586L9.996 8.299V6.713l2.844-2.838a.5.5 0 0 0-.361-.854z"/>
</svg>
