<?xml version="1.0" encoding="UTF-8" standalone="no"?>
<svg
   xmlns:dc="http://purl.org/dc/elements/1.1/"
   xmlns:cc="http://creativecommons.org/ns#"
   xmlns:rdf="http://www.w3.org/1999/02/22-rdf-syntax-ns#"
   xmlns:svg="http://www.w3.org/2000/svg"
   xmlns="http://www.w3.org/2000/svg"
   xmlns:sodipodi="http://sodipodi.sourceforge.net/DTD/sodipodi-0.dtd"
   xmlns:inkscape="http://www.inkscape.org/namespaces/inkscape"
   id="Layer_1"
   x="0"
   y="0"
   enable-background="new 0 0 20 20"
   version="1.1"
   viewBox="0 0 20 20"
   xml:space="preserve"
   sodipodi:docname="bl_icons_526.svg"
   inkscape:version="1.0.2 (e86c870879, 2021-01-15, custom)"><metadata
     id="metadata7"><rdf:RDF><cc:Work
         rdf:about=""><dc:format>image/svg+xml</dc:format><dc:type
           rdf:resource="http://purl.org/dc/dcmitype/StillImage" /><dc:title></dc:title></cc:Work></rdf:RDF></metadata><defs
     id="defs5" /><sodipodi:namedview
     pagecolor="#808080"
     bordercolor="#666666"
     borderopacity="1"
     objecttolerance="10"
     gridtolerance="10"
     guidetolerance="10"
     inkscape:pageopacity="0"
     inkscape:pageshadow="2"
     inkscape:window-width="1750"
     inkscape:window-height="991"
     id="namedview3"
     showgrid="false"
     inkscape:pagecheckerboard="true"
     inkscape:zoom="25.577418"
     inkscape:cx="-0.44644607"
     inkscape:cy="8.0087009"
     inkscape:window-x="87"
     inkscape:window-y="37"
     inkscape:window-maximized="0"
     inkscape:current-layer="Layer_1"
     inkscape:document-rotation="0" /><path
     style="color:#000000;font-style:normal;font-variant:normal;font-weight:normal;font-stretch:normal;font-size:medium;line-height:normal;font-family:sans-serif;font-variant-ligatures:normal;font-variant-position:normal;font-variant-caps:normal;font-variant-numeric:normal;font-variant-alternates:normal;font-feature-settings:normal;text-indent:0;text-align:start;text-decoration:none;text-decoration-line:none;text-decoration-style:solid;text-decoration-color:#000000;letter-spacing:normal;word-spacing:normal;text-transform:none;writing-mode:lr-tb;direction:ltr;text-orientation:mixed;dominant-baseline:auto;baseline-shift:baseline;text-anchor:start;white-space:normal;shape-padding:0;clip-rule:nonzero;display:inline;overflow:visible;visibility:visible;isolation:auto;mix-blend-mode:normal;color-interpolation:sRGB;color-interpolation-filters:linearRGB;solid-color:#000000;solid-opacity:1;vector-effect:none;fill:#ffffff;fill-opacity:1;fill-rule:nonzero;stroke:none;stroke-width:1px;stroke-linecap:round;stroke-linejoin:round;stroke-miterlimit:4;stroke-dasharray:none;stroke-dashoffset:0;stroke-opacity:1;marker:none;paint-order:fill markers stroke;color-rendering:auto;image-rendering:auto;shape-rendering:auto;text-rendering:auto;enable-background:accumulate"
     d="m 3.5285849,2.9908622 a 0.50005,0.50005 0 0 1 0.33593,0.1641 l 2.64844,2.84179 h 1.00781 c 0.45995,0.6015 1.17678,1 1.97852,1 h -3.20312 a 0.50005,0.50005 0 0 1 -0.36719,-0.1582 l -2.79492,-2.99999 a 0.50005,0.50005 0 0 1 0.34375,-0.8477 0.50005,0.50005 0 0 1 0.0508,0 z m 5.9707,4.00589 c 0.8017401,0 1.5185701,-0.3985 1.9785201,-1 h 2.02148 a 0.50005,0.50005 0 0 1 0.35352,0.1465 l 3,3 a 0.50005,0.50005 0 1 1 -0.70704,0.707 l -2.85351,-2.8535 h -2.29297 v 3.8319998 c 0.96356,1.6489 2.8299,3.71521 5.58203,4.17391 a 0.50086299,0.50086299 0 1 1 -0.16406,0.9882 c -2.4267,-0.4044 -4.21553,-1.8644 -5.39844,-3.34761 a 0.50005,0.50005 0 0 1 -0.002,0 c -10e-4,0 -0.003,0 -0.004,0 -1.00443,-0.9218 -2.1740401,-1 -3.2285101,-0.2383 -1.05449,0.76181 -1.78322,2.34671 -1.78321,4.09771 a 0.50005,0.50005 0 1 1 -1,0 c -10e-6,-2.0216 0.80114,-3.89961 2.19727,-4.90821 0.69807,-0.5043 1.49696,-0.7238 2.2832,-0.668 0.17359,0.012 0.34649,0.043 0.51758,0.082 a 0.50005,0.50005 0 0 1 0,-0.01 V 6.9984522 Z m 0,-3.99999 c 0.8225001,0 1.5000001,0.6775 1.5000001,1.49999 0,0.8225 -0.6775,1.5 -1.5000001,1.5 -0.8225,0 -1.5,-0.6775 -1.5,-1.5 0,-0.82249 0.6775,-1.49999 1.5,-1.49999 z"
     id="path20567-5"
     inkscape:connector-curvature="0" /></svg>
