<svg xmlns="http://www.w3.org/2000/svg" viewBox="0 0 20 20" xml:space="preserve">
    <path d="M8.993 3C6.905 3 5.514 4.046 4.602 5.187a.5.5 0 0 0 .781.625c.8-1 1.844-1.812 3.61-1.812 2.098 0 3.134.877 3.751 1.945.618 1.069.749 2.371.749 3.055h-5.25c-1.274 0-2.444.364-3.315 1.055A3.711 3.711 0 0 0 3.5 13c0 1.217.557 2.255 1.428 2.945C5.8 16.635 6.97 17 8.243 17h.75c1.755 0 3.387-.967 4.537-2.033.078.533.29 1.004.64 1.355.451.451 1.098.678 1.823.678a.5.5 0 1 0 0-1c-.525 0-.88-.148-1.116-.385-.236-.236-.384-.59-.384-1.115V9c0-.797-.123-2.243-.881-3.555C12.853 4.134 11.389 3 8.992 3zm-.75 7h5.25v3.56c-.955 1.125-2.812 2.44-4.5 2.44h-.75c-1.081 0-2.032-.316-2.694-.84C4.888 14.636 4.5 13.923 4.5 13s.388-1.636 1.05-2.16c.66-.524 1.612-.84 2.693-.84z" style="color:#000;font-style:normal;font-variant:normal;font-weight:400;font-stretch:normal;font-size:medium;line-height:normal;font-family:sans-serif;font-variant-ligatures:normal;font-variant-position:normal;font-variant-caps:normal;font-variant-numeric:normal;font-variant-alternates:normal;font-feature-settings:normal;text-indent:0;text-align:start;text-decoration:none;text-decoration-line:none;text-decoration-style:solid;text-decoration-color:#000;letter-spacing:normal;word-spacing:normal;text-transform:none;writing-mode:lr-tb;direction:ltr;text-orientation:mixed;dominant-baseline:auto;baseline-shift:baseline;text-anchor:start;white-space:normal;shape-padding:0;clip-rule:nonzero;display:inline;overflow:visible;visibility:visible;isolation:auto;mix-blend-mode:normal;color-interpolation:sRGB;color-interpolation-filters:linearRGB;solid-color:#000;solid-opacity:1;vector-effect:none;fill:#fff;fill-opacity:1;fill-rule:nonzero;stroke:none;stroke-width:1px;stroke-linecap:round;stroke-linejoin:round;stroke-miterlimit:4;stroke-dasharray:none;stroke-dashoffset:0;stroke-opacity:1;color-rendering:auto;image-rendering:auto;shape-rendering:auto;text-rendering:auto;enable-background:new"/>
</svg>
