<svg xmlns="http://www.w3.org/2000/svg" viewBox="0 0 20 20" xml:space="preserve">
    <g style="display:inline;fill:#fff;enable-background:new">
        <path style="color:#000;font-style:normal;font-variant:normal;font-weight:400;font-stretch:normal;font-size:medium;line-height:normal;font-family:sans-serif;font-variant-ligatures:normal;font-variant-position:normal;font-variant-caps:normal;font-variant-numeric:normal;font-variant-alternates:normal;font-feature-settings:normal;text-indent:0;text-align:start;text-decoration:none;text-decoration-line:none;text-decoration-style:solid;text-decoration-color:#000;letter-spacing:normal;word-spacing:normal;text-transform:none;writing-mode:lr-tb;direction:ltr;text-orientation:mixed;dominant-baseline:auto;baseline-shift:baseline;text-anchor:start;white-space:normal;shape-padding:0;clip-rule:nonzero;display:inline;overflow:visible;visibility:visible;opacity:1;isolation:auto;mix-blend-mode:normal;color-interpolation:sRGB;color-interpolation-filters:linearRGB;solid-color:#000;solid-opacity:1;vector-effect:none;fill:#fff;fill-opacity:1;fill-rule:nonzero;stroke:none;stroke-width:1;stroke-linecap:round;stroke-linejoin:round;stroke-miterlimit:4;stroke-dasharray:none;stroke-dashoffset:7.4;stroke-opacity:1;color-rendering:auto;image-rendering:auto;shape-rendering:auto;text-rendering:auto;enable-background:new" d="M309.832 496c-.792 0-1.549.393-1.863 1.111-.314.719-.079 1.654.76 2.493l2.5 2.5c.661.661.676 1.1.552 1.382-.123.282-.49.514-.949.514l-7.285-.008 2.139-2.139a.5.5 0 1 0-.707-.707l-2.934 2.936-.01.008a.5.5 0 0 0-.207.416.5.5 0 0 0 0 .008.5.5 0 0 0 .004.047.5.5 0 0 0 .008.049.5.5 0 0 0 .193.298l2.946 2.946a.5.5 0 1 0 .707-.707l-2.155-2.155 7.301.008c.792 0 1.551-.393 1.865-1.111.315-.718.077-1.654-.761-2.492l-2.5-2.5c-.662-.662-.674-1.101-.551-1.383.123-.282.489-.514.947-.514h3.5a.5.5 0 1 0 0-1z" transform="matrix(-1 0 0 1 317.58 -491.927)"/>
    </g>
</svg>
