<?xml version="1.0" encoding="UTF-8" standalone="no"?>
<svg
   xmlns:dc="http://purl.org/dc/elements/1.1/"
   xmlns:cc="http://creativecommons.org/ns#"
   xmlns:rdf="http://www.w3.org/1999/02/22-rdf-syntax-ns#"
   xmlns:svg="http://www.w3.org/2000/svg"
   xmlns="http://www.w3.org/2000/svg"
   xmlns:sodipodi="http://sodipodi.sourceforge.net/DTD/sodipodi-0.dtd"
   xmlns:inkscape="http://www.inkscape.org/namespaces/inkscape"
   id="Layer_1"
   x="0"
   y="0"
   enable-background="new 0 0 20 20"
   version="1.1"
   viewBox="0 0 20 20"
   xml:space="preserve"
   sodipodi:docname="bl_icons_607.svg"
   inkscape:version="1.0.2 (e86c870879, 2021-01-15, custom)"><metadata
     id="metadata7"><rdf:RDF><cc:Work
         rdf:about=""><dc:format>image/svg+xml</dc:format><dc:type
           rdf:resource="http://purl.org/dc/dcmitype/StillImage" /><dc:title></dc:title></cc:Work></rdf:RDF></metadata><defs
     id="defs5" /><sodipodi:namedview
     pagecolor="#808080"
     bordercolor="#666666"
     borderopacity="1"
     objecttolerance="10"
     gridtolerance="10"
     guidetolerance="10"
     inkscape:pageopacity="0"
     inkscape:pageshadow="2"
     inkscape:window-width="1750"
     inkscape:window-height="991"
     id="namedview3"
     showgrid="false"
     inkscape:pagecheckerboard="true"
     inkscape:zoom="25.577418"
     inkscape:cx="-0.44644607"
     inkscape:cy="8.0087009"
     inkscape:window-x="87"
     inkscape:window-y="37"
     inkscape:window-maximized="0"
     inkscape:current-layer="Layer_1"
     inkscape:document-rotation="0" /><g
     transform="translate(26,-575)"
     id="g13349"
     style="display:inline;opacity:0.6;fill:#ffffff;enable-background:new"
     inkscape:export-filename="C:\Users\Andrzej Ambroż\Desktop\mtrx.png"
     inkscape:export-xdpi="96"
     inkscape:export-ydpi="96"><path
       style="color:#000000;font-style:normal;font-variant:normal;font-weight:normal;font-stretch:normal;font-size:medium;line-height:normal;font-family:sans-serif;font-variant-ligatures:normal;font-variant-position:normal;font-variant-caps:normal;font-variant-numeric:normal;font-variant-alternates:normal;font-feature-settings:normal;text-indent:0;text-align:start;text-decoration:none;text-decoration-line:none;text-decoration-style:solid;text-decoration-color:#000000;letter-spacing:normal;word-spacing:normal;text-transform:none;writing-mode:lr-tb;direction:ltr;text-orientation:mixed;dominant-baseline:auto;baseline-shift:baseline;text-anchor:start;white-space:normal;shape-padding:0;clip-rule:nonzero;display:inline;overflow:visible;visibility:visible;opacity:1;isolation:auto;mix-blend-mode:normal;color-interpolation:sRGB;color-interpolation-filters:linearRGB;solid-color:#000000;solid-opacity:1;vector-effect:none;fill:#ffffff;fill-opacity:1;fill-rule:nonzero;stroke:none;stroke-width:1;stroke-linecap:round;stroke-linejoin:round;stroke-miterlimit:4;stroke-dasharray:none;stroke-dashoffset:0;stroke-opacity:1;marker:none;paint-order:fill markers stroke;color-rendering:auto;image-rendering:auto;shape-rendering:auto;text-rendering:auto;enable-background:accumulate"
       d="m 349.5,578 c -1.48507,0 -2.8535,0.46731 -3.86133,1.33594 C 344.63084,580.20456 344,581.48473 344,583 v 3 c 0,0.83333 -0.007,1.35913 -0.11133,1.78711 -0.10481,0.42798 -0.303,0.80502 -0.77929,1.40039 A 0.50005,0.50005 0 0 0 343,589.5 v 2 a 0.50005,0.50005 0 0 0 0.5,0.5 h 1 1 a 0.50005,0.50005 0 0 0 0.33008,-0.12305 l 1.64648,-1.44336 1.41992,1.41993 A 0.50005,0.50005 0 0 0 349.25,592 h 0.5 a 0.50005,0.50005 0 0 0 0.35352,-0.14648 l 1.39648,-1.39649 1.39648,1.39649 A 0.50005,0.50005 0 0 0 353.25,592 h 1.25 a 0.50005,0.50005 0 0 0 0.5,-0.5 v -2 -1 -5.5 c 0,-1.51527 -0.63084,-2.79544 -1.63867,-3.66406 C 352.3535,578.46731 350.98507,578 349.5,578 Z m 0,1 c 1.27493,0 2.40681,0.40238 3.20898,1.09375 C 353.51116,580.78512 354,581.75527 354,583 v 5.5 1 1.5 h -0.54297 l -1.60351,-1.60352 a 0.50005,0.50005 0 0 0 -0.70704,0 L 349.54297,591 h -0.0859 l -1.60351,-1.60352 a 0.50005,0.50005 0 0 0 -0.6836,-0.0234 L 345.3125,591 H 344.5 344 v -1.38867 c 0.42104,-0.55984 0.73249,-1.05984 0.86133,-1.58594 C 345.00652,587.43254 345,586.83333 345,586 v -3 c 0,-1.24473 0.48884,-2.21488 1.29102,-2.90625 C 347.09319,579.40238 348.22507,579 349.5,579 Z m -1.00586,2.99219 a 0.50005,0.50005 0 0 0 -0.34766,0.15429 l -0.64648,0.64649 -0.64648,-0.64649 a 0.50005,0.50005 0 0 0 -0.35938,-0.15234 0.50005,0.50005 0 0 0 -0.34766,0.85938 l 0.64649,0.64648 -0.64649,0.64648 a 0.50005,0.50005 0 1 0 0.70704,0.70704 l 0.64648,-0.64649 0.64648,0.64649 a 0.50005,0.50005 0 1 0 0.70704,-0.70704 l -0.64649,-0.64648 0.64649,-0.64648 a 0.50005,0.50005 0 0 0 -0.35938,-0.86133 z m 4,0 a 0.50005,0.50005 0 0 0 -0.34766,0.15429 l -0.64648,0.64649 -0.64648,-0.64649 a 0.50005,0.50005 0 0 0 -0.35938,-0.15234 0.50005,0.50005 0 0 0 -0.34766,0.85938 l 0.64649,0.64648 -0.64649,0.64648 a 0.50005,0.50005 0 1 0 0.70704,0.70704 l 0.64648,-0.64649 0.64648,0.64649 a 0.50005,0.50005 0 1 0 0.70704,-0.70704 l -0.64649,-0.64648 0.64649,-0.64648 a 0.50005,0.50005 0 0 0 -0.35938,-0.86133 z"
       transform="translate(-365)"
       id="path13343"
       inkscape:connector-curvature="0" /></g></svg>
