<svg xmlns="http://www.w3.org/2000/svg" viewBox="0 0 20 20" xml:space="preserve">
    <path style="color:#000;font-style:normal;font-variant:normal;font-weight:400;font-stretch:normal;font-size:medium;line-height:normal;font-family:sans-serif;font-variant-ligatures:normal;font-variant-position:normal;font-variant-caps:normal;font-variant-numeric:normal;font-variant-alternates:normal;font-feature-settings:normal;text-indent:0;text-align:start;text-decoration:none;text-decoration-line:none;text-decoration-style:solid;text-decoration-color:#000;letter-spacing:normal;word-spacing:normal;text-transform:none;writing-mode:lr-tb;direction:ltr;text-orientation:mixed;dominant-baseline:auto;baseline-shift:baseline;text-anchor:start;white-space:normal;shape-padding:0;clip-rule:nonzero;display:inline;overflow:visible;visibility:visible;isolation:auto;mix-blend-mode:normal;color-interpolation:sRGB;color-interpolation-filters:linearRGB;solid-color:#000;solid-opacity:1;vector-effect:none;fill:#fff;fill-opacity:1;fill-rule:nonzero;stroke:none;stroke-width:1px;stroke-linecap:round;stroke-linejoin:round;stroke-miterlimit:4;stroke-dasharray:none;stroke-dashoffset:0;stroke-opacity:1;marker:none;paint-order:fill markers stroke;color-rendering:auto;image-rendering:auto;shape-rendering:auto;text-rendering:auto;enable-background:new" d="M4.494 2.997a.5.5 0 0 0-.5.5v3a.5.5 0 0 0 .5.5h.86l-.825 3.299a.5.5 0 0 0-.041.168L3.01 16.376a.5.5 0 0 0 .484.62h4.922a.5.5 0 0 0 .16 0h4.893a.5.5 0 0 0 .484-.376L16.99 4.63a.5.5 0 0 0-.484-.623L11.599 4a.5.5 0 0 0-.205 0l-3.4-.004v-.5a.5.5 0 0 0-.5-.5zm.5 1h2v2h-.922a.5.5 0 0 0-.16 0h-.918zm3 1 2.86.004-1.25 4.996h-3.97l.75-3h1.11a.5.5 0 0 0 .5-.5zM11.883 5l3.98.006-1.264 4.99h-3.964zm-6.498 5.996h3.968l-1.25 5H4.135zm5 0h3.96l-1.265 5H9.135z"/>
</svg>
