<svg xmlns="http://www.w3.org/2000/svg" viewBox="0 0 20 20" xml:space="preserve">
    <g style="display:inline;fill:#fff;enable-background:new">
        <g style="fill:#fff">
            <path style="color:#000;font-style:normal;font-variant:normal;font-weight:400;font-stretch:normal;font-size:medium;line-height:normal;font-family:sans-serif;font-variant-ligatures:normal;font-variant-position:normal;font-variant-caps:normal;font-variant-numeric:normal;font-variant-alternates:normal;font-feature-settings:normal;text-indent:0;text-align:start;text-decoration:none;text-decoration-line:none;text-decoration-style:solid;text-decoration-color:#000;letter-spacing:normal;word-spacing:normal;text-transform:none;writing-mode:lr-tb;direction:ltr;text-orientation:mixed;dominant-baseline:auto;baseline-shift:baseline;text-anchor:start;white-space:normal;shape-padding:0;clip-rule:nonzero;display:inline;overflow:visible;visibility:visible;opacity:1;isolation:auto;mix-blend-mode:normal;color-interpolation:sRGB;color-interpolation-filters:linearRGB;solid-color:#000;solid-opacity:1;vector-effect:none;fill:#fff;fill-opacity:1;fill-rule:nonzero;stroke:none;stroke-width:1;stroke-linecap:round;stroke-linejoin:round;stroke-miterlimit:4;stroke-dasharray:none;stroke-dashoffset:0;stroke-opacity:1;marker:none;paint-order:fill markers stroke;color-rendering:auto;image-rendering:auto;shape-rendering:auto;text-rendering:auto;enable-background:accumulate" d="M500.506 518.992a.5.5 0 0 0-.506.508v1a.5.5 0 1 0 1 0v-1a.5.5 0 0 0-.492-.508.5.5 0 0 1-.002 0zm-8.01 2.996a.5.5 0 0 0-.35.153l-3 3a.5.5 0 0 0 0 .707l3 3a.5.5 0 0 0 .36.152.5.5 0 0 0 .348-.86l-2.647-2.646 2.647-2.646a.5.5 0 0 0-.358-.86zm7.01.006a.5.5 0 0 0-.36.153l-1 1a.5.5 0 1 0 .708.707l1-1a.5.5 0 0 0-.348-.86zm-3.03 2.004a.5.5 0 0 0-.097.018l-1 .25a.5.5 0 1 0 .242.969l1-.25a.5.5 0 0 0-.094-.987.5.5 0 0 0-.05 0zm-3 .75a.5.5 0 0 0-.097.018l-1 .25a.5.5 0 1 0 .242.969l1-.25a.5.5 0 0 0-.094-.987.5.5 0 0 0-.05 0z" transform="translate(-485.5 -512)"/>
        </g>
        <path style="color:#000;font-style:normal;font-variant:normal;font-weight:400;font-stretch:normal;font-size:medium;line-height:normal;font-family:sans-serif;font-variant-ligatures:normal;font-variant-position:normal;font-variant-caps:normal;font-variant-numeric:normal;font-variant-alternates:normal;font-feature-settings:normal;text-indent:0;text-align:start;text-decoration:none;text-decoration-line:none;text-decoration-style:solid;text-decoration-color:#000;letter-spacing:normal;word-spacing:normal;text-transform:none;writing-mode:lr-tb;direction:ltr;text-orientation:mixed;dominant-baseline:auto;baseline-shift:baseline;text-anchor:start;white-space:normal;shape-padding:0;clip-rule:nonzero;display:inline;overflow:visible;visibility:visible;opacity:1;isolation:auto;mix-blend-mode:normal;color-interpolation:sRGB;color-interpolation-filters:linearRGB;solid-color:#000;solid-opacity:1;vector-effect:none;fill:#fff;fill-opacity:1;fill-rule:nonzero;stroke:none;stroke-width:1;stroke-linecap:round;stroke-linejoin:round;stroke-miterlimit:4;stroke-dasharray:none;stroke-dashoffset:0;stroke-opacity:1;marker:none;paint-order:fill markers stroke;color-rendering:auto;image-rendering:auto;shape-rendering:auto;text-rendering:auto;enable-background:new" d="M176.5-32c.823 0 1.5-.677 1.5-1.5s-.677-1.5-1.5-1.5-1.5.677-1.5 1.5.677 1.5 1.5 1.5z" transform="matrix(-1 0 0 1 191.5 38)"/>
    </g>
</svg>
