<svg xmlns="http://www.w3.org/2000/svg" viewBox="0 0 20 20" xml:space="preserve">
    <g style="display:inline;fill:#fff;enable-background:new">
        <g style="display:inline;opacity:1;fill:#fff;enable-background:new">
            <path style="color:#000;font-style:normal;font-variant:normal;font-weight:400;font-stretch:normal;font-size:medium;line-height:normal;font-family:sans-serif;font-variant-ligatures:normal;font-variant-position:normal;font-variant-caps:normal;font-variant-numeric:normal;font-variant-alternates:normal;font-feature-settings:normal;text-indent:0;text-align:start;text-decoration:none;text-decoration-line:none;text-decoration-style:solid;text-decoration-color:#000;letter-spacing:normal;word-spacing:normal;text-transform:none;writing-mode:lr-tb;direction:ltr;text-orientation:mixed;dominant-baseline:auto;baseline-shift:baseline;text-anchor:start;white-space:normal;shape-padding:0;clip-rule:nonzero;display:inline;overflow:visible;visibility:visible;opacity:1;isolation:auto;mix-blend-mode:normal;color-interpolation:sRGB;color-interpolation-filters:linearRGB;solid-color:#000;solid-opacity:1;vector-effect:none;fill:#fff;fill-opacity:1;fill-rule:nonzero;stroke:none;stroke-width:1;stroke-linecap:round;stroke-linejoin:round;stroke-miterlimit:4;stroke-dasharray:none;stroke-dashoffset:0;stroke-opacity:1;marker:none;paint-order:fill markers stroke;color-rendering:auto;image-rendering:auto;shape-rendering:auto;text-rendering:auto;enable-background:accumulate" d="M265.264 347.008a4.001 4.001 0 0 0-2.576.729 4 4 0 0 0-1.684 3.31 3.49 3.49 0 0 0-1.963.963 3.497 3.497 0 0 0-1.031 2.39.5.5 0 0 0-.01.1v1a.5.5 0 1 0 1 0v-.965a.5.5 0 0 0 0-.035 2.5 2.5 0 0 1 2.531-2.5.5.5 0 0 0 .496-.62 2.994 2.994 0 0 1 1.239-2.827A3 3 0 0 1 268 351a.5.5 0 0 0 .002.043c-.159-.001-.318-.003-.475.014a4.05 4.05 0 0 0-2.332 1.066.5.5 0 1 0 .684.73 3.076 3.076 0 0 1 3.652-.396c1.171.69 1.722 2.05 1.36 3.334-.363 1.285-1.554 2.177-2.922 2.176-1.369-.001-2.56-.895-2.92-2.18a.5.5 0 0 0-.047-.117.5.5 0 0 0 0-.002.5.5 0 0 0-.016-.098 2.012 2.012 0 0 0-1.857-1.568c-.9-.05-1.735.501-2.025 1.351a.5.5 0 0 0 .947.325 1.014 1.014 0 0 1 1.021-.678c.464.026.843.348.938.783a.5.5 0 0 0 .056.154.5.5 0 0 0 .02.12c.483 1.72 2.075 2.909 3.88 2.91 1.806 0 3.402-1.185 3.887-2.905.486-1.72-.263-3.553-1.814-4.466a4.054 4.054 0 0 0-1.064-.432A.5.5 0 0 0 269 351a4.001 4.001 0 0 0-3.736-3.992z" transform="translate(-255 -344)"/>
        </g>
        <path style="color:#000;font-style:normal;font-variant:normal;font-weight:400;font-stretch:normal;font-size:medium;line-height:normal;font-family:sans-serif;font-variant-ligatures:normal;font-variant-position:normal;font-variant-caps:normal;font-variant-numeric:normal;font-variant-alternates:normal;font-feature-settings:normal;text-indent:0;text-align:start;text-decoration:none;text-decoration-line:none;text-decoration-style:solid;text-decoration-color:#000;letter-spacing:normal;word-spacing:normal;text-transform:none;writing-mode:lr-tb;direction:ltr;text-orientation:mixed;dominant-baseline:auto;baseline-shift:baseline;text-anchor:start;white-space:normal;shape-padding:0;clip-rule:nonzero;display:inline;overflow:visible;visibility:visible;opacity:.6;isolation:auto;mix-blend-mode:normal;color-interpolation:sRGB;color-interpolation-filters:linearRGB;solid-color:#000;solid-opacity:1;vector-effect:none;fill:#fff;fill-opacity:1;fill-rule:nonzero;stroke:none;stroke-width:1;stroke-linecap:round;stroke-linejoin:round;stroke-miterlimit:4;stroke-dasharray:none;stroke-dashoffset:0;stroke-opacity:1;color-rendering:auto;image-rendering:auto;shape-rendering:auto;text-rendering:auto;enable-background:new" d="M290.996 357c-1.099 0-2 .901-2 2s.901 2 2 2 2-.901 2-2-.901-2-2-2z" transform="matrix(-1 0 0 1 296 -344)"/>
    </g>
</svg>
