<svg xmlns="http://www.w3.org/2000/svg" viewBox="0 0 20 20" xml:space="preserve">
    <path style="color:#000;font-style:normal;font-variant:normal;font-weight:400;font-stretch:normal;font-size:medium;line-height:normal;font-family:sans-serif;font-variant-ligatures:normal;font-variant-position:normal;font-variant-caps:normal;font-variant-numeric:normal;font-variant-alternates:normal;font-feature-settings:normal;text-indent:0;text-align:start;text-decoration:none;text-decoration-line:none;text-decoration-style:solid;text-decoration-color:#000;letter-spacing:normal;word-spacing:normal;text-transform:none;writing-mode:lr-tb;direction:ltr;text-orientation:mixed;dominant-baseline:auto;baseline-shift:baseline;text-anchor:start;white-space:normal;shape-padding:0;clip-rule:nonzero;display:inline;overflow:visible;visibility:visible;isolation:auto;mix-blend-mode:normal;color-interpolation:sRGB;color-interpolation-filters:linearRGB;solid-color:#000;solid-opacity:1;vector-effect:none;fill:#fff;fill-opacity:1;fill-rule:nonzero;stroke:none;stroke-width:2;stroke-linecap:round;stroke-linejoin:round;stroke-miterlimit:4;stroke-dasharray:none;stroke-dashoffset:0;stroke-opacity:1;marker:none;color-rendering:auto;image-rendering:auto;shape-rendering:auto;text-rendering:auto;enable-background:accumulate" d="M6.23 8.74a1 1 0 0 0-.687.303L4.066 10.52a3.275 3.275 0 0 0-1.048 2.556c.051.946.51 1.866 1.275 2.631.766.766 1.69 1.215 2.629 1.26.94.045 1.858-.333 2.535-1.01l1.5-1.5a1 1 0 1 0-1.414-1.414l-1.5 1.5c-.323.323-.654.445-1.027.428-.373-.018-.825-.194-1.309-.678-.485-.485-.67-.954-.691-1.328-.02-.374.094-.682.418-.985a1 1 0 0 0 .023-.023l1.5-1.5A1 1 0 0 0 6.23 8.74zm6.848-5.707c-.94-.044-1.858.333-2.535 1.01l-1.5 1.5a1 1 0 1 0 1.414 1.414l1.5-1.5c.323-.323.654-.445 1.027-.428.373.018.825.194 1.309.678.485.485.67.954.691 1.328.02.374-.094.682-.418.985a1 1 0 0 0-.023.023l-1.5 1.5a1 1 0 1 0 1.414 1.414l1.477-1.477a3.275 3.275 0 0 0 1.048-2.556c-.051-.946-.51-1.866-1.275-2.631-.766-.766-1.69-1.215-2.629-1.26zM11.98 6.99a1 1 0 0 0-.687.303l-4 4a1 1 0 1 0 1.414 1.414l4-4a1 1 0 0 0-.727-1.717z"/>
</svg>
