<?xml version="1.0" encoding="UTF-8" standalone="no"?>
<svg
   xmlns:dc="http://purl.org/dc/elements/1.1/"
   xmlns:cc="http://creativecommons.org/ns#"
   xmlns:rdf="http://www.w3.org/1999/02/22-rdf-syntax-ns#"
   xmlns:svg="http://www.w3.org/2000/svg"
   xmlns="http://www.w3.org/2000/svg"
   xmlns:sodipodi="http://sodipodi.sourceforge.net/DTD/sodipodi-0.dtd"
   xmlns:inkscape="http://www.inkscape.org/namespaces/inkscape"
   id="Layer_1"
   x="0"
   y="0"
   enable-background="new 0 0 20 20"
   version="1.1"
   viewBox="0 0 20 20"
   xml:space="preserve"
   sodipodi:docname="bl_icons_663.svg"
   inkscape:version="1.0.2 (e86c870879, 2021-01-15, custom)"><metadata
     id="metadata7"><rdf:RDF><cc:Work
         rdf:about=""><dc:format>image/svg+xml</dc:format><dc:type
           rdf:resource="http://purl.org/dc/dcmitype/StillImage" /><dc:title></dc:title></cc:Work></rdf:RDF></metadata><defs
     id="defs5" /><sodipodi:namedview
     pagecolor="#808080"
     bordercolor="#666666"
     borderopacity="1"
     objecttolerance="10"
     gridtolerance="10"
     guidetolerance="10"
     inkscape:pageopacity="0"
     inkscape:pageshadow="2"
     inkscape:window-width="1750"
     inkscape:window-height="991"
     id="namedview3"
     showgrid="false"
     inkscape:pagecheckerboard="true"
     inkscape:zoom="25.577418"
     inkscape:cx="-0.44644607"
     inkscape:cy="8.0087009"
     inkscape:window-x="87"
     inkscape:window-y="37"
     inkscape:window-maximized="0"
     inkscape:current-layer="Layer_1"
     inkscape:document-rotation="0" /><g
     style="display:inline;fill:#ffffff;enable-background:new"
     id="g19348"
     transform="translate(-696,-1718.5)"><g
       style="fill:#ffffff;stroke:#ffffff"
       id="g19344"><g
         id="g19337"
         style="opacity:0;fill:#ffffff" /><path
         inkscape:connector-curvature="0"
         id="path19342"
         style="color:#000000;font-style:normal;font-variant:normal;font-weight:normal;font-stretch:normal;font-size:medium;line-height:normal;font-family:sans-serif;font-variant-ligatures:normal;font-variant-position:normal;font-variant-caps:normal;font-variant-numeric:normal;font-variant-alternates:normal;font-feature-settings:normal;text-indent:0;text-align:start;text-decoration:none;text-decoration-line:none;text-decoration-style:solid;text-decoration-color:#000000;letter-spacing:normal;word-spacing:normal;text-transform:none;writing-mode:lr-tb;direction:ltr;text-orientation:mixed;dominant-baseline:auto;baseline-shift:baseline;text-anchor:start;white-space:normal;shape-padding:0;clip-rule:nonzero;display:inline;overflow:visible;visibility:visible;opacity:1;isolation:auto;mix-blend-mode:normal;color-interpolation:sRGB;color-interpolation-filters:linearRGB;solid-color:#000000;solid-opacity:1;vector-effect:none;fill:#ffffff;fill-opacity:1;fill-rule:nonzero;stroke:none;stroke-width:1;stroke-linecap:butt;stroke-linejoin:round;stroke-miterlimit:4;stroke-dasharray:none;stroke-dashoffset:0;stroke-opacity:1;marker:none;paint-order:fill markers stroke;color-rendering:auto;image-rendering:auto;shape-rendering:auto;text-rendering:auto;enable-background:accumulate"
         d="m 701,1726 v 7.25 c 0,0.4861 0.17047,0.94 0.49023,1.2598 0.31977,0.3197 0.77366,0.4902 1.25977,0.4902 h 6.5 c 0.48611,0 0.94,-0.1705 1.25977,-0.4902 C 710.82953,1734.19 711,1733.7361 711,1733.25 V 1726 h -1 v 7.25 c 0,0.2639 -0.0795,0.435 -0.19727,0.5527 C 709.685,1733.9205 709.51389,1734 709.25,1734 h -6.5 c -0.26389,0 -0.435,-0.08 -0.55273,-0.1973 C 702.07953,1733.685 702,1733.5139 702,1733.25 V 1726 Z m 3.5,-4 c -0.27613,0 -0.49997,0.2239 -0.5,0.5 v 1.5 h -3.5 c -0.67616,-0.01 -0.67616,1.0096 0,1 h 11 c 0.67616,0.01 0.67616,-1.0096 0,-1 H 708 v -1.5 c -3e-5,-0.2761 -0.22387,-0.5 -0.5,-0.5 z m 0.5,1 h 2 v 1 h -2 z"
         sodipodi:nodetypes="cscsscsccscsscscccccccccccccccccc" /></g><path
       style="color:#000000;font-style:normal;font-variant:normal;font-weight:normal;font-stretch:normal;font-size:medium;line-height:normal;font-family:sans-serif;font-variant-ligatures:normal;font-variant-position:normal;font-variant-caps:normal;font-variant-numeric:normal;font-variant-alternates:normal;font-feature-settings:normal;text-indent:0;text-align:start;text-decoration:none;text-decoration-line:none;text-decoration-style:solid;text-decoration-color:#000000;letter-spacing:normal;word-spacing:normal;text-transform:none;writing-mode:lr-tb;direction:ltr;text-orientation:mixed;dominant-baseline:auto;baseline-shift:baseline;text-anchor:start;white-space:normal;shape-padding:0;clip-rule:nonzero;display:inline;overflow:visible;visibility:visible;opacity:0.6;isolation:auto;mix-blend-mode:normal;color-interpolation:sRGB;color-interpolation-filters:linearRGB;solid-color:#000000;solid-opacity:1;vector-effect:none;fill:#ffffff;fill-opacity:1;fill-rule:nonzero;stroke:none;stroke-width:1px;stroke-linecap:round;stroke-linejoin:round;stroke-miterlimit:4;stroke-dasharray:none;stroke-dashoffset:0;stroke-opacity:1;color-rendering:auto;image-rendering:auto;shape-rendering:auto;text-rendering:auto;enable-background:accumulate"
       d="m 704.49219,1726.9922 c -0.27614,0 -0.4965,0.2317 -0.49219,0.5078 v 4 c -0.01,0.6762 1.00956,0.6762 1,0 v -4 c 0.004,-0.2823 -0.22555,-0.5122 -0.50781,-0.5078 z m 3,0 c -0.27614,0 -0.4965,0.2317 -0.49219,0.5078 v 4 c -0.01,0.6762 1.00956,0.6762 1,0 v -4 c 0.004,-0.2823 -0.22555,-0.5122 -0.50781,-0.5078 z"
       id="path19346"
       inkscape:connector-curvature="0"
       sodipodi:nodetypes="cccccccccccc" /></g></svg>
