<?xml version="1.0" encoding="UTF-8" standalone="no"?>
<svg
   xmlns:dc="http://purl.org/dc/elements/1.1/"
   xmlns:cc="http://creativecommons.org/ns#"
   xmlns:rdf="http://www.w3.org/1999/02/22-rdf-syntax-ns#"
   xmlns:svg="http://www.w3.org/2000/svg"
   xmlns="http://www.w3.org/2000/svg"
   xmlns:sodipodi="http://sodipodi.sourceforge.net/DTD/sodipodi-0.dtd"
   xmlns:inkscape="http://www.inkscape.org/namespaces/inkscape"
   id="Layer_1"
   x="0"
   y="0"
   enable-background="new 0 0 20 20"
   version="1.1"
   viewBox="0 0 20 20"
   xml:space="preserve"
   sodipodi:docname="bl_icons_591.svg"
   inkscape:version="1.0.2 (e86c870879, 2021-01-15, custom)"><metadata
     id="metadata7"><rdf:RDF><cc:Work
         rdf:about=""><dc:format>image/svg+xml</dc:format><dc:type
           rdf:resource="http://purl.org/dc/dcmitype/StillImage" /><dc:title></dc:title></cc:Work></rdf:RDF></metadata><defs
     id="defs5" /><sodipodi:namedview
     pagecolor="#808080"
     bordercolor="#666666"
     borderopacity="1"
     objecttolerance="10"
     gridtolerance="10"
     guidetolerance="10"
     inkscape:pageopacity="0"
     inkscape:pageshadow="2"
     inkscape:window-width="1750"
     inkscape:window-height="991"
     id="namedview3"
     showgrid="false"
     inkscape:pagecheckerboard="true"
     inkscape:zoom="25.577418"
     inkscape:cx="-0.44644607"
     inkscape:cy="8.0087009"
     inkscape:window-x="87"
     inkscape:window-y="37"
     inkscape:window-maximized="0"
     inkscape:current-layer="Layer_1"
     inkscape:document-rotation="0" /><path
     id="path22885-3-7"
     d="m 9.9922,2.9999305 c -0.1299,0 -0.2539,0.055 -0.3457,0.1465 -1.4018,1.4018 -2.9571,1.8535 -5.6465,1.8535 -0.2761,0 -0.5,0.2239 -0.5,0.5 v 3 c 0,2.4626995 0.6805,4.0681995 1.7871,5.2753995 1.1066,1.2072 2.5736,2.0242 4.1777,3.1348 0.084,0.058 0.1832,0.09 0.2852,0.09 h 0.5 c 0.102,-2e-4 0.2015,-0.032 0.2852,-0.09 1.6041,-1.1106 3.0711,-1.9276 4.1777,-3.1348 1.1066,-1.2072 1.7871,-2.8127 1.7871,-5.2753995 v -3 c 0,-0.2761 -0.2239,-0.5 -0.5,-0.5 -2.6894,0 -4.2447,-0.4517 -5.6465,-1.8535 -0.096,-0.096 -0.226,-0.1486 -0.3613,-0.1465 z m 3.4766,3.9902 a 1.0001,1.0001 0 0 1 0.8124,1.6348 l -4,4.9999995 a 1.0001,1.0001 0 0 1 -1.4882,0.082 l -2,-2 a 1.0001,1.0001 0 1 1 1.414,-1.414 l 1.209,1.209 3.3028,-4.1269995 a 1.0001,1.0001 0 0 1 0.75,-0.3848 z"
     style="color:#000000;font-style:normal;font-variant:normal;font-weight:normal;font-stretch:normal;font-size:medium;line-height:normal;font-family:sans-serif;font-variant-ligatures:normal;font-variant-position:normal;font-variant-caps:normal;font-variant-numeric:normal;font-variant-alternates:normal;font-feature-settings:normal;text-indent:0;text-align:start;text-decoration:none;text-decoration-line:none;text-decoration-style:solid;text-decoration-color:#000000;letter-spacing:normal;word-spacing:normal;text-transform:none;writing-mode:lr-tb;direction:ltr;text-orientation:mixed;dominant-baseline:auto;baseline-shift:baseline;text-anchor:start;white-space:normal;shape-padding:0;clip-rule:nonzero;display:inline;overflow:visible;visibility:visible;isolation:auto;mix-blend-mode:normal;color-interpolation:sRGB;color-interpolation-filters:linearRGB;solid-color:#000000;solid-opacity:1;vector-effect:none;fill:#ffffff;fill-opacity:1;fill-rule:nonzero;stroke:none;stroke-width:1px;stroke-linecap:round;stroke-linejoin:round;stroke-miterlimit:4;stroke-dasharray:none;stroke-dashoffset:0;stroke-opacity:1;marker:none;paint-order:fill markers stroke;color-rendering:auto;image-rendering:auto;shape-rendering:auto;text-rendering:auto;enable-background:new"
     inkscape:connector-curvature="0" /></svg>
