<svg xmlns="http://www.w3.org/2000/svg" viewBox="0 0 20 20" xml:space="preserve">
    <g style="display:inline;fill:#fff;enable-background:new">
        <path transform="translate(-87.004 -553.996)" d="M103.496 556.99a.5.5 0 0 0-.344.15l-1.57 1.57a6.962 6.962 0 0 0-4.576-1.716c-3.86 0-7 3.14-7 7 0 1.75.65 3.35 1.715 4.578l-1.569 1.569a.5.5 0 1 0 .707.707l1.569-1.569a6.966 6.966 0 0 0 4.578 1.715c3.86 0 7-3.14 7-7 0-1.75-.651-3.347-1.717-4.576l1.57-1.57a.5.5 0 0 0-.363-.858zm-6.49 1.004c3.32 0 6 2.68 6 6s-2.68 6-6 6a5.992 5.992 0 0 1-5.467-8.467l.467.467 1 1v2h2v1l1 1v2h2l1-1 1-1v-1l-1-1h-3l-1-1h-1l1-1h1l2-2-1-1h-1l-1-1 .894-.894a6.043 6.043 0 0 1 1.106-.106z" style="color:#000;font-style:normal;font-variant:normal;font-weight:400;font-stretch:normal;font-size:medium;line-height:normal;font-family:sans-serif;font-variant-ligatures:normal;font-variant-position:normal;font-variant-caps:normal;font-variant-numeric:normal;font-variant-alternates:normal;font-feature-settings:normal;text-indent:0;text-align:start;text-decoration:none;text-decoration-line:none;text-decoration-style:solid;text-decoration-color:#000;letter-spacing:normal;word-spacing:normal;text-transform:none;writing-mode:lr-tb;direction:ltr;text-orientation:mixed;dominant-baseline:auto;baseline-shift:baseline;text-anchor:start;white-space:normal;shape-padding:0;clip-rule:nonzero;display:inline;overflow:visible;visibility:visible;opacity:.99;isolation:auto;mix-blend-mode:normal;color-interpolation:sRGB;color-interpolation-filters:linearRGB;solid-color:#000;solid-opacity:1;vector-effect:none;fill:#fff;fill-opacity:1;fill-rule:nonzero;stroke:none;stroke-width:1;stroke-linecap:round;stroke-linejoin:round;stroke-miterlimit:4;stroke-dasharray:none;stroke-dashoffset:0;stroke-opacity:1;marker:none;color-rendering:auto;image-rendering:auto;shape-rendering:auto;text-rendering:auto;enable-background:accumulate"/>
    </g>
</svg>
