<?xml version="1.0" encoding="UTF-8" standalone="no"?>
<svg
   xmlns:dc="http://purl.org/dc/elements/1.1/"
   xmlns:cc="http://creativecommons.org/ns#"
   xmlns:rdf="http://www.w3.org/1999/02/22-rdf-syntax-ns#"
   xmlns:svg="http://www.w3.org/2000/svg"
   xmlns="http://www.w3.org/2000/svg"
   xmlns:sodipodi="http://sodipodi.sourceforge.net/DTD/sodipodi-0.dtd"
   xmlns:inkscape="http://www.inkscape.org/namespaces/inkscape"
   id="Layer_1"
   x="0"
   y="0"
   enable-background="new 0 0 20 20"
   version="1.1"
   viewBox="0 0 20 20"
   xml:space="preserve"
   sodipodi:docname="bl_icons_574.svg"
   inkscape:version="1.0.2 (e86c870879, 2021-01-15, custom)"><metadata
     id="metadata7"><rdf:RDF><cc:Work
         rdf:about=""><dc:format>image/svg+xml</dc:format><dc:type
           rdf:resource="http://purl.org/dc/dcmitype/StillImage" /><dc:title></dc:title></cc:Work></rdf:RDF></metadata><defs
     id="defs5" /><sodipodi:namedview
     pagecolor="#808080"
     bordercolor="#666666"
     borderopacity="1"
     objecttolerance="10"
     gridtolerance="10"
     guidetolerance="10"
     inkscape:pageopacity="0"
     inkscape:pageshadow="2"
     inkscape:window-width="1750"
     inkscape:window-height="991"
     id="namedview3"
     showgrid="false"
     inkscape:pagecheckerboard="true"
     inkscape:zoom="25.577418"
     inkscape:cx="-0.44644607"
     inkscape:cy="8.0087009"
     inkscape:window-x="87"
     inkscape:window-y="37"
     inkscape:window-maximized="0"
     inkscape:current-layer="Layer_1"
     inkscape:document-rotation="0" /><g
     id="g17491"
     transform="matrix(0.875,0,0,0.875,-221.87498,-373.24998)"
     style="display:inline;fill:#ffffff;stroke-width:1.14286;enable-background:new"
     inkscape:export-filename="C:\Users\Andrzej Ambroż\Desktop\mtrx.png"
     inkscape:export-xdpi="96"
     inkscape:export-ydpi="96"><rect
       y="430"
       x="257"
       height="16"
       width="16"
       id="rect17483"
       style="display:inline;overflow:visible;visibility:visible;opacity:0;fill:#ffffff;stroke:none;stroke-width:3.42857;marker:none;enable-background:accumulate" /><path
       style="color:#000000;font-style:normal;font-variant:normal;font-weight:normal;font-stretch:normal;font-size:medium;line-height:normal;font-family:sans-serif;font-variant-ligatures:normal;font-variant-position:normal;font-variant-caps:normal;font-variant-numeric:normal;font-variant-alternates:normal;font-feature-settings:normal;text-indent:0;text-align:start;text-decoration:none;text-decoration-line:none;text-decoration-style:solid;text-decoration-color:#000000;letter-spacing:normal;word-spacing:normal;text-transform:none;writing-mode:lr-tb;direction:ltr;text-orientation:mixed;dominant-baseline:auto;baseline-shift:baseline;text-anchor:start;white-space:normal;shape-padding:0;clip-rule:nonzero;display:inline;overflow:visible;visibility:visible;opacity:1;isolation:auto;mix-blend-mode:normal;color-interpolation:sRGB;color-interpolation-filters:linearRGB;solid-color:#000000;solid-opacity:1;vector-effect:none;fill:#ffffff;fill-opacity:1;fill-rule:evenodd;stroke:none;stroke-width:1;stroke-linecap:round;stroke-linejoin:round;stroke-miterlimit:4;stroke-dasharray:none;stroke-dashoffset:0;stroke-opacity:1;marker:none;color-rendering:auto;image-rendering:auto;shape-rendering:auto;text-rendering:auto;enable-background:accumulate"
       d="m 496,535.9375 c -2.73936,0 -5.1213,1.56371 -6.29102,3.84961 -0.49329,0.96401 -0.77148,2.05765 -0.77148,3.21289 0,3.89459 3.16791,7.0625 7.0625,7.0625 3.89459,0 7.0625,-3.16791 7.0625,-7.0625 0,-3.89459 -3.16791,-7.0625 -7.0625,-7.0625 z m 0,1 c 3.35415,0 6.0625,2.70835 6.0625,6.0625 0,3.35415 -2.70834,6.0625 -6.0625,6.0625 -3.35415,0 -6.0625,-2.70835 -6.0625,-6.0625 0,-0.99492 0.23889,-1.93072 0.66211,-2.75781 1.00359,-1.96124 3.04116,-3.30469 5.40039,-3.30469 z M 496,538 a 0.99999996,0.99999996 0 0 0 -1,1 0.99999996,0.99999996 0 0 0 1,1 0.99999996,0.99999996 0 0 0 1,-1 0.99999996,0.99999996 0 0 0 -1,-1 z m -2.82422,1.16211 a 1.0001001,1.0001001 0 0 0 -0.6875,0.30469 c -0.61854,0.6208 -1.06287,1.393 -1.28906,2.24023 a 1.0001001,1.0001001 0 1 0 1.93164,0.51563 c 0.13595,-0.50922 0.40262,-0.97353 0.77344,-1.34571 a 1.0001001,1.0001001 0 0 0 -0.72852,-1.71484 z"
       transform="matrix(1.1428571,0,0,1.1428571,-301.85714,-182.57143)"
       id="path17485"
       inkscape:connector-curvature="0" /></g></svg>
