<svg xmlns="http://www.w3.org/2000/svg" viewBox="0 0 20 20" xml:space="preserve">
    <g style="display:inline;enable-background:new">
        <path transform="translate(-549.002 -281.016)" d="M554.5 284a2.508 2.508 0 0 0-2.5 2.5v2.008c0 1.375 1.125 2.5 2.5 2.5s2.5-1.125 2.5-2.5v-.5h2.01l-.014 3.287c-1.66 1.41-3.241 2.622-3.988 6.107-.178.675.86.899.976.211.676-3.151 1.924-4.088 3.518-5.427 1.584 1.34 2.831 2.277 3.52 5.43.133.666 1.135.445.976-.216-.763-3.494-2.351-4.703-4.002-6.117l.014-3.275H565.512c.657-.01.657-.99 0-1h-3.043a2.494 2.494 0 0 1-1.969.992c-.798 0-1.51-.396-1.969-.992H557v-.508c0-1.375-1.125-2.5-2.5-2.5zm6 .008c-.82 0-1.496.676-1.496 1.496S559.679 287 560.5 287c.82 0 1.496-.675 1.496-1.496 0-.82-.675-1.496-1.496-1.496zm-6 .992c.834 0 1.5.666 1.5 1.5v2.008c0 .834-.666 1.5-1.5 1.5s-1.5-.666-1.5-1.5V286.5c0-.834.666-1.5 1.5-1.5z" style="color:#000;font-style:normal;font-variant:normal;font-weight:400;font-stretch:normal;font-size:medium;line-height:normal;font-family:sans-serif;font-variant-ligatures:normal;font-variant-position:normal;font-variant-caps:normal;font-variant-numeric:normal;font-variant-alternates:normal;font-feature-settings:normal;text-indent:0;text-align:start;text-decoration:none;text-decoration-line:none;text-decoration-style:solid;text-decoration-color:#000;letter-spacing:normal;word-spacing:normal;text-transform:none;writing-mode:lr-tb;direction:ltr;text-orientation:mixed;dominant-baseline:auto;baseline-shift:baseline;text-anchor:start;white-space:normal;shape-padding:0;clip-rule:nonzero;display:inline;overflow:visible;visibility:visible;opacity:1;isolation:auto;mix-blend-mode:normal;color-interpolation:sRGB;color-interpolation-filters:linearRGB;solid-color:#000;solid-opacity:1;vector-effect:none;fill:#fff;fill-opacity:1;fill-rule:nonzero;stroke:none;stroke-width:1;stroke-linecap:round;stroke-linejoin:round;stroke-miterlimit:4;stroke-dasharray:none;stroke-dashoffset:7.4;stroke-opacity:1;marker:none;paint-order:fill markers stroke;color-rendering:auto;image-rendering:auto;shape-rendering:auto;text-rendering:auto;enable-background:accumulate"/>
    </g>
</svg>
