<?xml version="1.0" encoding="UTF-8" standalone="no"?>
<svg
   xmlns:dc="http://purl.org/dc/elements/1.1/"
   xmlns:cc="http://creativecommons.org/ns#"
   xmlns:rdf="http://www.w3.org/1999/02/22-rdf-syntax-ns#"
   xmlns:svg="http://www.w3.org/2000/svg"
   xmlns="http://www.w3.org/2000/svg"
   xmlns:sodipodi="http://sodipodi.sourceforge.net/DTD/sodipodi-0.dtd"
   xmlns:inkscape="http://www.inkscape.org/namespaces/inkscape"
   id="Layer_1"
   x="0"
   y="0"
   enable-background="new 0 0 20 20"
   version="1.1"
   viewBox="0 0 20 20"
   xml:space="preserve"
   sodipodi:docname="bl_icons_531.svg"
   inkscape:version="1.0.2 (e86c870879, 2021-01-15, custom)"><metadata
     id="metadata7"><rdf:RDF><cc:Work
         rdf:about=""><dc:format>image/svg+xml</dc:format><dc:type
           rdf:resource="http://purl.org/dc/dcmitype/StillImage" /><dc:title></dc:title></cc:Work></rdf:RDF></metadata><defs
     id="defs5" /><sodipodi:namedview
     pagecolor="#808080"
     bordercolor="#666666"
     borderopacity="1"
     objecttolerance="10"
     gridtolerance="10"
     guidetolerance="10"
     inkscape:pageopacity="0"
     inkscape:pageshadow="2"
     inkscape:window-width="1750"
     inkscape:window-height="991"
     id="namedview3"
     showgrid="false"
     inkscape:pagecheckerboard="true"
     inkscape:zoom="25.577418"
     inkscape:cx="-0.44644607"
     inkscape:cy="8.0087009"
     inkscape:window-x="87"
     inkscape:window-y="37"
     inkscape:window-maximized="0"
     inkscape:current-layer="Layer_1"
     inkscape:document-rotation="0" /><g
     style="display:inline;fill:#ffffff;enable-background:new"
     id="g13344"
     transform="translate(-486,-470)"><path
       style="color:#000000;font-style:normal;font-variant:normal;font-weight:normal;font-stretch:normal;font-size:medium;line-height:normal;font-family:sans-serif;font-variant-ligatures:normal;font-variant-position:normal;font-variant-caps:normal;font-variant-numeric:normal;font-variant-alternates:normal;font-feature-settings:normal;text-indent:0;text-align:start;text-decoration:none;text-decoration-line:none;text-decoration-style:solid;text-decoration-color:#000000;letter-spacing:normal;word-spacing:normal;text-transform:none;writing-mode:lr-tb;direction:ltr;text-orientation:mixed;dominant-baseline:auto;baseline-shift:baseline;text-anchor:start;white-space:normal;shape-padding:0;clip-rule:nonzero;display:inline;overflow:visible;visibility:visible;opacity:1;isolation:auto;mix-blend-mode:normal;color-interpolation:sRGB;color-interpolation-filters:linearRGB;solid-color:#000000;solid-opacity:1;vector-effect:none;fill:#ffffff;fill-opacity:1;fill-rule:nonzero;stroke:none;stroke-width:1;stroke-linecap:round;stroke-linejoin:round;stroke-miterlimit:4;stroke-dasharray:none;stroke-dashoffset:0;stroke-opacity:1;marker:none;paint-order:fill markers stroke;color-rendering:auto;image-rendering:auto;shape-rendering:auto;text-rendering:auto;enable-background:new"
       d="m 449.5,494 c -0.27613,3e-5 -0.49997,0.22387 -0.5,0.5 v 1 c 0,-0.0417 0.006,-0.0117 -0.0469,0.0547 -0.0531,0.0664 -0.15023,0.15467 -0.2539,0.23242 -0.16609,0.12457 -0.2761,0.17993 -0.33789,0.21289 H 447.5 c -0.27613,3e-5 -0.49997,0.22387 -0.5,0.5 v 1 c 3e-5,0.27613 0.22387,0.49997 0.5,0.5 h 1.77539 c 0.40889,-0.49501 0.89786,-0.93068 1.47461,-1.26367 l 0.42578,-0.26758 L 451,496.29297 V 494.5 c -3e-5,-0.27613 -0.22387,-0.49997 -0.5,-0.5 z m 8.28125,0.002 c -0.50453,0.0148 -1.01019,0.15125 -1.46875,0.41602 a 0.50005,0.50005 0 0 0 -0.0156,0.01 l -5.04688,3.17579 -0.0156,0.01 a 0.50005,0.50005 0 0 0 -0.19532,0.2207 c -1.45784,0.9884 -2.27996,2.6934 -1.9707,4.44727 0.32821,1.86134 1.78904,3.32218 3.65039,3.65039 0.641,0.11303 1.28349,0.0836 1.88867,-0.0703 a 0.50005,0.50005 0 1 0 -0.24609,-0.96875 c -0.47064,0.11969 -0.96915,0.14277 -1.46875,0.0547 -1.45073,-0.25581 -2.58404,-1.38913 -2.83985,-2.83985 -0.2558,-1.45072 0.42152,-2.90212 1.69727,-3.63867 a 0.50005,0.50005 0 0 0 0.0156,-0.01 l 0.0274,-0.0156 a 0.50005,0.50005 0 0 0 0.01,-0.008 l 5.00977,-3.15039 c 0.83503,-0.4821 1.88265,-0.34391 2.56445,0.33789 0.6818,0.68178 0.81999,1.72943 0.33789,2.56445 a 0.50005,0.50005 0 0 0 -0.006,0.0137 0.50005,0.50005 0 0 0 -0.0195,0.0371 l -1.6289,3.02539 a 0.50005,0.50005 0 1 0 0.8789,0.47266 l 1.63477,-3.03711 0.008,-0.0117 c 6.7e-4,-10e-4 -6.7e-4,-0.003 0,-0.004 l 0.006,-0.01 a 0.50005,0.50005 0 0 0 0.0586,-0.3125 c 0.51014,-1.16591 0.35331,-2.52952 -0.5625,-3.44531 -0.49921,-0.49921 -1.13538,-0.80107 -1.80078,-0.88868 -0.16635,-0.0219 -0.33377,-0.0303 -0.50195,-0.0254 z M 458,496 a 1,1 0 0 0 -1,1 1,1 0 0 0 1,1 1,1 0 0 0 1,-1 1,1 0 0 0 -1,-1 z m -4.65039,2.64258 -1.05078,0.66211 a 1.50015,1.50015 0 0 1 -0.0488,0.0293 c -0.34485,0.1991 -0.62663,0.47142 -0.83594,0.78711 l 4.22461,4.22657 1.3613,1.35936 V 507.5 c 3e-5,0.27613 0.22387,0.49997 0.5,0.5 h 1 c 0.27613,-3e-5 0.49997,-0.22387 0.5,-0.5 v -1 c 0,-0.0833 0.0571,-0.22505 0.16602,-0.33398 C 459.27495,506.05708 459.41667,506 459.5,506 h 1 c 0.27613,-3e-5 0.49997,-0.22387 0.5,-0.5 v -1 c -3e-5,-0.27613 -0.22387,-0.49997 -0.5,-0.5 h -1.79297 z"
       transform="translate(42.000002,-21.000005)"
       id="path13315"
       inkscape:connector-curvature="0" /></g></svg>
