<svg xmlns="http://www.w3.org/2000/svg" viewBox="0 0 20 20" xml:space="preserve">
    <g style="display:inline;fill:#fff;enable-background:new">
        <path style="color:#000;font-style:normal;font-variant:normal;font-weight:400;font-stretch:normal;font-size:medium;line-height:normal;font-family:sans-serif;font-variant-ligatures:normal;font-variant-position:normal;font-variant-caps:normal;font-variant-numeric:normal;font-variant-alternates:normal;font-feature-settings:normal;text-indent:0;text-align:start;text-decoration:none;text-decoration-line:none;text-decoration-style:solid;text-decoration-color:#000;letter-spacing:normal;word-spacing:normal;text-transform:none;writing-mode:lr-tb;direction:ltr;text-orientation:mixed;dominant-baseline:auto;baseline-shift:baseline;text-anchor:start;white-space:normal;shape-padding:0;clip-rule:nonzero;display:inline;overflow:visible;visibility:visible;opacity:.6;isolation:auto;mix-blend-mode:normal;color-interpolation:sRGB;color-interpolation-filters:linearRGB;solid-color:#000;solid-opacity:1;vector-effect:none;fill:#fff;fill-opacity:1;fill-rule:nonzero;stroke:none;stroke-width:1;stroke-linecap:round;stroke-linejoin:round;stroke-miterlimit:4;stroke-dasharray:none;stroke-dashoffset:0;stroke-opacity:1;marker:none;color-rendering:auto;image-rendering:auto;shape-rendering:auto;text-rendering:auto;enable-background:new" d="M447.5 200a.5.5 0 0 0-.5.5v4a.5.5 0 1 0 1 0V201h3.5a.5.5 0 1 0 0-1zm9.008 0a.5.5 0 1 0 0 1h3.5v3.5a.5.5 0 1 0 1 0v-4a.5.5 0 0 0-.5-.5zm-9.016 9a.5.5 0 0 0-.492.508v4a.5.5 0 0 0 .5.5h4a.5.5 0 1 0 0-1H448v-3.5a.5.5 0 0 0-.508-.508zm13.008 0a.5.5 0 0 0-.492.508v3.5h-3.5a.5.5 0 1 0 0 1h4a.5.5 0 0 0 .5-.5v-4a.5.5 0 0 0-.508-.508z" transform="translate(-444.004 -197.004)"/>
        <path style="color:#000;font-style:normal;font-variant:normal;font-weight:400;font-stretch:normal;font-size:medium;line-height:normal;font-family:sans-serif;font-variant-ligatures:normal;font-variant-position:normal;font-variant-caps:normal;font-variant-numeric:normal;font-variant-alternates:normal;font-feature-settings:normal;text-indent:0;text-align:start;text-decoration:none;text-decoration-line:none;text-decoration-style:solid;text-decoration-color:#000;letter-spacing:normal;word-spacing:normal;text-transform:none;writing-mode:lr-tb;direction:ltr;text-orientation:mixed;dominant-baseline:auto;baseline-shift:baseline;text-anchor:start;white-space:normal;shape-padding:0;clip-rule:nonzero;display:inline;overflow:visible;visibility:visible;opacity:1;isolation:auto;mix-blend-mode:normal;color-interpolation:sRGB;color-interpolation-filters:linearRGB;solid-color:#000;solid-opacity:1;vector-effect:none;fill:#fff;fill-opacity:1;fill-rule:nonzero;stroke:none;stroke-width:1;stroke-linecap:round;stroke-linejoin:round;stroke-miterlimit:4;stroke-dasharray:none;stroke-dashoffset:0;stroke-opacity:1;marker:none;color-rendering:auto;image-rendering:auto;shape-rendering:auto;text-rendering:auto;enable-background:accumulate" d="M449.5 203a.5.5 0 1 0 0 1h1c.392 0 .749.274 1.137.867s.744 1.446 1.086 2.317c.342.87.67 1.756 1.068 2.466.199.356.413.67.686.918.272.249.627.432 1.023.432.625 0 1.133-.276 1.447-.646.314-.37.473-.798.616-1.178.142-.38.272-.718.414-.91.141-.193.228-.266.523-.266a.5.5 0 1 0 0-1c-.58 0-1.056.302-1.328.672-.272.37-.409.783-.547 1.152-.138.37-.277.693-.44.885-.162.192-.31.291-.685.291-.104 0-.202-.035-.35-.17-.147-.135-.32-.367-.488-.668-.337-.602-.664-1.466-1.01-2.346-.345-.88-.708-1.776-1.18-2.496-.47-.72-1.114-1.32-1.972-1.32z" transform="translate(-444.004 -197.004)"/>
    </g>
</svg>
