<svg xmlns="http://www.w3.org/2000/svg" viewBox="0 0 20 20" xml:space="preserve">
    <path style="color:#000;font-style:normal;font-variant:normal;font-weight:400;font-stretch:normal;font-size:medium;line-height:normal;font-family:sans-serif;font-variant-ligatures:normal;font-variant-position:normal;font-variant-caps:normal;font-variant-numeric:normal;font-variant-alternates:normal;font-feature-settings:normal;text-indent:0;text-align:start;text-decoration:none;text-decoration-line:none;text-decoration-style:solid;text-decoration-color:#000;letter-spacing:normal;word-spacing:normal;text-transform:none;writing-mode:lr-tb;direction:ltr;text-orientation:mixed;dominant-baseline:auto;baseline-shift:baseline;text-anchor:start;white-space:normal;shape-padding:0;clip-rule:nonzero;display:inline;overflow:visible;visibility:visible;isolation:auto;mix-blend-mode:normal;color-interpolation:sRGB;color-interpolation-filters:linearRGB;solid-color:#000;solid-opacity:1;vector-effect:none;fill:#fff;fill-opacity:1;fill-rule:evenodd;stroke:none;stroke-width:1;stroke-linecap:round;stroke-linejoin:round;stroke-miterlimit:4;stroke-dasharray:none;stroke-dashoffset:0;stroke-opacity:1;color-rendering:auto;image-rendering:auto;shape-rendering:auto;text-rendering:auto;enable-background:new" d="M14.438 8.169a2.734 2.734 0 0 0-1.848.002c-.654.233-1.307.714-1.97 1.496-.282.332-.452.797-.62 1.242-.177-.456-.362-.94-.62-1.242-.662-.779-1.315-1.258-1.968-1.49a2.747 2.747 0 0 0-1.848-.002C4.46 8.563 3.674 9.5 3.115 10.17a.5.5 0 1 0 .77.64c.545-.653 1.263-1.43 2.01-1.693a1.678 1.678 0 0 1 1.183 0c.44.156.958.512 1.541 1.197.2.234.566.92.64 1.278a.5.5 0 0 0 .491.398h.5a.5.5 0 0 0 .49-.402c.074-.373.378-.964.64-1.274.586-.689 1.107-1.046 1.546-1.203a1.661 1.661 0 0 1 1.18 0c.745.264 1.463 1.044 2.01 1.7a.5.5 0 1 0 .769-.641c-.56-.671-1.343-1.612-2.448-2.002z"/>
</svg>
