<svg xmlns="http://www.w3.org/2000/svg" viewBox="0 0 20 20" xml:space="preserve">
    <g style="display:inline;fill:#fff;enable-background:new">
        <g style="fill:#fff">
            <path style="color:#000;font-style:normal;font-variant:normal;font-weight:400;font-stretch:normal;font-size:medium;line-height:normal;font-family:sans-serif;font-variant-ligatures:normal;font-variant-position:normal;font-variant-caps:normal;font-variant-numeric:normal;font-variant-alternates:normal;font-feature-settings:normal;text-indent:0;text-align:start;text-decoration:none;text-decoration-line:none;text-decoration-style:solid;text-decoration-color:#000;letter-spacing:normal;word-spacing:normal;text-transform:none;writing-mode:lr-tb;direction:ltr;text-orientation:mixed;dominant-baseline:auto;baseline-shift:baseline;text-anchor:start;white-space:normal;shape-padding:0;clip-rule:nonzero;display:inline;overflow:visible;visibility:visible;opacity:.6;isolation:auto;mix-blend-mode:normal;color-interpolation:sRGB;color-interpolation-filters:linearRGB;solid-color:#000;solid-opacity:1;vector-effect:none;fill:#fff;fill-opacity:1;fill-rule:nonzero;stroke:none;stroke-width:1;stroke-linecap:round;stroke-linejoin:round;stroke-miterlimit:4;stroke-dasharray:none;stroke-dashoffset:0;stroke-opacity:1;marker:none;color-rendering:auto;image-rendering:auto;shape-rendering:auto;text-rendering:auto;enable-background:accumulate" d="M365.492 94.992a.5.5 0 0 0-.388.195.5.5 0 0 0-.004.006l-1.954 1.954a.5.5 0 1 0 .707.707L365 96.707V98.5a.5.5 0 1 0 1 0v-1.793l1.146 1.147a.5.5 0 1 0 .708-.708l-1.958-1.957a.5.5 0 0 0-.404-.197zm9.059 1.942a.5.5 0 0 0-.059.005h-2.931a.5.5 0 1 0 0 1h1.793l-3.147 3.147a.5.5 0 1 0 .707.707l3.147-3.146v1.792a.5.5 0 1 0 1 0v-2.931a.5.5 0 0 0-.51-.574zm-.057 7.06a.5.5 0 0 0-.347.86l1.146 1.146H371.5a.5.5 0 1 0 0 1h3.793l-1.147 1.146a.5.5 0 1 0 .708.708l1.957-1.958a.5.5 0 0 0 .002-.792.5.5 0 0 0-.006-.004l-1.954-1.954a.5.5 0 0 0-.359-.152z" transform="translate(-360 -92)"/>
        </g>
        <g style="fill:#fff">
            <path style="color:#000;font-style:normal;font-variant:normal;font-weight:400;font-stretch:normal;font-size:medium;line-height:normal;font-family:sans-serif;font-variant-ligatures:normal;font-variant-position:normal;font-variant-caps:normal;font-variant-numeric:normal;font-variant-alternates:normal;font-feature-settings:normal;text-indent:0;text-align:start;text-decoration:none;text-decoration-line:none;text-decoration-style:solid;text-decoration-color:#000;letter-spacing:normal;word-spacing:normal;text-transform:none;writing-mode:lr-tb;direction:ltr;text-orientation:mixed;dominant-baseline:auto;baseline-shift:baseline;text-anchor:start;white-space:normal;shape-padding:0;clip-rule:nonzero;display:inline;overflow:visible;visibility:visible;opacity:.98;isolation:auto;mix-blend-mode:normal;color-interpolation:sRGB;color-interpolation-filters:linearRGB;solid-color:#000;solid-opacity:1;vector-effect:none;fill:#fff;fill-opacity:1;fill-rule:nonzero;stroke:none;stroke-width:1;stroke-linecap:round;stroke-linejoin:round;stroke-miterlimit:4;stroke-dasharray:none;stroke-dashoffset:0;stroke-opacity:1;marker:none;paint-order:fill markers stroke;color-rendering:auto;image-rendering:auto;shape-rendering:auto;text-rendering:auto;enable-background:accumulate" d="M324.5 121c-1.146 0-1.862.565-2.184 1.127-.32.562-.316 1.123-.316 1.123V125h-.5a.5.5 0 0 0-.5.5v4a.5.5 0 0 0 .5.5h6a.5.5 0 0 0 .5-.5v-4a.5.5 0 0 0-.5-.5h-.5v-1.75s.005-.56-.316-1.123c-.322-.562-1.038-1.127-2.184-1.127zm0 1c.854 0 1.138.31 1.316.623.18.313.184.627.184.627V125h-3v-1.75s.005-.314.184-.627c.178-.313.462-.623 1.316-.623zm-.5 4h1v2h-1z" transform="translate(-318 -113)"/>
        </g>
    </g>
</svg>
