<svg xmlns="http://www.w3.org/2000/svg" viewBox="0 0 20 20" xml:space="preserve">
    <path style="color:#000;font-style:normal;font-variant:normal;font-weight:400;font-stretch:normal;font-size:medium;line-height:normal;font-family:sans-serif;font-variant-ligatures:normal;font-variant-position:normal;font-variant-caps:normal;font-variant-numeric:normal;font-variant-alternates:normal;font-feature-settings:normal;text-indent:0;text-align:start;text-decoration:none;text-decoration-line:none;text-decoration-style:solid;text-decoration-color:#000;letter-spacing:normal;word-spacing:normal;text-transform:none;writing-mode:lr-tb;direction:ltr;text-orientation:mixed;dominant-baseline:auto;baseline-shift:baseline;text-anchor:start;white-space:normal;shape-padding:0;clip-rule:nonzero;display:inline;overflow:visible;visibility:visible;isolation:auto;mix-blend-mode:normal;color-interpolation:sRGB;color-interpolation-filters:linearRGB;solid-color:#000;solid-opacity:1;vector-effect:none;fill:#fff;fill-opacity:1;fill-rule:nonzero;stroke:none;stroke-width:1;stroke-linecap:round;stroke-linejoin:round;stroke-miterlimit:4;stroke-dasharray:none;stroke-dashoffset:7.4;stroke-opacity:1;marker:none;color-rendering:auto;image-rendering:auto;shape-rendering:auto;text-rendering:auto;enable-background:accumulate" d="M9 5.996c-1.479 0-2.814.433-3.805 1.067C4.205 7.697 3.5 8.54 3.5 9.496c0 1.028.79 1.887 1.879 2.499 1.082.608 2.524.995 4.098 1 .012 0 3.756.273 6.023-2.211v2.712a.5.5 0 1 0 1 0v-4a.5.5 0 0 0-.5-.5h-4.25a.5.5 0 1 0 0 1h3.102c-1.878 2.165-5.32 2-5.32 2a.5.5 0 0 0-.032 0c-1.417 0-2.717-.36-3.629-.873C4.96 10.61 4.5 9.97 4.5 9.496c0-.41.416-1.067 1.234-1.591.82-.524 1.984-.909 3.266-.909a.5.5 0 1 0 0-1z"/>
</svg>
