<svg xmlns="http://www.w3.org/2000/svg" viewBox="0 0 20 20" xml:space="preserve">
    <g style="display:inline;fill:#fff;enable-background:new">
        <path d="M183.813 200.016a4.567 4.567 0 0 1 4.17 4.154 4.57 4.57 0 0 1-3.393 4.812.5.5 0 1 1-.254-.968 3.56 3.56 0 0 0 2.65-3.758 3.557 3.557 0 0 0-3.256-3.244 3.558 3.558 0 0 0-3.744 2.668.5.5 0 1 1-.968-.248 4.568 4.568 0 0 1 4.794-3.416z" style="color:#000;font-style:normal;font-variant:normal;font-weight:400;font-stretch:normal;font-size:medium;line-height:normal;font-family:sans-serif;font-variant-ligatures:normal;font-variant-position:normal;font-variant-caps:normal;font-variant-numeric:normal;font-variant-alternates:normal;font-feature-settings:normal;text-indent:0;text-align:start;text-decoration:none;text-decoration-line:none;text-decoration-style:solid;text-decoration-color:#000;letter-spacing:normal;word-spacing:normal;text-transform:none;writing-mode:lr-tb;direction:ltr;text-orientation:mixed;dominant-baseline:auto;baseline-shift:baseline;text-anchor:start;white-space:normal;shape-padding:0;clip-rule:nonzero;display:inline;overflow:visible;visibility:visible;opacity:.6;isolation:auto;mix-blend-mode:normal;color-interpolation:sRGB;color-interpolation-filters:linearRGB;solid-color:#000;solid-opacity:1;vector-effect:none;fill:#fff;fill-opacity:1;fill-rule:nonzero;stroke:none;stroke-width:1;stroke-linecap:round;stroke-linejoin:round;stroke-miterlimit:4;stroke-dasharray:none;stroke-dashoffset:0;stroke-opacity:1;color-rendering:auto;image-rendering:auto;shape-rendering:auto;text-rendering:auto;enable-background:new" transform="translate(-171 -197)"/>
        <g style="fill:#fff">
            <path d="M176.996 212.502a1.498 1.498 0 0 1-1.498 1.498 1.498 1.498 0 0 1-1.498-1.498 1.498 1.498 0 0 1 1.498-1.498 1.498 1.498 0 0 1 1.498 1.498zm2.393-7.412a4.496 4.496 0 0 1 3.26 6.154 4.503 4.503 0 0 1-4.18 2.756.5.5 0 1 1 .008-1c1.419.01 2.7-.836 3.25-2.145a3.497 3.497 0 0 0-.744-3.822 3.496 3.496 0 0 0-3.817-.77A3.497 3.497 0 0 0 175 209.5a.5.5 0 1 1-1 0 4.503 4.503 0 0 1 5.389-4.41z" style="opacity:1;vector-effect:none;fill:#fff;fill-opacity:1;stroke:none;stroke-width:1;stroke-linecap:square;stroke-linejoin:round;stroke-miterlimit:4;stroke-dasharray:none;stroke-dashoffset:0;stroke-opacity:1;marker:none;paint-order:fill markers stroke" transform="matrix(-1 0 0 1 186 -197)"/>
        </g>
    </g>
</svg>
